<svg width="103" height="76" viewBox="0 0 103 76" fill="none" xmlns="http://www.w3.org/2000/svg">
<g clip-path="url(#clip0_1176_1114)">
<path d="M102.429 4.50607H0.570544C0.419277 4.5059 0.274253 4.44562 0.167291 4.33845C0.0603291 4.23127 0.000165336 4.08596 0 3.9344V0.571673C0.000165336 0.420108 0.0603291 0.274797 0.167291 0.167624C0.274253 0.0604504 0.419277 0.000169136 0.570544 3.8147e-06H102.429C102.581 0.000169477 102.726 0.0604523 102.833 0.167625C102.94 0.274799 103 0.420108 103 0.571673V3.9344C103 4.08597 102.94 4.23128 102.833 4.33845C102.726 4.44562 102.581 4.5059 102.429 4.50607Z" fill="white"/>
<path d="M3.31113 2.90064C3.7585 2.90064 4.12116 2.53726 4.12116 2.08901C4.12116 1.64076 3.7585 1.27738 3.31113 1.27738C2.86376 1.27738 2.5011 1.64076 2.5011 2.08901C2.5011 2.53726 2.86376 2.90064 3.31113 2.90064Z" fill="#9E9EA7"/>
<path d="M6.38571 2.90064C6.83308 2.90064 7.19574 2.53726 7.19574 2.08901C7.19574 1.64076 6.83308 1.27738 6.38571 1.27738C5.93835 1.27738 5.57568 1.64076 5.57568 2.08901C5.57568 2.53726 5.93835 2.90064 6.38571 2.90064Z" fill="#9E9EA7"/>
<path d="M9.46042 2.90064C9.90779 2.90064 10.2704 2.53726 10.2704 2.08901C10.2704 1.64076 9.90779 1.27738 9.46042 1.27738C9.01305 1.27738 8.65039 1.64076 8.65039 2.08901C8.65039 2.53726 9.01305 2.90064 9.46042 2.90064Z" fill="#9E9EA7"/>
<path d="M99.4169 1.53037H95.8764C95.807 1.53022 95.7404 1.50246 95.6914 1.4532C95.6423 1.40394 95.6147 1.33718 95.6147 1.26759C95.6147 1.198 95.6423 1.13125 95.6914 1.08199C95.7404 1.03272 95.807 1.00497 95.8764 1.00481H99.4169C99.4864 1.00476 99.5531 1.03236 99.6023 1.08154C99.6515 1.13072 99.6793 1.19746 99.6794 1.2671C99.6795 1.33674 99.6521 1.40358 99.603 1.45295C99.554 1.50231 99.4874 1.53016 99.4179 1.53037H99.4169Z" fill="#4630AB"/>
<path d="M99.4169 2.5158H95.8764C95.807 2.51564 95.7404 2.48789 95.6914 2.43863C95.6423 2.38936 95.6147 2.32261 95.6147 2.25302C95.6147 2.18343 95.6423 2.11668 95.6914 2.06741C95.7404 2.01815 95.807 1.9904 95.8764 1.99024H99.4169C99.4864 1.99019 99.5531 2.01779 99.6023 2.06697C99.6515 2.11615 99.6793 2.18289 99.6794 2.25253C99.6795 2.32217 99.6521 2.38901 99.603 2.43838C99.554 2.48774 99.4874 2.51559 99.4179 2.5158H99.4169Z" fill="#4630AB"/>
<path d="M99.417 3.50122H95.8765C95.807 3.50122 95.7403 3.47353 95.6911 3.42425C95.6419 3.37497 95.6143 3.30813 95.6143 3.23844C95.6143 3.16875 95.6419 3.10191 95.6911 3.05262C95.7403 3.00334 95.807 2.97566 95.8765 2.97566H99.417C99.4866 2.97553 99.5534 3.00309 99.6026 3.05228C99.6519 3.10146 99.6797 3.16825 99.6798 3.23794C99.6799 3.30764 99.6524 3.37453 99.6033 3.4239C99.5542 3.47327 99.4876 3.50108 99.418 3.50122H99.417Z" fill="#4630AB"/>
<path d="M29.0437 66.8227C29.4185 63.8028 31.2864 60.8274 34.1607 59.8447C33.0271 62.9529 33.0274 66.3628 34.1614 69.4709C34.6031 70.6679 35.2187 71.9533 34.8033 73.1598C34.5448 73.9105 33.9124 74.4848 33.2056 74.8439C32.4987 75.2031 31.7142 75.3742 30.9395 75.542L30.787 75.6683C29.5572 72.8859 28.6689 69.8425 29.0437 66.8227Z" fill="white"/>
<path d="M34.1892 59.9018C32.5154 61.781 31.475 64.141 31.2159 66.6464C31.1506 67.1847 31.1704 67.7301 31.2745 68.2623C31.3927 68.7774 31.6464 69.2514 32.0092 69.6351C32.3404 69.9997 32.7212 70.3341 32.9582 70.773C33.0761 70.9995 33.145 71.2483 33.1602 71.5033C33.1754 71.7583 33.1367 72.0136 33.0465 72.2525C32.8374 72.8537 32.425 73.3438 32.0052 73.8089C31.5391 74.3254 31.0468 74.8544 30.8486 75.5392C30.8246 75.6221 30.6975 75.5799 30.7215 75.4971C31.0662 74.3058 32.2204 73.6292 32.7708 72.5562C33.0276 72.0555 33.1354 71.4743 32.8946 70.9458C32.6841 70.4836 32.2916 70.1384 31.9531 69.7722C31.5937 69.4031 31.3299 68.9514 31.1848 68.4566C31.054 67.9315 31.0133 67.3878 31.0645 66.849C31.1604 65.634 31.4464 64.4417 31.9119 63.3157C32.4362 62.0277 33.1764 60.8391 34.1007 59.8012C34.1579 59.737 34.2461 59.838 34.1892 59.9018L34.1892 59.9018Z" fill="#9E9EA7"/>
<path d="M31.2519 65.8347C30.8383 65.7341 30.4739 65.4894 30.2236 65.1444C29.9734 64.7994 29.8538 64.3765 29.886 63.9512C29.8875 63.9339 29.8956 63.9178 29.9087 63.9064C29.9218 63.8949 29.9388 63.889 29.9561 63.8899C29.9734 63.8908 29.9898 63.8983 30.0016 63.911C30.0135 63.9237 30.02 63.9405 30.0197 63.9579C29.989 64.3539 30.1005 64.7478 30.3341 65.0686C30.5678 65.3894 30.9082 65.6159 31.2939 65.7073C31.3777 65.7273 31.3353 65.8545 31.2519 65.8347Z" fill="#9E9EA7"/>
<path d="M31.8171 69.4724C32.5641 69.0254 33.1156 68.3128 33.3615 67.4765C33.3858 67.3937 33.5129 67.4358 33.4886 67.5186C33.2311 68.3883 32.6557 69.1288 31.8773 69.5922C31.803 69.6363 31.7432 69.5163 31.8171 69.4724Z" fill="#9E9EA7"/>
<path d="M32.5604 62.1548C32.7123 62.2271 32.8798 62.2605 33.0478 62.252C33.2158 62.2434 33.3791 62.1932 33.523 62.1058C33.5966 62.0608 33.6563 62.1808 33.5832 62.2256C33.4238 62.3214 33.2434 62.3767 33.0578 62.3865C32.8722 62.3964 32.687 62.3605 32.5184 62.2821C32.5019 62.2761 32.4883 62.2639 32.4804 62.2482C32.4725 62.2325 32.4709 62.2143 32.4759 62.1974C32.4815 62.1806 32.4935 62.1667 32.5094 62.1587C32.5252 62.1507 32.5435 62.1493 32.5604 62.1548Z" fill="white"/>
<path d="M42.9222 65.2385C42.877 65.2679 42.8318 65.2973 42.7866 65.3279C42.1813 65.7267 41.6093 66.1742 41.0762 66.6659C41.0344 66.7032 40.9926 66.7417 40.952 66.7802C39.6804 67.9784 38.6419 69.4028 37.8893 70.9809C37.5904 71.6091 37.3396 72.2592 37.1391 72.9256C36.8623 73.8459 36.6353 74.8658 36.0874 75.6185C36.0311 75.6977 35.97 75.7733 35.9043 75.8449H30.9528C30.9415 75.8392 30.9302 75.8347 30.9189 75.829L30.7212 75.8381C30.7291 75.803 30.7381 75.7668 30.7461 75.7317C30.7506 75.7113 30.7562 75.691 30.7607 75.6706C30.7641 75.657 30.7675 75.6434 30.7698 75.631C30.7709 75.6264 30.7721 75.6219 30.7732 75.6185C30.7754 75.6061 30.7788 75.5947 30.7811 75.5834C30.8308 75.3808 30.882 75.1782 30.9347 74.9755C30.9347 74.9744 30.9347 74.9744 30.9358 74.9733C31.3228 73.4255 31.8916 71.9291 32.6304 70.5156C32.653 70.4738 32.6756 70.4307 32.7005 70.3889C33.0426 69.7631 33.4351 69.1665 33.8743 68.6049C34.1157 68.2981 34.3725 68.0038 34.6436 67.7231C35.3456 66.9991 36.1568 66.3902 37.0476 65.9188C38.8236 64.9792 40.8796 64.6193 42.7776 65.1932C42.8261 65.2079 42.8736 65.2226 42.9222 65.2385Z" fill="white"/>
<path d="M42.911 65.3015C40.4453 65.7921 38.1966 67.0488 36.4843 68.8929C36.1086 69.2834 35.7967 69.7307 35.5601 70.2185C35.3449 70.7011 35.2626 71.2326 35.3218 71.7579C35.3671 72.2487 35.4703 72.7455 35.3957 73.2389C35.3539 73.4908 35.2593 73.7311 35.1182 73.9439C34.9772 74.1566 34.7928 74.3371 34.5773 74.4735C34.049 74.8273 33.4254 74.9698 32.8106 75.088C32.1281 75.2192 31.4171 75.3446 30.8475 75.7718C30.7785 75.8235 30.7023 75.7132 30.7713 75.6615C31.7623 74.9183 33.0904 75.0743 34.1746 74.5496C34.6805 74.3048 35.1158 73.9057 35.2412 73.3385C35.3508 72.8425 35.2449 72.33 35.1947 71.8335C35.1294 71.3219 35.1902 70.8022 35.3717 70.3196C35.5828 69.8213 35.8769 69.3627 36.2416 68.9633C37.0482 68.0511 37.993 67.2717 39.0413 66.6535C40.2338 65.9413 41.5391 65.4388 42.9007 65.1677C42.985 65.151 42.9947 65.2848 42.911 65.3015H42.911Z" fill="#9E9EA7"/>
<path d="M37.0008 68.2666C36.731 67.9368 36.587 67.5215 36.5945 67.0951C36.6021 66.6687 36.7606 66.2589 37.0419 65.9388C37.099 65.8742 37.2019 65.9602 37.1446 66.0248C36.8822 66.3224 36.7345 66.7042 36.7283 67.1013C36.7221 67.4983 36.8578 67.8846 37.1108 68.1902C37.1657 68.2567 37.0554 68.3327 37.0008 68.2666Z" fill="#9E9EA7"/>
<path d="M35.2661 71.512C36.1311 71.6058 36.9997 71.3695 37.6985 70.8501C37.7677 70.7986 37.8439 70.9089 37.7748 70.9604C37.0465 71.4995 36.1421 71.7436 35.2422 71.644C35.1564 71.6344 35.1808 71.5025 35.2661 71.512Z" fill="#9E9EA7"/>
<path d="M40.2566 66.1177C40.3345 66.2671 40.4481 66.3948 40.5874 66.4894C40.7267 66.5839 40.8872 66.6423 41.0546 66.6593C41.1404 66.6677 41.116 66.7996 41.0307 66.7912C40.8459 66.7716 40.6686 66.7069 40.5145 66.6028C40.3604 66.4987 40.2341 66.3584 40.1466 66.1941C40.137 66.1793 40.1335 66.1614 40.1366 66.1441C40.1398 66.1267 40.1494 66.1112 40.1635 66.1008C40.1781 66.0907 40.1961 66.0869 40.2135 66.09C40.231 66.0932 40.2465 66.1031 40.2566 66.1177L40.2566 66.1177Z" fill="white"/>
<path d="M33.3854 23.4467H17.0032C16.4969 23.4461 16.0116 23.2443 15.6536 22.8856C15.2957 22.527 15.0943 22.0406 15.0938 21.5334V12.5933C15.0943 12.086 15.2957 11.5997 15.6536 11.2411C16.0116 10.8824 16.497 10.6807 17.0032 10.6801H33.3854C33.8916 10.6807 34.3769 10.8824 34.7349 11.2411C35.0929 11.5997 35.2942 12.086 35.2948 12.5933V21.5334C35.2942 22.0406 35.0929 22.527 34.7349 22.8856C34.377 23.2443 33.8916 23.4461 33.3854 23.4467V23.4467Z" fill="white"/>
<path d="M58.3962 23.4467H42.0141C41.5078 23.4461 41.0225 23.2443 40.6645 22.8856C40.3065 22.527 40.1052 22.0406 40.1046 21.5334V12.5933C40.1052 12.086 40.3065 11.5997 40.6645 11.2411C41.0225 10.8824 41.5078 10.6807 42.0141 10.6801H58.3962C58.9025 10.6807 59.3878 10.8824 59.7458 11.2411C60.1037 11.5997 60.3051 12.086 60.3057 12.5933V21.5334C60.3051 22.0406 60.1037 22.527 59.7458 22.8856C59.3878 23.2443 58.9025 23.4461 58.3962 23.4467Z" fill="#4630AB"/>
<path d="M83.4069 23.4467H67.0248C66.5185 23.4461 66.0332 23.2443 65.6752 22.8856C65.3173 22.527 65.1159 22.0406 65.1154 21.5334V12.5933C65.1159 12.086 65.3173 11.5997 65.6752 11.2411C66.0332 10.8824 66.5186 10.6807 67.0248 10.6801H83.4069C83.9132 10.6807 84.3985 10.8824 84.7565 11.2411C85.1145 11.5997 85.3158 12.086 85.3164 12.5933V21.5334C85.3158 22.0406 85.1145 22.527 84.7565 22.8856C84.3985 23.2443 83.9132 23.4461 83.4069 23.4467Z" fill="white"/>
<path d="M33.3854 43.3664H17.0032C16.4969 43.3658 16.0116 43.164 15.6536 42.8053C15.2957 42.4466 15.0943 41.9603 15.0938 41.4531V32.5129C15.0943 32.0057 15.2957 31.5194 15.6536 31.1607C16.0116 30.8021 16.497 30.6003 17.0032 30.5998H33.3854C33.8916 30.6003 34.3769 30.8021 34.7349 31.1607C35.0929 31.5194 35.2942 32.0057 35.2948 32.5129V41.4531C35.2942 41.9603 35.0929 42.4466 34.7349 42.8053C34.377 43.164 33.8916 43.3658 33.3854 43.3664Z" fill="white"/>
<path d="M58.3962 43.3664H42.0141C41.5078 43.3658 41.0225 43.164 40.6645 42.8053C40.3065 42.4466 40.1052 41.9603 40.1046 41.4531V32.5129C40.1052 32.0057 40.3065 31.5194 40.6645 31.1607C41.0225 30.8021 41.5078 30.6003 42.0141 30.5998H58.3962C58.9025 30.6003 59.3878 30.8021 59.7458 31.1607C60.1037 31.5194 60.3051 32.0057 60.3057 32.5129V41.4531C60.3051 41.9603 60.1037 42.4466 59.7458 42.8053C59.3878 43.164 58.9025 43.3658 58.3962 43.3664Z" fill="white"/>
<path d="M59.5529 45.0114C61.1688 45.0114 62.4788 43.6989 62.4788 42.0797C62.4788 40.4606 61.1688 39.148 59.5529 39.148C57.9369 39.148 56.627 40.4606 56.627 42.0797C56.627 43.6989 57.9369 45.0114 59.5529 45.0114Z" fill="#4630AB"/>
<path d="M60.7679 41.8336H59.7731V40.8368C59.7731 40.806 59.7671 40.7755 59.7553 40.747C59.7435 40.7186 59.7263 40.6927 59.7045 40.6709C59.6828 40.6491 59.657 40.6319 59.6286 40.6201C59.6002 40.6083 59.5698 40.6022 59.539 40.6022V40.6022C59.5083 40.6022 59.4778 40.6083 59.4494 40.6201C59.421 40.6319 59.3952 40.6491 59.3735 40.6709C59.3518 40.6927 59.3345 40.7186 59.3228 40.747C59.311 40.7755 59.3049 40.806 59.3049 40.8368V41.8336H58.3101C58.2794 41.8336 58.2489 41.8396 58.2205 41.8514C58.1921 41.8632 58.1663 41.8805 58.1446 41.9022C58.1229 41.924 58.1056 41.9499 58.0939 41.9783C58.0821 42.0068 58.076 42.0373 58.076 42.0681V42.0681C58.076 42.0989 58.0821 42.1294 58.0939 42.1579C58.1056 42.1863 58.1229 42.2122 58.1446 42.234C58.1663 42.2557 58.1921 42.273 58.2205 42.2848C58.2489 42.2966 58.2794 42.3027 58.3101 42.3027H59.3049V43.2994C59.3049 43.3302 59.311 43.3607 59.3228 43.3892C59.3345 43.4176 59.3518 43.4435 59.3735 43.4653C59.3952 43.4871 59.421 43.5043 59.4494 43.5161C59.4778 43.5279 59.5083 43.534 59.539 43.534V43.534C59.6011 43.534 59.6607 43.5093 59.7046 43.4653C59.7485 43.4213 59.7731 43.3616 59.7731 43.2994V42.3026H60.7679C60.7986 42.3026 60.8291 42.2966 60.8575 42.2848C60.8859 42.273 60.9117 42.2557 60.9334 42.2339C60.9552 42.2122 60.9724 42.1863 60.9842 42.1579C60.9959 42.1294 61.002 42.0989 61.002 42.0681V42.0681C61.002 42.0373 60.9959 42.0068 60.9842 41.9783C60.9724 41.9499 60.9552 41.924 60.9334 41.9022C60.9117 41.8805 60.8859 41.8632 60.8575 41.8514C60.8291 41.8396 60.7986 41.8335 60.7679 41.8335V41.8335L60.7679 41.8336Z" fill="white"/>
<path d="M84.9485 25.6058C86.5644 25.6058 87.8744 24.2932 87.8744 22.6741C87.8744 21.055 86.5644 19.7424 84.9485 19.7424C83.3326 19.7424 82.0226 21.055 82.0226 22.6741C82.0226 24.2932 83.3326 25.6058 84.9485 25.6058Z" fill="#4630AB"/>
<path d="M86.1635 22.4279H85.1687V21.4312C85.1687 21.4004 85.1627 21.3699 85.1509 21.3414C85.1392 21.3129 85.1219 21.2871 85.1002 21.2653C85.0784 21.2435 85.0526 21.2262 85.0242 21.2145C84.9958 21.2027 84.9654 21.1966 84.9347 21.1966V21.1966C84.9039 21.1966 84.8735 21.2027 84.8451 21.2145C84.8167 21.2262 84.7909 21.2435 84.7691 21.2653C84.7474 21.2871 84.7301 21.3129 84.7184 21.3414C84.7066 21.3699 84.7006 21.4004 84.7006 21.4312V22.4279H83.7058C83.675 22.4279 83.6446 22.434 83.6162 22.4458C83.5878 22.4576 83.562 22.4748 83.5402 22.4966C83.5185 22.5184 83.5013 22.5443 83.4895 22.5727C83.4777 22.6012 83.4717 22.6317 83.4717 22.6625V22.6625C83.4717 22.6933 83.4777 22.7238 83.4895 22.7522C83.5013 22.7807 83.5185 22.8066 83.5402 22.8283C83.562 22.8501 83.5878 22.8674 83.6162 22.8792C83.6446 22.891 83.675 22.897 83.7058 22.897H84.7006V23.8938C84.7006 23.9246 84.7066 23.9551 84.7184 23.9836C84.7302 24.012 84.7474 24.0379 84.7691 24.0597C84.7909 24.0814 84.8167 24.0987 84.8451 24.1105C84.8735 24.1223 84.9039 24.1284 84.9347 24.1284V24.1284C84.9967 24.1284 85.0563 24.1036 85.1002 24.0597C85.1441 24.0157 85.1687 23.956 85.1687 23.8938V22.897H86.1635C86.1943 22.897 86.2247 22.891 86.2531 22.8792C86.2815 22.8674 86.3073 22.8501 86.3291 22.8283C86.3508 22.8065 86.368 22.7807 86.3798 22.7522C86.3916 22.7238 86.3976 22.6933 86.3976 22.6625V22.6625C86.3976 22.6317 86.3916 22.6012 86.3798 22.5727C86.368 22.5443 86.3508 22.5184 86.3291 22.4966C86.3073 22.4748 86.2815 22.4576 86.2531 22.4458C86.2247 22.434 86.1943 22.4279 86.1635 22.4279V22.4279L86.1635 22.4279Z" fill="white"/>
<path d="M34.5421 25.3488C36.1581 25.3488 37.468 24.0362 37.468 22.4171C37.468 20.798 36.1581 19.4854 34.5421 19.4854C32.9262 19.4854 31.6162 20.798 31.6162 22.4171C31.6162 24.0362 32.9262 25.3488 34.5421 25.3488Z" fill="#4630AB"/>
<path d="M35.7571 22.1709H34.7623V21.1741C34.7623 21.1433 34.7562 21.1128 34.7444 21.0844C34.7327 21.0559 34.7154 21.0301 34.6937 21.0083C34.672 20.9865 34.6461 20.9692 34.6177 20.9574C34.5893 20.9457 34.5589 20.9396 34.5282 20.9396V20.9396C34.4974 20.9396 34.467 20.9457 34.4386 20.9574C34.4102 20.9692 34.3844 20.9865 34.3626 21.0083C34.3409 21.0301 34.3237 21.0559 34.3119 21.0844C34.3001 21.1128 34.2941 21.1433 34.2941 21.1741V21.1741V22.1709H33.2993C33.2685 22.1709 33.2381 22.177 33.2097 22.1888C33.1813 22.2005 33.1555 22.2178 33.1338 22.2396C33.112 22.2614 33.0948 22.2872 33.083 22.3157C33.0712 22.3442 33.0652 22.3747 33.0652 22.4055V22.4055C33.0652 22.4677 33.0898 22.5273 33.1337 22.5713C33.1776 22.6153 33.2372 22.64 33.2993 22.64H34.2941V23.6368C34.2941 23.6676 34.3001 23.6981 34.3119 23.7265C34.3237 23.755 34.3409 23.7808 34.3626 23.8026C34.3844 23.8244 34.4102 23.8417 34.4386 23.8535C34.467 23.8653 34.4974 23.8713 34.5282 23.8713V23.8713C34.5589 23.8713 34.5893 23.8653 34.6177 23.8535C34.6461 23.8417 34.672 23.8244 34.6937 23.8026C34.7154 23.7809 34.7327 23.755 34.7444 23.7265C34.7562 23.6981 34.7623 23.6676 34.7623 23.6368V22.64H35.7571C35.7878 22.64 35.8182 22.6339 35.8466 22.6221C35.875 22.6104 35.9008 22.5931 35.9226 22.5713C35.9443 22.5495 35.9616 22.5237 35.9733 22.4952C35.9851 22.4668 35.9911 22.4362 35.9911 22.4054V22.4054C35.9911 22.3432 35.9665 22.2836 35.9226 22.2396C35.8787 22.1956 35.8191 22.1709 35.7571 22.1709V22.1709V22.1709Z" fill="white"/>
<path d="M56.4477 18.3672C56.5011 18.529 56.5184 18.7005 56.4985 18.8698C56.4785 19.039 56.4218 19.2018 56.3323 19.3467C56.2428 19.4915 56.1226 19.615 55.9803 19.7083C55.8381 19.8016 55.6771 19.8626 55.5087 19.8868L54.1558 29.1399L51.9365 28.0539L54.1687 18.8175C54.1468 18.5315 54.2304 18.2473 54.4036 18.0189C54.5769 17.7905 54.8277 17.6336 55.1086 17.5781C55.3895 17.5226 55.681 17.5723 55.9278 17.7177C56.1746 17.8631 56.3596 18.0942 56.4477 18.3672L56.4477 18.3672Z" fill="#9E616A"/>
<path d="M40.2887 48.0025C40.3875 47.8638 40.4547 47.7051 40.4857 47.5376C40.5166 47.37 40.5105 47.1977 40.4678 47.0327C40.4251 46.8678 40.3469 46.7143 40.2385 46.5829C40.1302 46.4515 39.9944 46.3456 39.8408 46.2725L40.7535 36.4301L38.8418 37.4119L38.2449 46.8964C38.1395 47.1631 38.1353 47.4593 38.2333 47.7289C38.3313 47.9985 38.5245 48.2227 38.7764 48.359C39.0284 48.4954 39.3214 48.5344 39.6002 48.4687C39.8789 48.403 40.1238 48.2371 40.2887 48.0025H40.2887Z" fill="#9E616A"/>
<path d="M41.5947 43.0245L49.7984 42.7083L50.2717 34.1723H40.8059L41.5947 43.0245Z" fill="#9E616A"/>
<path d="M40.072 73.1701L41.4739 73.17L42.1408 67.7522H40.0718L40.072 73.1701Z" fill="#9E616A"/>
<path d="M39.7244 72.4772L41.9404 72.3447V73.296L44.0473 74.754C44.1514 74.826 44.2297 74.9294 44.271 75.0492C44.3122 75.169 44.3142 75.2988 44.2765 75.4198C44.2389 75.5408 44.1636 75.6465 44.0618 75.7216C43.9599 75.7967 43.8367 75.8372 43.7103 75.8372H41.072L40.6172 74.8962L40.4397 75.8372H39.4449L39.7244 72.4772Z" fill="#2F2E41"/>
<path d="M46.3074 73.1701L47.7093 73.17L48.3761 67.7522H46.3071L46.3074 73.1701Z" fill="#9E616A"/>
<path d="M41.4808 41.0206C41.4808 41.0206 39.0262 43.0062 40.3568 50.0974C40.1542 50.1216 40.3836 50.5217 40.3836 50.5217L40.5756 56.2997L40.724 56.9619L40.2307 58.0304L40.4341 59.1914L39.8071 69.7285L42.1232 70.0286L44.3395 59.0865L44.7616 57.8563L45.185 56.7779L44.9566 55.628L45.1439 53.8432L46.4216 47.8251L46.7344 58.2627L46.2979 59.2592L46.5408 60.353L45.9997 60.9337L45.7858 70.6995L48.2554 70.8152L50.2988 60.9706L50.1403 59.7144L50.4122 58.7855V56.6158L50.8778 55.5917L51.8928 50.0081C51.8928 50.0081 52.199 45.644 49.9648 40.5085L41.4808 41.0206Z" fill="#2F2E41"/>
<path d="M42.4812 27.078C42.4812 27.078 39.381 27.6924 38.8468 30.3416C38.3126 32.9908 37.9689 38.9858 37.9689 38.9858L38.0859 39.8207L41.0848 40.5174L42.9989 32.1174L42.4812 27.078Z" fill="#3F3D56"/>
<path d="M49.5565 27.9722C49.5565 27.9722 49.8708 27.531 51.6306 27.4629C51.7031 27.4601 51.6134 27.3161 51.6134 27.3161L52.4597 23.1712L55.2803 24.7359L54.8042 29.0813L50.1694 34.3633L49.5565 27.9722Z" fill="#3F3D56"/>
<path d="M47.7983 40.329C46.4705 40.3291 44.4717 40.1822 41.4628 39.7347C41.269 39.7054 41.0896 39.6148 40.9508 39.4761C40.812 39.3374 40.7212 39.1578 40.6915 38.9637C40.5932 38.8598 40.5293 38.728 40.5084 38.5864C40.4874 38.4447 40.5106 38.3001 40.5746 38.1721L40.5774 38.1666L40.5092 38.086C40.4038 37.9619 40.3418 37.8066 40.3329 37.6439C40.3239 37.4811 40.3684 37.3199 40.4596 37.185L39.5277 30.5055C39.4332 29.8422 39.5779 29.1668 39.936 28.6009C40.294 28.035 40.8418 27.6157 41.4809 27.4184L41.8249 27.3111L43.1257 25.6061L43.1514 25.6064L47.3277 25.6621L48.6829 27.3866L50.8737 27.9042L50.8794 27.9376L51.3881 30.8824C51.6526 32.414 51.0459 33.0165 50.2715 34.3633L50.4988 38.1461L50.6019 38.3338C50.6592 38.4377 50.6783 38.5584 50.6561 38.675C50.6339 38.7916 50.5717 38.8967 50.4803 38.9722C50.5495 39.1701 50.5542 39.3848 50.4938 39.5855L50.4402 39.763C50.4403 39.7681 50.426 39.8402 50.3103 39.9282C50.1018 40.0869 49.503 40.329 47.7983 40.329Z" fill="#3F3D56"/>
<path d="M45.9596 72.4772L48.1757 72.3447V73.296L50.2825 74.754C50.3866 74.826 50.465 74.9294 50.5062 75.0492C50.5474 75.169 50.5494 75.2988 50.5117 75.4198C50.4741 75.5408 50.3989 75.6465 50.297 75.7216C50.1951 75.7967 50.072 75.8372 49.9455 75.8372H47.3072L46.8525 74.8962L46.6749 75.8372H45.6802L45.9596 72.4772Z" fill="#2F2E41"/>
<path d="M48.2871 21.8908C48.5767 20.1024 47.3646 18.4173 45.5797 18.1271C43.7949 17.8369 42.1131 19.0514 41.8235 20.8398C41.5339 22.6282 42.746 24.3133 44.5309 24.6035C46.3157 24.8937 47.9974 23.6792 48.2871 21.8908Z" fill="#9E616A"/>
<path d="M46.9698 18.1598C45.7698 17.3329 44.7131 17.2069 43.845 17.4414C43.7325 17.267 43.5747 17.1267 43.3886 17.0353C42.7116 15.3261 40.6513 14.2996 38.8832 14.7986C37.1036 15.3008 35.8758 17.2759 36.2106 19.0977C36.4181 20.227 37.1274 21.2048 37.4127 22.3169C37.965 24.4697 36.6178 26.9357 34.5103 27.6297C36.5057 28.0311 38.7022 26.8099 39.418 24.9009C39.7657 23.9737 39.7867 22.9613 39.8309 21.9718C39.8425 21.2888 39.926 20.6089 40.0801 19.9434C40.1565 19.6449 40.2645 19.3554 40.4022 19.0798C40.7022 18.474 41.2005 17.9897 41.8138 17.7075C41.7589 17.8778 41.7452 18.0586 41.7738 18.2352C41.8023 18.4118 41.8724 18.579 41.9782 18.7231C41.5103 19.3105 41.2555 19.9457 41.2555 20.3261C40.2834 22.1064 41.6736 23.6355 43.4504 24.6096C44.159 25.0001 44.9773 25.143 45.7761 25.0158L45.8504 24.6979L45.9511 24.9843L46.2873 25.9444C46.6752 26.1324 47.0597 26.3385 47.4408 26.5627C47.296 25.8814 47.1789 25.2013 47.0983 24.5364C46.9867 23.6314 47.3757 22.2841 47.6563 21.4648C47.8303 20.9598 47.9196 20.4295 47.9205 19.8953V19.8719L48.1938 20.7513L49.1885 20.3261C49.0035 19.2625 49.1886 18.0551 46.9698 18.1598Z" fill="#2F2E41"/>
<path d="M87.8807 76H15.1192C15.0789 75.9998 15.0402 75.9836 15.0117 75.9549C14.9833 75.9262 14.9673 75.8874 14.9673 75.847C14.9673 75.8065 14.9833 75.7677 15.0117 75.7391C15.0402 75.7104 15.0789 75.6942 15.1192 75.694H87.8807C87.9211 75.6942 87.9598 75.7104 87.9882 75.7391C88.0167 75.7677 88.0327 75.8065 88.0327 75.847C88.0327 75.8874 88.0167 75.9262 87.9882 75.9549C87.9598 75.9836 87.9211 75.9998 87.8807 76V76Z" fill="#CCCCCC"/>
<path d="M34.2076 45.3967C35.8236 45.3967 37.1336 44.0841 37.1336 42.465C37.1336 40.8459 35.8236 39.5333 34.2076 39.5333C32.5917 39.5333 31.2817 40.8459 31.2817 42.465C31.2817 44.0841 32.5917 45.3967 34.2076 45.3967Z" fill="#9E9EA7"/>
<path d="M78.2311 40.7801H67.9686C67.6515 40.7797 67.3474 40.6533 67.1232 40.4286C66.899 40.2039 66.7728 39.8993 66.7725 39.5815V33.981C66.7728 33.6633 66.899 33.3587 67.1232 33.134C67.3475 32.9093 67.6515 32.7829 67.9686 32.7826H78.2311C78.5482 32.7829 78.8523 32.9093 79.0765 33.134C79.3008 33.3587 79.4269 33.6633 79.4273 33.981V39.5815C79.4269 39.8993 79.3008 40.2039 79.0765 40.4286C78.8523 40.6533 78.5483 40.7797 78.2311 40.7801V40.7801Z" fill="white"/>
<path d="M78.3823 38.5052C79.2405 38.5052 79.9361 37.8082 79.9361 36.9483C79.9361 36.0885 79.2405 35.3914 78.3823 35.3914C77.5242 35.3914 76.8285 36.0885 76.8285 36.9483C76.8285 37.8082 77.5242 38.5052 78.3823 38.5052Z" fill="#4630AB"/>
<path d="M79.0276 36.8176H78.4993V36.2882C78.4993 36.2719 78.496 36.2557 78.4898 36.2406C78.4835 36.2255 78.4744 36.2117 78.4629 36.2002C78.4513 36.1886 78.4376 36.1794 78.4225 36.1732C78.4074 36.1669 78.3913 36.1637 78.3749 36.1637C78.342 36.1637 78.3104 36.1768 78.287 36.2002C78.2637 36.2235 78.2506 36.2552 78.2506 36.2882V36.8176H77.7223C77.6894 36.8176 77.6577 36.8307 77.6344 36.8541C77.6111 36.8774 77.598 36.9091 77.598 36.9421V36.9421C77.598 36.9585 77.6012 36.9747 77.6075 36.9898C77.6137 37.0049 77.6229 37.0187 77.6344 37.0302C77.646 37.0418 77.6597 37.051 77.6748 37.0572C77.6898 37.0635 77.706 37.0667 77.7223 37.0667H78.2506V37.596C78.2506 37.6124 78.2538 37.6286 78.2601 37.6437C78.2663 37.6588 78.2755 37.6726 78.287 37.6841C78.2986 37.6957 78.3123 37.7049 78.3274 37.7111C78.3425 37.7174 78.3586 37.7206 78.375 37.7206V37.7206C78.4079 37.7206 78.4395 37.7075 78.4629 37.6841C78.4862 37.6608 78.4993 37.6291 78.4993 37.596V37.0667H79.0276C79.0605 37.0667 79.0922 37.0536 79.1155 37.0302C79.1388 37.0069 79.1519 36.9752 79.1519 36.9421V36.9421C79.1519 36.9258 79.1487 36.9096 79.1424 36.8945C79.1362 36.8794 79.127 36.8656 79.1155 36.8541C79.1039 36.8425 79.0902 36.8333 79.0751 36.8271C79.0601 36.8208 79.0439 36.8176 79.0276 36.8176L79.0276 36.8176Z" fill="white"/>
<path d="M82.4122 39.1908H73.955C73.596 39.1904 73.2519 39.0473 72.9981 38.793C72.7443 38.5387 72.6015 38.1939 72.6011 37.8342V32.7759C72.6012 32.7097 72.6276 32.6463 72.6743 32.5996C72.7211 32.5528 72.7845 32.5266 72.8505 32.5266C72.9166 32.5266 72.9799 32.5528 73.0267 32.5996C73.0735 32.6463 73.0998 32.7097 73.0999 32.7759V34.1306L82.9235 35.0254C83.1197 35.0289 83.3068 35.1093 83.4444 35.2495C83.582 35.3897 83.6592 35.5784 83.6594 35.7751C83.6594 35.7905 83.658 35.8059 83.6551 35.8211L83.1601 38.4665C83.1533 38.6608 83.0715 38.8448 82.932 38.9799C82.7926 39.115 82.6062 39.1906 82.4122 39.1908V39.1908ZM73.1 34.6325V37.8342C73.1002 38.0614 73.1904 38.2791 73.3507 38.4397C73.511 38.6003 73.7283 38.6907 73.955 38.6909H82.4123C82.4784 38.6908 82.5418 38.6645 82.5886 38.6176C82.6353 38.5708 82.6616 38.5072 82.6617 38.441C82.6617 38.4255 82.6631 38.4101 82.666 38.3949L83.1598 35.7558C83.1549 35.693 83.1266 35.6345 83.0805 35.5917C83.0344 35.549 82.9739 35.5252 82.9111 35.5251C82.9036 35.5251 82.8961 35.5248 82.8886 35.5241L73.1 34.6325Z" fill="#4630AB"/>
<path d="M71.7077 41.5234C71.9373 41.5234 72.1234 41.3369 72.1234 41.1069C72.1234 40.8768 71.9373 40.6903 71.7077 40.6903C71.4781 40.6903 71.292 40.8768 71.292 41.1069C71.292 41.3369 71.4781 41.5234 71.7077 41.5234Z" fill="#4630AB"/>
<path d="M82.0795 41.5234C82.3091 41.5234 82.4953 41.3369 82.4953 41.1069C82.4953 40.8768 82.3091 40.6903 82.0795 40.6903C81.8499 40.6903 81.6638 40.8768 81.6638 41.1069C81.6638 41.3369 81.8499 41.5234 82.0795 41.5234Z" fill="#4630AB"/>
<path d="M82.4953 40.6903H71.375C71.3089 40.6903 71.2455 40.664 71.1987 40.6171C71.1519 40.5703 71.1256 40.5067 71.1256 40.4404C71.1256 40.3741 71.1519 40.3106 71.1987 40.2637C71.2455 40.2168 71.3089 40.1905 71.375 40.1905H82.4953C82.5615 40.1905 82.6249 40.2168 82.6717 40.2637C82.7185 40.3106 82.7447 40.3741 82.7447 40.4404C82.7447 40.5067 82.7185 40.5703 82.6717 40.6171C82.6249 40.664 82.5615 40.6903 82.4953 40.6903V40.6903Z" fill="#4630AB"/>
<path d="M73.5156 32.9425H71.3539C71.2878 32.9424 71.2245 32.916 71.1778 32.8691C71.1312 32.8223 71.105 32.7588 71.105 32.6926C71.105 32.6264 71.1312 32.5629 71.1778 32.5161C71.2245 32.4692 71.2878 32.4428 71.3539 32.4427H73.5156C73.5817 32.4428 73.645 32.4692 73.6916 32.5161C73.7383 32.5629 73.7645 32.6264 73.7645 32.6926C73.7645 32.7588 73.7383 32.8223 73.6916 32.8691C73.645 32.916 73.5817 32.9424 73.5156 32.9425V32.9425Z" fill="#4630AB"/>
<path d="M75.2498 40.5631C75.1902 40.5632 75.1326 40.5417 75.0874 40.5027L73.4479 39.091C73.4229 39.0697 73.4025 39.0436 73.3876 39.0143C73.3728 38.985 73.3638 38.953 73.3613 38.9203C73.3588 38.8875 73.3628 38.8545 73.373 38.8233C73.3832 38.7921 73.3995 38.7632 73.4208 38.7382C73.4422 38.7133 73.4683 38.6929 73.4976 38.678C73.5268 38.6632 73.5587 38.6543 73.5915 38.6519C73.6242 38.6494 73.657 38.6535 73.6882 38.6638C73.7193 38.6741 73.7481 38.6904 73.773 38.7119L75.4125 40.1236C75.4511 40.1569 75.4787 40.2012 75.4914 40.2506C75.5042 40.3001 75.5015 40.3522 75.4838 40.4001C75.4661 40.4479 75.4342 40.4892 75.3923 40.5184C75.3505 40.5475 75.3008 40.5631 75.2498 40.5631V40.5631Z" fill="#4630AB"/>
<path d="M75.5954 39.0372C75.5626 39.0372 75.5302 39.0308 75.4999 39.0182C75.4697 39.0057 75.4422 38.9873 75.419 38.9641C75.3959 38.9409 75.3775 38.9133 75.3649 38.883C75.3524 38.8527 75.3459 38.8202 75.3459 38.7873V34.7754C75.3459 34.7091 75.3722 34.6455 75.419 34.5986C75.4658 34.5518 75.5292 34.5254 75.5954 34.5254C75.6615 34.5254 75.725 34.5518 75.7718 34.5986C75.8185 34.6455 75.8448 34.7091 75.8448 34.7754V38.7873C75.8448 38.8201 75.8384 38.8526 75.8258 38.883C75.8133 38.9133 75.7949 38.9408 75.7718 38.964C75.7486 38.9872 75.7211 39.0057 75.6909 39.0182C75.6606 39.0308 75.6282 39.0372 75.5954 39.0372H75.5954Z" fill="#4630AB"/>
<path d="M80.8644 39.0372C80.8317 39.0372 80.7992 39.0308 80.769 39.0182C80.7387 39.0057 80.7112 38.9873 80.6881 38.9641C80.6649 38.9409 80.6465 38.9133 80.634 38.883C80.6214 38.8527 80.615 38.8202 80.615 38.7873V35.1086C80.6151 35.0424 80.6415 34.979 80.6882 34.9322C80.735 34.8855 80.7984 34.8592 80.8644 34.8592C80.9305 34.8592 80.9938 34.8855 81.0406 34.9322C81.0874 34.979 81.1137 35.0424 81.1139 35.1086V38.7873C81.1139 38.8201 81.1074 38.8526 81.0949 38.883C81.0823 38.9133 81.064 38.9408 81.0408 38.964C81.0177 38.9872 80.9902 39.0057 80.9599 39.0182C80.9296 39.0308 80.8972 39.0372 80.8644 39.0372H80.8644Z" fill="#4630AB"/>
</g>
<defs>
<clipPath id="clip0_1176_1114">
<rect width="103" height="76" fill="white"/>
</clipPath>
</defs>
</svg>
