<svg width="96" height="64" viewBox="0 0 96 64" fill="none" xmlns="http://www.w3.org/2000/svg">
<g clip-path="url(#clip0_1116_1481)">
<path d="M92.8116 58.189C92.3822 58.3492 91.9211 58.3893 91.4729 58.3055C91.0246 58.2217 90.6042 58.0169 90.2522 57.7108C89.3558 56.9125 89.0747 55.5979 88.8461 54.3803L88.1697 50.7788L89.5858 51.8132C90.6042 52.5571 91.6456 53.3249 92.3506 54.4024C93.0557 55.4798 93.3634 56.9508 92.797 58.1167" fill="#E6E6E6"/>
<path d="M92.5928 62.8C92.771 61.4225 92.9544 60.0271 92.8291 58.6348C92.718 57.3982 92.3624 56.1906 91.6384 55.2001C91.2541 54.6754 90.7865 54.2259 90.2565 53.8717C90.1184 53.7792 89.9912 54.0115 90.1288 54.1036C91.0457 54.7183 91.7549 55.6261 92.1542 56.696C92.5951 57.8857 92.6659 59.1827 92.59 60.4465C92.5441 61.2108 92.4465 61.9701 92.3485 62.7285C92.3408 62.7628 92.3456 62.7989 92.3621 62.8296C92.3785 62.8603 92.4053 62.8832 92.437 62.8937C92.4694 62.9029 92.5039 62.8983 92.533 62.8807C92.5622 62.8631 92.5836 62.8341 92.5927 62.7999L92.5928 62.8Z" fill="#F2F2F2"/>
<path d="M91.3102 60.5896C91.126 60.8866 90.8729 61.1283 90.5751 61.2914C90.2774 61.4545 89.945 61.5335 89.6101 61.5207C88.7493 61.4774 88.032 60.8403 87.3863 60.2353L85.4761 58.4461L86.7403 58.3819C87.6494 58.3357 88.5821 58.2923 89.448 58.5901C90.314 58.8879 91.1126 59.6034 91.2709 60.5543" fill="#E6E6E6"/>
<path d="M93.0969 63.5919C92.2388 61.9812 91.2435 60.1911 89.465 59.6189C88.9706 59.4604 88.4521 59.4036 87.9375 59.4516C87.7753 59.4664 87.8158 59.7316 87.9777 59.7169C88.8403 59.6409 89.7012 59.8825 90.4155 60.401C91.1029 60.8974 91.6381 61.5875 92.091 62.3192C92.3685 62.7674 92.617 63.2347 92.8656 63.7013C92.945 63.8504 93.1772 63.7427 93.0969 63.5919Z" fill="#F2F2F2"/>
<path d="M58.9823 1.69336H0.76001V31.0019H58.9823V1.69336Z" fill="#E6E6E6"/>
<path d="M57.3179 4.20654H2.42529V28.6596H57.3179V4.20654Z" fill="white"/>
<path d="M58.9577 0H0.735352V2.62396H58.9577V0Z" fill="#4630AB"/>
<path d="M2.57344 2.02932C2.82663 2.02932 3.03188 1.81158 3.03188 1.54298C3.03188 1.27438 2.82663 1.05664 2.57344 1.05664C2.32024 1.05664 2.11499 1.27438 2.11499 1.54298C2.11499 1.81158 2.32024 2.02932 2.57344 2.02932Z" fill="white"/>
<path d="M4.31367 2.02932C4.56686 2.02932 4.77212 1.81158 4.77212 1.54298C4.77212 1.27438 4.56686 1.05664 4.31367 1.05664C4.06048 1.05664 3.85522 1.27438 3.85522 1.54298C3.85522 1.81158 4.06048 2.02932 4.31367 2.02932Z" fill="white"/>
<path d="M6.05366 2.02932C6.30685 2.02932 6.51211 1.81158 6.51211 1.54298C6.51211 1.27438 6.30685 1.05664 6.05366 1.05664C5.80047 1.05664 5.59521 1.27438 5.59521 1.54298C5.59521 1.81158 5.80047 2.02932 6.05366 2.02932Z" fill="white"/>
<path d="M54.6225 23.7072H27.4052C27.3827 23.7072 27.361 23.6977 27.345 23.6807C27.329 23.6638 27.3201 23.6408 27.3201 23.6168V9.77786C27.3201 9.75389 27.329 9.73091 27.345 9.71396C27.361 9.69702 27.3827 9.6875 27.4052 9.6875C27.4278 9.6875 27.4495 9.69702 27.4655 9.71396C27.4815 9.73091 27.4904 9.75389 27.4904 9.77786V23.5265H54.6225C54.6451 23.5265 54.6667 23.536 54.6827 23.5529C54.6987 23.5699 54.7077 23.5929 54.7077 23.6168C54.7077 23.6408 54.6987 23.6638 54.6827 23.6807C54.6667 23.6977 54.6451 23.7072 54.6225 23.7072V23.7072Z" fill="#3F3D56"/>
<path d="M33.2208 22.7132H30.7453C30.6782 22.7131 30.614 22.6849 30.5666 22.6346C30.5192 22.5843 30.4925 22.5161 30.4924 22.445V18.8249C30.4925 18.7537 30.5192 18.6856 30.5666 18.6353C30.614 18.585 30.6782 18.5567 30.7453 18.5566H33.2208C33.2878 18.5567 33.3521 18.585 33.3995 18.6353C33.4469 18.6856 33.4736 18.7537 33.4736 18.8249V22.445C33.4736 22.5161 33.4469 22.5843 33.3995 22.6346C33.3521 22.6849 33.2878 22.7131 33.2208 22.7132Z" fill="#4630AB"/>
<path d="M37.7354 22.7131H35.2599C35.1929 22.713 35.1286 22.6847 35.0812 22.6344C35.0338 22.5841 35.0072 22.516 35.0071 22.4449V15.391C35.0072 15.3199 35.0338 15.2517 35.0812 15.2014C35.1286 15.1512 35.1929 15.1229 35.2599 15.1228H37.7354C37.8025 15.1229 37.8667 15.1512 37.9141 15.2014C37.9615 15.2517 37.9882 15.3199 37.9883 15.391V22.4449C37.9882 22.516 37.9616 22.5841 37.9142 22.6344C37.8667 22.6847 37.8025 22.713 37.7354 22.7131Z" fill="#4630AB"/>
<path d="M42.2498 22.7132H39.7743C39.7073 22.7131 39.643 22.6849 39.5956 22.6346C39.5482 22.5843 39.5216 22.5161 39.5215 22.445V18.8249C39.5216 18.7537 39.5482 18.6856 39.5956 18.6353C39.643 18.585 39.7073 18.5567 39.7743 18.5566H42.2498C42.3169 18.5567 42.3811 18.585 42.4285 18.6353C42.4759 18.6856 42.5026 18.7537 42.5027 18.8249V22.445C42.5026 22.5161 42.4759 22.5843 42.4285 22.6346C42.3811 22.6849 42.3169 22.7131 42.2498 22.7132Z" fill="#4630AB"/>
<path d="M46.7638 22.7131H44.2883C44.2227 22.7146 44.1593 22.6884 44.112 22.6405C44.0646 22.5925 44.037 22.5265 44.0354 22.457V14.0235C44.037 13.954 44.0646 13.888 44.112 13.84C44.1593 13.792 44.2227 13.7659 44.2883 13.7674H46.7638C46.8293 13.7659 46.8927 13.792 46.9401 13.84C46.9875 13.888 47.015 13.954 47.0166 14.0235V22.457C47.015 22.5265 46.9875 22.5925 46.9401 22.6405C46.8927 22.6884 46.8293 22.7146 46.7638 22.7131Z" fill="#4630AB"/>
<path d="M51.2791 22.713H48.8036C48.7366 22.713 48.6723 22.6847 48.6249 22.6344C48.5775 22.5841 48.5509 22.5159 48.5508 22.4448V11.5959C48.5509 11.5247 48.5775 11.4566 48.6249 11.4063C48.6723 11.356 48.7366 11.3277 48.8036 11.3276H51.2791C51.3462 11.3277 51.4104 11.356 51.4578 11.4063C51.5052 11.4566 51.5319 11.5247 51.532 11.5959V22.4448C51.5319 22.5159 51.5052 22.5841 51.4578 22.6344C51.4104 22.6847 51.3462 22.713 51.2791 22.713Z" fill="#4630AB"/>
<path d="M31.9835 17.4723C32.2657 17.4723 32.4946 17.2295 32.4946 16.9301C32.4946 16.6307 32.2657 16.3879 31.9835 16.3879C31.7012 16.3879 31.4724 16.6307 31.4724 16.9301C31.4724 17.2295 31.7012 17.4723 31.9835 17.4723Z" fill="#3F3D56"/>
<path d="M36.4979 13.9481C36.7801 13.9481 37.0089 13.7054 37.0089 13.4059C37.0089 13.1065 36.7801 12.8638 36.4979 12.8638C36.2156 12.8638 35.9868 13.1065 35.9868 13.4059C35.9868 13.7054 36.2156 13.9481 36.4979 13.9481Z" fill="#3F3D56"/>
<path d="M41.012 17.4723C41.2943 17.4723 41.5231 17.2295 41.5231 16.9301C41.5231 16.6307 41.2943 16.3879 41.012 16.3879C40.7298 16.3879 40.501 16.6307 40.501 16.9301C40.501 17.2295 40.7298 17.4723 41.012 17.4723Z" fill="#3F3D56"/>
<path d="M45.5262 12.2313C45.8084 12.2313 46.0373 11.9886 46.0373 11.6891C46.0373 11.3897 45.8084 11.147 45.5262 11.147C45.2439 11.147 45.0151 11.3897 45.0151 11.6891C45.0151 11.9886 45.2439 12.2313 45.5262 12.2313Z" fill="#3F3D56"/>
<path d="M50.0408 10.2435C50.3231 10.2435 50.5519 10.0008 50.5519 9.70134C50.5519 9.40191 50.3231 9.15918 50.0408 9.15918C49.7586 9.15918 49.5298 9.40191 49.5298 9.70134C49.5298 10.0008 49.7586 10.2435 50.0408 10.2435Z" fill="#3F3D56"/>
<path d="M41.023 17.0516L36.4979 13.4559L32.0345 17.0025L31.9324 16.8578L36.4979 13.2301L41.0015 16.8087L45.4769 11.6132L45.4949 11.6054L50.0093 9.67578L50.073 9.84345L45.5765 11.7653L41.023 17.0516Z" fill="#3F3D56"/>
<path d="M16.3611 7.19531H8.63013V7.81175H16.3611V7.19531Z" fill="#E6E6E6"/>
<path d="M20.5684 9.00513H8.63013V9.62156H20.5684V9.00513Z" fill="#4630AB"/>
<path d="M18.4836 10.7285H8.75415V11.3449H18.4836V10.7285Z" fill="#E6E6E6"/>
<path d="M14.31 12.6194H8.63013V13.2358H14.31V12.6194Z" fill="#E6E6E6"/>
<path d="M17.2025 14.4666H8.63013V15.083H17.2025V14.4666Z" fill="#4630AB"/>
<path d="M6.05309 7.00146H5.10645V8.00571H6.05309V7.00146Z" fill="#E6E6E6"/>
<path d="M6.05309 8.81104H5.10645V9.81528H6.05309V8.81104Z" fill="#4630AB"/>
<path d="M6.05309 10.5347H5.10645V11.5389H6.05309V10.5347Z" fill="#E6E6E6"/>
<path d="M6.05309 12.4255H5.10645V13.4298H6.05309V12.4255Z" fill="#E6E6E6"/>
<path d="M6.05309 14.2727H5.10645V15.2769H6.05309V14.2727Z" fill="#4630AB"/>
<path d="M16.3611 16.3252H8.63013V16.9416H16.3611V16.3252Z" fill="#E6E6E6"/>
<path d="M20.5684 18.135H8.63013V18.7514H20.5684V18.135Z" fill="#4630AB"/>
<path d="M18.4836 19.8584H8.75415V20.4748H18.4836V19.8584Z" fill="#E6E6E6"/>
<path d="M14.31 21.7493H8.63013V22.3657H14.31V21.7493Z" fill="#E6E6E6"/>
<path d="M17.2025 23.5964H8.63013V24.2129H17.2025V23.5964Z" fill="#E6E6E6"/>
<path d="M6.05309 16.1313H5.10645V17.1356H6.05309V16.1313Z" fill="#E6E6E6"/>
<path d="M6.05309 17.9409H5.10645V18.9452H6.05309V17.9409Z" fill="#4630AB"/>
<path d="M6.05309 19.6646H5.10645V20.6688H6.05309V19.6646Z" fill="#E6E6E6"/>
<path d="M6.05309 21.5554H5.10645V22.5597H6.05309V21.5554Z" fill="#E6E6E6"/>
<path d="M6.05309 23.4026H5.10645V24.4068H6.05309V23.4026Z" fill="#E6E6E6"/>
<path d="M71.3984 18.9039C71.724 17.8029 72.4645 16.7932 73.4887 16.421C74.5128 16.0488 76.2994 16.3967 76.7824 17.4298C77.4784 18.9187 77.1658 20.7421 76.7967 22.3587C76.6042 22.3479 76.41 22.3394 76.2152 22.3317L75.9396 21.3573V22.3221C74.4192 22.2722 72.8363 22.3034 71.2525 22.3357C71.1106 21.1912 71.0727 20.0048 71.3984 18.9039Z" fill="#2F2E41"/>
<path d="M85.3693 60.8553L84.0902 61.4239L81.4141 56.4611L83.3017 55.6218L85.3693 60.8553Z" fill="#FFB7B7"/>
<path d="M86.2152 62.0256L82.0912 63.8591L82.0693 63.8037C81.8909 63.3521 81.8889 62.8438 82.0638 62.3906C82.2387 61.9374 82.576 61.5765 83.0017 61.3872L83.0018 61.3872L85.5207 60.2673L86.2152 62.0256Z" fill="#2F2E41"/>
<path d="M66.6122 37.412C66.5323 37.2897 66.4787 37.1503 66.4551 37.0036C66.4315 36.8569 66.4385 36.7065 66.4756 36.563C66.5127 36.4195 66.579 36.2864 66.6699 36.173C66.7607 36.0597 66.8739 35.9688 67.0015 35.9069L69.7505 27.1069L71.5915 28.1486L68.3104 36.4711C68.3943 36.7053 68.3943 36.964 68.3104 37.1982C68.2265 37.4324 68.0646 37.6258 67.8553 37.7417C67.6459 37.8577 67.4038 37.8882 67.1747 37.8274C66.9456 37.7667 66.7454 37.6188 66.6122 37.412V37.412Z" fill="#FFB7B7"/>
<path d="M70.0021 62.4329L68.6153 62.4328L67.9556 56.7583L70.0023 56.7584L70.0021 62.4329Z" fill="#FFB7B7"/>
<path d="M70.3553 63.8591L65.8838 63.859V63.799C65.8838 63.3093 66.0672 62.8397 66.3936 62.4934C66.72 62.1472 67.1627 61.9527 67.6242 61.9526H67.6244L70.3554 61.9528L70.3553 63.8591Z" fill="#2F2E41"/>
<path d="M75.5617 30.1576L75.876 31.0243L75.8131 31.891L69.78 31.091L69.9686 30.3577L70.6598 29.491L75.5617 30.1576Z" fill="#FFB7B7"/>
<path d="M73.6173 22.3584C74.8304 22.3584 75.8138 21.3152 75.8138 20.0283C75.8138 18.7415 74.8304 17.6982 73.6173 17.6982C72.4043 17.6982 71.4209 18.7415 71.4209 20.0283C71.4209 21.3152 72.4043 22.3584 73.6173 22.3584Z" fill="#FFB8B8"/>
<path d="M75.9099 31.0867L69.9274 30.4116L69.6682 29.5123C69.5877 29.3952 68.8283 28.2535 68.9967 27.1123C69.0384 26.8434 69.1318 26.5865 69.2711 26.3576C69.4103 26.1286 69.5925 25.9325 69.8062 25.7813L71.2607 23.9745L72.5404 23.1665L75.063 22.8989L75.0717 22.901L77.3364 23.4446L77.3089 27.8487L75.9099 31.0867Z" fill="#CCCCCC"/>
<path d="M70.0775 31.5533L68.4014 31.3421L68.4057 31.2863C68.4212 31.0899 68.7878 26.4659 69.1632 25.4038C69.5467 24.3189 71.2078 23.9809 71.2783 23.9671L71.2987 23.9631L71.6679 24.1981L70.6491 27.5753L70.0775 31.5533Z" fill="#CCCCCC"/>
<path d="M75.8768 31.5578V33.0387C75.8768 33.0387 77.5107 35.2913 76.6309 37.0247C76.6309 37.0247 78.5162 40.7581 78.6419 42.0915L80.4016 48.225C80.4016 48.225 84.8007 52.8918 84.4237 56.2253L84.675 57.292L81.7842 58.6254L81.1557 57.692L76.2538 48.7584L72.1061 40.6248L71.3519 50.2251C71.3519 50.2251 71.8547 57.692 70.4721 58.492L70.3464 59.6921H67.4125V58.5514C67.4125 58.5514 66.3243 54.4919 66.9528 51.4251L66.7014 38.4914C66.7014 38.4914 67.8326 33.0246 69.2152 32.0912L69.718 30.7578L75.8768 31.5578Z" fill="#2F2E41"/>
<path d="M73.7869 34.6196C73.8376 34.6317 73.8873 34.648 73.9355 34.6684L77.77 31.8684L77.6822 30.6723L79.3665 30.2959L79.7158 32.3973C79.744 32.5671 79.7195 32.742 79.6461 32.8957C79.5726 33.0495 79.4541 33.1738 79.3084 33.2501L74.5586 35.7351C74.5406 35.9465 74.4624 36.1471 74.3343 36.3101C74.2062 36.4732 74.0343 36.591 73.8416 36.6479C73.6488 36.7049 73.4443 36.6982 73.2552 36.6288C73.0661 36.5594 72.9014 36.4306 72.783 36.2595C72.6646 36.0883 72.5982 35.883 72.5924 35.6709C72.5867 35.4587 72.642 35.2497 72.751 35.0717C72.86 34.8937 73.0175 34.7551 73.2025 34.6743C73.3875 34.5936 73.5914 34.5745 73.7869 34.6196L73.7869 34.6196Z" fill="#FFB7B7"/>
<path d="M77.7341 32.0229L76.9536 26.4995L76.313 23.6462L77.2702 23.434C77.2962 23.4237 78.0756 23.1443 78.7048 23.5943C79.1577 23.9182 79.4086 24.5329 79.4505 25.4213L79.704 31.7415L77.7341 32.0229Z" fill="#CCCCCC"/>
<path d="M72.1086 16.9942C72.5306 16.7212 73.014 16.5736 73.5083 16.5667C74.0025 16.5597 74.4894 16.6938 74.9181 16.9549C75.3467 17.2159 75.7014 17.5943 75.945 18.0506C76.1887 18.5068 76.3123 19.0241 76.3029 19.5484C75.0752 19.6083 73.7854 19.6239 72.4777 19.6265L72.1686 18.8241L71.9864 19.6271C71.5879 19.6271 71.1887 19.6265 70.7887 19.6255C70.7723 19.1027 70.8857 18.5845 71.1173 18.1228C71.3489 17.661 71.6907 17.2718 72.1086 16.9942Z" fill="#2F2E41"/>
<path d="M95.1265 64H53.4237C53.3946 64 53.3668 63.9878 53.3463 63.966C53.3257 63.9443 53.3142 63.9147 53.3142 63.8839C53.3142 63.8531 53.3257 63.8236 53.3463 63.8018C53.3668 63.7801 53.3946 63.7678 53.4237 63.7678H95.1265C95.1555 63.7678 95.1833 63.7801 95.2039 63.8018C95.2244 63.8236 95.2359 63.8531 95.2359 63.8839C95.2359 63.9147 95.2244 63.9443 95.2039 63.966C95.1833 63.9878 95.1555 64 95.1265 64Z" fill="#CBCBCB"/>
</g>
<defs>
<clipPath id="clip0_1116_1481">
<rect width="94.5" height="64" fill="white" transform="translate(0.735352)"/>
</clipPath>
</defs>
</svg>
