<svg width="94" height="67" viewBox="0 0 94 67" fill="none" xmlns="http://www.w3.org/2000/svg">
<g clip-path="url(#clip0_1278_537)">
<path d="M68.6903 66.0194C66.1015 65.587 63.6125 65.2193 61.2232 64.9162L62.1433 62.9532C61.8239 62.8396 60.44 63.9752 60.44 63.9752L61.611 58.2971C60.0142 58.5243 59.269 64.3159 59.269 64.3159L57.4592 62.3854L58.3501 64.5711C51.0386 63.7516 44.7295 63.4958 39.426 63.5545L40.2135 61.8743C39.8941 61.7608 38.5102 62.8964 38.5102 62.8964L39.6812 57.2183C38.0844 57.4454 37.3392 63.2371 37.3392 63.2371L35.5294 61.3065L36.473 63.6216C32.8401 63.7342 29.2151 64.0456 25.6121 64.5546C26.3979 61.9432 29.1421 59.4328 29.1421 59.4328C27.0321 60.133 25.9344 61.2739 25.3662 62.3314C25.2513 56.9663 26.025 51.6216 27.6517 46.5435C27.6517 46.5435 23.3935 56.764 24.0323 63.5778L24.1133 64.7881C20.4087 65.4046 18.5498 66.0194 18.5498 66.0194H68.6903Z" fill="#3F3D56"/>
<path d="M78.4496 51.9531C78.1969 51.9531 77.9499 51.8732 77.7399 51.7235C77.5298 51.5737 77.366 51.3609 77.2694 51.1119C77.1727 50.8629 77.1474 50.5889 77.1967 50.3245C77.246 50.0602 77.3676 49.8174 77.5463 49.6268C77.7249 49.4362 77.9526 49.3064 78.2004 49.2538C78.4482 49.2013 78.705 49.2283 78.9384 49.3314C79.1719 49.4345 79.3714 49.6092 79.5117 49.8333C79.6521 50.0574 79.727 50.3209 79.727 50.5904C79.7266 50.9517 79.5919 51.2981 79.3524 51.5536C79.113 51.809 78.7883 51.9527 78.4496 51.9531V51.9531ZM78.4496 49.4548C78.239 49.4548 78.0332 49.5214 77.8581 49.6462C77.6831 49.771 77.5466 49.9483 77.4661 50.1558C77.3855 50.3633 77.3644 50.5917 77.4055 50.812C77.4466 51.0322 77.5479 51.2346 77.6968 51.3934C77.8457 51.5522 78.0354 51.6604 78.2419 51.7042C78.4484 51.748 78.6624 51.7255 78.857 51.6396C79.0515 51.5536 79.2177 51.4081 79.3347 51.2213C79.4517 51.0346 79.5141 50.815 79.5141 50.5904C79.5138 50.2893 79.4015 50.0007 79.202 49.7878C79.0024 49.5749 78.7318 49.4551 78.4496 49.4548V49.4548Z" fill="#3F3D56"/>
<path d="M88.6513 65.8406H86.5498V63.5988H88.6513V65.8406ZM86.7115 65.6682H88.4897V63.7712H86.7115V65.6682Z" fill="#3F3D56"/>
<path d="M17.5008 65.9633L16.0674 64.3239L17.6042 62.7948L19.0376 64.4342L17.5008 65.9633ZM16.2959 64.3324L17.5088 65.7196L18.8091 64.4257L17.5962 63.0385L16.2959 64.3324Z" fill="#3F3D56"/>
<path d="M93.8674 65.714H2.54712V65.9411H93.8674V65.714Z" fill="#3F3D56"/>
<path d="M59.16 15.1901V22.6488C59.1598 22.7177 59.1341 22.7838 59.0884 22.8325C59.0427 22.8812 58.9808 22.9087 58.9162 22.9089H58.7427V61.7642C58.7426 62.8394 58.3422 63.8706 57.6295 64.6308C56.9168 65.3911 55.9501 65.8183 54.9422 65.8183H32.1831C31.6841 65.8183 31.19 65.7134 30.729 65.5096C30.268 65.3058 29.8491 65.0072 29.4963 64.6307C29.1435 64.2543 28.8636 63.8073 28.6727 63.3155C28.4819 62.8236 28.3836 62.2965 28.3837 61.7642V24.2716H28.2581C28.2125 24.2717 28.1688 24.2525 28.1365 24.2182C28.1041 24.184 28.0859 24.1374 28.0857 24.0888V19.8438C28.0857 19.8197 28.0901 19.7958 28.0988 19.7734C28.1074 19.7511 28.1202 19.7308 28.1362 19.7137C28.1522 19.6967 28.1712 19.6831 28.1921 19.6739C28.213 19.6646 28.2355 19.6599 28.2581 19.6599H28.3837V18.0609H28.2571C28.2092 18.0607 28.1634 18.0403 28.1297 18.0041C28.0959 17.9679 28.077 17.9189 28.0771 17.8679V13.6808C28.0773 13.63 28.0963 13.5812 28.13 13.5453C28.1637 13.5093 28.2094 13.489 28.2571 13.4889H28.3837V11.3062H28.2549C28.2339 11.3063 28.2132 11.3019 28.1938 11.2933C28.1744 11.2848 28.1568 11.2722 28.1419 11.2564C28.1271 11.2406 28.1154 11.2218 28.1073 11.2011C28.0993 11.1804 28.0952 11.1583 28.0952 11.1359V8.85103C28.0951 8.80572 28.1119 8.76221 28.1418 8.73007C28.1718 8.69792 28.2124 8.67975 28.2549 8.67955H28.3837V4.05303C28.3838 2.97811 28.7841 1.94723 29.4966 1.18715C30.2091 0.427066 31.1755 3.91515e-05 32.1831 0H54.9422C55.95 -4.85949e-06 56.9165 0.426971 57.6292 1.18703C58.3419 1.94709 58.7424 2.97799 58.7427 4.05303V14.93H58.9162C58.9808 14.9302 59.0427 14.9577 59.0884 15.0064C59.1341 15.0551 59.1598 15.1212 59.16 15.1901V15.1901Z" fill="#3F3D56"/>
<path d="M44.6595 2.07898H40.9613C40.8118 2.07898 40.6907 2.20822 40.6907 2.36764V2.70863C40.6907 2.86805 40.8118 2.99729 40.9613 2.99729H44.6595C44.8089 2.99729 44.9301 2.86805 44.9301 2.70863V2.36764C44.9301 2.20822 44.8089 2.07898 44.6595 2.07898Z" fill="#E6E8EC"/>
<path d="M46.0591 3.05895C46.3287 3.05895 46.5473 2.82575 46.5473 2.53808C46.5473 2.25041 46.3287 2.01721 46.0591 2.01721C45.7894 2.01721 45.5708 2.25041 45.5708 2.53808C45.5708 2.82575 45.7894 3.05895 46.0591 3.05895Z" fill="#E6E8EC"/>
<path d="M56.9237 4.8549V62.1004C56.924 62.4727 56.8484 62.8405 56.7021 63.1784C56.5558 63.5163 56.3422 63.8161 56.0763 64.0571C55.6401 64.4538 55.0857 64.6716 54.5125 64.6715H32.7264C32.3388 64.6721 31.9567 64.5728 31.6129 64.3819C31.5321 64.3378 31.4539 64.2885 31.3787 64.2343C31.0512 63.9986 30.783 63.6808 30.5976 63.3088C30.4122 62.9367 30.3152 62.5218 30.3152 62.1004V4.8549C30.3152 4.51711 30.3775 4.18263 30.4987 3.87055C30.6199 3.55847 30.7975 3.27491 31.0214 3.03606C31.2453 2.7972 31.5111 2.60774 31.8037 2.47848C32.0962 2.34922 32.4097 2.2827 32.7264 2.28271H35.9871V2.72901C35.9871 3.29072 36.1963 3.82943 36.5686 4.22661C36.941 4.6238 37.446 4.84694 37.9725 4.84695H49.0524C49.579 4.84694 50.0839 4.62381 50.4563 4.22662C50.8286 3.82943 51.0378 3.29072 51.0378 2.72901V2.28271H54.5125C54.8292 2.28261 55.1428 2.34906 55.4353 2.47829C55.7279 2.60751 55.9938 2.79697 56.2177 3.03584C56.4416 3.27472 56.6192 3.55831 56.7404 3.87043C56.8615 4.18256 56.9238 4.51708 56.9237 4.8549Z" fill="#4630AB"/>
<path opacity="0.3" d="M56.9237 53.9058V62.1004C56.924 62.4726 56.8484 62.8405 56.7021 63.1783C56.5558 63.5162 56.3422 63.8161 56.0763 64.0571C55.6401 64.4537 55.0857 64.6715 54.5125 64.6715H32.7264C32.3388 64.6721 31.9567 64.5727 31.6129 64.3819C31.5321 64.3377 31.4539 64.2884 31.3787 64.2342C31.0512 63.9986 30.783 63.6808 30.5976 63.3087C30.4122 62.9367 30.3152 62.5218 30.3152 62.1004V53.9092C33.9683 50.4062 38.7067 48.4679 43.6188 48.4673C48.5309 48.4667 53.2698 50.4037 56.9237 53.9058Z" fill="white"/>
<path opacity="0.3" d="M55.6273 64.3796C55.2833 64.5724 54.9003 64.6726 54.5117 64.6715H32.7256C32.338 64.6721 31.9559 64.5728 31.6121 64.3819C32.5983 61.8515 34.265 59.6894 36.4019 58.1684C38.5388 56.6473 41.0501 55.8354 43.619 55.8352C46.1879 55.835 48.6993 56.6463 50.8364 58.167C52.9736 59.6876 54.6406 61.8494 55.6273 64.3796V64.3796Z" fill="white"/>
<path opacity="0.3" d="M50.8865 64.517C50.6783 64.6336 50.4465 64.6943 50.2114 64.6936H37.0281C36.7935 64.694 36.5623 64.6338 36.3542 64.5184C36.9511 62.9872 37.9596 61.6788 39.2527 60.7584C40.5458 59.838 42.0654 59.3467 43.6199 59.3466C45.1744 59.3464 46.6942 59.8374 47.9874 60.7576C49.2806 61.6778 50.2894 62.9859 50.8865 64.517V64.517Z" fill="white"/>
<path d="M49.1608 24.4443C46.9754 24.4443 44.577 24.0004 42.7047 22.5024C40.0979 20.4168 36.8862 20.5281 34.651 20.9888C33.1663 21.2974 31.7252 21.8095 30.3636 22.5123L30.2651 22.3109C31.6434 21.5989 33.1021 21.08 34.6051 20.767C36.8842 20.2964 40.1617 20.184 42.8325 22.3207C47.8358 26.3238 56.7949 22.7285 56.8847 22.6918L56.961 22.9039C55.281 23.5427 53.5433 23.9939 51.776 24.2504C50.9092 24.3765 50.0356 24.4413 49.1608 24.4443Z" fill="white"/>
<path opacity="0.3" d="M30.3137 22.4116C30.3137 22.4116 37.6591 20.5137 42.769 23.1122C47.8789 25.7108 56.9276 23.0929 56.9276 23.0929" fill="white"/>
<path opacity="0.3" d="M37.2479 25.3598C36.3606 25.3555 35.4757 25.2613 34.6051 25.0782C33.1021 24.7652 31.6434 24.2463 30.2651 23.5343L30.3636 23.3329C31.7252 24.0357 33.1663 24.5478 34.651 24.8564C36.8861 25.3171 40.0979 25.4284 42.7047 23.3428C45.3732 21.2079 49.1109 21.2139 51.776 21.5949C53.5433 21.8513 55.281 22.3025 56.961 22.9414L56.8847 23.1534C56.7948 23.1166 47.8359 19.5213 42.8325 23.5245C41.0811 24.9258 39.0685 25.3598 37.2479 25.3598Z" fill="white"/>
<path opacity="0.3" d="M37.2845 24.4452C33.5975 24.4452 30.3233 23.0342 30.2742 23.0126L30.3553 22.8026C30.4281 22.8346 37.7101 25.9709 42.7147 22.8099C47.8059 19.5938 56.8633 22.4645 56.9541 22.4939L56.8924 22.7113C56.8025 22.6822 47.8338 19.8403 42.8232 23.0053C41.1132 24.0854 39.1461 24.4452 37.2845 24.4452Z" fill="white"/>
<path opacity="0.3" d="M30.3152 22.7329C30.3152 22.7329 37.6595 25.3315 42.7694 22.7329C47.8792 20.1344 56.9237 22.4874 56.9237 22.4874" fill="white"/>
<path d="M58.8193 29.6852V32.9958C58.8193 32.9958 59.0676 36.7038 60.4331 38.5577C60.4331 38.5577 62.6676 41.9346 62.978 41.2063L62.5958 38.8084L61.3021 37.4983L60.6193 33.3931L60.4331 29.6852H58.8193Z" fill="#FFB8B8"/>
<path d="M72.5368 59.6134V62.0633L70.6748 62.7917V59.9444L72.5368 59.6134Z" fill="#FFB8B8"/>
<path d="M68.7501 59.3486L69.9915 62.3282L68.2536 63.1228L67.8811 60.2094L68.7501 59.3486Z" fill="#FFB8B8"/>
<path d="M71.8541 36.505C71.8541 36.505 74.3368 60.408 73.4058 60.4742C72.4748 60.5404 70.6748 61.7984 70.6748 60.9377C70.6748 60.0769 69.2472 48.8869 69.2472 48.8869L67.8816 43.1263V51.0719L69.3092 60.0769C69.3092 60.0769 67.9437 61.9971 66.9506 60.8714L64.8402 52.0651C64.8402 52.0651 62.0471 38.6901 62.1713 37.6306C62.1713 37.6306 68.5644 31.8039 71.8541 36.505Z" fill="#2F2E41"/>
<path d="M71.3568 62.1958C71.3568 62.1958 71.8534 61.0702 72.9706 61.7985L73.9017 62.9904C73.9017 62.9904 76.302 65.111 74.5988 65.5652C72.8432 66.0334 71.7913 65.5353 71.7913 65.5353C71.7913 65.5353 71.481 65.3367 71.2327 65.3367C70.9844 65.3367 70.4258 64.8732 70.4258 64.7408C70.4258 64.6083 70.612 62.262 70.612 62.262C70.6823 62.2255 70.7613 62.2122 70.8387 62.2241C70.9162 62.2359 70.9886 62.2721 71.0465 62.3282C71.2327 62.5269 71.3568 62.1958 71.3568 62.1958Z" fill="#2F2E41"/>
<path d="M67.6946 61.7984C67.6946 61.7984 68.8739 60.8053 69.4325 61.9309C69.4325 61.9309 69.7842 62.0633 69.8256 61.9309C69.867 61.7985 70.1773 61.7322 70.1773 62.4606C70.1773 63.1889 70.5144 65.0055 70.204 65.0717C69.8937 65.138 69.5834 65.3366 69.6454 65.6014C69.7075 65.8663 69.3084 65.9036 67.8808 65.8374C66.4532 65.7712 66.3911 65.1753 66.3911 65.1753C66.3911 65.1753 66.3911 64.3145 66.7635 63.8511C67.1359 63.3876 67.6946 61.7984 67.6946 61.7984Z" fill="#2F2E41"/>
<path d="M65.3988 18.429C65.3988 18.429 65.0884 20.8788 67.0746 21.7396C69.0609 22.6004 62.6677 25.4475 62.047 23.7922C61.4263 22.1369 62.1712 21.6072 62.1712 21.6072C62.1712 21.6072 62.7919 20.9451 62.2332 19.1573L65.3988 18.429Z" fill="#FFB8B8"/>
<path d="M63.4124 20.1505C64.9208 20.1505 66.1435 18.8461 66.1435 17.2371C66.1435 15.6281 64.9208 14.3237 63.4124 14.3237C61.9041 14.3237 60.6814 15.6281 60.6814 17.2371C60.6814 18.8461 61.9041 20.1505 63.4124 20.1505Z" fill="#FFB8B8"/>
<path d="M66.5778 22.5342C66.5778 22.5342 64.7157 23.5936 62.9157 22.799C61.1157 22.0045 61.1777 25.4476 61.1777 25.4476L62.1088 28.0299L68.564 27.3677L68.1295 23.3949L66.5778 22.5342Z" fill="#F2F2F2"/>
<path d="M65.6529 20.2686C65.9835 20.3434 66.2941 20.4966 66.5617 20.7169C66.8293 20.9371 67.047 21.2188 67.1987 21.541L70.178 22.5342L70.9229 23.6598L70.0539 31.804C70.0539 31.804 71.6677 33.4593 71.6677 34.3863C71.6677 35.3133 73.6539 38.4915 72.6608 38.0942C71.6677 37.697 69.8677 36.3065 69.8677 36.3065C69.8677 36.3065 65.3366 36.5051 63.909 37.8294C62.4814 39.1536 61.9228 38.7564 61.9228 38.7564C61.9228 38.7564 60.4331 31.8702 60.3711 30.8108C60.309 29.7514 58.571 23.3949 58.571 23.3949L61.6745 21.541L62.465 20.5842L64.6538 24.3219L66.6401 21.7396C66.6401 21.7396 65.6588 20.9163 65.6529 20.2686Z" fill="#3F3D56"/>
<path d="M71.8538 28.7582L72.2262 30.877C72.2262 30.877 73.9021 37.4983 73.6538 39.7496C73.6538 39.7496 73.84 44.7817 72.7848 44.1858C71.7296 43.5899 72.2883 39.9482 72.2883 39.9482L70.7986 33.3931L69.9917 29.5527L71.8538 28.7582Z" fill="#FFB8B8"/>
<path d="M70.3025 23.2625L70.9232 23.6597C70.9232 23.6597 73.2818 28.8906 72.7232 29.2878C72.1646 29.6851 69.7439 30.5459 69.7439 30.5459L70.3025 23.2625Z" fill="#3F3D56"/>
<path d="M60.0609 23.395L58.6023 23.3618L58.261 23.9908L58.6954 30.4136L60.9299 30.9432L60.0609 23.395Z" fill="#3F3D56"/>
<path d="M65.6365 14.7731L66.1288 14.5822C66.1288 14.5822 65.0995 13.4842 63.6675 13.5797L64.0703 13.15C64.0703 13.15 63.0857 12.7681 62.1907 13.7706C61.7202 14.2976 61.1759 14.9171 60.8365 15.6149H60.3093L60.5294 16.0843L59.7593 16.5537L60.5497 16.4694C60.4748 16.8747 60.5006 17.2938 60.6245 17.6851L60.8034 18.2103C60.8034 18.2103 61.5195 16.6826 61.5195 16.4917V16.9691C61.5195 16.9691 62.0117 16.5394 62.0117 16.253L62.2802 16.5872L62.4145 16.062L64.0703 16.5872L63.8018 16.1575L64.831 16.3007L64.4283 15.7756C64.4283 15.7756 65.5918 16.3962 65.6365 16.9213C65.6813 17.4465 65.9885 18.131 65.9885 18.131L66.3609 17.6675C66.3609 17.6675 66.9343 15.4892 65.6365 14.7731Z" fill="#2F2E41"/>
<path d="M65.7097 17.8661C65.8297 17.8661 65.9269 17.5993 65.9269 17.2702C65.9269 16.9411 65.8297 16.6743 65.7097 16.6743C65.5897 16.6743 65.4924 16.9411 65.4924 17.2702C65.4924 17.5993 65.5897 17.8661 65.7097 17.8661Z" fill="#FFB8B8"/>
<path d="M4.67169 62.1204C5.99476 64.7378 8.8028 65.8615 8.8028 65.8615C8.8028 65.8615 9.4657 62.7413 8.14263 60.1238C6.81956 57.5063 4.01153 56.3827 4.01153 56.3827C4.01153 56.3827 3.34862 59.5029 4.67169 62.1204Z" fill="#3F3D56"/>
<path d="M5.58179 61.2592C7.97048 62.7923 8.89044 65.8373 8.89044 65.8373C8.89044 65.8373 5.93757 66.3968 3.54888 64.8638C1.16019 63.3307 0.240234 60.2856 0.240234 60.2856C0.240234 60.2856 3.1931 59.7261 5.58179 61.2592Z" fill="#4630AB"/>
<path opacity="0.3" d="M30.3152 22.4116C30.3152 22.4116 37.6595 18.3234 42.7694 22.4116C47.8792 26.4998 56.9237 22.7979 56.9237 22.7979" fill="white"/>
<path d="M43.6476 64.0121C44.2943 64.0121 44.8186 63.4529 44.8186 62.763C44.8186 62.0731 44.2943 61.5138 43.6476 61.5138C43.0008 61.5138 42.4766 62.0731 42.4766 62.763C42.4766 63.4529 43.0008 64.0121 43.6476 64.0121Z" fill="white"/>
</g>
<defs>
<clipPath id="clip0_1278_537">
<rect width="93.6274" height="66.0194" fill="white" transform="translate(0.240234)"/>
</clipPath>
</defs>
</svg>
