<svg width="90" height="73" viewBox="0 0 90 73" fill="none" xmlns="http://www.w3.org/2000/svg">
<g clip-path="url(#clip0_1116_1206)">
<path opacity="0.1" d="M40.8733 64.4599C61.2888 64.4599 77.8389 63.0873 77.8389 61.3942C77.8389 59.7011 61.2888 58.3286 40.8733 58.3286C20.4578 58.3286 3.90771 59.7011 3.90771 61.3942C3.90771 63.0873 20.4578 64.4599 40.8733 64.4599Z" fill="#4630AB"/>
<g opacity="0.1">
<path opacity="0.1" d="M73.6136 43.9256C73.3926 43.2094 72.4968 42.8796 71.6131 43.1899C71.4858 43.2342 71.3626 43.2911 71.2452 43.3599C71.1886 43.3432 71.1303 43.3283 71.0712 43.3172C71.1195 43.1111 71.1379 42.8984 71.126 42.6864C71.4308 42.4686 71.6781 42.1708 71.8441 41.8215C72.0101 41.4722 72.0893 41.0832 72.0741 40.6919C72.3781 40.4734 72.6245 40.1754 72.7899 39.8262C72.9553 39.477 73.034 39.0883 73.0186 38.6974C73.325 38.4817 73.572 38.1829 73.7345 37.8315C74.1607 36.9304 73.9841 35.9179 73.3396 35.5695C72.6951 35.2211 71.8262 35.6698 71.4 36.5709C71.231 36.9187 71.152 37.3084 71.1712 37.6996C70.8672 37.9181 70.6208 38.2161 70.4554 38.5653C70.29 38.9145 70.2113 39.3032 70.2266 39.6941C69.9227 39.9126 69.6762 40.2106 69.5108 40.5598C69.3454 40.909 69.2667 41.2977 69.2821 41.6887C68.9774 41.9068 68.7302 42.2048 68.5642 42.5542C68.3982 42.9036 68.3189 43.2926 68.334 43.6841C68.0277 43.8997 67.7806 44.1986 67.6182 44.5499C67.5381 44.7193 67.4773 44.8983 67.4373 45.0831C67.3304 44.9164 67.2002 44.7682 67.0511 44.6437C67.034 44.5019 67.0049 44.3619 66.9641 44.2257C66.6736 43.2809 65.8943 42.705 65.2245 42.9409C64.5548 43.1769 64.2452 44.1328 64.5357 45.0776C64.6546 45.4827 64.8834 45.8409 65.1932 46.1069C65.2103 46.2488 65.2394 46.3887 65.2802 46.5249C65.449 47.073 65.7821 47.4966 66.163 47.7094C66.1293 47.8277 66.1051 47.9489 66.0908 48.0717C65.7316 48.4407 65.5004 48.929 65.435 49.4568C65.0755 49.8259 64.8443 50.3147 64.7792 50.8428C64.6012 51.0254 64.4541 51.2394 64.3443 51.4754C63.9173 52.3765 64.0938 53.3901 64.7383 53.7375C65.3828 54.0849 66.2518 53.6381 66.6788 52.7361C66.7914 52.5008 66.865 52.2466 66.8963 51.9845C67.2555 51.6155 67.4867 51.1271 67.5521 50.5994C67.9116 50.2302 68.1428 49.7415 68.2079 49.2134C68.5647 48.8435 68.7932 48.3551 68.8559 47.8283C69.2167 47.4592 69.4487 46.9695 69.5134 46.4404C69.6241 46.3283 69.7229 46.2037 69.8083 46.0688C70.1637 46.1467 70.532 46.122 70.8755 45.9973C71.0028 45.9529 71.126 45.896 71.2434 45.8273C71.6281 45.9356 72.0342 45.9201 72.4107 45.7827C73.2917 45.4752 73.8336 44.6428 73.6136 43.9256Z" fill="#3F3D56"/>
<g opacity="0.1">
<path opacity="0.1" d="M72.0542 41.1016C71.9629 41.1974 71.8626 41.283 71.755 41.357C71.7687 41.6222 71.7359 41.8878 71.6584 42.1401C71.7269 42.0391 71.788 41.9326 71.8411 41.8215C71.9489 41.5958 72.021 41.3525 72.0542 41.1016Z" fill="black"/>
<path opacity="0.1" d="M72.9985 39.1069C72.9072 39.2028 72.807 39.2884 72.6993 39.3624C72.713 39.6276 72.6803 39.8932 72.6028 40.1455C72.6714 40.0443 72.7325 39.9374 72.7854 39.826C72.8929 39.6004 72.9649 39.3575 72.9985 39.1069Z" fill="black"/>
<path opacity="0.1" d="M70.8567 38.3648C70.8487 38.228 70.8536 38.0908 70.8715 37.9551C70.7025 38.1329 70.5621 38.3391 70.4557 38.5654C70.4032 38.677 70.359 38.7929 70.3235 38.9119C70.4674 38.6954 70.6483 38.5097 70.8567 38.3648Z" fill="black"/>
<path opacity="0.1" d="M64.8608 50.4349C64.9368 50.3217 65.0227 50.2166 65.1174 50.1209C65.1322 49.9948 65.1575 49.8705 65.1931 49.7493C65.1175 49.8578 65.0508 49.9731 64.9939 50.0939C64.9413 50.2037 64.8969 50.3177 64.8608 50.4349Z" fill="black"/>
<path opacity="0.1" d="M65.5166 49.0508C65.5926 48.9377 65.6785 48.8325 65.7732 48.7368C65.7874 48.614 65.8115 48.4928 65.8454 48.3745C65.7731 48.4799 65.7091 48.5914 65.654 48.708C65.6002 48.8184 65.5543 48.933 65.5166 49.0508Z" fill="black"/>
<path opacity="0.1" d="M71.1087 43.0959C71.018 43.1918 70.918 43.2771 70.8104 43.3505C70.8223 43.5625 70.8038 43.7752 70.7556 43.9812C70.8143 43.9921 70.8724 44.0063 70.9296 44.024C71.047 43.9552 71.1702 43.8983 71.2975 43.854C72.1829 43.5437 73.0779 43.8735 73.298 44.5897C73.3526 44.7697 73.3622 44.9619 73.3258 45.1471C73.6172 44.7811 73.7381 44.3352 73.6128 43.9264C73.3919 43.2102 72.496 42.8804 71.6123 43.1907C71.485 43.235 71.3619 43.2919 71.2444 43.3607C71.1879 43.344 71.1296 43.3291 71.0705 43.318C71.087 43.2436 71.0992 43.1702 71.1087 43.0959Z" fill="black"/>
<path opacity="0.1" d="M64.5375 51.1309C64.4618 51.2394 64.3952 51.3547 64.3383 51.4755C64.2854 51.5875 64.2407 51.7037 64.2043 51.823C64.282 51.7093 64.3693 51.6035 64.4653 51.5071C64.4787 51.3796 64.5028 51.2537 64.5375 51.1309Z" fill="black"/>
<path opacity="0.1" d="M69.9072 40.3591C69.8993 40.2224 69.9042 40.0851 69.922 39.9495C69.7531 40.1273 69.6126 40.3334 69.5062 40.5598C69.4537 40.6714 69.4095 40.7873 69.374 40.9063C69.518 40.6898 69.6989 40.5041 69.9072 40.3591Z" fill="black"/>
<path opacity="0.1" d="M68.5423 48.4935C68.5251 48.6317 68.496 48.7679 68.4553 48.9004C68.5234 48.7989 68.5841 48.6921 68.6371 48.5808C68.6941 48.4615 68.7416 48.3372 68.7789 48.2092C68.7077 48.3109 68.6285 48.406 68.5423 48.4935Z" fill="black"/>
<path opacity="0.1" d="M67.2318 51.2635C67.2147 51.4017 67.1855 51.538 67.1448 51.6704C67.2134 51.5692 67.2745 51.4623 67.3274 51.3508C67.3841 51.2313 67.4315 51.107 67.4692 50.9792C67.3979 51.0812 67.3185 51.1763 67.2318 51.2635Z" fill="black"/>
<path opacity="0.1" d="M67.8873 49.8776C67.8702 50.0158 67.8411 50.152 67.8003 50.2845C67.8696 50.1849 67.9318 50.08 67.9864 49.9705C68.0434 49.8511 68.0909 49.7268 68.1282 49.5989C68.0554 49.6989 67.9748 49.7921 67.8873 49.8776Z" fill="black"/>
<path opacity="0.1" d="M69.199 47.1084C69.182 47.2463 69.1528 47.3822 69.1121 47.5144C69.1803 47.4133 69.2411 47.3068 69.2938 47.1957C69.3515 47.0743 69.3992 46.9478 69.4365 46.8176C69.3656 46.9219 69.2862 47.0192 69.199 47.1084Z" fill="black"/>
<path opacity="0.1" d="M64.9051 43.6051C65.5765 43.3701 66.3559 43.9451 66.6446 44.8899C66.6853 45.0265 66.7145 45.1667 66.7316 45.3088C66.8807 45.4333 67.0109 45.5815 67.1178 45.7482C67.1578 45.5631 67.2186 45.3838 67.2987 45.2141C67.3291 45.1509 67.3622 45.0905 67.3961 45.0283C67.2974 44.8824 67.1803 44.7517 67.0482 44.64C67.0311 44.4981 67.002 44.3582 66.9612 44.2219C66.6707 43.2772 65.8914 42.7012 65.2217 42.9372C64.839 43.0709 64.5746 43.4397 64.4719 43.9061C64.5896 43.7676 64.7388 43.6639 64.9051 43.6051Z" fill="black"/>
<path opacity="0.1" d="M68.0185 44.3482C68.0108 44.2117 68.0161 44.0748 68.0342 43.9395C67.8647 44.117 67.724 44.3232 67.6176 44.5498C67.5649 44.661 67.5207 44.7766 67.4854 44.8954C67.6297 44.6792 67.8105 44.4936 68.0185 44.3482Z" fill="black"/>
<path opacity="0.1" d="M68.9633 42.3528C68.9557 42.2164 68.9609 42.0794 68.979 41.9441C68.8094 42.1211 68.6686 42.327 68.5624 42.5535C68.5099 42.6651 68.4657 42.781 68.4302 42.9C68.5741 42.6835 68.755 42.4978 68.9633 42.3528Z" fill="black"/>
<path opacity="0.1" d="M66.575 52.6486C66.5579 52.7871 66.5288 52.9236 66.488 53.0564C66.631 52.8449 66.7406 52.6099 66.8125 52.3606C66.7414 52.4638 66.6619 52.5602 66.575 52.6486Z" fill="black"/>
</g>
<path opacity="0.1" d="M74.9019 34.7083C75.2085 34.4929 75.4556 34.194 75.6178 33.8425C76.0448 32.9414 75.8683 31.9279 75.2238 31.5795C74.5793 31.2311 73.7103 31.6798 73.2833 32.5819C73.1141 32.9305 73.0354 33.3212 73.0554 33.7133C72.7514 33.9318 72.505 34.2298 72.3396 34.579C72.1742 34.9282 72.0954 35.3169 72.1108 35.7079C71.8041 35.923 71.5569 36.2219 71.395 36.5737C71.3426 36.684 71.2987 36.7986 71.2637 36.9165C71.4907 36.5653 71.82 36.304 72.2004 36.1733C72.2437 36.3164 72.3132 36.4489 72.4047 36.5631C72.4963 36.6773 72.6082 36.771 72.7339 36.8388C72.8596 36.9065 72.9966 36.9469 73.1371 36.9577C73.2775 36.9685 73.4186 36.9494 73.5521 36.9016C73.6805 37.3055 73.6805 37.7434 73.5521 38.1474C73.62 38.0473 73.6805 37.9417 73.733 37.8315C73.9017 37.4837 73.9803 37.094 73.9608 36.7028C74.2652 36.4847 74.5119 36.1868 74.6774 35.8375C74.8428 35.4882 74.9213 35.0993 74.9054 34.7083H74.9019Z" fill="#3F3D56"/>
<path opacity="0.1" d="M85.2841 21.9219C85.5463 21.7912 85.7997 21.6413 86.0425 21.4732L83.2305 19.279L86.5357 21.097C87.2043 20.5297 87.7575 19.8225 88.1613 19.0189C88.5651 18.2152 88.8111 17.332 88.8841 16.4233L83.2671 16.4846L88.8963 15.4794C88.8381 14.5698 88.6064 13.6825 88.2154 12.872C87.8244 12.0615 87.2824 11.345 86.6227 10.7664C85.963 10.1877 85.1995 9.75929 84.3791 9.50732C83.5587 9.25535 82.6988 9.18519 81.8521 9.30113C81.0054 9.41707 80.1898 9.71668 79.4554 10.1815C78.7211 10.6464 78.0835 11.2667 77.5818 12.0044C77.0801 12.742 76.7249 13.5815 76.538 14.4711C76.3511 15.3607 76.3364 16.2817 76.495 17.1776C76.0867 17.3804 75.7 17.6296 75.3416 17.9208L78.2771 22.2805L74.7528 18.4642C74.009 19.2443 73.4591 20.2102 73.1527 21.2744C72.8464 22.3386 72.7934 23.4676 72.9985 24.5593C71.9338 25.09 71.0304 25.93 70.3915 26.9831C69.7526 28.0363 69.404 29.2601 69.3855 30.5149C69.367 31.7696 69.6794 33.0046 70.2869 34.0787C70.8945 35.1528 71.7726 36.0227 72.8211 36.589C73.8696 37.1553 75.0461 37.3952 76.2162 37.2812C77.3862 37.1671 78.5027 36.7039 79.4379 35.9443C80.3731 35.1846 81.0894 34.1594 81.5049 32.9856C81.9204 31.8118 82.0184 30.5368 81.7876 29.3063C83.0616 28.673 84.0992 27.6003 84.7333 26.261C85.3675 24.9216 85.5615 23.3933 85.2841 21.9219Z" fill="#4630AB"/>
<path opacity="0.1" d="M73.552 20.2201C72.9157 21.5588 72.7211 23.0878 72.9997 24.5594C71.935 25.0901 71.0316 25.9301 70.3928 26.9832C69.7539 28.0364 69.4053 29.2602 69.3868 30.515C69.3683 31.7697 69.6806 33.0047 70.2882 34.0788C70.8957 35.1529 71.7739 36.0228 72.8223 36.5891C73.8708 37.1554 75.0473 37.3953 76.2174 37.2812C77.3875 37.1672 78.5039 36.7039 79.4391 35.9443C80.3743 35.1847 81.0906 34.1594 81.5061 32.9856C81.9216 31.8118 82.0196 30.5369 81.7888 29.3064C83.0178 28.697 73.8669 19.5503 73.552 20.2201Z" fill="black"/>
<path opacity="0.1" d="M80.6095 10.5355C81.123 10.5355 81.5393 10.0909 81.5393 9.54239C81.5393 8.99393 81.123 8.54932 80.6095 8.54932C80.096 8.54932 79.6797 8.99393 79.6797 9.54239C79.6797 10.0909 80.096 10.5355 80.6095 10.5355Z" fill="#4630AB"/>
<path opacity="0.1" d="M86.0404 11.1727C86.5539 11.1727 86.9702 10.7281 86.9702 10.1796C86.9702 9.63114 86.5539 9.18652 86.0404 9.18652C85.5269 9.18652 85.1106 9.63114 85.1106 10.1796C85.1106 10.7281 85.5269 11.1727 86.0404 11.1727Z" fill="#4630AB"/>
<path opacity="0.1" d="M88.1353 20.0965C88.6489 20.0965 89.0651 19.6519 89.0651 19.1034C89.0651 18.555 88.6489 18.1104 88.1353 18.1104C87.6218 18.1104 87.2056 18.555 87.2056 19.1034C87.2056 19.6519 87.6218 20.0965 88.1353 20.0965Z" fill="#4630AB"/>
<path opacity="0.1" d="M85.3089 24.5528C85.8224 24.5528 86.2387 24.1082 86.2387 23.5597C86.2387 23.0113 85.8224 22.5667 85.3089 22.5667C84.7954 22.5667 84.3792 23.0113 84.3792 23.5597C84.3792 24.1082 84.7954 24.5528 85.3089 24.5528Z" fill="#4630AB"/>
<path opacity="0.1" d="M81.4464 33.8082C81.9599 33.8082 82.3762 33.3636 82.3762 32.8151C82.3762 32.2666 81.9599 31.822 81.4464 31.822C80.9329 31.822 80.5166 32.2666 80.5166 32.8151C80.5166 33.3636 80.9329 33.8082 81.4464 33.8082Z" fill="#4630AB"/>
<path opacity="0.1" d="M81.4464 33.8082C81.9599 33.8082 82.3762 33.3636 82.3762 32.8151C82.3762 32.2666 81.9599 31.822 81.4464 31.822C80.9329 31.822 80.5166 32.2666 80.5166 32.8151C80.5166 33.3636 80.9329 33.8082 81.4464 33.8082Z" fill="black"/>
<path opacity="0.1" d="M72.8607 23.3258C73.3742 23.3258 73.7905 22.8811 73.7905 22.3327C73.7905 21.7842 73.3742 21.3396 72.8607 21.3396C72.3472 21.3396 71.9309 21.7842 71.9309 22.3327C71.9309 22.8811 72.3472 23.3258 72.8607 23.3258Z" fill="#4630AB"/>
<path opacity="0.1" d="M72.8607 23.3258C73.3742 23.3258 73.7905 22.8811 73.7905 22.3327C73.7905 21.7842 73.3742 21.3396 72.8607 21.3396C72.3472 21.3396 71.9309 21.7842 71.9309 22.3327C71.9309 22.8811 72.3472 23.3258 72.8607 23.3258Z" fill="black"/>
<path opacity="0.1" d="M71.869 38.6667C71.2506 38.3332 71.0636 37.3885 71.4245 36.5171C71.4054 36.5524 71.3871 36.5886 71.3697 36.6267C70.9427 37.5278 71.1192 38.5404 71.7637 38.8888C72.4082 39.2371 73.2772 38.7884 73.7033 37.8873C73.7216 37.8502 73.7373 37.8121 73.7529 37.7749C73.3102 38.6026 72.4865 39.0012 71.869 38.6667Z" fill="black"/>
<path opacity="0.1" d="M70.9508 40.6064C70.3332 40.2729 70.1453 39.3281 70.5072 38.4558C70.488 38.492 70.4689 38.5283 70.4515 38.5654C70.0244 39.4665 70.201 40.48 70.8455 40.8275C71.49 41.1749 72.3589 40.7281 72.786 39.826C72.8034 39.7889 72.8199 39.7517 72.8356 39.7136C72.392 40.5414 71.5692 40.9399 70.9508 40.6064Z" fill="black"/>
<path opacity="0.1" d="M70.032 42.5452C69.4145 42.2117 69.2266 41.2669 69.5884 40.3955C69.5693 40.4308 69.5502 40.467 69.5328 40.5051C69.1057 41.4062 69.2832 42.4188 69.9277 42.7672C70.5722 43.1156 71.4402 42.6669 71.8673 41.7658C71.8846 41.7286 71.9012 41.6905 71.9168 41.6533C71.4741 42.4811 70.6504 42.8796 70.032 42.5452Z" fill="black"/>
<path opacity="0.1" d="M69.1163 44.4897C68.4979 44.1562 68.3109 43.2115 68.6718 42.3401C68.6527 42.3754 68.6344 42.4116 68.6161 42.4488C68.19 43.3499 68.3665 44.3634 69.011 44.7118C69.6555 45.0601 70.5244 44.6114 70.9506 43.7094C70.9689 43.6722 70.9845 43.6351 71.0002 43.597C70.5549 44.4201 69.7312 44.8186 69.1163 44.4897Z" fill="black"/>
<path opacity="0.1" d="M68.1956 46.4238C67.5772 46.0903 67.3902 45.1455 67.7512 44.2742C67.732 44.3095 67.7138 44.3457 67.6964 44.3838C67.2693 45.2849 67.4459 46.2975 68.0904 46.6458C68.7349 46.9942 69.6038 46.5455 70.0309 45.6444C70.0482 45.6073 70.0648 45.5692 70.0804 45.532C69.6386 46.3597 68.8132 46.7583 68.1956 46.4238Z" fill="black"/>
<path opacity="0.1" d="M67.2769 48.3635C66.6593 48.03 66.4715 47.0852 66.8333 46.2139C66.8142 46.2492 66.795 46.2854 66.7776 46.3226C66.3506 47.2237 66.5271 48.2372 67.1725 48.5855C67.8179 48.9339 68.6816 48.4843 69.1165 47.5832C69.1339 47.546 69.1504 47.5089 69.166 47.4708C68.7181 48.2985 67.8988 48.697 67.2769 48.3635Z" fill="black"/>
<path opacity="0.1" d="M66.3586 50.3022C65.741 49.9687 65.5531 49.024 65.915 48.1526C65.8958 48.1888 65.8776 48.2241 65.8593 48.2622C65.4331 49.1633 65.6097 50.1759 66.2542 50.5243C66.8987 50.8726 67.7676 50.4239 68.1938 49.5228C68.212 49.4857 68.2277 49.4476 68.2434 49.4104C67.8006 50.2381 66.977 50.6367 66.3586 50.3022Z" fill="black"/>
<path opacity="0.1" d="M65.4415 52.2419C64.8231 51.9084 64.6361 50.9637 64.997 50.0923C64.9779 50.1276 64.9596 50.1638 64.9422 50.201C64.5152 51.1021 64.6917 52.1156 65.3362 52.464C65.9807 52.8123 66.8496 52.3636 67.2767 51.4616C67.2941 51.4244 67.3098 51.3873 67.3254 51.3492C66.8827 52.1769 66.059 52.5717 65.4415 52.2419Z" fill="black"/>
<path opacity="0.1" d="M64.838 53.5165C64.2204 53.1821 64.0326 52.2383 64.3944 51.366C64.3752 51.4022 64.3561 51.4384 64.3387 51.4756C63.9117 52.3767 64.0882 53.3902 64.7327 53.7376C65.3772 54.0851 66.2461 53.6382 66.6732 52.7362C66.6906 52.699 66.7071 52.6619 66.7228 52.6238C66.2792 53.4515 65.4555 53.85 64.838 53.5165Z" fill="black"/>
<path opacity="0.1" d="M81.4311 44.8854C81.5269 44.5919 81.5854 44.286 81.605 43.9759C81.6689 43.9757 81.7321 43.9615 81.7906 43.9341C81.8491 43.9067 81.9017 43.8667 81.945 43.8166C81.9884 43.7665 82.0216 43.7074 82.0426 43.6429C82.0636 43.5785 82.072 43.5101 82.0671 43.4421C82.0623 43.3741 82.0443 43.3078 82.0144 43.2475C81.9845 43.1872 81.9433 43.1342 81.8933 43.0917C81.8433 43.0492 81.7856 43.0182 81.7239 43.0006C81.6622 42.9829 81.5977 42.9791 81.5346 42.9893C81.4312 42.4865 81.2242 42.0146 80.9288 41.6079C80.6333 41.2012 80.2567 40.8699 79.8263 40.6381C79.8819 40.5206 79.8915 40.3843 79.853 40.2592C79.8145 40.1341 79.7311 40.0304 79.6211 39.9711C79.511 39.9117 79.3834 39.9014 79.2663 39.9426C79.1492 39.9837 79.0522 40.0728 78.9966 40.1903C78.9764 40.2321 78.9624 40.2769 78.9548 40.3232C78.4445 40.2216 77.9188 40.2517 77.4216 40.4108C76.9243 40.57 76.4698 40.8536 76.0959 41.2382C75.8135 41.1894 75.5263 41.1803 75.2417 41.2113L74.8651 43.0423L74.8425 41.2772C74.4102 41.3784 74.0018 41.5727 73.6423 41.8482C73.2827 42.1237 72.9795 42.4746 72.7512 42.8795C72.5229 43.2844 72.3743 43.7348 72.3145 44.2031C72.2547 44.6714 72.285 45.1478 72.4034 45.6032C72.5218 46.0586 72.726 46.4834 73.0034 46.8517C73.2807 47.22 73.6255 47.524 74.0166 47.7451C74.4077 47.9663 74.8369 48.0999 75.278 48.1378C75.7191 48.1758 76.1629 48.1173 76.5821 47.9658C76.6269 48.0523 76.6951 48.1222 76.7778 48.1665C76.8629 48.2127 76.9594 48.2298 77.0539 48.2153C77.1485 48.2008 77.2366 48.1556 77.3062 48.0857C77.3758 48.0158 77.4236 47.9247 77.4429 47.8248C77.4623 47.7249 77.4523 47.621 77.4144 47.5274C77.5628 47.4185 77.7025 47.2967 77.8319 47.1632C78.511 47.2811 79.2075 47.1664 79.8217 46.8355C80.4359 46.5045 80.9363 45.9744 81.251 45.321L79.4984 45.0061L81.4311 44.8854Z" fill="#4630AB"/>
<g opacity="0.1">
<path opacity="0.1" d="M78.7246 45.7743C78.0775 44.862 77.6809 43.7816 77.2243 42.7449C77.0409 42.3194 76.8356 41.905 76.6093 41.5038L76.2666 41.0774C76.2092 41.1294 76.1518 41.1833 76.0927 41.24C75.8103 41.1912 75.5231 41.1821 75.2386 41.213L74.8619 43.044L74.8393 41.279C74.4071 41.3802 73.9987 41.5745 73.6391 41.85C73.2795 42.1255 72.9763 42.4764 72.748 42.8813C72.5197 43.2862 72.3711 43.7365 72.3113 44.2049C72.2515 44.6732 72.2818 45.1496 72.4002 45.605C72.5187 46.0604 72.7228 46.4852 73.0002 46.8535C73.2776 47.2218 73.6223 47.5258 74.0134 47.7469C74.4046 47.968 74.8338 48.1017 75.2749 48.1396C75.716 48.1776 76.1597 48.119 76.5789 47.9676C76.6237 48.054 76.6919 48.124 76.7746 48.1683C76.8598 48.2145 76.9562 48.2315 77.0508 48.2171C77.1453 48.2026 77.2334 48.1573 77.303 48.0875C77.3726 48.0176 77.4204 47.9265 77.4397 47.8266C77.4591 47.7267 77.4492 47.6228 77.4113 47.5291C77.5596 47.4203 77.6993 47.2985 77.8287 47.165C78.4936 47.2799 79.1754 47.1722 79.7805 46.8566C79.3766 46.5585 79.0201 46.1931 78.7246 45.7743Z" fill="black"/>
</g>
<path opacity="0.1" d="M67.2644 41.854C67.3003 41.7782 67.3174 41.6939 67.314 41.6092C67.3107 41.5244 67.287 41.4419 67.2453 41.3697C67.2036 41.2974 67.1452 41.2378 67.0758 41.1966C67.0063 41.1553 66.9281 41.1338 66.8487 41.134C66.7168 40.3874 66.3594 39.7077 65.831 39.199C65.9162 38.8443 65.9485 38.4775 65.9267 38.1121L64.2176 37.8008L65.8771 37.6894C65.8473 37.5229 65.8063 37.359 65.7545 37.1989C65.8191 37.1514 65.8717 37.0876 65.9076 37.0131C65.9494 36.9243 65.9654 36.8241 65.9534 36.7255C65.9414 36.6269 65.902 36.5344 65.8403 36.46C65.7786 36.3856 65.6974 36.3327 65.6072 36.308C65.517 36.2834 65.422 36.2882 65.3344 36.3219C64.8949 35.6586 64.2517 35.1807 63.5165 34.9712C62.7814 34.7618 62.0008 34.834 61.3103 35.1754C60.6199 35.5168 60.0632 36.1058 59.7371 36.84C59.411 37.5742 59.336 38.4072 59.5251 39.1943C59.4245 39.2397 59.3424 39.3221 59.2938 39.4266C59.2511 39.5165 59.2351 39.6182 59.248 39.7181C59.2608 39.8181 59.3018 39.9114 59.3656 39.9858C59.4294 40.0602 59.5129 40.112 59.6049 40.1344C59.697 40.1568 59.7932 40.1487 59.8809 40.1112C60.0477 40.4105 60.2556 40.6813 60.4976 40.9148C60.3214 41.6485 60.3745 42.4236 60.6489 43.122L62.9408 42.4866L60.8968 43.6348C61.2582 44.2482 61.79 44.7256 62.418 45.0002C63.0459 45.2749 63.7385 45.3331 64.3989 45.1666C65.0593 45.0002 65.6544 44.6175 66.1012 44.072C66.5479 43.5265 66.8239 42.8455 66.8904 42.1243C66.9692 42.117 67.0449 42.0884 67.1103 42.0411C67.1758 41.9938 67.2288 41.9294 67.2644 41.854Z" fill="#4630AB"/>
<path opacity="0.1" d="M67.2648 41.8541C67.3007 41.7783 67.3178 41.694 67.3144 41.6093C67.3111 41.5245 67.2874 41.442 67.2457 41.3698C67.204 41.2975 67.1456 41.2379 67.0762 41.1967C67.0067 41.1554 66.9285 41.1339 66.8491 41.1341C66.7172 40.3875 66.3598 39.7078 65.8314 39.1991C65.8453 39.1405 65.8575 39.0829 65.868 39.0244C65.8073 39.0714 65.7511 39.1246 65.7001 39.1833C65.3913 39.5446 65.233 40.0305 64.9277 40.3956C64.5677 40.8266 64.0284 41.0514 63.49 41.1118C62.9516 41.1722 62.4097 41.084 61.8783 40.9734C61.4382 40.8805 60.992 40.7727 60.5458 40.8183C60.5023 40.8183 60.4588 40.8285 60.4188 40.8359C60.4449 40.8629 60.471 40.8898 60.498 40.9158C60.3218 41.6495 60.3749 42.4246 60.6493 43.1231L62.9412 42.4867L60.8972 43.6349C61.2586 44.2483 61.7904 44.7257 62.4184 45.0003C63.0463 45.275 63.7389 45.3332 64.3993 45.1667C65.0597 45.0003 65.6548 44.6176 66.1016 44.0721C66.5483 43.5266 66.8243 42.8456 66.8908 42.1244C66.9696 42.1171 67.0453 42.0885 67.1107 42.0412C67.1762 41.9939 67.2292 41.9295 67.2648 41.8541Z" fill="black"/>
<g clip-path="url(#clip1_1116_1206)">
<path d="M94.0488 66.2686C91.9337 65.915 89.9001 65.6142 87.948 65.3662L88.6997 63.7604C88.4388 63.6675 87.308 64.5965 87.308 64.5965L88.2648 59.9516C86.9601 60.1374 86.3513 64.8752 86.3513 64.8752L84.8727 63.2959L85.6005 65.0839C79.6268 64.4135 74.472 64.2043 70.1388 64.2523L70.7823 62.8779C70.5213 62.785 69.3906 63.714 69.3906 63.714L70.3474 59.0691C69.0427 59.2549 68.4339 63.9926 68.4339 63.9926L66.9552 62.4134L67.7262 64.3072C64.758 64.3993 61.7962 64.654 58.8525 65.0704C59.4945 62.9342 61.7366 60.8806 61.7366 60.8806C60.0126 61.4534 59.1157 62.3867 58.6515 63.2517C58.5576 58.8629 59.1898 54.4908 60.5189 50.3367C60.5189 50.3367 57.0398 58.6975 57.5616 64.2713L57.6278 65.2614C54.6011 65.7658 53.0823 66.2686 53.0823 66.2686H94.0488Z" fill="#3F3D56"/>
<path d="M52.2246 66.2226L51.0535 64.8815L52.3091 63.6306L53.4803 64.9717L52.2246 66.2226ZM51.2401 64.8884L52.2311 66.0232L53.2936 64.9648L52.3026 63.83L51.2401 64.8884Z" fill="#3F3D56"/>
<path d="M114.62 66.0188H40.0076V66.2046H114.62V66.0188Z" fill="#3F3D56"/>
<path d="M86.2625 24.6885V30.79C86.2623 30.8464 86.2413 30.9004 86.204 30.9402C86.1667 30.9801 86.1161 31.0026 86.0633 31.0027H85.9215V62.7877C85.9215 63.6672 85.5943 64.5108 85.012 65.1327C84.4297 65.7547 83.6399 66.1041 82.8164 66.1041H64.2214C63.8137 66.1041 63.41 66.0183 63.0333 65.8516C62.6567 65.6849 62.3144 65.4406 62.0262 65.1326C61.7379 64.8247 61.5093 64.4591 61.3533 64.0567C61.1974 63.6544 61.1171 63.2231 61.1172 62.7877V32.1175H61.0146C60.9773 32.1175 60.9416 32.1018 60.9152 32.0738C60.8888 32.0458 60.8738 32.0077 60.8737 31.9679V28.4954C60.8737 28.4756 60.8773 28.4561 60.8844 28.4378C60.8915 28.4195 60.9018 28.403 60.9149 28.389C60.928 28.375 60.9435 28.3639 60.9606 28.3564C60.9777 28.3488 60.9961 28.3449 61.0146 28.3449H61.1172V27.0369H61.0137C60.9746 27.0367 60.9372 27.02 60.9096 26.9904C60.882 26.9608 60.8666 26.9207 60.8667 26.879V23.4538C60.8668 23.4122 60.8823 23.3724 60.9099 23.3429C60.9374 23.3135 60.9747 23.297 61.0137 23.2968H61.1172V21.5114H61.0119C60.9948 21.5114 60.9778 21.5078 60.962 21.5008C60.9462 21.4938 60.9318 21.4835 60.9196 21.4706C60.9075 21.4576 60.8979 21.4423 60.8914 21.4254C60.8848 21.4084 60.8815 21.3903 60.8815 21.372V19.5029C60.8814 19.4658 60.8951 19.4302 60.9196 19.4039C60.944 19.3776 60.9772 19.3628 61.0119 19.3626H61.1172V15.578C61.1172 14.6986 61.4443 13.8554 62.0264 13.2336C62.6086 12.6118 63.3981 12.2625 64.2214 12.2625H82.8164C83.6398 12.2624 84.4295 12.6117 85.0118 13.2335C85.5941 13.8552 85.9213 14.6986 85.9215 15.578V24.4757H86.0633C86.1161 24.4759 86.1667 24.4983 86.204 24.5382C86.2413 24.5781 86.2623 24.6321 86.2625 24.6885Z" fill="#3F3D56"/>
<path d="M74.4145 13.9631H71.393C71.2709 13.9631 71.1719 14.0689 71.1719 14.1993V14.4782C71.1719 14.6086 71.2709 14.7143 71.393 14.7143H74.4145C74.5366 14.7143 74.6356 14.6086 74.6356 14.4782V14.1993C74.6356 14.0689 74.5366 13.9631 74.4145 13.9631Z" fill="#E6E8EC"/>
<path d="M75.5584 14.7648C75.7787 14.7648 75.9573 14.574 75.9573 14.3387C75.9573 14.1034 75.7787 13.9126 75.5584 13.9126C75.338 13.9126 75.1594 14.1034 75.1594 14.3387C75.1594 14.574 75.338 14.7648 75.5584 14.7648Z" fill="#E6E8EC"/>
<path d="M84.4349 16.2338V63.0626C84.4352 63.3671 84.3734 63.668 84.2539 63.9444C84.1343 64.2208 83.9598 64.4661 83.7426 64.6632C83.3862 64.9877 82.9332 65.1659 82.4649 65.1658H64.6649C64.3482 65.1663 64.036 65.0851 63.7551 64.9289C63.6891 64.8928 63.6252 64.8525 63.5637 64.8082C63.2962 64.6154 63.0771 64.3554 62.9256 64.0511C62.7741 63.7467 62.6948 63.4073 62.6948 63.0626V16.2338C62.6948 15.9575 62.7458 15.6838 62.8448 15.4285C62.9438 15.1732 63.0889 14.9413 63.2718 14.7459C63.4547 14.5505 63.6719 14.3955 63.911 14.2898C64.15 14.184 64.4062 14.1296 64.6649 14.1296H67.329V14.4947C67.329 14.9542 67.4999 15.3949 67.8041 15.7198C68.1083 16.0447 68.5209 16.2273 68.9511 16.2273H78.0038C78.434 16.2273 78.8466 16.0447 79.1508 15.7198C79.455 15.3949 79.6259 14.9542 79.6259 14.4947V14.1296H82.4649C82.7236 14.1295 82.9798 14.1839 83.2189 14.2896C83.4579 14.3953 83.6752 14.5503 83.8581 14.7457C84.0411 14.9411 84.1862 15.1731 84.2851 15.4284C84.3841 15.6838 84.435 15.9574 84.4349 16.2338Z" fill="#4630AB"/>
<path opacity="0.3" d="M84.4349 56.3593V63.0628C84.4352 63.3672 84.3734 63.6681 84.2539 63.9445C84.1343 64.221 83.9598 64.4662 83.7426 64.6634C83.3862 64.9878 82.9332 65.166 82.4649 65.166H64.6649C64.3482 65.1665 64.036 65.0852 63.7551 64.9291C63.6891 64.893 63.6252 64.8526 63.5637 64.8083C63.2962 64.6155 63.0771 64.3556 62.9256 64.0512C62.7741 63.7469 62.6948 63.4074 62.6948 63.0628V56.362C65.6796 53.4965 69.551 51.9109 73.5644 51.9104C77.5777 51.9099 81.4495 53.4944 84.4349 56.3593Z" fill="white"/>
<path opacity="0.3" d="M83.3762 64.9271C83.0951 65.0848 82.7822 65.1668 82.4647 65.1659H64.6647C64.348 65.1664 64.0358 65.0851 63.7549 64.929C64.5607 62.859 65.9225 61.0904 67.6684 59.8461C69.4143 58.6018 71.4661 57.9377 73.565 57.9375C75.6639 57.9373 77.7158 58.601 79.4619 59.845C81.208 61.0889 82.57 62.8573 83.3762 64.9271Z" fill="white"/>
<path opacity="0.3" d="M79.5013 65.0397C79.3312 65.1351 79.1418 65.1847 78.9497 65.1841H68.1785C67.9868 65.1844 67.7979 65.1353 67.6279 65.0408C68.1156 63.7882 68.9396 62.7179 69.9961 61.965C71.0526 61.2121 72.2942 60.8102 73.5643 60.8101C74.8343 60.8099 76.076 61.2116 77.1326 61.9643C78.1892 62.7171 79.0134 63.7872 79.5013 65.0397Z" fill="white"/>
<path d="M78.092 32.2587C76.3065 32.2587 74.3469 31.8956 72.8171 30.6702C70.6873 28.9641 68.0632 29.0551 66.237 29.432C65.0239 29.6845 63.8465 30.1033 62.734 30.6783L62.6536 30.5135C63.7796 29.9311 64.9715 29.5066 66.1994 29.2505C68.0616 28.8656 70.7394 28.7736 72.9215 30.5216C77.0095 33.7962 84.3294 30.8551 84.4027 30.8251L84.4651 30.9986C83.0924 31.5212 81.6727 31.8903 80.2287 32.1001C79.5206 32.2033 78.8067 32.2563 78.092 32.2587Z" fill="white"/>
<path opacity="0.3" d="M62.6934 30.5959C62.6934 30.5959 68.6948 29.0434 72.8698 31.1691C77.0447 33.2948 84.4378 31.1533 84.4378 31.1533" fill="white"/>
<path opacity="0.3" d="M68.3588 33.0075C67.6338 33.0041 66.9108 32.927 66.1994 32.7773C64.9715 32.5212 63.7796 32.0967 62.6536 31.5143L62.734 31.3495C63.8465 31.9244 65.0239 32.3433 66.237 32.5958C68.0631 32.9726 70.6873 33.0637 72.8171 31.3576C74.9974 29.6112 78.0512 29.616 80.2287 29.9277C81.6727 30.1375 83.0924 30.5066 84.4651 31.0292L84.4027 31.2027C84.3293 31.1726 77.0095 28.2315 72.9215 31.5062C71.4906 32.6525 69.8463 33.0075 68.3588 33.0075Z" fill="white"/>
<path opacity="0.3" d="M68.3886 32.2595C65.3761 32.2595 62.701 31.1052 62.6609 31.0876L62.7271 30.9157C62.7867 30.9419 68.7363 33.5075 72.8253 30.9217C76.985 28.2909 84.3851 30.6392 84.4594 30.6633L84.4089 30.8411C84.3354 30.8173 77.0077 28.4925 72.9139 31.0816C71.5168 31.9651 69.9096 32.2595 68.3886 32.2595Z" fill="white"/>
<path opacity="0.3" d="M62.6948 30.8587C62.6948 30.8587 68.6954 32.9844 72.8704 30.8587C77.0453 28.733 84.4349 30.6578 84.4349 30.6578" fill="white"/>
<path d="M85.9836 36.5459V39.2541C85.9836 39.2541 86.1865 42.2873 87.3022 43.804C87.3022 43.804 89.1278 46.5663 89.3814 45.9705L89.0691 44.009L88.0122 42.9373L87.4543 39.5791L87.3022 36.5459H85.9836Z" fill="#FFB8B8"/>
<path d="M96.633 42.1248C96.633 42.1248 98.6615 61.6782 97.9008 61.7324C97.1401 61.7865 95.6695 62.8156 95.6695 62.1115C95.6695 61.4074 94.5031 52.2536 94.5031 52.2536L93.3874 47.5412V54.041L94.5538 61.4074C94.5538 61.4074 93.4381 62.9781 92.6267 62.0573L90.9024 54.8535C90.9024 54.8535 88.6204 43.9122 88.7218 43.0456C88.7218 43.0456 93.9452 38.2791 96.633 42.1248Z" fill="#2F2E41"/>
<path d="M91.3588 27.3379C91.3588 27.3379 91.1052 29.342 92.728 30.0461C94.3508 30.7503 89.1274 33.0793 88.6203 31.7252C88.1131 30.3711 88.7217 29.9378 88.7217 29.9378C88.7217 29.9378 89.2288 29.3961 88.7724 27.9337L91.3588 27.3379Z" fill="#FFB8B8"/>
<path d="M89.7362 28.7462C90.9686 28.7462 91.9676 27.6792 91.9676 26.363C91.9676 25.0467 90.9686 23.9797 89.7362 23.9797C88.5039 23.9797 87.5049 25.0467 87.5049 26.363C87.5049 27.6792 88.5039 28.7462 89.7362 28.7462Z" fill="#FFB8B8"/>
<path d="M92.3229 30.696C92.3229 30.696 90.8015 31.5627 89.3308 30.9127C87.8601 30.2627 87.9109 33.0793 87.9109 33.0793L88.6715 35.1917L93.9457 34.6501L93.5907 31.4002L92.3229 30.696Z" fill="#F2F2F2"/>
<path d="M91.5669 28.8428C91.837 28.904 92.0908 29.0293 92.3094 29.2095C92.528 29.3897 92.7059 29.6201 92.8299 29.8836L95.2641 30.6961L95.8726 31.6169L95.1627 38.2792C95.1627 38.2792 96.4812 39.6333 96.4812 40.3916C96.4812 41.1499 98.104 43.7498 97.2926 43.4248C96.4812 43.0998 95.0105 41.9623 95.0105 41.9623C95.0105 41.9623 91.3085 42.1248 90.1421 43.2081C88.9757 44.2914 88.5193 43.9664 88.5193 43.9664C88.5193 43.9664 87.3022 38.3333 87.2514 37.4667C87.2007 36.6001 85.7808 31.4003 85.7808 31.4003L88.3164 29.8836L88.9623 29.101L90.7506 32.1586L92.3734 30.0461C92.3734 30.0461 91.5717 29.3727 91.5669 28.8428Z" fill="#3F3D56"/>
<path d="M86.9977 31.4004L85.806 31.3733L85.5271 31.8879L85.8821 37.1419L87.7077 37.5751L86.9977 31.4004Z" fill="#3F3D56"/>
<path d="M91.5529 24.3474L91.9551 24.1911C91.9551 24.1911 91.1141 23.293 89.9441 23.3711L90.2732 23.0196C90.2732 23.0196 89.4688 22.7072 88.7376 23.5273C88.3531 23.9584 87.9084 24.4651 87.6311 25.0359H87.2004L87.3802 25.4199L86.751 25.8039L87.3968 25.735C87.3356 26.0665 87.3567 26.4093 87.4579 26.7295L87.6041 27.159C87.6041 27.159 88.1891 25.9094 88.1891 25.7532V26.1437C88.1891 26.1437 88.5913 25.7922 88.5913 25.5579L88.8107 25.8313L88.9204 25.4017L90.2732 25.8313L90.0538 25.4798L90.8948 25.597L90.5657 25.1674C90.5657 25.1674 91.5163 25.6751 91.5529 26.1047C91.5895 26.5342 91.8404 27.0942 91.8404 27.0942L92.1447 26.715C92.1447 26.715 92.6132 24.9331 91.5529 24.3474Z" fill="#2F2E41"/>
<path d="M41.7429 63.0791C42.8239 65.2203 45.1182 66.1395 45.1182 66.1395C45.1182 66.1395 45.6598 63.5871 44.5788 61.4459C43.4978 59.3047 41.2036 58.3855 41.2036 58.3855C41.2036 58.3855 40.6619 60.9379 41.7429 63.0791Z" fill="#3F3D56"/>
<path d="M42.4863 62.3747C44.438 63.6288 45.1896 66.1198 45.1896 66.1198C45.1896 66.1198 42.777 66.5775 40.8254 65.3234C38.8737 64.0693 38.1221 61.5783 38.1221 61.5783C38.1221 61.5783 40.5347 61.1206 42.4863 62.3747Z" fill="#4630AB"/>
<path opacity="0.3" d="M62.6948 30.596C62.6948 30.596 68.6954 27.2517 72.8704 30.596C77.0453 33.9403 84.4349 30.912 84.4349 30.912" fill="white"/>
<path d="M73.5879 64.6265C74.1163 64.6265 74.5446 64.169 74.5446 63.6046C74.5446 63.0403 74.1163 62.5828 73.5879 62.5828C73.0595 62.5828 72.6311 63.0403 72.6311 63.6046C72.6311 64.169 73.0595 64.6265 73.5879 64.6265Z" fill="white"/>
</g>
</g>
<g opacity="0.1">
<path opacity="0.1" d="M7.89688 47.493C8.00821 47.1317 8.45963 46.9654 8.90495 47.1215C8.96901 47.1439 9.03102 47.1725 9.09022 47.2069C9.11892 47.1986 9.14849 47.1911 9.17719 47.1856C9.15276 47.0818 9.14337 46.9746 9.14936 46.8678C8.99649 46.7574 8.87255 46.6071 8.78929 46.4312C8.70603 46.2553 8.66621 46.0596 8.67359 45.8627C8.51939 45.7543 8.39507 45.6039 8.3135 45.427C8.2285 45.2518 8.18859 45.0556 8.19782 44.8585C8.04372 44.7495 7.91946 44.5989 7.83774 44.4219C7.62377 43.9685 7.71075 43.4585 8.03691 43.282C8.36308 43.1055 8.79971 43.3331 9.01455 43.7864C9.09939 43.962 9.13902 44.1586 9.12936 44.3559C9.28263 44.4656 9.40691 44.6157 9.49023 44.7915C9.57354 44.9674 9.61311 45.1632 9.60512 45.3601C9.75835 45.4701 9.88257 45.6204 9.96587 45.7964C10.0492 45.9724 10.0888 46.1682 10.0809 46.3653C10.2342 46.475 10.3584 46.625 10.4418 46.8009C10.5251 46.9768 10.5646 47.1726 10.5567 47.3695C10.7111 47.4783 10.8357 47.629 10.9176 47.8061C10.9567 47.8918 10.9859 47.9823 11.0046 48.0755C11.0582 47.9913 11.1236 47.9164 11.1986 47.8535C11.2075 47.7819 11.2226 47.7113 11.2438 47.6426C11.3908 47.167 11.783 46.8771 12.1214 46.9923C12.4597 47.1075 12.6146 47.5934 12.4693 48.069C12.4093 48.2733 12.294 48.4539 12.1379 48.5883C12.1289 48.6596 12.1137 48.7299 12.0927 48.7983C12.0213 49.0504 11.8623 49.2638 11.6482 49.3947C11.665 49.4555 11.6772 49.5176 11.6848 49.5805C11.7746 49.6725 11.849 49.7803 11.9048 49.8991C11.9617 50.0177 11.9988 50.1459 12.0144 50.2781C12.1045 50.3701 12.1793 50.4778 12.2353 50.5968C12.2921 50.7154 12.3292 50.8436 12.3449 50.9758C12.4353 51.0679 12.51 51.176 12.5658 51.2953C12.7807 51.7487 12.692 52.2596 12.3675 52.4343C12.0431 52.6089 11.6047 52.3841 11.3899 51.9298C11.3333 51.8112 11.2962 51.6829 11.2803 51.5508C11.0991 51.3651 10.9825 51.1191 10.9498 50.8532C10.7686 50.6675 10.652 50.4214 10.6193 50.1555C10.5292 50.0635 10.4545 49.9557 10.3984 49.8369C10.3421 49.718 10.3051 49.5899 10.2888 49.4578C10.199 49.3658 10.1246 49.258 10.0687 49.1392C10.0118 49.0206 9.97472 48.8924 9.95912 48.7602C9.90313 48.7044 9.85323 48.6421 9.81039 48.5744C9.63144 48.6135 9.44599 48.6013 9.27287 48.5391C9.20857 48.5162 9.14629 48.4872 9.08674 48.4527C8.89329 48.5075 8.68894 48.4998 8.49964 48.4304C8.05866 48.2734 7.78642 47.8544 7.89688 47.493Z" fill="#3F3D56"/>
<g opacity="0.1">
<path opacity="0.1" d="M8.6814 46.0691C8.72751 46.1176 8.77823 46.1609 8.83274 46.1982C8.82537 46.3316 8.8419 46.4653 8.88145 46.5921C8.8465 46.5414 8.81565 46.4877 8.78925 46.4314C8.73485 46.3178 8.69841 46.1954 8.6814 46.0691Z" fill="black"/>
<path opacity="0.1" d="M8.20605 45.0657C8.2524 45.1137 8.3031 45.1566 8.3574 45.1939C8.35009 45.3276 8.36662 45.4616 8.4061 45.5887C8.30075 45.4342 8.23209 45.2547 8.20605 45.0657Z" fill="black"/>
<path opacity="0.1" d="M9.28772 44.6913C9.29186 44.6225 9.28953 44.5534 9.28076 44.4851C9.36579 44.5748 9.43659 44.6786 9.49038 44.7926C9.51664 44.8489 9.53874 44.9073 9.55648 44.9672C9.484 44.858 9.39281 44.7644 9.28772 44.6913Z" fill="black"/>
<path opacity="0.1" d="M12.3052 50.7724C12.2672 50.7155 12.224 50.6626 12.1765 50.6145C12.1685 50.5516 12.1557 50.4894 12.1382 50.4287C12.1759 50.4833 12.2094 50.5411 12.2382 50.6015C12.2646 50.6566 12.287 50.7137 12.3052 50.7724Z" fill="black"/>
<path opacity="0.1" d="M11.9721 50.0747C11.9341 50.0177 11.891 49.9648 11.8434 49.9168C11.8363 49.8538 11.8241 49.7916 11.8069 49.731C11.8785 49.8346 11.9338 49.9501 11.9704 50.0728L11.9721 50.0747Z" fill="black"/>
<path opacity="0.1" d="M9.15843 47.0761C9.20409 47.1242 9.25455 47.1669 9.3089 47.2034C9.3024 47.3102 9.31179 47.4174 9.33673 47.5211C9.30742 47.5266 9.27839 47.5337 9.24976 47.5424C9.19018 47.5082 9.1279 47.4796 9.06362 47.457C8.6183 47.3009 8.16688 47.4672 8.05642 47.8286C8.02874 47.9185 8.02364 48.0146 8.04164 48.1073C7.97008 48.0269 7.91918 47.9281 7.89389 47.8205C7.86859 47.7129 7.86975 47.6002 7.89725 47.4932C8.00858 47.1318 8.46 46.9655 8.90533 47.1216C8.96938 47.144 9.03139 47.1726 9.09059 47.2071C9.11929 47.1987 9.14886 47.1913 9.17757 47.1857C9.1692 47.1496 9.16281 47.113 9.15843 47.0761Z" fill="black"/>
<path opacity="0.1" d="M12.469 51.1226C12.5069 51.1773 12.5404 51.2354 12.569 51.2963C12.5956 51.3525 12.618 51.4109 12.636 51.4709C12.598 51.4137 12.5549 51.3605 12.5073 51.3121C12.4995 51.2479 12.4867 51.1845 12.469 51.1226Z" fill="black"/>
<path opacity="0.1" d="M9.76282 45.6974C9.76697 45.6286 9.76464 45.5595 9.75586 45.4912C9.84109 45.5807 9.91192 45.6846 9.96547 45.7987C9.99173 45.8547 10.0138 45.9128 10.0316 45.9724C9.95908 45.8634 9.86788 45.7701 9.76282 45.6974Z" fill="black"/>
<path opacity="0.1" d="M10.451 49.7943C10.4591 49.8637 10.4734 49.9321 10.4936 49.9987C10.4211 49.8925 10.3658 49.7741 10.3301 49.6484C10.3662 49.7008 10.4067 49.7496 10.451 49.7943Z" fill="black"/>
<path opacity="0.1" d="M11.1115 51.1895C11.1203 51.2589 11.1348 51.3273 11.155 51.3939C11.12 51.3432 11.0892 51.2894 11.0628 51.2332C11.0342 51.1735 11.0103 51.1113 10.9915 51.0474C11.0279 51.0981 11.068 51.1456 11.1115 51.1895Z" fill="black"/>
<path opacity="0.1" d="M10.7818 50.492C10.7899 50.5614 10.8042 50.6298 10.8244 50.6964C10.7898 50.6455 10.7589 50.5917 10.7322 50.5357C10.7035 50.476 10.6796 50.4139 10.6609 50.3499C10.6972 50.4009 10.7376 50.4485 10.7818 50.492Z" fill="black"/>
<path opacity="0.1" d="M10.1209 49.0956C10.129 49.1653 10.1433 49.234 10.1636 49.3008C10.1306 49.2499 10.1015 49.1961 10.0766 49.1401C10.0474 49.0806 10.0233 49.0184 10.0044 48.9543C10.0391 49.0051 10.0782 49.0524 10.1209 49.0956Z" fill="black"/>
<path opacity="0.1" d="M12.2834 47.3315C11.9451 47.2126 11.5528 47.5024 11.4067 47.9818C11.3856 48.0504 11.3704 48.121 11.3615 48.1927C11.2862 48.2552 11.2205 48.3298 11.1666 48.4138C11.1465 48.3204 11.1158 48.2299 11.0753 48.1444C11.0605 48.1128 11.044 48.0821 11.0266 48.0515C11.076 47.9783 11.1345 47.9126 11.2006 47.8564C11.2095 47.7847 11.2246 47.7141 11.2458 47.6455C11.3928 47.1699 11.7851 46.88 12.1234 46.9952C12.2204 47.035 12.3062 47.1009 12.3723 47.1865C12.4385 47.2721 12.4827 47.3746 12.5009 47.4839C12.4418 47.4141 12.3669 47.3616 12.2834 47.3315Z" fill="black"/>
<path opacity="0.1" d="M10.7147 47.706C10.7189 47.6372 10.7165 47.5681 10.7078 47.4998C10.793 47.5892 10.8638 47.6931 10.9174 47.8073C10.9436 47.8635 10.9657 47.9219 10.9835 47.9819C10.9112 47.8724 10.82 47.7788 10.7147 47.706Z" fill="black"/>
<path opacity="0.1" d="M10.2382 46.7006C10.2423 46.6318 10.24 46.5627 10.2312 46.4944C10.316 46.5842 10.3868 46.6881 10.4408 46.8019C10.4671 46.8582 10.4892 46.9166 10.5069 46.9765C10.4344 46.8673 10.3432 46.7736 10.2382 46.7006Z" fill="black"/>
<path opacity="0.1" d="M11.4416 51.8873C11.4499 51.957 11.4645 52.0258 11.485 52.0926C11.4503 52.0414 11.4195 51.9874 11.3929 51.9309C11.3642 51.8712 11.3404 51.8091 11.3215 51.7451C11.358 51.7958 11.3981 51.8433 11.4416 51.8873Z" fill="black"/>
</g>
<path opacity="0.1" d="M7.24685 42.8492C7.09265 42.7408 6.96834 42.5904 6.88677 42.4135C6.67193 41.9593 6.76065 41.4492 7.08508 41.2737C7.4095 41.0981 7.84787 41.3238 8.06271 41.7781C8.14768 41.9533 8.18732 42.1496 8.17752 42.3466C8.33075 42.4567 8.45496 42.6069 8.53826 42.7829C8.62157 42.9589 8.66117 43.1548 8.65329 43.3518C8.80759 43.4603 8.93215 43.6107 9.01425 43.7875C9.04035 43.8432 9.06245 43.901 9.08035 43.9603C8.96513 43.7847 8.79926 43.6541 8.60806 43.5887C8.58676 43.6612 8.55213 43.7286 8.5062 43.7867C8.46027 43.8448 8.40396 43.8925 8.34055 43.9271C8.27714 43.9617 8.20791 43.9825 8.13691 43.9882C8.06591 43.9939 7.99455 43.9844 7.92702 43.9603C7.86253 44.1636 7.86253 44.384 7.92702 44.5873C7.89434 44.5368 7.86527 44.4837 7.84004 44.4285C7.75505 44.2532 7.71513 44.057 7.72436 43.8599C7.57132 43.7497 7.44724 43.5995 7.36396 43.4235C7.28067 43.2476 7.24096 43.0518 7.24859 42.8548L7.24685 42.8492Z" fill="#3F3D56"/>
<path opacity="0.1" d="M2.01744 36.4076C1.8855 36.3417 1.75793 36.2663 1.6356 36.1819L3.0516 35.0764L1.38685 35.9914C1.05025 35.7056 0.771815 35.3493 0.56857 34.9446C0.365325 34.5398 0.24155 34.095 0.204819 33.6374L3.03508 33.669L0.19873 33.1618C0.223153 32.6996 0.336418 32.2478 0.531469 31.8344C0.726521 31.4211 0.99918 31.0551 1.33246 30.7592C1.66574 30.4633 2.05249 30.2439 2.46863 30.1146C2.88477 29.9853 3.32138 29.949 3.75125 30.0078C4.18112 30.0666 4.59504 30.2194 4.96723 30.4565C5.33942 30.6936 5.6619 31.0101 5.91457 31.3862C6.16725 31.7622 6.34471 32.1899 6.4359 32.6424C6.52709 33.0949 6.53005 33.5626 6.44461 34.0164C6.65006 34.1179 6.84482 34.2425 7.02562 34.388L5.547 36.5841L7.32221 34.663C7.69681 35.056 7.97379 35.5425 8.12808 36.0786C8.28237 36.6147 8.30912 37.1834 8.20591 37.7333C8.74292 38.0004 9.1987 38.4236 9.52113 38.9544C9.84356 39.4852 10.0196 40.1022 10.0292 40.7348C10.0388 41.3675 9.88144 41.9902 9.57522 42.5319C9.269 43.0735 8.82625 43.5122 8.2976 43.7977C7.76894 44.0833 7.17572 44.2041 6.58578 44.1465C5.99583 44.0889 5.43297 43.8551 4.96156 43.4719C4.49016 43.0887 4.12923 42.5716 3.92006 41.9796C3.71089 41.3876 3.66191 40.7447 3.77874 40.1244C3.13779 39.8054 2.61575 39.2657 2.29636 38.5918C1.97697 37.918 1.87874 37.1491 2.01744 36.4085V36.4076Z" fill="#4630AB"/>
<path opacity="0.1" d="M7.92762 35.5511C8.24841 36.2254 8.34649 36.9957 8.20595 37.737C8.74296 38.0041 9.19874 38.4273 9.52117 38.9581C9.84361 39.4889 10.0197 40.1059 10.0292 40.7385C10.0388 41.3712 9.88148 41.9939 9.57526 42.5356C9.26905 43.0772 8.8263 43.5159 8.29764 43.8014C7.76899 44.087 7.17577 44.2078 6.58582 44.1502C5.99587 44.0926 5.43302 43.8589 4.96161 43.4757C4.4902 43.0925 4.12927 42.5753 3.9201 41.9833C3.71093 41.3914 3.66196 40.7485 3.77878 40.1282C3.15863 39.8207 7.76845 35.2139 7.92762 35.5511Z" fill="black"/>
<path opacity="0.1" d="M4.37189 30.6721C4.6308 30.6721 4.8407 30.4479 4.8407 30.1714C4.8407 29.8948 4.6308 29.6707 4.37189 29.6707C4.11297 29.6707 3.90308 29.8948 3.90308 30.1714C3.90308 30.4479 4.11297 30.6721 4.37189 30.6721Z" fill="#4630AB"/>
<path opacity="0.1" d="M1.63531 30.9936C1.89423 30.9936 2.10412 30.7694 2.10412 30.4929C2.10412 30.2164 1.89423 29.9922 1.63531 29.9922C1.3764 29.9922 1.1665 30.2164 1.1665 30.4929C1.1665 30.7694 1.3764 30.9936 1.63531 30.9936Z" fill="#4630AB"/>
<path opacity="0.1" d="M0.581603 35.4887C0.84052 35.4887 1.05041 35.2646 1.05041 34.988C1.05041 34.7115 0.84052 34.4873 0.581603 34.4873C0.322687 34.4873 0.112793 34.7115 0.112793 34.988C0.112793 35.2646 0.322687 35.4887 0.581603 35.4887Z" fill="#4630AB"/>
<path opacity="0.1" d="M2.00543 37.7341C2.26435 37.7341 2.47424 37.5099 2.47424 37.2334C2.47424 36.9568 2.26435 36.7327 2.00543 36.7327C1.74651 36.7327 1.53662 36.9568 1.53662 37.2334C1.53662 37.5099 1.74651 37.7341 2.00543 37.7341Z" fill="#4630AB"/>
<path opacity="0.1" d="M3.95001 42.3967C4.20893 42.3967 4.41882 42.1725 4.41882 41.896C4.41882 41.6194 4.20893 41.3953 3.95001 41.3953C3.69109 41.3953 3.4812 41.6194 3.4812 41.896C3.4812 42.1725 3.69109 42.3967 3.95001 42.3967Z" fill="#4630AB"/>
<path opacity="0.1" d="M3.95001 42.3967C4.20893 42.3967 4.41882 42.1725 4.41882 41.896C4.41882 41.6194 4.20893 41.3953 3.95001 41.3953C3.69109 41.3953 3.4812 41.6194 3.4812 41.896C3.4812 42.1725 3.69109 42.3967 3.95001 42.3967Z" fill="black"/>
<path opacity="0.1" d="M8.27545 37.1155C8.53437 37.1155 8.74426 36.8913 8.74426 36.6147C8.74426 36.3382 8.53437 36.114 8.27545 36.114C8.01653 36.114 7.80664 36.3382 7.80664 36.6147C7.80664 36.8913 8.01653 37.1155 8.27545 37.1155Z" fill="#4630AB"/>
<path opacity="0.1" d="M8.27545 37.1155C8.53437 37.1155 8.74426 36.8913 8.74426 36.6147C8.74426 36.3382 8.53437 36.114 8.27545 36.114C8.01653 36.114 7.80664 36.3382 7.80664 36.6147C7.80664 36.8913 8.01653 37.1155 8.27545 37.1155Z" fill="black"/>
<path opacity="0.1" d="M8.77572 44.8437C9.08711 44.6755 9.18104 44.1999 8.99926 43.7605C9.00883 43.7791 9.01839 43.7967 9.02709 43.8153C9.24193 44.2696 9.15321 44.7796 8.82791 44.9552C8.50262 45.1307 8.06599 44.905 7.85115 44.4507C7.84245 44.4321 7.83376 44.4136 7.82593 44.3941C8.04946 44.8112 8.46434 45.0118 8.77572 44.8437Z" fill="black"/>
<path opacity="0.1" d="M9.23824 45.821C9.54962 45.6528 9.64442 45.1763 9.46264 44.7378C9.47221 44.7554 9.48177 44.774 9.49047 44.7926C9.70531 45.2469 9.61659 45.7569 9.29129 45.9324C8.966 46.108 8.52937 45.8823 8.31453 45.428C8.30496 45.4094 8.29713 45.3899 8.28931 45.3713C8.51284 45.7903 8.92859 45.9891 9.23824 45.821Z" fill="black"/>
<path opacity="0.1" d="M9.70015 46.7973C10.0115 46.6292 10.1063 46.1535 9.92368 45.7141C9.93412 45.7327 9.94282 45.7503 9.95238 45.7699C10.1672 46.2232 10.0776 46.7341 9.75321 46.9088C9.42878 47.0834 8.99128 46.8586 8.77644 46.4043C8.76688 46.3858 8.75905 46.3672 8.75122 46.3477C8.97388 46.7648 9.38877 46.9654 9.70015 46.7973Z" fill="black"/>
<path opacity="0.1" d="M10.1628 47.7746C10.4742 47.6064 10.569 47.1308 10.3863 46.6914C10.3959 46.7091 10.4055 46.7276 10.4142 46.7462C10.6299 47.2005 10.5403 47.7105 10.2159 47.8861C9.89142 48.0616 9.45306 47.8359 9.23822 47.3816C9.22952 47.3631 9.2217 47.3435 9.21387 47.325C9.43653 47.7411 9.85142 47.9427 10.1628 47.7746Z" fill="black"/>
<path opacity="0.1" d="M10.6256 48.751C10.937 48.5828 11.0309 48.1072 10.8491 47.6687C10.8587 47.6864 10.8682 47.7049 10.8769 47.7235C11.0918 48.1778 11.0031 48.6878 10.6786 48.8634C10.3542 49.0389 9.91584 48.8123 9.701 48.3589C9.69231 48.3394 9.68448 48.3208 9.67578 48.3023C9.89931 48.7184 10.3142 48.9191 10.6256 48.751Z" fill="black"/>
<path opacity="0.1" d="M11.0882 49.7282C11.3996 49.5601 11.4935 49.0844 11.3118 48.645C11.3213 48.6636 11.3309 48.6813 11.3396 48.6998C11.5544 49.1541 11.4657 49.6641 11.1413 49.8397C10.8169 50.0153 10.3785 49.7895 10.1637 49.3353C10.155 49.3167 10.1463 49.2981 10.1384 49.2786C10.362 49.692 10.7768 49.8964 11.0882 49.7282Z" fill="black"/>
<path opacity="0.1" d="M11.5516 50.7055C11.8621 50.5373 11.9569 50.0608 11.7751 49.6223C11.7847 49.64 11.7943 49.6585 11.803 49.6771C12.0178 50.1314 11.9291 50.6414 11.6038 50.817C11.2785 50.9925 10.8419 50.7659 10.627 50.3125C10.6183 50.293 10.6096 50.2745 10.6018 50.2559C10.8253 50.6721 11.2402 50.8736 11.5516 50.7055Z" fill="black"/>
<path opacity="0.1" d="M12.0136 51.6818C12.325 51.5137 12.4198 51.038 12.2372 50.5986C12.2476 50.6172 12.2563 50.6349 12.2659 50.6544C12.4807 51.1077 12.3911 51.6186 12.0667 51.7933C11.7423 51.9679 11.3048 51.7431 11.0899 51.2889C11.0804 51.2703 11.0725 51.2517 11.0647 51.2322C11.2882 51.6493 11.7022 51.85 12.0136 51.6818Z" fill="black"/>
<path opacity="0.1" d="M12.3206 52.3237C12.632 52.1555 12.726 51.6799 12.5442 51.2405C12.5537 51.2591 12.5633 51.2767 12.572 51.2962C12.7868 51.7496 12.6981 52.2605 12.3737 52.4352C12.0493 52.6098 11.6109 52.385 11.3961 51.9307C11.3874 51.9121 11.3787 51.8936 11.3708 51.874C11.5918 52.293 12.0067 52.4918 12.3206 52.3237Z" fill="black"/>
<path opacity="0.1" d="M3.95831 47.9762C3.91 47.8285 3.88074 47.6744 3.87133 47.5183C3.83917 47.5181 3.80737 47.5109 3.77793 47.4971C3.7485 47.4833 3.72204 47.4631 3.70023 47.4379C3.67841 47.4126 3.66171 47.3828 3.65115 47.3504C3.64059 47.3179 3.63641 47.2835 3.63887 47.2493C3.64133 47.215 3.65037 47.1817 3.66543 47.1513C3.68049 47.121 3.70126 47.0943 3.72642 47.0729C3.75158 47.0515 3.7806 47.0358 3.81167 47.027C3.84274 47.0181 3.87519 47.0161 3.90699 47.0213C3.95918 46.7681 4.06344 46.5304 4.21221 46.3256C4.36099 46.1207 4.55056 45.9538 4.7672 45.8368C4.73917 45.7776 4.73433 45.7088 4.75374 45.6458C4.77315 45.5827 4.81523 45.5305 4.8707 45.5005C4.92618 45.4706 4.99052 45.4654 5.04957 45.4862C5.10862 45.5069 5.15754 45.5518 5.18556 45.6111C5.19575 45.6321 5.20279 45.6546 5.20644 45.678C5.46381 45.6275 5.72873 45.6433 5.97923 45.7241C6.22972 45.8049 6.45858 45.9483 6.64679 46.1424C6.79055 46.1173 6.93683 46.1129 7.08168 46.1294L7.27129 47.051L7.27564 46.162C7.4913 46.2152 7.69463 46.3145 7.87337 46.454C8.05212 46.5934 8.20258 46.7701 8.31569 46.9733C8.42879 47.1765 8.5022 47.402 8.53149 47.6364C8.56078 47.8707 8.54534 48.1089 8.4861 48.3367C8.42686 48.5645 8.32505 48.7771 8.18681 48.9618C8.04856 49.1464 7.87675 49.2992 7.68172 49.411C7.48669 49.5228 7.27249 49.5913 7.05202 49.6123C6.83155 49.6333 6.60938 49.6064 6.3989 49.5332C6.37601 49.5764 6.34187 49.6116 6.30062 49.6345C6.25763 49.6576 6.20901 49.6661 6.16134 49.6588C6.11368 49.6515 6.06928 49.6287 6.03415 49.5935C5.99903 49.5583 5.97488 49.5125 5.96498 49.4621C5.95508 49.4118 5.9599 49.3594 5.9788 49.3121C5.90422 49.2565 5.83411 49.1943 5.76918 49.1263C5.42706 49.1855 5.07618 49.1275 4.76681 48.9606C4.45744 48.7938 4.20548 48.5266 4.04702 48.1973L4.92985 48.0385L3.95831 47.9762Z" fill="#4630AB"/>
<g opacity="0.1">
<path opacity="0.1" d="M5.32157 48.424C5.64773 47.9595 5.84778 47.4207 6.0774 46.8986C6.16936 46.6837 6.27274 46.4747 6.38704 46.2725L6.561 46.0579C6.59057 46.0848 6.61927 46.1117 6.64798 46.1396C6.79174 46.1145 6.93801 46.1101 7.08287 46.1266L7.27248 47.0481L7.27509 46.1619C7.49075 46.2152 7.69408 46.3145 7.87282 46.4539C8.05157 46.5934 8.20203 46.77 8.31513 46.9732C8.42824 47.1764 8.50165 47.402 8.53094 47.6363C8.56023 47.8707 8.54478 48.1089 8.48555 48.3367C8.42631 48.5645 8.3245 48.7771 8.18625 48.9617C8.04801 49.1463 7.8762 49.2992 7.68117 49.411C7.48614 49.5228 7.27193 49.5912 7.05146 49.6122C6.83099 49.6332 6.60883 49.6063 6.39835 49.5332C6.37546 49.5764 6.34131 49.6115 6.30007 49.6344C6.25708 49.6576 6.20846 49.6661 6.16079 49.6588C6.11313 49.6514 6.06872 49.6286 6.0336 49.5935C5.99847 49.5583 5.97433 49.5124 5.96442 49.4621C5.95452 49.4117 5.95935 49.3594 5.97825 49.3121C5.90367 49.2564 5.83355 49.1943 5.76863 49.1263C5.43359 49.1836 5.09013 49.1295 4.78491 48.9711C4.9902 48.8208 5.17142 48.636 5.32157 48.424Z" fill="black"/>
</g>
<path opacity="0.1" d="M11.0948 46.4488C11.0809 46.4195 11.0726 46.3876 11.0702 46.3549C11.0679 46.3222 11.0717 46.2893 11.0813 46.2581C11.0909 46.227 11.1062 46.1981 11.1263 46.1733C11.1464 46.1485 11.1709 46.1281 11.1983 46.1134C11.2312 46.0955 11.2676 46.0862 11.3045 46.0865C11.3708 45.7103 11.5508 45.3677 11.8168 45.1111C11.7737 44.9325 11.7576 44.7478 11.7689 44.5639L12.6291 44.4097L11.7933 44.353C11.8084 44.2691 11.8293 44.1865 11.8559 44.1059C11.8231 44.0826 11.7964 44.0506 11.7785 44.013C11.7576 43.9683 11.7497 43.9179 11.7558 43.8683C11.7619 43.8187 11.7817 43.7722 11.8128 43.7347C11.8438 43.6973 11.8846 43.6706 11.93 43.6581C11.9753 43.6456 12.0231 43.6479 12.0673 43.6647C12.2209 43.4312 12.4261 43.242 12.6648 43.1138C12.9459 42.9614 13.2621 42.8989 13.5757 42.9337C13.8892 42.9685 14.1867 43.0991 14.4324 43.3099C14.6782 43.5207 14.8618 43.8028 14.9613 44.1223C15.0607 44.4417 15.0718 44.785 14.9932 45.1111C15.0341 45.1298 15.0691 45.1606 15.0942 45.1998C15.1193 45.239 15.1334 45.2851 15.1349 45.3325C15.1363 45.38 15.1251 45.427 15.1024 45.4679C15.0798 45.5088 15.0468 45.5419 15.0071 45.5635C14.9774 45.5796 14.9448 45.5887 14.9115 45.5903C14.8782 45.5919 14.845 45.5859 14.814 45.5728C14.7301 45.7231 14.6254 45.859 14.5035 45.976C14.5926 46.3464 14.5661 46.7379 14.4278 47.0907L13.2771 46.7674L14.3061 47.3462C14.1516 47.6095 13.9343 47.8242 13.6766 47.9682C13.4188 48.1123 13.1298 48.1805 12.8392 48.166C12.5486 48.1514 12.2668 48.0546 12.0228 47.8854C11.7788 47.7162 11.5813 47.4807 11.4506 47.2031C11.3596 47.0099 11.3024 46.8005 11.2818 46.5854C11.2424 46.5815 11.2044 46.567 11.1717 46.5431C11.139 46.5192 11.1125 46.4867 11.0948 46.4488Z" fill="#4630AB"/>
<path opacity="0.1" d="M11.0948 46.449C11.0809 46.4197 11.0726 46.3878 11.0702 46.3551C11.0679 46.3224 11.0717 46.2895 11.0813 46.2583C11.0909 46.2271 11.1062 46.1983 11.1263 46.1735C11.1464 46.1487 11.1709 46.1283 11.1983 46.1136C11.2312 46.0957 11.2676 46.0864 11.3045 46.0867C11.3708 45.7105 11.5508 45.3678 11.8168 45.1113C11.8098 45.0825 11.8037 45.0527 11.7985 45.0239C11.8297 45.0477 11.8588 45.0744 11.8855 45.1038C12.0412 45.2896 12.1212 45.5302 12.2743 45.7142C12.4661 45.9255 12.7239 46.0541 12.9988 46.0755C13.271 46.0955 13.5445 46.0721 13.8103 46.0059C14.0295 45.9456 14.2556 45.919 14.4818 45.9269L14.5461 45.9362L14.5061 45.9761C14.5953 46.3466 14.5687 46.738 14.4304 47.0909L13.2771 46.7676L14.3061 47.3464C14.1516 47.6097 13.9343 47.8244 13.6765 47.9684C13.4188 48.1125 13.1298 48.1807 12.8392 48.1662C12.5486 48.1516 12.2668 48.0548 12.0228 47.8856C11.7788 47.7164 11.5813 47.4809 11.4506 47.2033C11.3596 47.0101 11.3024 46.8007 11.2818 46.5855C11.2424 46.5817 11.2044 46.5672 11.1717 46.5433C11.139 46.5194 11.1125 46.4869 11.0948 46.449Z" fill="black"/>
</g>
<path opacity="0.1" d="M30.2375 4.82244C29.8936 4.75272 29.5381 4.79412 29.2164 4.94135C29.0234 5.03321 28.8145 5.08068 28.6032 5.08068C28.3919 5.08068 28.183 5.03321 27.99 4.94135C27.7619 4.83456 27.5148 4.78199 27.2658 4.78728C27.0168 4.79258 26.7718 4.85561 26.5479 4.97201C26.42 5.04415 26.2776 5.08209 26.133 5.08256C25.5485 5.08256 25.0623 4.45364 24.9614 3.62406C25.078 3.53282 25.1772 3.41869 25.2537 3.28777C25.5964 2.69787 26.1234 2.31885 26.7227 2.31885C27.322 2.31885 27.8439 2.69044 28.1866 3.27662C28.2889 3.45266 28.432 3.5976 28.602 3.69749C28.772 3.79739 28.9632 3.84888 29.1572 3.84702H29.1729C29.6339 3.84423 30.0366 4.24276 30.2375 4.82244Z" fill="#4630AB"/>
<path opacity="0.1" d="M32.0134 2.22119L31.0688 2.86125L31.642 1.74648C31.4795 1.60814 31.2784 1.53165 31.0706 1.5291H31.0558C30.9902 1.52995 30.9248 1.52467 30.8601 1.5133L30.5391 1.73069L30.6766 1.46407C30.4504 1.38 30.2545 1.22246 30.1164 1.01351L29.5415 1.39718L29.9033 0.693946C29.5685 0.263829 29.1162 0 28.6195 0C28.0237 0 27.4888 0.379023 27.1496 0.968924C27.0481 1.14512 26.9048 1.2895 26.7341 1.3874C26.5635 1.48529 26.3716 1.53322 26.1781 1.52631H26.1494C25.4918 1.52631 24.9578 2.32244 24.9578 3.30623C24.9578 4.29002 25.4918 5.08523 26.1494 5.08523C26.294 5.08476 26.4364 5.04682 26.5642 4.97468C26.7882 4.85818 27.0332 4.79517 27.2822 4.79004C27.5313 4.78491 27.7784 4.83777 28.0063 4.94495C28.1994 5.03652 28.4083 5.08384 28.6195 5.08384C28.8308 5.08384 29.0397 5.03652 29.2327 4.94495C29.459 4.84004 29.7037 4.7884 29.9503 4.79353C30.1969 4.79866 30.4395 4.86044 30.6618 4.97468C30.7887 5.04489 30.9294 5.08183 31.0723 5.08244C31.7307 5.08244 32.2639 4.2863 32.2639 3.30345C32.2662 2.92603 32.1801 2.55398 32.0134 2.22119Z" fill="#4630AB"/>
<path opacity="0.1" d="M10.5807 17.6925C10.0896 17.5932 9.58187 17.6521 9.12209 17.8616C8.84617 17.9922 8.54758 18.0593 8.24576 18.0585C7.94395 18.0577 7.64567 17.989 7.37036 17.8569C7.04459 17.7044 6.69168 17.6293 6.33605 17.6368C5.98041 17.6443 5.63057 17.7343 5.31072 17.9006C5.1278 18.0035 4.92429 18.0577 4.71754 18.0585C3.88255 18.0585 3.1876 17.1602 3.04321 15.9748C3.21006 15.845 3.35183 15.6819 3.46071 15.4945C3.95039 14.6519 4.70884 14.1104 5.56035 14.1104C6.41186 14.1104 7.16074 14.6454 7.64782 15.4787C7.7942 15.7313 7.99931 15.9391 8.24319 16.0818C8.48706 16.2246 8.76138 16.2975 9.03946 16.2935H9.06121C9.7205 16.2925 10.2963 16.862 10.5807 17.6925Z" fill="#4630AB"/>
<path opacity="0.1" d="M13.1201 13.9718L11.7702 14.8859L12.5896 13.2946C12.3574 13.0966 12.0699 12.9871 11.7728 12.9833H11.7511C11.6573 12.9848 11.5636 12.9773 11.471 12.961L11.0153 13.276L11.2118 12.8951C10.8875 12.774 10.6074 12.5464 10.4116 12.2448L9.59231 12.8022L10.1081 11.7896C9.62884 11.1756 8.98346 10.7993 8.27373 10.7993C7.42221 10.7993 6.66377 11.34 6.17408 12.1826C6.02904 12.4354 5.82383 12.6426 5.57936 12.7831C5.33488 12.9237 5.0599 12.9924 4.78243 12.9824H4.73634C3.79611 12.9824 3.03418 14.1204 3.03418 15.525C3.03418 16.9296 3.79611 18.0676 4.73634 18.0676C4.94323 18.0671 5.14685 18.0125 5.32953 17.9088C5.64943 17.7427 5.99931 17.6528 6.35494 17.6455C6.71057 17.6381 7.06346 17.7134 7.38916 17.8661C7.66447 17.9982 7.96275 18.0668 8.26456 18.0676C8.56638 18.0684 8.86497 18.0013 9.14089 17.8707C9.46419 17.7208 9.8139 17.647 10.1663 17.6542C10.5187 17.6614 10.8654 17.7495 11.1831 17.9125C11.3641 18.0136 11.5651 18.0668 11.7694 18.0676C12.7096 18.0676 13.4715 16.9287 13.4715 15.525C13.4781 14.984 13.3572 14.4499 13.1201 13.9718Z" fill="#4630AB"/>
<path opacity="0.1" d="M65.1697 8.44525C65.5136 8.37559 65.8691 8.41699 66.1908 8.56416C66.3836 8.65605 66.5924 8.70354 66.8036 8.70354C67.0147 8.70354 67.2235 8.65605 67.4163 8.56416C67.6444 8.45737 67.8915 8.4048 68.1405 8.41009C68.3895 8.41539 68.6345 8.47841 68.8584 8.59482C68.9863 8.66686 69.1287 8.70479 69.2733 8.70536C69.8578 8.70536 70.3449 8.07645 70.4458 7.24687C70.329 7.15587 70.2298 7.04169 70.1535 6.91058C69.8126 6.31882 69.2794 5.93701 68.6818 5.93701C68.0843 5.93701 67.5616 6.3086 67.2189 6.89479C67.1167 7.07161 66.9735 7.21728 66.8031 7.31769C66.6328 7.4181 66.441 7.46986 66.2465 7.46797H66.2317C65.769 7.46704 65.3654 7.86557 65.1697 8.44525Z" fill="#4630AB"/>
<path opacity="0.1" d="M63.3883 5.84423L64.3329 6.48243L63.7588 5.36766C63.9214 5.22945 64.1225 5.15297 64.3302 5.15028H64.3459C64.4114 5.15108 64.4769 5.1458 64.5416 5.13449L64.8617 5.35187L64.7243 5.08525C64.952 5.00259 65.1498 4.84565 65.2896 4.63656L65.8628 5.02487L65.5001 4.32163C65.8358 3.89152 66.2829 3.62769 66.7848 3.62769C67.3806 3.62769 67.9155 4.00671 68.2547 4.59661C68.3561 4.77288 68.4994 4.91731 68.6701 5.01521C68.8407 5.11311 69.0326 5.161 69.2262 5.154H69.2575C69.916 5.154 70.4491 5.95013 70.4491 6.93392C70.4491 7.91771 69.916 8.71291 69.2575 8.71291C69.1129 8.71222 68.9706 8.6743 68.8427 8.60236C68.6187 8.48587 68.3737 8.42286 68.1247 8.41773C67.8756 8.41259 67.6285 8.46545 67.4006 8.57263C67.2077 8.66419 66.9989 8.71149 66.7878 8.71149C66.5767 8.71149 66.368 8.66419 66.175 8.57263C65.9487 8.46771 65.7038 8.41606 65.4571 8.42119C65.2103 8.42632 64.9675 8.48811 64.7451 8.60236C64.6183 8.67268 64.4775 8.70963 64.3346 8.71012C63.677 8.71012 63.143 7.91399 63.143 6.93113C63.1384 6.55262 63.2227 6.17892 63.3883 5.84423Z" fill="#4630AB"/>
<path opacity="0.1" d="M53.6585 72.1705C59.1827 72.1705 63.6609 71.3387 63.6609 70.3125C63.6609 69.2864 59.1827 68.4546 53.6585 68.4546C48.1343 68.4546 43.656 69.2864 43.656 70.3125C43.656 71.3387 48.1343 72.1705 53.6585 72.1705Z" fill="#4630AB"/>
<path d="M48.4239 61.4873L32.9253 61.2745L32.9714 60.85L33.7203 53.8464H47.3314L48.3326 60.85L48.4091 61.3814L48.4239 61.4873Z" fill="#D0D2D5"/>
<path opacity="0.1" d="M48.4091 61.3812H40.675L32.9253 61.2744L32.9714 60.8499H48.3325L48.4091 61.3812Z" fill="black"/>
<path d="M50.9072 60.9568H30.3413V61.4872H50.9072V60.9568Z" fill="#D0D2D5"/>
<path d="M70.5297 11.7823C70.5309 11.4162 70.396 11.0647 70.1546 10.8048C69.9132 10.5449 69.5852 10.398 69.2425 10.3962H11.8093C11.6394 10.3971 11.4714 10.4337 11.3148 10.5039C11.1582 10.5741 11.016 10.6766 10.8965 10.8054C10.777 10.9343 10.6824 11.0871 10.6181 11.255C10.5538 11.4229 10.5212 11.6027 10.522 11.7841V48.9665H70.5297V11.7823Z" fill="#3F3D56"/>
<path d="M10.5212 48.5947V52.9498C10.5212 53.3144 10.6569 53.6641 10.8983 53.922C11.1397 54.1798 11.4671 54.3247 11.8085 54.3247H69.2417C69.5831 54.3247 69.9105 54.1798 70.1519 53.922C70.3933 53.6641 70.529 53.3144 70.529 52.9498V48.5947H10.5212Z" fill="#D0D2D5"/>
<path d="M68.343 12.728H13.0051V46.1536H68.343V12.728Z" fill="white"/>
<path d="M40.823 52.6721C41.0262 52.6723 41.2268 52.6232 41.4095 52.5284C41.5923 52.4336 41.7525 52.2956 41.878 52.1249C41.9161 52.073 41.951 52.0183 41.9824 51.9614L41.2457 51.8286L42.0415 51.8342C42.1178 51.6569 42.1594 51.4648 42.1638 51.2698C42.1681 51.0748 42.1351 50.8808 42.0667 50.6999L40.9995 51.2907L41.9841 50.5178C41.8917 50.348 41.7675 50.2004 41.6193 50.0841C41.4712 49.9677 41.3022 49.8852 41.123 49.8415C40.9437 49.7978 40.7579 49.794 40.5772 49.8303C40.3965 49.8666 40.2247 49.9421 40.0724 50.0523C39.9202 50.1625 39.7908 50.3049 39.6923 50.4707C39.5938 50.6366 39.5283 50.8223 39.4998 51.0163C39.4713 51.2103 39.4805 51.4085 39.5268 51.5986C39.5731 51.7887 39.6554 51.9666 39.7688 52.1212C39.8938 52.2925 40.0537 52.4311 40.2364 52.5265C40.419 52.622 40.6196 52.6718 40.823 52.6721Z" fill="#4630AB"/>
<path opacity="0.1" d="M42.1648 54.3237L48.348 60.9566L47.3991 54.3237H42.1648Z" fill="black"/>
<path opacity="0.1" d="M68.3596 12.7317H12.9617V14.6844H68.3596V12.7317Z" fill="#444053"/>
<path opacity="0.3" d="M48.8369 13.0715H32.2467C32.2189 13.0715 32.1963 13.0957 32.1963 13.1254V14.2058C32.1963 14.2356 32.2189 14.2597 32.2467 14.2597H48.8369C48.8648 14.2597 48.8873 14.2356 48.8873 14.2058V13.1254C48.8873 13.0957 48.8648 13.0715 48.8369 13.0715Z" fill="#4630AB"/>
<path d="M48.3913 13.7889H48.3504L48.3356 13.775C48.3862 13.71 48.4139 13.6282 48.4139 13.5437C48.4134 13.4743 48.3936 13.4067 48.3572 13.3493C48.3207 13.2919 48.2691 13.2473 48.2089 13.2212C48.1488 13.195 48.0827 13.1885 48.0191 13.2025C47.9554 13.2164 47.8971 13.2502 47.8514 13.2995C47.8057 13.3488 47.7748 13.4114 47.7624 13.4795C47.75 13.5476 47.7568 13.6181 47.7819 13.6821C47.807 13.7461 47.8492 13.8007 47.9034 13.8391C47.9575 13.8774 48.021 13.8978 48.086 13.8976C48.1652 13.8973 48.2418 13.8674 48.3026 13.8131L48.3173 13.827V13.8707L48.5722 14.1429L48.6479 14.0611L48.3913 13.7889ZM48.086 13.7889C48.0405 13.7891 47.9961 13.7749 47.9582 13.748C47.9203 13.7212 47.8907 13.683 47.8732 13.6382C47.8557 13.5934 47.851 13.544 47.8598 13.4964C47.8686 13.4488 47.8904 13.405 47.9224 13.3706C47.9545 13.3362 47.9954 13.3127 48.04 13.3032C48.0846 13.2937 48.1308 13.2985 48.1728 13.317C48.2148 13.3355 48.2507 13.367 48.276 13.4073C48.3012 13.4477 48.3147 13.4951 48.3147 13.5437C48.315 13.5759 48.3092 13.6078 48.2978 13.6376C48.2864 13.6674 48.2696 13.6945 48.2483 13.7173C48.227 13.7401 48.2017 13.7582 48.1739 13.7705C48.146 13.7828 48.1161 13.7891 48.086 13.7889Z" fill="#3F3D56"/>
<path opacity="0.8" d="M13.9584 14.0657C14.1433 14.0657 14.2933 13.9055 14.2933 13.708C14.2933 13.5105 14.1433 13.3503 13.9584 13.3503C13.7735 13.3503 13.6235 13.5105 13.6235 13.708C13.6235 13.9055 13.7735 14.0657 13.9584 14.0657Z" fill="#FA5959"/>
<path opacity="0.8" d="M14.8791 14.0657C15.064 14.0657 15.2139 13.9055 15.2139 13.708C15.2139 13.5105 15.064 13.3503 14.8791 13.3503C14.6941 13.3503 14.5442 13.5105 14.5442 13.708C14.5442 13.9055 14.6941 14.0657 14.8791 14.0657Z" fill="#FED253"/>
<path opacity="0.8" d="M15.8012 14.0657C15.9861 14.0657 16.136 13.9055 16.136 13.708C16.136 13.5105 15.9861 13.3503 15.8012 13.3503C15.6162 13.3503 15.4663 13.5105 15.4663 13.708C15.4663 13.9055 15.6162 14.0657 15.8012 14.0657Z" fill="#8CCF4D"/>
<path d="M43.6062 27.0704C42.8469 25.9928 41.7466 25.3127 40.522 25.3127C39.2973 25.3127 38.1971 25.9928 37.4377 27.0704C37.6056 27.5101 37.854 27.9097 38.1684 28.2455C38.5568 28.6603 39.0353 28.9659 39.5612 29.1352C40.0871 29.3045 40.6441 29.3322 41.1824 29.2159C41.7208 29.0995 42.2238 28.8427 42.6467 28.4684C43.0696 28.0941 43.3992 27.6138 43.6062 27.0704Z" fill="#4630AB"/>
<path d="M36.8835 27.6084C36.9312 27.6453 36.9825 27.6764 37.0366 27.7013C37.6194 28.96 38.8266 29.9234 40.2122 30.0042V35.9729C39.1641 35.906 38.3247 35.3421 37.6194 34.4624C37.5585 34.5116 37.5132 34.5562 37.4715 34.598C37.4129 34.6572 37.372 34.7336 37.3539 34.8176C37.3358 34.9015 37.3413 34.9893 37.3697 35.0699C37.408 35.181 37.4179 35.3009 37.3985 35.4173C37.3791 35.5338 37.331 35.6427 37.2592 35.7328C37.1874 35.8229 37.0944 35.8909 36.9898 35.93C36.8853 35.969 36.7729 35.9777 36.6641 35.955C36.5554 35.9324 36.4543 35.8793 36.3711 35.8011C36.288 35.7229 36.2258 35.6226 36.1909 35.5103C36.156 35.398 36.1498 35.2778 36.1728 35.162C36.1957 35.0463 36.2471 34.9392 36.3216 34.8516C36.3441 34.8253 36.3685 34.8011 36.3947 34.7792C36.4098 34.7644 36.4264 34.7517 36.4443 34.7411C36.54 34.3713 36.767 34.0378 37.1358 33.7322C36.7207 32.9746 36.4668 32.1287 36.3921 31.2546C36.3383 31.2552 36.2846 31.2589 36.2312 31.2658C36.1587 31.2762 36.0902 31.3077 36.0333 31.3568C35.9764 31.406 35.9332 31.4709 35.9085 31.5445C35.8683 31.6586 35.7997 31.7587 35.7101 31.8342C35.6204 31.9096 35.5131 31.9574 35.3999 31.9723C35.2866 31.9873 35.1717 31.9688 35.0675 31.919C34.9633 31.8692 34.8739 31.7899 34.809 31.6897C34.744 31.5894 34.7059 31.4721 34.6989 31.3505C34.6919 31.2288 34.7162 31.1074 34.7692 30.9994C34.8221 30.8915 34.9018 30.801 34.9994 30.7379C35.0971 30.6748 35.209 30.6415 35.3231 30.6415C35.3484 30.642 35.3737 30.6438 35.3988 30.6471C35.4922 30.5753 35.5959 30.5201 35.7058 30.4836C35.9205 30.4118 36.1437 30.3734 36.3686 30.3693C36.3908 29.7496 36.5005 29.137 36.6939 28.5522C36.5534 28.4669 36.4209 28.3674 36.2982 28.2549C36.1786 28.1409 36.0806 28.0034 36.0094 27.8499C35.9717 27.7724 35.9141 27.7079 35.8433 27.6641C35.7888 27.6291 35.739 27.5863 35.6954 27.5369C35.6181 27.4478 35.565 27.3379 35.5419 27.219C35.5187 27.1002 35.5264 26.9768 35.5641 26.8622C35.6018 26.7476 35.668 26.6462 35.7557 26.5689C35.8433 26.4916 35.9491 26.4413 36.0616 26.4235C36.174 26.4057 36.2889 26.421 36.3938 26.4677C36.4988 26.5145 36.5897 26.591 36.6569 26.6889C36.7242 26.7868 36.7651 26.9025 36.7753 27.0235C36.7855 27.1444 36.7645 27.266 36.7148 27.3752C36.7537 27.4656 36.8114 27.5453 36.8835 27.6084Z" fill="#4630AB"/>
<path d="M59.3445 69.2292C59.294 69.1436 59.2302 69.0679 59.1558 69.0053C58.7757 68.6216 58.5991 68.0587 58.5052 67.5069C58.4112 66.955 58.3843 66.3921 58.2338 65.8523C58.152 65.5756 58.0496 65.3063 57.9276 65.0469C57.8407 64.8481 57.7311 64.4589 57.5719 64.3195C57.5407 64.2907 57.5029 64.2711 57.4623 64.2629C57.3871 64.0922 57.28 63.9398 57.1474 63.8151C56.8987 63.5745 56.5951 63.3831 56.429 63.0719C56.3833 62.964 56.3271 62.8615 56.2611 62.7663C56.1489 62.6344 55.9715 62.5805 55.868 62.4411C55.7332 62.2609 55.7636 62.0027 55.781 61.7732C55.7984 61.5437 55.781 61.2688 55.5949 61.148C55.4836 61.0746 55.34 61.082 55.2244 61.017C55.0504 60.9241 54.9817 60.69 54.9852 60.481C54.9887 60.272 55.0495 60.0685 55.0652 59.8595C55.1139 59.1944 54.7034 58.5329 54.8617 57.8882C54.9217 57.6439 55.0591 57.4321 55.1609 57.2045C55.1964 57.1287 55.2255 57.0498 55.2478 56.9685C55.5192 57.0834 55.8044 57.1569 56.095 57.1868C55.6158 56.0386 55.7375 54.7046 55.514 53.4709L55.5427 53.4291C55.7685 53.1111 55.8967 52.7262 55.9097 52.3274C55.9097 51.8684 55.7088 51.4393 55.6184 50.9896C55.541 50.6078 55.5444 50.2084 55.4444 49.8331C55.375 49.5998 55.2829 49.375 55.1696 49.1623C55.0611 48.9474 54.9472 48.7359 54.8277 48.5278C54.7164 48.134 54.6048 47.7401 54.4929 47.3462C54.3363 46.7934 54.1754 46.2314 53.871 45.7539C53.7597 45.5793 53.7257 45.2244 53.5544 45.1185C53.4153 45.0416 53.2574 45.0121 53.1021 45.034C52.8603 44.889 52.6481 44.68 52.6176 44.3939C52.6146 44.3314 52.6205 44.2687 52.635 44.2081H52.6646C53.0473 44.1709 53.2413 43.8105 53.4405 43.4946C53.7623 42.9837 53.6396 42.2925 53.4405 41.711C53.3911 41.5275 53.3017 41.359 53.1795 41.2196C52.9003 40.9409 52.4585 41.0022 52.0984 40.8675C51.9775 40.8229 51.8644 40.7551 51.7409 40.7235C51.5017 40.664 51.2512 40.7477 51.032 40.8656C50.8129 40.9836 50.6085 41.136 50.3788 41.2289C50.1492 41.3218 49.8657 41.3952 49.8091 41.6469C49.7933 41.7317 49.7999 41.8195 49.8283 41.9005C49.8811 42.0621 49.974 42.2052 50.097 42.3148C49.9993 42.5301 49.9464 42.7655 49.942 43.0048C49.9377 43.244 49.982 43.4814 50.0719 43.7006C50.1617 43.9198 50.2951 44.1155 50.4626 44.2744C50.6302 44.4332 50.828 44.5513 51.0425 44.6206C51.1086 44.7339 51.1703 44.8491 51.2269 44.9671C51.3278 45.1752 51.413 45.4204 51.3782 45.6434C51.3153 45.7148 51.2572 45.7908 51.2043 45.871C50.9546 46.2426 50.8129 46.6782 50.6824 47.113C50.5071 47.6681 50.3668 48.2351 50.2623 48.8103C50.0501 49.2924 49.7909 49.7532 49.6369 50.2595C49.3613 50.2598 49.0868 50.2205 48.8211 50.1424L48.087 49.965C47.8313 49.9027 47.5651 49.8358 47.3651 49.6556C47.2589 49.5627 47.1763 49.4392 47.0685 49.3472C46.9606 49.2552 46.744 49.1475 46.6257 49.2236C46.6041 49.2377 46.584 49.2542 46.5657 49.2729C46.4579 49.0397 46.3552 48.8084 46.23 48.5827C46.05 48.2668 45.7821 47.9779 45.4428 47.9175C45.2356 47.8819 45.0235 47.9346 44.8523 48.0643C44.654 48.2148 44.5296 48.5288 44.6783 48.7406C44.7155 48.7877 44.7559 48.8318 44.7992 48.8725C44.8999 48.9964 44.9899 49.1298 45.068 49.271C45.3483 49.6914 45.7677 49.9822 46.2413 50.0848L46.2109 50.1777C46.1491 50.3709 46.0178 50.6041 46.0508 50.8048L49.316 51.9985C49.5254 52.0893 49.7477 52.1418 49.9735 52.1536C50.0616 52.1529 50.1493 52.1404 50.2345 52.1165V52.2948V52.3023C50.2431 53.5276 50.0605 54.7446 50.0266 55.969C50.0205 56.1928 50.0266 56.4334 50.1588 56.6081C50.3066 56.7995 50.5693 56.8375 50.7981 56.7939C50.8532 56.784 50.9071 56.771 50.9598 56.7549C51.0372 57.0631 51.093 57.377 51.1268 57.6941L51.3426 59.3532C51.3703 59.5231 51.3817 59.6955 51.3765 59.8679C51.3512 60.2571 51.159 60.6055 51.0199 60.965C50.8807 61.3245 50.7981 61.7546 50.9807 62.0909C51.0381 62.195 51.1173 62.2832 51.1686 62.391C51.2338 62.5578 51.2635 62.738 51.2556 62.9186C51.2689 63.419 51.2817 63.9201 51.2938 64.4217C51.2559 64.4151 51.217 64.4233 51.1843 64.4449C51.0033 64.5954 51.0233 65.3117 51.0103 65.5337C50.9964 65.9053 51.0103 66.2843 50.9912 66.6596C50.9685 67.1654 50.8924 67.6669 50.7641 68.1543C50.7328 68.3128 50.6643 68.4602 50.565 68.5826C50.4633 68.6771 50.3419 68.7443 50.211 68.7786C49.7776 68.9236 49.3245 68.9895 48.8706 68.9737C48.6871 68.9672 48.4958 68.9486 48.3253 69.0229C48.1548 69.0973 48.0174 69.3016 48.0791 69.4874C48.1322 69.6435 48.2931 69.7178 48.4384 69.7763C48.7702 69.9012 49.0905 70.0585 49.3951 70.2464C49.5124 70.3317 49.636 70.4066 49.7648 70.4703C49.8882 70.5176 50.0159 70.5513 50.1457 70.5706L51.6879 70.8549C52.0036 70.9125 52.3837 70.9478 52.5846 70.6691C52.6933 70.5186 52.709 70.3142 52.7038 70.1229C52.6951 69.7513 52.6255 69.3732 52.6707 69.0016C52.705 68.7819 52.7592 68.5663 52.8325 68.3578C52.9861 67.8704 53.1404 67.3833 53.2952 66.8965C53.45 66.4079 53.6066 65.9146 53.6666 65.4018C53.6883 65.216 53.6866 65.0042 53.5535 64.8881C53.5199 64.8586 53.4807 64.837 53.4387 64.8249C53.4335 64.3771 53.3787 63.9284 53.4022 63.4807C53.4083 63.3692 53.4187 63.2577 53.4274 63.1453C53.508 63.2271 53.5801 63.3181 53.6422 63.4166C53.791 63.6655 53.8458 63.9944 54.0728 64.1597C54.2659 64.301 54.552 64.2935 54.6877 64.4979C54.7313 64.5764 54.7641 64.6612 54.7851 64.7496C54.8639 64.9687 54.9821 65.1691 55.133 65.3395C55.1848 65.5435 55.2569 65.7409 55.3479 65.9285C55.476 66.2177 55.6036 66.506 55.7306 66.7934C55.8611 67.1036 56.0063 67.4065 56.1655 67.701C56.287 67.8864 56.385 68.0882 56.4568 68.3011C56.5795 68.76 56.3794 69.2635 56.0628 69.6017C55.7462 69.9398 55.3287 70.134 54.9173 70.3152C54.874 70.3308 54.8343 70.3561 54.8008 70.3895C54.7651 70.4346 54.7462 70.4921 54.7477 70.5511C54.7477 70.7657 54.913 70.9496 55.1026 71.0156C55.2964 71.0712 55.4995 71.0792 55.6967 71.0388C56.8082 70.8948 57.9163 70.605 58.8992 70.0281C59.0462 69.9537 59.1764 69.8463 59.281 69.7132C59.3315 69.6461 59.3641 69.5657 59.3753 69.4805C59.3864 69.3953 59.3758 69.3085 59.3445 69.2292Z" fill="url(#paint0_linear_1116_1206)"/>
<path d="M54.6475 48.397C54.8331 48.7011 55.007 49.0126 55.1694 49.3316C55.2831 49.5425 55.3755 49.7658 55.4451 49.9976C55.546 50.3692 55.5434 50.7659 55.6191 51.1449C55.706 51.5909 55.9096 52.0163 55.9096 52.4734C55.8963 52.8694 55.768 53.2512 55.5425 53.5659C55.3177 53.8778 55.0603 54.1615 54.7754 54.4112C54.1186 52.5939 53.7517 50.6718 53.6899 48.725C53.6812 48.4555 53.6795 48.1778 53.7717 47.926C53.8282 47.7681 54.0996 47.3352 54.2744 47.5052C54.3379 47.5674 54.3544 47.848 54.3935 47.9418C54.4668 48.1005 54.5518 48.2527 54.6475 48.397Z" fill="#2F2E41"/>
<path opacity="0.1" d="M54.6475 48.397C54.8331 48.7011 55.007 49.0126 55.1694 49.3316C55.2831 49.5425 55.3755 49.7658 55.4451 49.9976C55.546 50.3692 55.5434 50.7659 55.6191 51.1449C55.706 51.5909 55.9096 52.0163 55.9096 52.4734C55.8963 52.8694 55.768 53.2512 55.5425 53.5659C55.3177 53.8778 55.0603 54.1615 54.7754 54.4112C54.1186 52.5939 53.7517 50.6718 53.6899 48.725C53.6812 48.4555 53.6795 48.1778 53.7717 47.926C53.8282 47.7681 54.0996 47.3352 54.2744 47.5052C54.3379 47.5674 54.3544 47.848 54.3935 47.9418C54.4668 48.1005 54.5518 48.2527 54.6475 48.397Z" fill="black"/>
<path d="M31.7166 35.7229C31.0286 36.4568 30.946 36.7801 30.5328 36.9259C30.1197 37.0718 28.6332 37.8939 29.1003 38.8053L30.3563 39.6915L30.3928 39.7175L30.585 40.3344L28.6854 43.9462C28.6854 43.9462 25.5542 42.4171 25.2472 44.6792C24.9401 46.9412 25.135 47.559 25.0524 48.7667C24.9697 49.9744 25.0793 50.3237 24.8036 50.3237C24.5279 50.3237 24.4192 49.5303 24.4192 49.5303C24.4192 49.5303 24.4018 49.4941 24.3713 49.4263C23.9616 48.5168 21.181 41.8402 25.6351 37.2511C25.6351 37.2511 27.6982 37.1062 28.1949 34.5793C28.5376 32.8329 29.7361 32.9834 30.5328 33.3392C30.7918 33.4476 31.0331 33.599 31.2478 33.7879C31.441 33.9832 31.6129 34.2014 31.7601 34.4381C31.9871 34.8209 32.1106 35.3012 31.7166 35.7229Z" fill="#D0D2D5"/>
<path opacity="0.1" d="M30.3916 39.7174L30.5838 40.3343L28.6842 43.9461C28.6842 43.9461 25.553 42.417 25.246 44.6791C24.9389 46.9411 25.1338 47.5589 25.0511 48.7666C24.9685 49.9743 25.0781 50.3236 24.8024 50.3236C24.5267 50.3236 24.4179 49.5302 24.4179 49.5302C24.4179 49.5302 24.4006 49.494 24.3701 49.4262C24.2318 48.2965 23.5308 41.6887 26.0723 42.0399C26.0723 42.0399 28.1345 43.0692 28.4642 42.6586C28.7251 42.3334 29.8836 40.4634 30.3551 39.696L30.3916 39.7174Z" fill="black"/>
<path opacity="0.1" d="M31.759 34.4325L30.5031 35.957C30.5031 35.957 29.0445 38.0416 28.7418 37.9533C28.6511 37.9322 28.5588 37.9207 28.4661 37.919C28.3651 37.9107 28.2684 37.8721 28.1871 37.8075C28.1059 37.7429 28.0434 37.6551 28.007 37.5542C27.9706 37.4532 27.9617 37.3434 27.9814 37.2373C28.0011 37.1312 28.0485 37.0332 28.1181 36.9547C28.6157 36.3973 29.5324 35.3392 29.5924 35.1042C29.6524 34.8691 30.2361 33.8389 30.5283 33.3345C30.7872 33.4429 31.0285 33.5943 31.2433 33.7832C31.4376 33.9781 31.6107 34.1959 31.759 34.4325Z" fill="black"/>
<path d="M67.2952 56.3648C67.0821 56.82 65.9906 58.5274 65.5131 59.2734L65.2895 59.6246C65.2895 59.6246 65.2026 60.2414 63.777 59.4769C62.3514 58.7123 28.8571 43.6173 28.8571 43.6173L28.6301 42.889L30.2827 40.2461L66.9934 55.3949C66.9934 55.3949 67.571 55.7767 67.2952 56.3648Z" fill="#454B69"/>
<path opacity="0.1" d="M65.5131 59.2735L65.2896 59.6247C65.2896 59.6247 65.2026 60.2415 63.777 59.477C62.3514 58.7124 28.8571 43.6175 28.8571 43.6175L28.6301 42.8892L65.5131 59.2735Z" fill="black"/>
<path d="M45.3104 49.4133C44.9703 49.3538 44.5928 49.3826 44.3284 49.6186C44.1686 49.7631 44.0675 49.9683 44.0466 50.1908C44.024 50.4482 44.164 50.7538 44.4058 50.7733C44.464 50.774 44.5221 50.77 44.5797 50.7612C44.7325 50.7605 44.885 50.7742 45.0355 50.8021C45.3317 50.8319 45.6303 50.7853 45.9062 50.6663C46.1821 50.5474 46.4273 50.3595 46.6211 50.1184C46.829 49.8397 46.555 49.7189 46.3097 49.6632C45.974 49.587 45.6461 49.4709 45.3104 49.4133Z" fill="#FBBEBE"/>
<path d="M51.1264 57.8029L51.3421 59.4397C51.3696 59.6087 51.3806 59.7802 51.3751 59.9516C51.3499 60.3371 51.1577 60.6827 51.0194 61.0394C50.8811 61.3962 50.7967 61.8235 50.9803 62.1542C51.0368 62.2573 51.116 62.3456 51.1673 62.4524C51.2325 62.6176 51.2622 62.7963 51.2542 62.9754L51.3134 65.2979C51.9848 65.3468 52.6587 65.3428 53.3295 65.2858C53.3558 65.2871 53.3817 65.2786 53.4026 65.2616C53.4203 65.2376 53.4293 65.2076 53.4278 65.1771C53.4574 64.6337 53.3687 64.0893 53.3974 63.5458C53.4078 63.347 53.4339 63.1491 53.4374 62.9494C53.4478 62.1403 53.0738 61.3479 53.1869 60.548C53.2224 60.3462 53.2689 60.1467 53.3261 59.9507C53.6835 58.5572 53.6079 57.0931 53.5287 55.6541C53.5301 55.631 53.5239 55.608 53.5113 55.5891C53.4985 55.5754 53.4822 55.566 53.4644 55.5622C53.0838 55.4402 52.6814 55.4179 52.2911 55.4972C51.9009 55.5764 51.5342 55.7548 51.2221 56.0174C51.1273 56.0991 50.8881 56.1781 50.8254 56.2756C50.7385 56.4113 50.8524 56.5469 50.9029 56.6909C51.0146 57.0519 51.0895 57.4247 51.1264 57.8029Z" fill="#3F3D56"/>
<path opacity="0.1" d="M51.1264 57.8029L51.3421 59.4397C51.3696 59.6087 51.3806 59.7802 51.3751 59.9516C51.3499 60.3371 51.1577 60.6827 51.0194 61.0394C50.8811 61.3962 50.7967 61.8235 50.9803 62.1542C51.0368 62.2573 51.116 62.3456 51.1673 62.4524C51.2325 62.6176 51.2622 62.7963 51.2542 62.9754L51.3134 65.2979C51.9848 65.3468 52.6587 65.3428 53.3295 65.2858C53.3558 65.2871 53.3817 65.2786 53.4026 65.2616C53.4203 65.2376 53.4293 65.2076 53.4278 65.1771C53.4574 64.6337 53.3687 64.0893 53.3974 63.5458C53.4078 63.347 53.4339 63.1491 53.4374 62.9494C53.4478 62.1403 53.0738 61.3479 53.1869 60.548C53.2224 60.3462 53.2689 60.1467 53.3261 59.9507C53.6835 58.5572 53.6079 57.0931 53.5287 55.6541C53.5301 55.631 53.5239 55.608 53.5113 55.5891C53.4985 55.5754 53.4822 55.566 53.4644 55.5622C53.0838 55.4402 52.6814 55.4179 52.2911 55.4972C51.9009 55.5764 51.5342 55.7548 51.2221 56.0174C51.1273 56.0991 50.8881 56.1781 50.8254 56.2756C50.7385 56.4113 50.8524 56.5469 50.9029 56.6909C51.0146 57.0519 51.0895 57.4247 51.1264 57.8029Z" fill="black"/>
<path d="M55.1599 57.3095C55.0581 57.5353 54.9216 57.7452 54.8607 57.9877C54.7024 58.6277 55.112 59.2882 55.0633 59.9441C55.0477 60.1513 54.9877 60.3529 54.9833 60.56C54.979 60.7672 55.0503 60.9976 55.2225 61.0933C55.3382 61.1564 55.4834 61.1499 55.5922 61.2224C55.7757 61.3422 55.7966 61.6144 55.7783 61.8429C55.76 62.0715 55.7296 62.3269 55.8653 62.5053C55.9688 62.6437 56.1462 62.6976 56.2575 62.8286C56.3238 62.9226 56.3801 63.0242 56.4254 63.1314C56.5915 63.4417 56.8951 63.6312 57.1438 63.8746C57.3926 64.118 57.6031 64.4747 57.4917 64.812C57.41 65.0591 57.1804 65.2114 56.9594 65.3275C56.5564 65.5403 56.1309 65.7009 55.6922 65.806C55.6451 65.8212 55.5953 65.824 55.5469 65.8143C55.498 65.7952 55.4543 65.7633 55.4199 65.7214C55.1634 65.4529 54.8981 65.1715 54.7798 64.8101C54.7587 64.7225 54.7259 64.6386 54.6824 64.5611C54.5467 64.3577 54.2605 64.3651 54.0674 64.2248C53.8413 64.0604 53.7865 63.7343 53.6386 63.4882C53.4908 63.242 53.2742 63.0952 53.1168 62.8787C52.8506 62.5183 52.7854 62.0371 52.5949 61.6256C52.514 61.4509 52.4105 61.2874 52.3462 61.1053C52.2812 60.8871 52.2412 60.6613 52.227 60.4327C52.1044 59.3477 51.7921 58.2552 51.9887 57.1813C52.0322 56.9454 52.0991 56.7168 52.127 56.4734C52.1748 56.0526 52.0991 55.6216 52.1574 55.2017C52.1588 55.149 52.1714 55.0973 52.1941 55.0505C52.2169 55.0037 52.2492 54.9629 52.2887 54.9313C52.3357 54.9088 52.3868 54.8977 52.4383 54.8988C52.954 54.8694 53.4709 54.8818 53.9848 54.936C54.2457 54.9629 54.538 55.0196 54.6945 55.2472C54.8276 55.4423 54.8207 55.7033 54.8633 55.9402C54.9163 56.2319 55.0546 56.3908 55.1999 56.6193C55.3451 56.8478 55.2669 57.0736 55.1599 57.3095Z" fill="#3F3D56"/>
<path d="M53.154 64.8583C53.2914 64.8583 53.4436 64.8491 53.5497 64.942C53.6819 65.0581 53.6837 65.2708 53.6628 65.452C53.6019 65.961 53.4462 66.4506 53.2905 66.9383L52.8278 68.3885C52.7546 68.5954 52.7004 68.8095 52.666 69.0276C52.6208 69.3992 52.6904 69.7708 52.6991 70.1424C52.6991 70.3282 52.6878 70.5344 52.579 70.684C52.3825 70.9543 51.9989 70.9227 51.6832 70.8698L50.1428 70.5911C50.0128 70.5726 49.8851 70.5393 49.7618 70.4917C49.6333 70.4283 49.5097 70.354 49.3922 70.2696C49.0873 70.0836 48.7671 69.9281 48.4354 69.8052C48.291 69.7476 48.1292 69.6742 48.0771 69.519C48.0153 69.3332 48.1527 69.1289 48.3232 69.0545C48.4937 68.9802 48.6842 68.9988 48.8686 69.0044C49.322 69.0198 49.7747 68.9545 50.208 68.8112C50.3385 68.777 50.4596 68.7101 50.5611 68.6161C50.6643 68.4922 50.7346 68.3411 50.7647 68.1785C50.8959 67.6944 50.9741 67.1956 50.9978 66.6922C51.016 66.3206 51.0039 65.949 51.0178 65.5774C51.0265 65.3572 51.0065 64.6484 51.1874 64.497C51.3257 64.3836 51.8945 64.6967 52.0815 64.7422C52.4331 64.8283 52.7934 64.8673 53.154 64.8583Z" fill="#2F2E41"/>
<path d="M58.2274 65.8916C58.3779 66.4239 58.4014 66.9868 58.4988 67.534C58.5962 68.0812 58.7684 68.6395 59.1485 69.0204C59.2225 69.0831 59.2863 69.1584 59.3373 69.2433C59.3694 69.3229 59.3802 69.4103 59.3687 69.4961C59.3572 69.5818 59.3238 69.6625 59.272 69.7292C59.167 69.8613 59.0368 69.968 58.8902 70.0422C57.9082 70.6145 56.8027 70.9034 55.6885 71.0465C55.4916 71.0859 55.289 71.0779 55.0953 71.0232C54.9057 70.9545 54.7379 70.7724 54.7413 70.5588C54.7395 70.5001 54.7581 70.4429 54.7935 70.398C54.8274 70.365 54.8674 70.34 54.9109 70.3246C55.3215 70.1444 55.7381 69.9484 56.0556 69.6158C56.373 69.2833 56.5722 68.7798 56.4496 68.3283C56.377 68.1168 56.2784 67.9166 56.1565 67.7328C55.9975 67.4407 55.8523 67.1403 55.7216 66.8326L55.3389 65.9752C55.2267 65.7244 55.1136 65.4661 55.0945 65.1893C55.5752 65.2123 56.0553 65.1301 56.5053 64.9477C56.7153 64.8563 56.9109 64.7309 57.0854 64.5761C57.2333 64.4442 57.3681 64.198 57.5673 64.3699C57.7273 64.5074 57.8282 64.8948 57.9221 65.0908C58.0442 65.3484 58.1463 65.6162 58.2274 65.8916Z" fill="#2F2E41"/>
<path d="M52.6197 44.6003C52.6579 44.957 52.9815 45.1921 53.2903 45.3333L51.3359 45.9993C51.462 45.7411 51.3602 45.4252 51.235 45.1633C51.133 44.9558 51.0167 44.7568 50.8871 44.5678C50.868 44.539 50.8462 44.5028 50.8601 44.4693C50.8725 44.4475 50.892 44.4313 50.9149 44.4238C51.3168 44.2324 51.7308 44.0345 52.17 43.9649C52.297 43.9454 52.537 43.8915 52.6318 44.029C52.7267 44.1665 52.6014 44.4359 52.6197 44.6003Z" fill="#FBBEBE"/>
<path opacity="0.1" d="M52.6197 44.6003C52.6579 44.957 52.9815 45.1921 53.2903 45.3333L51.3359 45.9993C51.462 45.7411 51.3602 45.4252 51.235 45.1633C51.133 44.9558 51.0167 44.7568 50.8871 44.5678C50.868 44.539 50.8462 44.5028 50.8601 44.4693C50.8725 44.4475 50.892 44.4313 50.9149 44.4238C51.3168 44.2324 51.7308 44.0345 52.17 43.9649C52.297 43.9454 52.537 43.8915 52.6318 44.029C52.7267 44.1665 52.6014 44.4359 52.6197 44.6003Z" fill="black"/>
<path d="M51.4837 44.8892C52.3301 44.8892 53.0163 44.1564 53.0163 43.2523C53.0163 42.3483 52.3301 41.6155 51.4837 41.6155C50.6373 41.6155 49.9512 42.3483 49.9512 43.2523C49.9512 44.1564 50.6373 44.8892 51.4837 44.8892Z" fill="#FBBEBE"/>
<path d="M50.1556 56.7225C50.3043 56.913 50.5661 56.9501 50.7948 56.9083C51.3298 56.8154 51.7673 56.3946 52.2909 56.2432C52.9328 56.0574 53.6121 56.2961 54.2183 56.5888C54.8245 56.8814 55.4273 57.2391 56.0901 57.2892C55.4908 55.8623 55.8335 54.1456 55.2603 52.7066C55.1203 52.3545 54.9246 52.0154 54.8932 51.6345C54.8541 51.1617 55.075 50.7056 55.1089 50.2355C55.1403 49.8165 55.022 49.3994 54.9089 49C54.7692 48.5095 54.6294 48.019 54.4897 47.5285C54.3331 46.9794 54.1722 46.4211 53.8686 45.9492C53.7564 45.7755 53.7225 45.4234 53.552 45.3184C53.1798 45.089 52.6153 45.3779 52.2117 45.3937C51.8081 45.4095 51.4402 45.716 51.2045 46.0625C50.9549 46.4286 50.8131 46.8642 50.6826 47.2953C50.4749 47.9371 50.3198 48.597 50.2191 49.2675C50.206 49.3678 50.1947 49.4682 50.186 49.5694C50.099 50.5235 50.226 51.4831 50.233 52.4418V52.4483C50.2417 53.6644 50.059 54.8729 50.0251 56.088C50.0216 56.3101 50.0268 56.5525 50.1556 56.7225Z" fill="#2F2E41"/>
<path opacity="0.1" d="M50.2361 52.4427C50.5362 52.3619 50.8076 52.1548 51.0407 51.9281C51.2426 51.7351 51.4219 51.5168 51.5747 51.2778C51.7671 50.9566 51.9217 50.6112 52.0348 50.2494C52.3568 49.282 52.5614 48.2746 52.6437 47.2516C52.6663 46.9729 52.6732 46.6738 52.5175 46.4527C52.4301 46.3329 52.3073 46.2483 52.1692 46.2125C52.031 46.1768 51.8855 46.192 51.7565 46.2558C51.5512 46.3626 51.4182 46.579 51.2946 46.7862C51.0502 47.1968 50.8041 47.613 50.6467 48.07C50.5771 48.2726 50.5258 48.4807 50.4579 48.6841C50.3889 48.8848 50.3094 49.0811 50.2196 49.2721C50.2066 49.3725 50.1952 49.4728 50.1865 49.5741C50.1057 50.5281 50.2292 51.484 50.2361 52.4427Z" fill="black"/>
<path d="M52.5121 46.2734C52.6678 46.4945 52.6609 46.7964 52.6391 47.0714C52.5571 48.0944 52.3525 49.1019 52.0303 50.0692C51.9181 50.434 51.7635 50.7823 51.5702 51.1059C51.4171 51.3447 51.2378 51.563 51.0361 51.7562C50.7404 52.0442 50.3803 52.3015 49.9794 52.3053C49.7537 52.2939 49.5314 52.2421 49.3218 52.152L46.0558 50.9647C46.0227 50.7659 46.1541 50.5337 46.2158 50.3423L46.3898 49.7914C46.4394 49.6391 46.4968 49.4747 46.6264 49.392C46.756 49.3093 46.9612 49.4226 47.0691 49.5146C47.1769 49.6066 47.2587 49.7273 47.3648 49.8212C47.5657 49.9995 47.831 50.0664 48.0867 50.1277L48.8199 50.3033C49.0858 50.3811 49.3602 50.4201 49.6358 50.4194C49.8402 49.7524 50.229 49.1653 50.449 48.5039C50.5169 48.3014 50.5682 48.0923 50.6386 47.8898C50.7952 47.4328 51.0422 47.0175 51.2866 46.606C51.4093 46.3998 51.5423 46.1833 51.7485 46.0755C51.8779 46.011 52.024 45.9954 52.1628 46.0314C52.3016 46.0673 52.4248 46.1527 52.5121 46.2734Z" fill="#2F2E41"/>
<path d="M51.9727 43.6221C51.9611 43.5145 51.9298 43.4103 51.8805 43.3156C51.8549 43.2681 51.8158 43.2307 51.7689 43.2086C51.7219 43.1865 51.6696 43.1811 51.6196 43.1929C51.4665 43.244 51.4152 43.4967 51.2552 43.5051C51.1473 43.5106 51.0699 43.3936 51.036 43.284C51.002 43.1744 50.9838 43.0489 50.9029 42.9718C50.8466 42.9269 50.7819 42.8952 50.7133 42.8789C50.3419 42.7535 49.9583 42.5222 49.8348 42.1274C49.8057 42.0472 49.7988 41.9599 49.8148 41.8756C49.8713 41.6257 50.1627 41.5505 50.3845 41.4604C50.6063 41.3703 50.8194 41.2161 51.0368 41.099C51.2543 40.982 51.5065 40.8993 51.7457 40.9587C51.8671 40.9995 51.9864 41.047 52.1032 41.1009C52.4633 41.2346 52.9042 41.1724 53.1834 41.4502C53.3054 41.588 53.3949 41.7548 53.4444 41.937C53.6392 42.5148 53.7627 43.2004 53.44 43.7076C53.2409 44.0206 53.0478 44.3783 52.6651 44.4164C52.2197 44.4563 52.0432 44.0253 51.9727 43.6221Z" fill="#2F2E41"/>
<g opacity="0.1">
<path opacity="0.1" d="M51.292 43.087C51.2581 42.9774 51.2398 42.852 51.1598 42.7749C51.1035 42.7299 51.0388 42.6982 50.9702 42.682C50.5979 42.5566 50.2152 42.3252 50.0908 41.9304C50.0625 41.8501 50.0559 41.7628 50.0717 41.6787C50.0802 41.639 50.0959 41.6014 50.1178 41.5681C49.976 41.6341 49.8525 41.7214 49.8177 41.8756C49.8017 41.9598 49.8087 42.0472 49.8377 42.1274C49.9612 42.5222 50.3448 42.7535 50.7162 42.8789C50.7849 42.8952 50.8495 42.9268 50.9058 42.9718C50.9867 43.0489 51.0041 43.1734 51.0389 43.2839C51.0737 43.3945 51.1502 43.5106 51.2581 43.505C51.3659 43.4995 51.4181 43.3945 51.4868 43.3062C51.392 43.2932 51.3233 43.1892 51.292 43.087Z" fill="black"/>
<path opacity="0.1" d="M52.9205 44.2167C52.4735 44.2603 52.2969 43.8256 52.2247 43.4252C52.2151 43.3178 52.1856 43.2136 52.1377 43.1186C52.112 43.0713 52.0729 43.0339 52.026 43.0119C51.9791 42.9898 51.9268 42.9843 51.8768 42.996C51.7974 43.0371 51.7308 43.1016 51.6846 43.1818C51.7245 43.1859 51.763 43.1997 51.7971 43.2223C51.8312 43.2448 51.8599 43.2755 51.8811 43.3118C51.9304 43.4066 51.9617 43.5107 51.9733 43.6184C52.0438 44.0188 52.2204 44.4545 52.6692 44.4099C52.8466 44.389 53.0103 44.2982 53.1284 44.1554C53.0628 44.188 52.9925 44.2088 52.9205 44.2167Z" fill="black"/>
</g>
<path d="M70.8349 61.4973C72.386 61.4973 73.6434 61.239 73.6434 60.9204C73.6434 60.6018 72.386 60.3435 70.8349 60.3435C69.2838 60.3435 68.0264 60.6018 68.0264 60.9204C68.0264 61.239 69.2838 61.4973 70.8349 61.4973Z" fill="#4630AB"/>
<path d="M70.7882 61.1324C70.9688 61.1324 71.1153 60.9277 71.1153 60.6753C71.1153 60.4229 70.9688 60.2183 70.7882 60.2183C70.6076 60.2183 70.4612 60.4229 70.4612 60.6753C70.4612 60.9277 70.6076 61.1324 70.7882 61.1324Z" fill="#3F3D56"/>
<path d="M70.7882 60.5731C70.9688 60.5731 71.1153 60.3684 71.1153 60.116C71.1153 59.8636 70.9688 59.6589 70.7882 59.6589C70.6076 59.6589 70.4612 59.8636 70.4612 60.116C70.4612 60.3684 70.6076 60.5731 70.7882 60.5731Z" fill="#3F3D56"/>
<path d="M70.7882 60.0147C70.9688 60.0147 71.1153 59.8101 71.1153 59.5576C71.1153 59.3052 70.9688 59.1006 70.7882 59.1006C70.6076 59.1006 70.4612 59.3052 70.4612 59.5576C70.4612 59.8101 70.6076 60.0147 70.7882 60.0147Z" fill="#3F3D56"/>
<path d="M70.7882 59.4556C70.9688 59.4556 71.1153 59.251 71.1153 58.9986C71.1153 58.7461 70.9688 58.5415 70.7882 58.5415C70.6076 58.5415 70.4612 58.7461 70.4612 58.9986C70.4612 59.251 70.6076 59.4556 70.7882 59.4556Z" fill="#3F3D56"/>
<path d="M70.7882 58.8963C70.9688 58.8963 71.1153 58.6917 71.1153 58.4392C71.1153 58.1868 70.9688 57.9822 70.7882 57.9822C70.6076 57.9822 70.4612 58.1868 70.4612 58.4392C70.4612 58.6917 70.6076 58.8963 70.7882 58.8963Z" fill="#3F3D56"/>
<path d="M70.7882 58.3379C70.9688 58.3379 71.1153 58.1333 71.1153 57.8809C71.1153 57.6285 70.9688 57.4238 70.7882 57.4238C70.6076 57.4238 70.4612 57.6285 70.4612 57.8809C70.4612 58.1333 70.6076 58.3379 70.7882 58.3379Z" fill="#3F3D56"/>
<path d="M70.7882 57.7786C70.9688 57.7786 71.1153 57.574 71.1153 57.3216C71.1153 57.0691 70.9688 56.8645 70.7882 56.8645C70.6076 56.8645 70.4612 57.0691 70.4612 57.3216C70.4612 57.574 70.6076 57.7786 70.7882 57.7786Z" fill="#3F3D56"/>
<path d="M72.0123 53.5007C72.0569 53.4399 72.0976 53.376 72.1341 53.3093L71.2747 53.1588L72.2045 53.1653C72.2933 52.958 72.3417 52.7336 72.3467 52.5057C72.3518 52.2779 72.3135 52.0512 72.2341 51.8397L70.9868 52.5308L72.1367 51.6279C72.0288 51.4295 71.8838 51.257 71.7108 51.121C71.5378 50.985 71.3405 50.8885 71.1311 50.8375C70.9217 50.7865 70.7046 50.7821 70.4936 50.8245C70.2825 50.8669 70.0818 50.9552 69.9041 51.084C69.7263 51.2128 69.5753 51.3792 69.4603 51.573C69.3454 51.7669 69.269 51.9838 69.236 52.2105C69.2029 52.4372 69.2139 52.6687 69.2682 52.8907C69.3225 53.1126 69.419 53.3203 69.5517 53.5007C69.4818 53.595 69.4218 53.6972 69.3725 53.8054L70.4884 54.425L69.2986 53.9986C69.2155 54.2619 69.1951 54.5431 69.2393 54.8169C69.2835 55.0907 69.3909 55.3484 69.5517 55.5667C69.3703 55.8134 69.2574 56.1097 69.2262 56.4216C69.1949 56.7335 69.2464 57.0486 69.3748 57.3307C69.5032 57.6129 69.7034 57.8507 69.9524 58.0172C70.2013 58.1836 70.4891 58.2718 70.7829 58.2718C71.0766 58.2718 71.3644 58.1836 71.6134 58.0172C71.8624 57.8507 72.0625 57.6129 72.1909 57.3307C72.3193 57.0486 72.3708 56.7335 72.3396 56.4216C72.3083 56.1097 72.1955 55.8134 72.014 55.5667C72.2314 55.2719 72.3495 54.9076 72.3495 54.5323C72.3495 54.1571 72.2314 53.7927 72.014 53.4979L72.0123 53.5007Z" fill="#4630AB"/>
<path opacity="0.1" d="M69.2146 54.5319C69.2144 54.9077 69.3334 55.2725 69.5521 55.5668C69.3706 55.8135 69.2578 56.1098 69.2265 56.4217C69.1953 56.7336 69.2468 57.0487 69.3752 57.3308C69.5036 57.613 69.7037 57.8508 69.9527 58.0173C70.2017 58.1837 70.4895 58.2719 70.7832 58.2719C71.077 58.2719 71.3648 58.1837 71.6138 58.0173C71.8627 57.8508 72.0629 57.613 72.1913 57.3308C72.3197 57.0487 72.3712 56.7336 72.3399 56.4217C72.3087 56.1098 72.1959 55.8135 72.0144 55.5668C72.2223 55.2816 69.2146 54.3443 69.2146 54.5319Z" fill="black"/>
<path d="M13.0219 72.9999C15.2551 72.9999 17.0655 72.628 17.0655 72.1694C17.0655 71.7107 15.2551 71.3389 13.0219 71.3389C10.7887 71.3389 8.97827 71.7107 8.97827 72.1694C8.97827 72.628 10.7887 72.9999 13.0219 72.9999Z" fill="#4630AB"/>
<path d="M12.9544 72.475C13.2143 72.475 13.425 72.1801 13.425 71.8164C13.425 71.4526 13.2143 71.1577 12.9544 71.1577C12.6946 71.1577 12.4839 71.4526 12.4839 71.8164C12.4839 72.1801 12.6946 72.475 12.9544 72.475Z" fill="#3F3D56"/>
<path d="M12.9544 71.6706C13.2143 71.6706 13.425 71.3757 13.425 71.0119C13.425 70.6482 13.2143 70.3533 12.9544 70.3533C12.6946 70.3533 12.4839 70.6482 12.4839 71.0119C12.4839 71.3757 12.6946 71.6706 12.9544 71.6706Z" fill="#3F3D56"/>
<path d="M12.9544 70.8661C13.2143 70.8661 13.425 70.5712 13.425 70.2075C13.425 69.8437 13.2143 69.5488 12.9544 69.5488C12.6946 69.5488 12.4839 69.8437 12.4839 70.2075C12.4839 70.5712 12.6946 70.8661 12.9544 70.8661Z" fill="#3F3D56"/>
<path d="M12.9544 70.0617C13.2143 70.0617 13.425 69.7668 13.425 69.403C13.425 69.0393 13.2143 68.7444 12.9544 68.7444C12.6946 68.7444 12.4839 69.0393 12.4839 69.403C12.4839 69.7668 12.6946 70.0617 12.9544 70.0617Z" fill="#3F3D56"/>
<path d="M12.9544 69.2572C13.2143 69.2572 13.425 68.9623 13.425 68.5986C13.425 68.2348 13.2143 67.9399 12.9544 67.9399C12.6946 67.9399 12.4839 68.2348 12.4839 68.5986C12.4839 68.9623 12.6946 69.2572 12.9544 69.2572Z" fill="#3F3D56"/>
<path d="M12.9544 68.4518C13.2143 68.4518 13.425 68.1569 13.425 67.7932C13.425 67.4294 13.2143 67.1345 12.9544 67.1345C12.6946 67.1345 12.4839 67.4294 12.4839 67.7932C12.4839 68.1569 12.6946 68.4518 12.9544 68.4518Z" fill="#3F3D56"/>
<path d="M12.9544 67.6471C13.2143 67.6471 13.425 67.3522 13.425 66.9885C13.425 66.6247 13.2143 66.3298 12.9544 66.3298C12.6946 66.3298 12.4839 66.6247 12.4839 66.9885C12.4839 67.3522 12.6946 67.6471 12.9544 67.6471Z" fill="#3F3D56"/>
<path d="M14.717 61.4834C14.7807 61.3947 14.8388 61.3016 14.891 61.2047L13.6541 60.9873L14.9919 60.9985C15.1201 60.7 15.19 60.3769 15.1973 60.0486C15.2046 59.7204 15.1492 59.394 15.0345 59.0894L13.241 60.0871L14.8936 58.7866C14.7388 58.4998 14.5304 58.2501 14.2813 58.0532C14.0322 57.8563 13.7478 57.7163 13.4458 57.642C13.1438 57.5677 12.8307 57.5607 12.526 57.6214C12.2214 57.6821 11.9317 57.8092 11.6751 57.9948C11.4185 58.1804 11.2004 58.4204 11.0345 58.7C10.8686 58.9796 10.7585 59.2927 10.7109 59.6198C10.6634 59.9469 10.6794 60.2809 10.7581 60.6011C10.8368 60.9212 10.9765 61.2206 11.1683 61.4806C11.0667 61.6162 10.9793 61.7633 10.9074 61.9191L12.5139 62.8109L10.8013 62.1968C10.6812 62.5775 10.6523 62.9843 10.717 63.38C10.7817 63.7757 10.938 64.1479 11.1718 64.4626C10.9101 64.8179 10.7473 65.2447 10.702 65.6942C10.6567 66.1436 10.7308 66.5977 10.9157 67.0043C11.1006 67.4109 11.3889 67.7538 11.7477 67.9937C12.1064 68.2336 12.5212 68.3608 12.9444 68.3608C13.3677 68.3608 13.7824 68.2336 14.1411 67.9937C14.4999 67.7538 14.7882 67.4109 14.9731 67.0043C15.158 66.5977 15.2321 66.1436 15.1868 65.6942C15.1415 65.2447 14.9787 64.8179 14.717 64.4626C15.0298 64.0381 15.1999 63.5136 15.1999 62.9735C15.1999 62.4333 15.0298 61.9088 14.717 61.4843V61.4834Z" fill="#4630AB"/>
<path opacity="0.1" d="M10.6885 62.9763C10.6886 63.5156 10.8586 64.0392 11.1712 64.4627C10.9095 64.818 10.7467 65.2448 10.7014 65.6943C10.6561 66.1437 10.7302 66.5978 10.9151 67.0044C11.1 67.411 11.3883 67.7539 11.7471 67.9938C12.1058 68.2337 12.5206 68.3609 12.9438 68.3609C13.3671 68.3609 13.7818 68.2337 14.1405 67.9938C14.4993 67.7539 14.7876 67.411 14.9725 67.0044C15.1574 66.5978 15.2315 66.1437 15.1862 65.6943C15.1409 65.2448 14.9781 64.818 14.7164 64.4627C15.0165 64.0521 10.6885 62.7023 10.6885 62.9763Z" fill="black"/>
</g>
<defs>
<linearGradient id="paint0_linear_1116_1206" x1="52.463" y1="71.1918" x2="51.15" y2="40.7169" gradientUnits="userSpaceOnUse">
<stop stop-color="#808080" stop-opacity="0.25"/>
<stop offset="0.54" stop-color="#808080" stop-opacity="0.12"/>
<stop offset="1" stop-color="#808080" stop-opacity="0.1"/>
</linearGradient>
<clipPath id="clip0_1116_1206">
<rect width="88.9522" height="73" fill="white" transform="translate(0.112793)"/>
</clipPath>
<clipPath id="clip1_1116_1206">
<rect width="76.497" height="54.0062" fill="white" transform="translate(38.1221 12.2625)"/>
</clipPath>
</defs>
</svg>
