<svg width="101" height="69" viewBox="0 0 101 69" fill="none" xmlns="http://www.w3.org/2000/svg">
<g clip-path="url(#clip0_1033_2077)">
<path d="M86.5986 28.8101C87.989 30.2683 89.5402 30.501 91.2522 29.5082C90.5338 28.3568 90.3627 27.1045 90.5541 25.7853H87.2191C87.3669 26.9446 87.3271 28.024 86.5986 28.8101Z" fill="#FFB8B8"/>
<path d="M92.1051 66.9692L93.8891 66.0386L94.6646 56.1886V50.9921L90.554 50.9145L91.7173 56.111L92.1051 66.9692Z" fill="#FFB8B8"/>
<path d="M86.9345 66.9692L85.1507 66.0386L84.3751 56.1886V50.9921L88.4857 50.9145L87.3223 56.111L86.9345 66.9692Z" fill="#FFB8B8"/>
<path d="M84.1942 52.0779L88.5375 51.6901L89.2355 47.7346L90.0887 51.6126L94.8198 51.3023C94.9231 49.4178 94.6606 47.4782 94.0442 45.4854L83.6512 45.2527L84.1942 52.0779Z" fill="#2F2E41"/>
<path d="M79.6795 37.2228L74.455 33.1997C74.4008 33.1579 74.3411 33.1237 74.2777 33.0979L73.5184 32.7889C72.9085 32.5408 71.7467 31.7154 72.3133 30.8655C72.7701 30.1803 74.5187 31.4078 74.7338 31.8626C74.8018 32.0057 74.9133 32.1236 75.0523 32.1995L76.1141 32.7813C76.1399 32.7955 76.1665 32.8081 76.1938 32.8192L80.2361 34.4576C80.3481 34.503 80.4694 34.521 80.5898 34.5102C80.7102 34.4993 80.8263 34.4599 80.9284 34.3951L81.6613 33.9304C81.7655 33.8643 81.8844 33.8246 82.0074 33.8147C82.1305 33.8049 82.2541 33.8251 82.3676 33.8738C82.4811 33.9224 82.581 33.998 82.6587 34.094C82.7364 34.1899 82.7896 34.3034 82.8136 34.4245L83.0558 35.6469C83.0906 35.8229 83.0621 36.0056 82.9752 36.1626C82.8883 36.3196 82.7487 36.4408 82.581 36.5047L80.4138 37.3307C80.2924 37.377 80.1611 37.3914 80.0326 37.3725C79.904 37.3536 79.7825 37.302 79.6795 37.2228Z" fill="#FFB8B8"/>
<path d="M80.6501 34.2915C82.0967 33.9037 81.9448 35.9245 83.0484 36.9182L85.2182 35.2052L83.9614 29.1204C83.6242 29.2167 83.314 29.3902 83.0554 29.627C82.7967 29.8638 82.5967 30.1576 82.4711 30.485L80.6501 34.2915Z" fill="#4630AB"/>
<path d="M83.3407 45.6405H94.2766C92.5067 40.8711 92.679 35.9657 94.186 30.967C94.2113 30.884 94.2068 30.7948 94.1734 30.7148C94.1399 30.6347 94.0796 30.5688 94.0028 30.5285L90.8639 28.8877C89.6318 29.6894 88.3075 29.4431 86.9084 28.3448L83.4958 29.2755C84.4248 34.855 84.4512 40.3199 83.3407 45.6405Z" fill="#4630AB"/>
<path d="M86.0747 68.7909L81.5173 68.9841C81.3189 68.9925 81.1243 68.9272 80.9712 68.8008C80.818 68.6744 80.717 68.4957 80.6876 68.2993C80.6579 68.1009 80.7034 67.8986 80.8152 67.732C80.9269 67.5654 81.0969 67.4466 81.2917 67.3988L82.0647 67.2094L85.1029 65.4484C85.553 65.9145 86.1728 66.3086 86.9305 66.6442L86.9394 67.8823C86.9411 68.1163 86.8519 68.3418 86.6906 68.5112C86.5293 68.6807 86.3085 68.781 86.0747 68.7909Z" fill="#2F2E41"/>
<path d="M100.826 68.9999H0.0369873V68.7509H100.871L100.826 68.9999Z" fill="#3F3D56"/>
<path d="M92.9258 68.7217L97.4833 68.9149C97.6817 68.9233 97.8762 68.858 98.0294 68.7316C98.1826 68.6051 98.2836 68.4265 98.313 68.2301C98.3427 68.0317 98.2972 67.8294 98.1854 67.6628C98.0737 67.4962 97.9037 67.3774 97.7089 67.3296L96.9359 67.1402L93.8977 65.3792C93.4476 65.8453 92.8278 66.2394 92.07 66.575L92.0612 67.8131C92.0595 68.0471 92.1487 68.2725 92.31 68.442C92.4713 68.6115 92.6921 68.7118 92.9258 68.7217Z" fill="#2F2E41"/>
<path d="M88.5379 27.1814C89.9086 27.1814 91.0198 26.0702 91.0198 24.6995C91.0198 23.3288 89.9086 22.2176 88.5379 22.2176C87.1672 22.2176 86.056 23.3288 86.056 24.6995C86.056 26.0702 87.1672 27.1814 88.5379 27.1814Z" fill="#FFB8B8"/>
<path d="M92.4153 44.8649L91.5953 46.4592C91.523 46.5999 91.4812 46.7543 91.4728 46.9123C91.4644 47.0703 91.4895 47.2283 91.5465 47.3759C91.6035 47.5234 91.691 47.6573 91.8034 47.7686C91.9159 47.88 92.0506 47.9662 92.1987 48.0218C92.3555 48.0806 92.5235 48.1035 92.6903 48.0889C92.8571 48.0743 93.0185 48.0225 93.1626 47.9373C93.3068 47.8521 93.4301 47.7357 93.5234 47.5967C93.6167 47.4577 93.6776 47.2995 93.7018 47.1338L94.044 44.7873L95.285 38.8928L95.2074 35.9456H92.7255C93.5721 38.1377 93.1521 41.371 92.4153 44.8649Z" fill="#FFB8B8"/>
<path d="M92.3373 36.2558H95.6723L95.1882 32.5983C95.1226 32.1023 94.9337 31.6306 94.639 31.2263C94.3442 30.822 93.9528 30.498 93.5007 30.2838L92.3373 36.2558Z" fill="#4630AB"/>
<path d="M91.1758 23.3324C91.2253 23.0009 91.2045 22.6626 91.1146 22.3397C91.0247 22.0167 90.8678 21.7163 90.6541 21.4581C90.2307 20.957 89.5209 20.5469 88.3433 20.7403C85.7741 21.1625 85.0332 23.3013 85.2849 23.8392C85.5367 24.3771 86.3082 25.624 86.3082 25.624C86.3082 25.624 85.7419 24.3897 86.3565 24.1385C86.9711 23.8872 89.3494 22.8975 90.1795 23.3433C90.4145 23.4613 90.614 23.6395 90.7577 23.8597C90.9015 24.0798 90.9843 24.3342 90.9978 24.5968L91.1758 23.3324Z" fill="#2F2E41"/>
<path d="M48.696 13.0032L47.6981 13.5096C46.5487 11.2464 45.026 9.19315 43.194 7.43621C34.1971 -1.21313 19.8408 -0.930348 11.1915 8.06657C2.54216 17.0635 2.82494 31.4197 11.8219 40.0691C13.5342 41.7186 15.496 43.0878 17.6348 44.1263L17.1467 45.1331C13.7565 43.487 10.8067 41.0578 8.54093 38.0463C6.27518 35.0347 4.75855 31.5273 4.11634 27.8137C3.47413 24.1001 3.72477 20.287 4.84756 16.6895C5.97035 13.0919 7.93306 9.8132 10.5735 7.12415C13.214 4.4351 16.4564 2.41295 20.0329 1.22475C23.6094 0.0365577 27.4172 -0.283564 31.1419 0.290837C34.8665 0.865237 38.4011 2.31767 41.4534 4.52813C44.5058 6.7386 46.9883 9.64364 48.696 13.0032V13.0032Z" fill="white"/>
<path d="M14.9368 33.8206C13.469 35.3473 12.6679 37.3946 12.7096 39.512C12.7513 41.6295 13.6324 43.6436 15.1592 45.1114C16.6859 46.5791 18.7332 47.3803 20.8506 47.3386C22.968 47.2969 24.9822 46.4157 26.4499 44.889L27.8247 43.459L16.3115 32.3906L14.9368 33.8206Z" fill="white"/>
<path d="M15.5403 31.5784C15.2136 31.9191 15.0354 32.3754 15.0447 32.8472C15.054 33.3191 15.25 33.768 15.5899 34.0955L26.1498 44.2474C26.4901 44.5746 26.9465 44.7532 27.4185 44.7439C27.8906 44.7346 28.3396 44.5382 28.6668 44.1978C28.994 43.8575 29.1726 43.4011 29.1633 42.929C29.154 42.457 28.9576 42.008 28.6172 41.6808L18.0574 31.5289C17.7168 31.2022 17.2605 31.0239 16.7886 31.0332C16.3167 31.0425 15.8678 31.2386 15.5403 31.5784Z" fill="#535461"/>
<path d="M47.2115 23.2926L48.5863 21.8626C50.054 20.3359 50.8552 18.2886 50.8135 16.1712C50.7717 14.0537 49.8906 12.0396 48.3639 10.5718C47.6079 9.84509 46.7162 9.27434 45.7397 8.8922C44.7631 8.51006 43.7209 8.324 42.6724 8.34465C40.555 8.38636 38.5409 9.2675 37.0731 10.7942L35.6984 12.2242L47.2115 23.2926Z" fill="white"/>
<path d="M34.8566 11.4854C34.5299 11.826 34.3516 12.2823 34.3609 12.7542C34.3702 13.2261 34.5663 13.675 34.9062 14.0025L45.466 24.1543C45.8065 24.4811 46.2627 24.6594 46.7345 24.65C47.2064 24.6405 47.6551 24.4441 47.9822 24.1039C48.3092 23.7637 48.4878 23.3075 48.4787 22.8357C48.4696 22.3639 48.2735 21.915 47.9335 21.5877L37.3737 11.4358C37.0331 11.1091 36.5768 10.9309 36.1049 10.9402C35.633 10.9494 35.1841 11.1455 34.8566 11.4854Z" fill="#535461"/>
<path d="M39.3118 34.9462V34.1214C39.3118 34.1214 42.911 32.0968 45.8354 34.1214V34.8712L39.3118 34.9462Z" fill="#535461"/>
<path d="M72.0798 34.9462V34.1214C72.0798 34.1214 75.6791 32.0968 78.6035 34.1214V34.8712L72.0798 34.9462Z" fill="#535461"/>
<path d="M50.1088 34.8712H46.5846C46.5846 34.8712 45.6847 33.8214 42.6853 33.8964C39.686 33.9714 39.0861 34.8712 39.0861 34.8712C39.0861 34.8712 36.1242 36.8583 35.4493 39.3328C35.4493 39.3328 31.8126 50.2431 31.7376 58.7913C31.6626 67.3396 34.9619 68.5393 36.6866 68.7643C38.4112 68.9892 41.4856 68.6893 44.485 61.1158L45.7597 56.6917C45.7597 56.6917 45.9847 54.0673 48.6841 55.7169C51.3836 57.3666 53.7831 54.8171 53.7831 54.8171H63.906C63.906 54.8171 67.2803 56.9167 70.3547 55.267C70.3547 55.267 71.5544 53.6924 72.6792 59.0163C72.6792 59.0163 76.1285 69.964 81.4524 68.8393C86.7763 67.7145 86.1764 58.5664 86.1764 58.5664C86.1764 58.5664 85.4641 44.5817 82.5397 39.6327C82.5397 39.6327 79.7278 34.4963 77.8531 34.2713C77.8531 34.2713 73.804 33.5215 72.2293 34.1963L71.3295 34.9462L50.1088 34.8712Z" fill="white"/>
<path d="M41.9355 48.7434C45.5385 48.7434 48.4592 45.8226 48.4592 42.2197C48.4592 38.6168 45.5385 35.696 41.9355 35.696C38.3326 35.696 35.4119 38.6168 35.4119 42.2197C35.4119 45.8226 38.3326 48.7434 41.9355 48.7434Z" fill="#535461"/>
<path d="M75.9795 48.7434C79.5824 48.7434 82.5031 45.8226 82.5031 42.2197C82.5031 38.6168 79.5824 35.696 75.9795 35.696C72.3766 35.696 69.4558 38.6168 69.4558 42.2197C69.4558 45.8226 72.3766 48.7434 75.9795 48.7434Z" fill="#535461"/>
<path d="M43.0727 40.765L42.2029 41.5344C42.1292 41.5992 42.0345 41.635 41.9363 41.635C41.8382 41.635 41.7434 41.5992 41.6698 41.5344L40.7985 40.765C40.7558 40.7275 40.7217 40.6813 40.6981 40.6296C40.6746 40.5779 40.6623 40.5219 40.662 40.4651V38.3483C40.6622 38.2414 40.7048 38.139 40.7804 38.0635C40.856 37.988 40.9585 37.9456 41.0654 37.9456H42.8088C42.9156 37.9454 43.0181 37.9876 43.0937 38.063C43.1694 38.1384 43.212 38.2407 43.2122 38.3475V40.4636C43.2117 40.5208 43.199 40.5774 43.175 40.6293C43.1509 40.6813 43.1161 40.7276 43.0727 40.765Z" fill="#E6E6E6"/>
<path d="M43.0727 43.6737L42.2029 42.9051C42.1293 42.8402 42.0345 42.8044 41.9364 42.8044C41.8382 42.8044 41.7434 42.8402 41.6698 42.9051L40.7985 43.6744C40.7558 43.712 40.7217 43.7581 40.6981 43.8098C40.6746 43.8615 40.6623 43.9176 40.662 43.9743V46.0889C40.6618 46.1957 40.704 46.2982 40.7794 46.3739C40.8548 46.4495 40.9571 46.4921 41.0639 46.4923H42.8088C42.9156 46.4925 43.0181 46.4503 43.0937 46.3749C43.1694 46.2995 43.212 46.1972 43.2122 46.0904V43.9751C43.2118 43.9178 43.1991 43.8613 43.175 43.8093C43.151 43.7573 43.1161 43.7111 43.0727 43.6737Z" fill="#E6E6E6"/>
<path d="M40.4816 43.358L41.2509 42.4866C41.3158 42.413 41.3516 42.3182 41.3516 42.2201C41.3516 42.1219 41.3158 42.0272 41.2509 41.9535L40.4816 41.0822C40.444 41.0396 40.3979 41.0054 40.3462 40.9819C40.2945 40.9584 40.2384 40.9461 40.1817 40.9457H38.0671C37.9602 40.9459 37.8578 40.9885 37.7823 41.0641C37.7068 41.1398 37.6644 41.2423 37.6644 41.3491V43.0925C37.6642 43.1993 37.7065 43.3018 37.7818 43.3775C37.8572 43.4531 37.9596 43.4957 38.0663 43.4959H40.1824C40.2392 43.4953 40.2952 43.4827 40.3468 43.459C40.3983 43.4352 40.4443 43.4008 40.4816 43.358Z" fill="#E6E6E6"/>
<path d="M43.3903 43.358L42.6225 42.4859C42.5575 42.4123 42.5216 42.3175 42.5216 42.2193C42.5216 42.1212 42.5575 42.0264 42.6225 41.9528L43.3918 41.0814C43.4294 41.0388 43.4755 41.0046 43.5272 40.9811C43.5789 40.9576 43.635 40.9453 43.6918 40.945H45.8063C45.9131 40.9448 46.0156 40.987 46.0913 41.0624C46.1669 41.1378 46.2095 41.2401 46.2097 41.3469V43.0918C46.2099 43.1986 46.1677 43.3011 46.0923 43.3767C46.017 43.4524 45.9146 43.495 45.8078 43.4952H43.6925C43.6353 43.4951 43.5787 43.4828 43.5266 43.4592C43.4745 43.4355 43.428 43.401 43.3903 43.358Z" fill="#E6E6E6"/>
<path d="M50.7836 54.0673C53.3926 54.0673 55.5077 51.9523 55.5077 49.3433C55.5077 46.7342 53.3926 44.6192 50.7836 44.6192C48.1746 44.6192 46.0596 46.7342 46.0596 49.3433C46.0596 51.9523 48.1746 54.0673 50.7836 54.0673Z" fill="#535461"/>
<path d="M67.1307 54.0673C69.7397 54.0673 71.8547 51.9523 71.8547 49.3433C71.8547 46.7342 69.7397 44.6192 67.1307 44.6192C64.5216 44.6192 62.4066 46.7342 62.4066 49.3433C62.4066 51.9523 64.5216 54.0673 67.1307 54.0673Z" fill="#535461"/>
<path d="M50.7835 52.4926C52.5228 52.4926 53.9329 51.0826 53.9329 49.3432C53.9329 47.6039 52.5228 46.1939 50.7835 46.1939C49.0442 46.1939 47.6342 47.6039 47.6342 49.3432C47.6342 51.0826 49.0442 52.4926 50.7835 52.4926Z" fill="#E6E6E6"/>
<path d="M50.7833 51.5178C50.3532 51.5178 49.9328 51.3902 49.5752 51.1513C49.2176 50.9124 48.9389 50.5727 48.7743 50.1754C48.6097 49.778 48.5666 49.3408 48.6505 48.919C48.7345 48.4972 48.9416 48.1097 49.2457 47.8056C49.5498 47.5015 49.9373 47.2944 50.3591 47.2105C50.7809 47.1265 51.2181 47.1696 51.6155 47.3342C52.0128 47.4988 52.3525 47.7775 52.5914 48.1351C52.8303 48.4927 52.9579 48.9131 52.9579 49.3432C52.9572 49.9198 52.7279 50.4725 52.3202 50.8801C51.9126 51.2878 51.3599 51.5171 50.7833 51.5178ZM50.7833 47.3186C50.3829 47.3186 49.9915 47.4374 49.6585 47.6598C49.3256 47.8823 49.0661 48.1985 48.9129 48.5685C48.7596 48.9384 48.7195 49.3455 48.7976 49.7382C48.8758 50.1309 49.0686 50.4917 49.3517 50.7748C49.6349 51.058 49.9956 51.2508 50.3884 51.3289C50.7811 51.407 51.1882 51.3669 51.5581 51.2137C51.928 51.0605 52.2442 50.801 52.4667 50.468C52.6892 50.1351 52.8079 49.7437 52.8079 49.3432C52.8073 48.8065 52.5938 48.2919 52.2143 47.9123C51.8347 47.5328 51.3201 47.3193 50.7833 47.3186Z" fill="#535461"/>
<path d="M67.1304 52.4926C68.8698 52.4926 70.2798 51.0826 70.2798 49.3432C70.2798 47.6039 68.8698 46.1939 67.1304 46.1939C65.3911 46.1939 63.9811 47.6039 63.9811 49.3432C63.9811 51.0826 65.3911 52.4926 67.1304 52.4926Z" fill="#E6E6E6"/>
<path d="M67.1307 51.5178C66.7006 51.5178 66.2802 51.3902 65.9226 51.1513C65.565 50.9124 65.2863 50.5727 65.1217 50.1754C64.9571 49.778 64.9141 49.3408 64.998 48.919C65.0819 48.4972 65.289 48.1097 65.5931 47.8056C65.8972 47.5015 66.2847 47.2944 66.7065 47.2105C67.1283 47.1265 67.5655 47.1696 67.9629 47.3342C68.3602 47.4988 68.6999 47.7775 68.9388 48.1351C69.1777 48.4927 69.3053 48.9131 69.3053 49.3432C69.3046 49.9198 69.0753 50.4725 68.6676 50.8801C68.26 51.2878 67.7072 51.5171 67.1307 51.5178ZM67.1307 47.3186C66.7303 47.3186 66.3389 47.4374 66.0059 47.6598C65.673 47.8823 65.4135 48.1985 65.2603 48.5685C65.107 48.9384 65.0669 49.3455 65.145 49.7382C65.2232 50.1309 65.416 50.4917 65.6991 50.7748C65.9823 51.058 66.343 51.2508 66.7357 51.3289C67.1285 51.407 67.5356 51.3669 67.9055 51.2137C68.2754 51.0605 68.5916 50.801 68.8141 50.468C69.0366 50.1351 69.1553 49.7437 69.1553 49.3432C69.1547 48.8065 68.9412 48.2919 68.5616 47.9123C68.1821 47.5328 67.6675 47.3193 67.1307 47.3186Z" fill="#535461"/>
<path d="M59.1068 51.2179C59.8522 51.2179 60.4565 50.6136 60.4565 49.8681C60.4565 49.1227 59.8522 48.5184 59.1068 48.5184C58.3614 48.5184 57.7571 49.1227 57.7571 49.8681C57.7571 50.6136 58.3614 51.2179 59.1068 51.2179Z" fill="#535461"/>
<path d="M57.0442 45.6578C57.2069 45.6578 57.3389 45.5258 57.3389 45.3631C57.3389 45.2003 57.2069 45.0684 57.0442 45.0684C56.8814 45.0684 56.7495 45.2003 56.7495 45.3631C56.7495 45.5258 56.8814 45.6578 57.0442 45.6578Z" fill="#535461"/>
<path d="M58.1482 45.6578C58.311 45.6578 58.4429 45.5258 58.4429 45.3631C58.4429 45.2003 58.311 45.0684 58.1482 45.0684C57.9855 45.0684 57.8535 45.2003 57.8535 45.3631C57.8535 45.5258 57.9855 45.6578 58.1482 45.6578Z" fill="#535461"/>
<path d="M58.0015 47.0562C58.1643 47.0562 58.2962 46.9243 58.2962 46.7615C58.2962 46.5988 58.1643 46.4668 58.0015 46.4668C57.8387 46.4668 57.7068 46.5988 57.7068 46.7615C57.7068 46.9243 57.8387 47.0562 58.0015 47.0562Z" fill="#535461"/>
<path d="M59.0326 47.0937C59.1983 47.0937 59.3325 46.9594 59.3325 46.7938C59.3325 46.6281 59.1983 46.4938 59.0326 46.4938C58.867 46.4938 58.7327 46.6281 58.7327 46.7938C58.7327 46.9594 58.867 47.0937 59.0326 47.0937Z" fill="#535461"/>
<path d="M60.0614 47.0562C60.2242 47.0562 60.3561 46.9243 60.3561 46.7615C60.3561 46.5988 60.2242 46.4668 60.0614 46.4668C59.8987 46.4668 59.7667 46.5988 59.7667 46.7615C59.7667 46.9243 59.8987 47.0562 60.0614 47.0562Z" fill="#535461"/>
<path d="M57.5596 46.3941C57.7223 46.3941 57.8543 46.2622 57.8543 46.0994C57.8543 45.9367 57.7223 45.8047 57.5596 45.8047C57.3968 45.8047 57.2649 45.9367 57.2649 46.0994C57.2649 46.2622 57.3968 46.3941 57.5596 46.3941Z" fill="#535461"/>
<path d="M58.5072 46.4188C58.6729 46.4188 58.8071 46.2846 58.8071 46.1189C58.8071 45.9533 58.6729 45.819 58.5072 45.819C58.3416 45.819 58.2073 45.9533 58.2073 46.1189C58.2073 46.2846 58.3416 46.4188 58.5072 46.4188Z" fill="#535461"/>
<path d="M59.4821 46.4188C59.6477 46.4188 59.782 46.2846 59.782 46.1189C59.782 45.9533 59.6477 45.819 59.4821 45.819C59.3164 45.819 59.1821 45.9533 59.1821 46.1189C59.1821 46.2846 59.3164 46.4188 59.4821 46.4188Z" fill="#535461"/>
<path d="M60.5034 46.3941C60.6662 46.3941 60.7981 46.2622 60.7981 46.0994C60.7981 45.9367 60.6662 45.8047 60.5034 45.8047C60.3407 45.8047 60.2087 45.9367 60.2087 46.0994C60.2087 46.2622 60.3407 46.3941 60.5034 46.3941Z" fill="#535461"/>
<path d="M59.0326 45.669C59.1983 45.669 59.3325 45.5347 59.3325 45.3691C59.3325 45.2034 59.1983 45.0691 59.0326 45.0691C58.867 45.0691 58.7327 45.2034 58.7327 45.3691C58.7327 45.5347 58.867 45.669 59.0326 45.669Z" fill="#535461"/>
<path d="M60.0813 45.669C60.247 45.669 60.3813 45.5347 60.3813 45.3691C60.3813 45.2034 60.247 45.0691 60.0813 45.0691C59.9157 45.0691 59.7814 45.2034 59.7814 45.3691C59.7814 45.5347 59.9157 45.669 60.0813 45.669Z" fill="#535461"/>
<path d="M60.9446 45.6578C61.1073 45.6578 61.2393 45.5258 61.2393 45.3631C61.2393 45.2003 61.1073 45.0684 60.9446 45.0684C60.7818 45.0684 60.6499 45.2003 60.6499 45.3631C60.6499 45.5258 60.7818 45.6578 60.9446 45.6578Z" fill="#535461"/>
<path d="M47.8969 35.5103C47.7582 35.5105 47.6253 35.5656 47.5272 35.6637C47.4291 35.7618 47.3739 35.8948 47.3738 36.0335V37.6082C47.3739 37.7469 47.4291 37.8799 47.5272 37.9779C47.6253 38.076 47.7582 38.1312 47.8969 38.1313H48.2719C48.4106 38.1312 48.5436 38.076 48.6416 37.9779C48.7397 37.8799 48.7949 37.7469 48.795 37.6082V36.0335C48.7949 35.8948 48.7397 35.7618 48.6416 35.6637C48.5436 35.5656 48.4106 35.5105 48.2719 35.5103H47.8969Z" fill="#535461"/>
<path d="M69.7922 35.5103C69.6535 35.5104 69.5205 35.5656 69.4224 35.6637C69.3244 35.7618 69.2692 35.8948 69.269 36.0335V37.6082C69.2692 37.7469 69.3244 37.8799 69.4224 37.978C69.5205 38.076 69.6535 38.1312 69.7922 38.1313H70.1671C70.3059 38.1312 70.4388 38.076 70.5369 37.978C70.635 37.8799 70.6902 37.7469 70.6903 37.6082V36.0335C70.6902 35.8948 70.635 35.7618 70.5369 35.6637C70.4388 35.5656 70.3059 35.5104 70.1671 35.5103H69.7922Z" fill="#535461"/>
<path d="M76.0535 40.0451C77.0474 40.0451 77.8532 39.2394 77.8532 38.2455C77.8532 37.2516 77.0474 36.4459 76.0535 36.4459C75.0596 36.4459 74.2539 37.2516 74.2539 38.2455C74.2539 39.2394 75.0596 40.0451 76.0535 40.0451Z" fill="#E6E6E6"/>
<path d="M72.2297 43.8694C73.2236 43.8694 74.0293 43.0637 74.0293 42.0697C74.0293 41.0758 73.2236 40.2701 72.2297 40.2701C71.2358 40.2701 70.4301 41.0758 70.4301 42.0697C70.4301 43.0637 71.2358 43.8694 72.2297 43.8694Z" fill="#E6E6E6"/>
<path d="M80.0279 43.6444C81.0218 43.6444 81.8275 42.8387 81.8275 41.8448C81.8275 40.8509 81.0218 40.0452 80.0279 40.0452C79.034 40.0452 78.2283 40.8509 78.2283 41.8448C78.2283 42.8387 79.034 43.6444 80.0279 43.6444Z" fill="#E6E6E6"/>
<path d="M76.3539 47.6186C77.3479 47.6186 78.1536 46.8129 78.1536 45.819C78.1536 44.8251 77.3479 44.0193 76.3539 44.0193C75.36 44.0193 74.5543 44.8251 74.5543 45.819C74.5543 46.8129 75.36 47.6186 76.3539 47.6186Z" fill="#E6E6E6"/>
<path d="M51.2908 34.4605C50.8887 34.461 50.5031 34.6209 50.2188 34.9053C49.9344 35.1896 49.7745 35.5751 49.774 35.9772V42.6883C49.7745 43.0905 49.9344 43.476 50.2188 43.7603C50.5031 44.0447 50.8887 44.2046 51.2908 44.2051H66.7001C67.1022 44.2046 67.4877 44.0447 67.7721 43.7603C68.0564 43.476 68.2164 43.0905 68.2168 42.6883V35.9772C68.2164 35.5751 68.0564 35.1896 67.7721 34.9053C67.4877 34.6209 67.1022 34.461 66.7001 34.4605H51.2908Z" fill="#535461"/>
<path d="M77.2764 39.0703H74.8359L76.0141 37.0507L77.2764 39.0703ZM75.0971 38.9204H77.0057L76.0185 37.3408L75.0971 38.9204Z" fill="#535461"/>
<path d="M73.2422 42.9695H71.2177V41.1699H73.2422V42.9695ZM71.3676 42.8196H73.0923V41.3199H71.3676V42.8196Z" fill="#535461"/>
<path d="M80.0283 42.9696C79.8059 42.9696 79.5884 42.9036 79.4034 42.78C79.2185 42.6564 79.0743 42.4807 78.9892 42.2752C78.9041 42.0697 78.8818 41.8435 78.9252 41.6254C78.9686 41.4072 79.0757 41.2068 79.233 41.0495C79.3903 40.8922 79.5907 40.785 79.8089 40.7416C80.0271 40.6982 80.2532 40.7205 80.4587 40.8056C80.6643 40.8908 80.8399 41.0349 80.9635 41.2199C81.0871 41.4049 81.1531 41.6223 81.1531 41.8448C81.1528 42.143 81.0342 42.4289 80.8233 42.6397C80.6124 42.8506 80.3265 42.9692 80.0283 42.9696ZM80.0283 40.87C79.8355 40.87 79.6471 40.9271 79.4868 41.0343C79.3265 41.1414 79.2015 41.2936 79.1277 41.4717C79.054 41.6499 79.0346 41.8459 79.0723 42.035C79.1099 42.224 79.2027 42.3977 79.339 42.5341C79.4754 42.6704 79.6491 42.7632 79.8382 42.8008C80.0272 42.8385 80.2232 42.8192 80.4014 42.7454C80.5795 42.6716 80.7317 42.5467 80.8388 42.3863C80.946 42.226 81.0031 42.0376 81.0031 41.8448C81.0028 41.5863 80.9 41.3386 80.7173 41.1558C80.5345 40.9731 80.2868 40.8703 80.0283 40.87Z" fill="#535461"/>
<path d="M75.5452 44.9224L75.4392 45.0284L77.1264 46.7156L77.2324 46.6095L75.5452 44.9224Z" fill="#535461"/>
<path d="M77.1643 44.9211L75.4398 46.571L75.5435 46.6793L77.268 45.0295L77.1643 44.9211Z" fill="#535461"/>
<path d="M15.9391 17.3259C11.845 18.4546 7.36169 19.3043 5.75525 17.9861C6.63478 16.5219 7.14208 15.0787 7.18511 13.6617C7.19481 13.0134 7.4574 12.3945 7.91689 11.937C8.22109 11.6431 8.58827 11.4224 8.99053 11.2917C9.39279 11.161 9.81955 11.1237 10.2384 11.1826L11.3009 11.3317C11.3367 11.3367 11.3723 11.3424 11.4077 11.3488C11.9177 11.4454 12.3846 11.6993 12.7429 12.0749C13.1013 12.4504 13.333 12.9288 13.4056 13.4427C13.6295 14.9792 14.3822 16.3094 15.9391 17.3259Z" fill="#2F2E41"/>
<path d="M19.8882 31.903L21.4798 32.2312C21.6014 32.2563 21.7159 32.3081 21.8149 32.3829C21.9139 32.4577 21.9951 32.5537 22.0524 32.6637C22.1098 32.7738 22.1419 32.8953 22.1464 33.0194C22.151 33.1434 22.1278 33.2669 22.0787 33.3809C22.0312 33.491 21.9606 33.5897 21.8716 33.6701C21.7826 33.7506 21.6774 33.8109 21.563 33.8471C21.4486 33.8832 21.3278 33.8943 21.2088 33.8797C21.0897 33.865 20.9752 33.8249 20.873 33.762L18.4384 32.2646L14.303 22.5431L16.4449 21.9236L19.8882 31.903Z" fill="#A0616A"/>
<path d="M8.55002 44.6594L7.34485 45.0099L6.43262 43.1259L7.36027 42.6425L8.55002 44.6594Z" fill="#A0616A"/>
<path d="M7.93717 52.7315L6.4585 52.34L6.68998 49.7996L7.96252 49.8779L7.93717 52.7315Z" fill="#A0616A"/>
<path d="M8.09217 42.8983L6.52606 43.9289L0.502595 37.1157C0.37194 36.9679 0.275458 36.7931 0.220013 36.6038C0.164569 36.4145 0.151525 36.2153 0.181808 36.0204C0.21209 35.8254 0.284956 35.6396 0.395222 35.476C0.505487 35.3125 0.650443 35.1752 0.819777 35.074L8.32351 30.5903L9.47281 33.8919L5.56559 37.5585L8.09217 42.8983Z" fill="#2F2E41"/>
<path d="M9.41071 46.4647C9.40679 46.4698 9.40285 46.4749 9.3989 46.48C9.29881 47.0661 9.12302 47.6006 8.73043 47.9876C8.61404 48.2501 8.40504 48.4606 8.14335 48.5788C7.88166 48.697 7.5856 48.7146 7.31171 48.6284C7.05341 48.5471 6.83139 48.3785 6.68362 48.1516C6.53585 47.9246 6.47152 47.6534 6.50163 47.3843L6.79428 44.7685C7.49629 44.6071 8.0317 44.2079 8.3027 43.4312L8.98496 43.8959C9.18686 44.0323 9.35884 44.2084 9.49042 44.4135C9.622 44.6186 9.7104 44.8483 9.75024 45.0887C9.79009 45.3291 9.78053 45.5751 9.72215 45.8117C9.66378 46.0483 9.55781 46.2704 9.41071 46.4647Z" fill="#2F2E41"/>
<path d="M10.1531 16.7657C11.4843 16.7657 12.5636 15.6865 12.5636 14.3552C12.5636 13.0239 11.4843 11.9447 10.1531 11.9447C8.82177 11.9447 7.74255 13.0239 7.74255 14.3552C7.74255 15.6865 8.82177 16.7657 10.1531 16.7657Z" fill="#A0616A"/>
<path d="M12.241 18.2086L8.44087 21.3559L8.1449 20.0604L8.80819 19.0493C8.99226 18.0573 8.87342 16.9634 8.55712 15.8031L11.0364 15.8053C11.1435 16.743 11.5085 17.561 12.241 18.2086Z" fill="#A0616A"/>
<path d="M13.3106 26.4642L8.18037 28.0269L7.78124 26.2023C6.81982 24.9114 6.40189 23.7332 7.03088 22.7719L6.71436 21.3248C7.62234 20.6099 8.33635 19.8785 8.72842 19.1196L11.8849 17.8862L14.2053 18.029L14.8905 20.3252L13.3106 26.4642Z" fill="#4630AB"/>
<path d="M16.9552 22.1804C15.8617 22.1688 14.7915 22.4967 13.8921 23.1189L14.2053 18.029C14.5232 18.0714 14.8245 18.1959 15.0797 18.3902C15.3349 18.5844 15.5351 18.8418 15.6606 19.1369L16.9552 22.1804Z" fill="#4630AB"/>
<path d="M8.07558 50.4859L6.44727 50.0852L6.68694 36.2494L8.87345 33.855L8.38401 30.8195L8.0673 27.4189L13.4082 26.0946C15.2135 29.3724 16.3046 32.3527 14.7119 34.2142L8.07558 50.4859Z" fill="#2F2E41"/>
<path d="M7.70211 55.1574C7.69481 55.1602 7.6875 55.1631 7.68018 55.1659C7.20736 55.7149 6.68787 56.1626 6.03473 56.32C5.74823 56.5209 5.39777 56.6093 5.05025 56.5682C4.70274 56.5272 4.38252 56.3595 4.15074 56.0974C3.93215 55.8501 3.80626 55.5346 3.79459 55.2048C3.78292 54.875 3.88621 54.5514 4.08678 54.2893L6.03625 51.742C6.87064 52.0147 7.68056 51.9343 8.45164 51.2936L8.87196 52.2076C8.99704 52.477 9.06593 52.7689 9.07442 53.0658C9.08291 53.3626 9.03083 53.658 8.92136 53.9341C8.81189 54.2101 8.64731 54.4609 8.43769 54.6713C8.22806 54.8816 7.97778 55.047 7.70211 55.1574Z" fill="#2F2E41"/>
<path d="M1.75362 33.5672L0.32439 34.7909C0.205787 34.8924 0.114739 35.0223 0.0596868 35.1684C0.00463473 35.3145 -0.0126404 35.4721 0.00946258 35.6267C0.0315655 35.7813 0.0923316 35.9277 0.186128 36.0526C0.279923 36.1774 0.403714 36.2765 0.546023 36.3407C0.760257 36.4374 1.00321 36.4492 1.22578 36.3736C1.44835 36.298 1.63392 36.1408 1.74498 35.9336L2.77852 34.0059L7.51828 25.3565L5.73565 25.0214L1.75362 33.5672Z" fill="#A0616A"/>
<path d="M7.80352 25.5994C6.87775 25.32 6.01056 25.1554 5.33801 25.3726C5.47899 23.628 5.76956 22.0696 6.71409 21.3248L8.05682 21.4826L7.80352 25.5994Z" fill="#4630AB"/>
<path d="M12.8442 13.7963L7.6886 13.4791L7.75204 12.4479C9.55175 11.2344 11.2703 11.3402 12.9077 12.7652L12.8442 13.7963Z" fill="#2F2E41"/>
</g>
<defs>
<clipPath id="clip0_1033_2077">
<rect width="100.87" height="69" fill="white"/>
</clipPath>
</defs>
</svg>
