<svg width="92" height="75" viewBox="0 0 92 75" fill="none" xmlns="http://www.w3.org/2000/svg">
<g clip-path="url(#clip0_1116_1098)">
<path d="M44.7477 10.5934C43.8393 11.9407 43.1406 13.4397 42.6792 15.0312C42.2674 16.4203 41.96 17.8431 41.7599 19.2859C41.6621 19.2441 41.5657 19.1992 41.4708 19.1494C40.5986 18.6911 39.8958 17.9261 39.4771 16.9794C39.0584 16.0326 38.9486 14.9601 39.1657 13.937C39.3827 12.9139 39.9138 12.0008 40.6721 11.3469C41.4304 10.6929 42.3711 10.3367 43.3405 10.3366C43.7048 10.3359 44.0676 10.3861 44.42 10.4859C44.5312 10.5164 44.6409 10.5517 44.7477 10.5934Z" fill="#FF6584"/>
<path d="M5.05644 64.2158C5.35108 61.6503 6.8194 59.1226 9.07893 58.2877C8.18783 60.9283 8.18803 63.8251 9.07947 66.4655C9.42668 67.4825 9.91064 68.5744 9.58405 69.5994C9.38085 70.2371 8.88375 70.725 8.32808 71.0301C7.77239 71.3352 7.15568 71.4806 6.5467 71.6231L6.42685 71.7305C5.46009 69.3667 4.7618 66.7812 5.05644 64.2158Z" fill="#E6E6E6"/>
<path d="M9.10117 58.3362C7.78533 59.9327 6.96749 61.9375 6.76383 64.066C6.71247 64.5233 6.72802 64.9866 6.80988 65.4387C6.90278 65.8763 7.10221 66.279 7.38745 66.605C7.64777 66.9147 7.94716 67.1988 8.13342 67.5717C8.22615 67.764 8.28027 67.9755 8.29224 68.1921C8.30422 68.4087 8.27376 68.6256 8.20289 68.8286C8.03844 69.3393 7.71433 69.7556 7.3843 70.1508C7.01787 70.5895 6.63084 71.039 6.47508 71.6207C6.45621 71.6912 6.35631 71.6553 6.37516 71.585C6.64616 70.5729 7.55342 69.9981 7.98609 69.0866C8.18799 68.6612 8.27273 68.1674 8.08346 67.7185C7.91795 67.3258 7.60944 67.0325 7.34335 66.7214C7.06079 66.4079 6.85343 66.0242 6.73939 65.6038C6.63652 65.1577 6.60453 64.6958 6.64476 64.2381C6.72017 63.2059 6.94498 62.193 7.31096 61.2365C7.72306 60.1423 8.30498 59.1325 9.03155 58.2507C9.07654 58.1962 9.14587 58.282 9.10118 58.3362H9.10117Z" fill="white"/>
<path d="M6.79217 63.3764C6.46702 63.2909 6.18051 63.0831 5.98382 62.79C5.78713 62.4969 5.69306 62.1376 5.71841 61.7763C5.72377 61.7032 5.8289 61.7088 5.82354 61.782C5.79936 62.1184 5.88702 62.453 6.07069 62.7256C6.25436 62.9981 6.52195 63.1905 6.82517 63.2682C6.89104 63.2851 6.85767 63.3932 6.79217 63.3764H6.79217Z" fill="white"/>
<path d="M7.23647 66.4668C7.82374 66.0871 8.25726 65.4816 8.4506 64.7712C8.4697 64.7008 8.5696 64.7366 8.55052 64.8069C8.34805 65.5458 7.89572 66.1749 7.2838 66.5685C7.22545 66.606 7.17844 66.504 7.23647 66.4668Z" fill="white"/>
<path d="M7.82039 60.2502C7.93984 60.3117 8.07151 60.3401 8.20358 60.3328C8.33566 60.3255 8.464 60.2829 8.57708 60.2086C8.63496 60.1704 8.68191 60.2724 8.6244 60.3104C8.49911 60.3918 8.35732 60.4387 8.21141 60.4471C8.06551 60.4555 7.91993 60.425 7.7874 60.3584C7.77442 60.3533 7.76374 60.343 7.75752 60.3296C7.7513 60.3163 7.75002 60.3008 7.75393 60.2865C7.75837 60.2722 7.76784 60.2603 7.78028 60.2536C7.79272 60.2468 7.80713 60.2456 7.82039 60.2502H7.82039Z" fill="white"/>
<path d="M15.966 62.8699C15.9305 62.8949 15.895 62.92 15.8594 62.9459C15.3836 63.2848 14.9339 63.6649 14.5149 64.0826C14.482 64.1143 14.4492 64.147 14.4172 64.1797C13.4176 65.1976 12.6013 66.4077 12.0096 67.7483C11.7747 68.282 11.5775 68.8343 11.4199 69.4004C11.2023 70.1822 11.0239 71.0487 10.5931 71.6881C10.5489 71.7554 10.5008 71.8196 10.4493 71.8805H6.5568C6.54795 71.8757 6.53905 71.8718 6.53017 71.867L6.37476 71.8747C6.381 71.8449 6.38806 71.8141 6.39431 71.7843C6.39787 71.767 6.40229 71.7497 6.40585 71.7324C6.40849 71.7208 6.41119 71.7093 6.41296 71.6987C6.41383 71.6949 6.41474 71.691 6.41561 71.6881C6.41739 71.6776 6.42007 71.668 6.42185 71.6583C6.46092 71.4862 6.50118 71.3141 6.54262 71.1419C6.54262 71.141 6.54262 71.141 6.54349 71.14C6.84768 69.8251 7.29484 68.5539 7.8756 67.3531C7.89338 67.3175 7.91112 67.281 7.93068 67.2454C8.19961 66.7138 8.50821 66.207 8.8534 65.7299C9.0432 65.4693 9.24505 65.2192 9.45819 64.9807C10.01 64.3657 10.6477 63.8484 11.348 63.4479C12.7441 62.6497 14.3604 62.3439 15.8524 62.8315C15.8905 62.844 15.9279 62.8565 15.966 62.8699Z" fill="#E6E6E6"/>
<path d="M15.9577 62.9234C14.0194 63.3403 12.2517 64.4079 10.9057 65.9745C10.6104 66.3062 10.3652 66.6863 10.1792 67.1006C10.01 67.5106 9.94532 67.9622 9.99183 68.4084C10.0275 68.8254 10.1085 69.2474 10.05 69.6666C10.017 69.8806 9.94269 70.0847 9.83181 70.2655C9.72093 70.4462 9.57601 70.5995 9.40656 70.7154C8.99128 71.016 8.50102 71.1371 8.01779 71.2374C7.48126 71.3489 6.92234 71.4554 6.47454 71.8183C6.42029 71.8623 6.36045 71.7685 6.41463 71.7246C7.19371 71.0933 8.23774 71.2258 9.09002 70.78C9.48771 70.5721 9.82993 70.233 9.92845 69.7512C10.0146 69.3298 9.93135 68.8945 9.89189 68.4726C9.84062 68.038 9.8884 67.5965 10.0311 67.1865C10.197 66.7632 10.4282 66.3736 10.7149 66.0343C11.349 65.2594 12.0917 64.5972 12.9158 64.072C13.8532 63.467 14.8793 63.0401 15.9497 62.8098C16.0159 62.7956 16.0236 62.9093 15.9577 62.9234H15.9577Z" fill="white"/>
<path d="M11.3118 65.4424C11.0997 65.1621 10.9865 64.8094 10.9924 64.4471C10.9983 64.0849 11.123 63.7367 11.3441 63.4648C11.389 63.4099 11.4698 63.4829 11.4249 63.5378C11.2185 63.7906 11.1025 64.115 11.0976 64.4523C11.0927 64.7897 11.1993 65.1178 11.3983 65.3775C11.4414 65.434 11.3547 65.4985 11.3118 65.4424Z" fill="white"/>
<path d="M9.94778 68.1995C10.6278 68.2792 11.3106 68.0784 11.8599 67.6372C11.9143 67.5935 11.9742 67.6872 11.9199 67.7309C11.3474 68.1888 10.6365 68.3962 9.92899 68.3116C9.86156 68.3035 9.88072 68.1914 9.94778 68.1995Z" fill="white"/>
<path d="M13.8711 63.6168C13.9323 63.7438 14.0216 63.8523 14.1311 63.9326C14.2406 64.0129 14.3668 64.0625 14.4984 64.0769C14.5659 64.0841 14.5466 64.1962 14.4796 64.189C14.3343 64.1723 14.195 64.1174 14.0738 64.0289C13.9527 63.9405 13.8534 63.8213 13.7846 63.6817C13.7771 63.6691 13.7743 63.6539 13.7768 63.6392C13.7792 63.6245 13.7868 63.6113 13.7979 63.6024C13.8094 63.5939 13.8235 63.5906 13.8372 63.5933C13.8509 63.596 13.8631 63.6045 13.8711 63.6168Z" fill="white"/>
<path d="M46.1246 65.7965C44.5072 63.8949 43.6749 61.0479 44.547 58.6414C45.8318 61.0843 47.8733 62.9564 50.3102 63.9264C51.2512 64.2968 52.3335 64.6027 52.8447 65.535C53.1628 66.1151 53.1853 66.8412 53.0412 67.4975C52.897 68.1539 52.6009 68.7574 52.3077 69.3527L52.3059 69.5211C50.0153 68.7921 47.742 67.698 46.1246 65.7965Z" fill="#E6E6E6"/>
<path d="M44.596 58.6541C44.8706 60.7732 45.7548 62.7447 47.1231 64.2886C47.4122 64.6267 47.7487 64.9133 48.1202 65.1378C48.4887 65.3439 48.9013 65.4394 49.3154 65.4144C49.7019 65.3995 50.0956 65.3358 50.4788 65.4228C50.6742 65.4706 50.8582 65.5625 51.0186 65.6926C51.179 65.8227 51.3122 65.9881 51.4094 66.1778C51.663 66.6438 51.7469 67.1807 51.8121 67.7088C51.8844 68.2951 51.951 68.9054 52.2602 69.4101C52.2977 69.4712 52.2079 69.5306 52.1705 69.4695C51.6324 68.5915 51.8138 67.4703 51.4511 66.5237C51.2818 66.082 50.9886 65.6928 50.5499 65.559C50.1662 65.442 49.7602 65.5073 49.3689 65.5261C48.9654 65.5569 48.5609 65.4802 48.191 65.3028C47.8101 65.0994 47.464 64.8274 47.1674 64.4983C46.4888 63.7688 45.9203 62.9284 45.4828 62.0078C44.9781 60.9601 44.6426 59.8266 44.4908 58.6564C44.4815 58.5839 44.5867 58.5821 44.596 58.6541V58.6541Z" fill="white"/>
<path d="M46.655 63.8196C46.3846 64.033 46.053 64.1354 45.7193 64.1085C45.3856 64.0815 45.0717 63.9271 44.8335 63.6726C44.7855 63.621 44.8573 63.5377 44.9054 63.5894C45.1268 63.8268 45.4193 63.9707 45.7301 63.9951C46.0408 64.0194 46.3494 63.9227 46.6001 63.7224C46.6546 63.6789 46.7092 63.7764 46.655 63.8196Z" fill="white"/>
<path d="M49.1207 65.45C49.2327 64.7194 49.0862 63.9699 48.7105 63.3509C48.6733 63.2897 48.7631 63.2303 48.8003 63.2915C49.1901 63.9363 49.3411 64.7166 49.223 65.4767C49.2117 65.5491 49.1094 65.5221 49.1207 65.45Z" fill="white"/>
<path d="M45.1168 60.9492C45.2374 60.8903 45.3425 60.7998 45.4227 60.686C45.503 60.5722 45.5558 60.4386 45.5766 60.2971C45.5871 60.2246 45.6893 60.2517 45.6789 60.3238C45.6553 60.4799 45.5967 60.6274 45.5083 60.7534C45.4199 60.8794 45.3044 60.98 45.1718 61.0464C45.1598 61.0538 45.1456 61.056 45.1322 61.0525C45.1187 61.049 45.107 61.0401 45.0994 61.0276C45.0922 61.0147 45.09 60.9992 45.0933 60.9845C45.0965 60.9699 45.105 60.9572 45.1168 60.9492Z" fill="white"/>
<path d="M52.2282 55.9121C52.2228 55.9576 52.2175 56.0031 52.2128 56.0493C52.144 56.6615 52.1213 57.2787 52.1448 57.8949C52.1459 57.9425 52.1477 57.9908 52.1501 58.0384C52.2214 59.5222 52.5465 60.9788 53.1088 62.3341C53.3331 62.8732 53.5948 63.3931 53.8919 63.8892C54.3022 64.5743 54.7974 65.2818 54.9697 66.051C54.9885 66.131 55.0027 66.2122 55.0122 66.2941L52.4964 69.5103C52.4873 69.5145 52.4788 69.5194 52.4697 69.5236L52.3747 69.657C52.3577 69.6326 52.3406 69.6069 52.3236 69.5824C52.3137 69.5683 52.3044 69.5535 52.2945 69.5393C52.2881 69.5297 52.2817 69.52 52.2754 69.5117C52.2732 69.5085 52.2711 69.5053 52.2696 69.5027C52.2633 69.4944 52.2583 69.4859 52.2526 69.4783C52.1566 69.3347 52.0613 69.1902 51.9668 69.0447C51.9661 69.0441 51.9661 69.0441 51.966 69.0427C51.236 67.9416 50.6292 66.7505 50.1584 65.4945C50.1448 65.4568 50.1305 65.4185 50.1181 65.3794C49.9173 64.8136 49.7596 64.231 49.6465 63.6374C49.5855 63.3122 49.5398 62.9838 49.5095 62.6535C49.4327 61.8 49.4803 60.9388 49.6507 60.1013C49.9906 58.4319 50.8197 56.8988 52.1276 55.9812C52.1611 55.9577 52.194 55.9349 52.2282 55.9121Z" fill="#E6E6E6"/>
<path d="M52.2602 55.9539C51.3012 57.8249 50.911 59.9755 51.145 62.1003C51.1879 62.5587 51.2972 63.0069 51.469 63.4284C51.6486 63.8331 51.925 64.1784 52.2695 64.4284C52.5863 64.6684 52.9362 64.8743 53.1937 65.1935C53.3232 65.3591 53.419 65.5524 53.4747 65.7609C53.5304 65.9693 53.5448 66.1882 53.5169 66.4031C53.4603 66.9405 53.2288 67.4238 52.9872 67.888C52.719 68.4033 52.4328 68.934 52.3991 69.5385C52.395 69.6118 52.2903 69.6006 52.2944 69.5275C52.353 68.4757 53.1211 67.6987 53.3579 66.7064C53.4684 66.2434 53.4506 65.7415 53.1747 65.3486C52.9335 65.0051 52.5729 64.7925 52.2501 64.5525C51.9107 64.314 51.6305 63.9891 51.4338 63.6062C51.2427 63.1956 51.1176 62.7527 51.0638 62.2965C50.9275 61.2717 50.9409 60.2301 51.1035 59.2098C51.283 58.0442 51.6454 56.9204 52.1749 55.8872C52.2077 55.8232 52.2928 55.8904 52.2602 55.9539H52.2602Z" fill="white"/>
<path d="M51.0327 61.421C50.6982 61.4151 50.3765 61.2806 50.125 61.0416C49.8736 60.8026 49.7088 60.4745 49.6601 60.1161C49.6504 60.0435 49.7541 60.0239 49.7638 60.0966C49.8085 60.4305 49.9621 60.736 50.1967 60.9581C50.4312 61.1801 50.7314 61.3041 51.0429 61.3076C51.1106 61.3084 51.1001 61.4218 51.0327 61.421Z" fill="white"/>
<path d="M52.0943 64.3296C52.59 63.8192 52.8898 63.1253 52.934 62.3862C52.9383 62.313 53.043 62.3241 53.0387 62.3973C52.9914 63.1663 52.6781 63.8877 52.1612 64.4176C52.1119 64.4681 52.0453 64.3798 52.0943 64.3296Z" fill="white"/>
<path d="M51.3999 58.1262C51.5289 58.1577 51.6631 58.154 51.7904 58.1154C51.9178 58.0769 52.0343 58.0047 52.1295 57.9053C52.1782 57.8542 52.2447 57.9425 52.1964 57.9933C52.0907 58.1025 51.9619 58.1821 51.8213 58.2251C51.6807 58.268 51.5325 58.273 51.3897 58.2396C51.376 58.2377 51.3635 58.2302 51.3547 58.2186C51.3459 58.2071 51.3415 58.1923 51.3424 58.1774C51.3438 58.1624 51.3507 58.1486 51.3614 58.139C51.3722 58.1294 51.386 58.1248 51.3999 58.1262Z" fill="white"/>
<path d="M30.3504 61.815C31.7828 61.815 32.9439 60.5576 32.9439 59.0066C32.9439 57.4556 31.7828 56.1982 30.3504 56.1982C28.918 56.1982 27.7568 57.4556 27.7568 59.0066C27.7568 60.5576 28.918 61.815 30.3504 61.815Z" fill="#F2F2F2"/>
<path d="M28.423 34.7481C28.9558 34.7481 29.3878 34.2804 29.3878 33.7035C29.3878 33.1265 28.9558 32.6588 28.423 32.6588C27.8902 32.6588 27.4583 33.1265 27.4583 33.7035C27.4583 34.2804 27.8902 34.7481 28.423 34.7481Z" fill="#4630AB"/>
<path d="M15.1559 46.4076C15.6887 46.4076 16.1207 45.9398 16.1207 45.3629C16.1207 44.7859 15.6887 44.3182 15.1559 44.3182C14.6231 44.3182 14.1912 44.7859 14.1912 45.3629C14.1912 45.9398 14.6231 46.4076 15.1559 46.4076Z" fill="#F0F0F0"/>
<path d="M72.2475 0H0.986983C0.881288 0.000309343 0.780005 0.0459133 0.705268 0.126842C0.630531 0.207771 0.588418 0.317444 0.588135 0.431893V2.97348C0.588107 3.08818 0.630076 3.19821 0.704838 3.27947C0.7796 3.36072 0.881057 3.40658 0.986983 3.40697H72.2475C72.3534 3.40658 72.4549 3.36072 72.5296 3.27947C72.6044 3.19821 72.6464 3.08818 72.6463 2.97348V0.431893C72.6461 0.317443 72.604 0.207768 72.5292 0.12684C72.4545 0.045911 72.3532 0.00030891 72.2475 0Z" fill="#4630AB"/>
<path d="M2.90483 2.19271C3.2178 2.19271 3.47152 1.91798 3.47152 1.57908C3.47152 1.24019 3.2178 0.965454 2.90483 0.965454C2.59185 0.965454 2.33813 1.24019 2.33813 1.57908C2.33813 1.91798 2.59185 2.19271 2.90483 2.19271Z" fill="white"/>
<path d="M5.05595 2.19271C5.36893 2.19271 5.62264 1.91798 5.62264 1.57908C5.62264 1.24019 5.36893 0.965454 5.05595 0.965454C4.74298 0.965454 4.48926 1.24019 4.48926 1.57908C4.48926 1.91798 4.74298 2.19271 5.05595 2.19271Z" fill="white"/>
<path d="M7.20659 2.19271C7.51956 2.19271 7.77328 1.91798 7.77328 1.57908C7.77328 1.24019 7.51956 0.965454 7.20659 0.965454C6.89361 0.965454 6.63989 1.24019 6.63989 1.57908C6.63989 1.91798 6.89361 2.19271 7.20659 2.19271Z" fill="white"/>
<path d="M70.1402 0.759399H67.6626C67.614 0.759399 67.5675 0.78029 67.5331 0.817476C67.4988 0.854662 67.4795 0.905096 67.4795 0.957685C67.4795 1.01027 67.4988 1.06071 67.5331 1.09789C67.5675 1.13508 67.614 1.15597 67.6626 1.15597H70.1402C70.1888 1.15597 70.2354 1.13508 70.2697 1.09789C70.3041 1.06071 70.3234 1.01027 70.3234 0.957685C70.3234 0.905096 70.3041 0.854662 70.2697 0.817476C70.2354 0.78029 70.1888 0.759399 70.1402 0.759399Z" fill="white"/>
<path d="M70.1402 1.50439H67.6626C67.614 1.50439 67.5675 1.52529 67.5331 1.56247C67.4988 1.59966 67.4795 1.65009 67.4795 1.70268C67.4795 1.75527 67.4988 1.80571 67.5331 1.84289C67.5675 1.88008 67.614 1.90096 67.6626 1.90096H70.1402C70.1888 1.90096 70.2354 1.88008 70.2697 1.84289C70.3041 1.80571 70.3234 1.75527 70.3234 1.70268C70.3234 1.65009 70.3041 1.59966 70.2697 1.56247C70.2354 1.52529 70.1888 1.50439 70.1402 1.50439Z" fill="white"/>
<path d="M70.14 2.24939H67.6624C67.6136 2.24939 67.5668 2.27036 67.5324 2.3077C67.4979 2.34504 67.4785 2.39567 67.4785 2.44848C67.4785 2.50128 67.4979 2.55192 67.5324 2.58925C67.5668 2.62659 67.6136 2.64756 67.6624 2.64756H70.14C70.1888 2.64756 70.2356 2.62659 70.27 2.58925C70.3045 2.55192 70.3239 2.50128 70.3239 2.44848C70.3239 2.39567 70.3045 2.34504 70.27 2.3077C70.2356 2.27036 70.1888 2.24939 70.14 2.24939Z" fill="white"/>
<path d="M3.25325 22.1611C3.04745 22.1618 2.88094 22.4512 2.88135 22.8075C2.88176 23.1628 3.04803 23.4506 3.25325 23.4513H31.2005C31.4063 23.4506 31.5728 23.1612 31.5724 22.8049C31.572 22.4497 31.4058 22.1618 31.2005 22.1611H3.25325Z" fill="#E6E6E6"/>
<path d="M3.25325 25.8993C3.04745 25.9 2.88094 26.1894 2.88135 26.5457C2.88176 26.9009 3.04803 27.1888 3.25325 27.1895H31.2005C31.4063 27.1888 31.5728 26.8994 31.5724 26.5431C31.572 26.1878 31.4058 25.9 31.2005 25.8993H3.25325Z" fill="#E6E6E6"/>
<path d="M3.25325 29.592C3.04745 29.5927 2.88094 29.8821 2.88135 30.2384C2.88176 30.5937 3.04803 30.8815 3.25325 30.8822H21.192C21.3978 30.8815 21.5643 30.5921 21.5639 30.2359C21.5635 29.8806 21.3972 29.5927 21.192 29.592H3.25325Z" fill="#E6E6E6"/>
<path d="M1.24268 70.864C1.25218 70.8408 1.26303 70.8186 1.27289 70.7957C1.29031 70.6032 1.24268 70.864 1.24268 70.864Z" fill="#F2F2F2"/>
<path d="M6.31968 67.9564C5.96575 67.9561 5.61228 67.9838 5.26207 68.0391L5.21153 68.0471C4.09083 68.2416 3.07424 68.8723 2.3527 69.821C1.63116 70.7697 1.25433 71.971 1.29299 73.1993L1.30638 73.6614C1.31521 73.9535 1.32462 74.2675 1.33237 74.6159C1.3333 74.697 1.36374 74.7744 1.41708 74.8312C1.47042 74.8881 1.54234 74.9199 1.61719 74.9196H58.2696C62.2639 74.8742 66.2437 74.8169 70.0978 74.7495C70.8236 74.7521 71.548 74.6817 72.2618 74.5393C73.3329 74.3016 74.0763 73.8304 74.5347 73.0988H74.5349C75.1049 72.1916 75.1229 71.0492 75.0884 69.7585C75.0182 67.1523 74.9485 64.4144 74.879 61.6848C74.8176 59.2792 74.7565 56.88 74.6954 54.583C74.6576 53.2198 74.5737 52.0166 73.9263 51.097C73.2246 50.1025 71.9448 49.5984 70.1226 49.5984C70.1005 49.5984 70.0787 49.5984 70.0564 49.5985C64.3455 49.6366 58.6869 53.3187 55.9758 58.761C55.6637 59.3877 55.3728 60.0586 55.0914 60.7076C54.691 61.6812 54.2374 62.6283 53.7331 63.5436C53.4701 64.0085 53.1699 64.4474 52.8357 64.8552C52.8137 64.8837 52.7885 64.9143 52.7619 64.9433C52.7009 65.0178 52.6372 65.0896 52.5751 65.1536C52.2328 65.5292 51.8483 65.8569 51.4308 66.1291L51.3907 66.1544C51.3605 66.1746 51.3277 66.1948 51.295 66.2133C51.0679 66.3502 50.8317 66.4686 50.5883 66.5675C49.5548 66.9946 48.3797 67.097 47.0957 66.8715C45.8774 66.6442 44.7033 66.1955 43.6231 65.5446C42.4341 64.84 41.3211 63.9615 40.2448 63.112C39.7721 62.7386 39.2831 62.3528 38.7947 61.9871C38.7029 61.9183 38.6127 61.851 38.521 61.7838C37.9246 61.3479 37.3838 60.9879 36.8679 60.6833C35.6523 59.9469 34.3128 59.4817 32.9285 59.3151C31.5082 59.1693 30.2565 59.4443 29.2092 60.1306C28.9096 60.3279 28.6279 60.5555 28.3679 60.8103C27.1274 62.0182 26.3627 63.8009 25.6232 65.525C24.7033 67.6694 23.752 69.8871 21.8737 71.0367C19.7063 72.3644 16.5426 71.8128 14.3043 70.8536C13.6005 70.5519 12.8977 70.2049 12.2179 69.8692C11.9434 69.7336 11.6689 69.5981 11.3937 69.4652C10.8535 69.2036 10.4113 69.0033 10.0023 68.8341L9.87291 68.7801C9.80095 68.7508 9.72891 68.7215 9.65557 68.6936C9.20235 68.5131 8.74038 68.3595 8.27173 68.2334L8.16631 68.2046C7.95498 68.1524 7.7574 68.1089 7.56352 68.0724L7.48612 68.058C7.10049 67.9899 6.71039 67.9559 6.31968 67.9564Z" fill="#E6E6E6"/>
<path d="M38.0658 68.0322C37.1229 64.1925 39.2167 60.4499 41.6633 57.859C42.9671 56.4782 44.4192 55.278 45.8352 54.0381C47.194 52.8615 48.4879 51.5996 49.7104 50.2591C52.071 47.6428 54.1302 44.6529 55.4939 41.292C56.7906 38.0959 57.4036 34.6144 57.0999 31.1271C56.812 27.8198 55.7172 24.5664 53.7032 22.0289C53.4523 21.7127 53.1883 21.4096 52.9112 21.1197C52.7627 20.9635 52.535 21.2094 52.6838 21.3659C54.9328 23.7305 56.2418 26.9349 56.6848 30.2686C57.1416 33.7066 56.6709 37.2115 55.4837 40.4257C54.2189 43.8497 52.2078 46.905 49.8754 49.5712C48.7008 50.9054 47.4513 52.1598 46.134 53.3273C44.7272 54.5822 43.2654 55.7678 41.9258 57.1088C39.4569 59.5803 37.238 62.9799 37.5428 66.8068C37.5783 67.252 37.6495 67.693 37.7557 68.1248C37.7681 68.1679 37.7956 68.2041 37.8322 68.2257C37.8688 68.2473 37.9118 68.2527 37.952 68.2407C37.9922 68.2287 38.0266 68.2002 38.0478 68.1613C38.069 68.1224 38.0755 68.0761 38.0658 68.0322Z" fill="#E6E6E6"/>
<path d="M47.9397 46.1724C47.9596 46.2121 47.9644 46.2586 47.9533 46.3021C47.9421 46.3456 47.9157 46.3828 47.8798 46.4057C47.8438 46.4286 47.8011 46.4354 47.7605 46.4249C47.72 46.4143 47.6848 46.3871 47.6624 46.349C47.2932 45.6635 46.9448 44.9661 46.6171 44.257C46.3962 43.7753 46.1841 43.2872 45.9854 42.7943C43.7551 37.3195 42.7999 31.3356 43.2038 25.3677C43.3136 23.7351 43.5312 22.1131 43.8547 20.5141C43.9215 20.1898 43.9926 19.8655 44.0712 19.5444C44.1898 19.5235 44.3055 19.4962 44.4197 19.4641C43.7228 22.2 43.4425 25.0851 43.4336 27.9077C43.4234 31.1005 43.8028 34.2808 44.562 37.366C45.3179 40.4523 46.454 43.4144 47.9397 46.1724Z" fill="#E6E6E6"/>
<path d="M69.0591 36.7318C67.8536 39.5399 65.8282 41.8454 63.5566 43.6822C60.9811 45.7646 58.0646 47.2674 55.1747 48.7589C54.9894 48.8553 54.8263 48.555 55.0131 48.4587C55.7026 48.1023 56.392 47.7458 57.0771 47.383C59.8172 45.9267 62.5336 44.3244 64.8274 42.1184C66.9492 40.0777 68.678 37.5361 69.4668 34.5546C70.2898 31.4511 70.1341 28.0955 69.2489 25.0289C68.6996 23.1667 67.9115 21.3972 66.9076 19.7724C66.5755 19.2281 66.2241 18.6988 65.8534 18.1845C65.5836 17.8104 65.3048 17.4438 65.0171 17.0847C64.077 15.9171 63.0548 14.8301 61.9597 13.8334C60.8206 12.7693 59.5598 11.8681 58.2084 11.1522C56.8201 10.4209 55.3022 10.0233 53.7587 9.98654C52.3001 9.96474 50.8638 10.3756 49.6055 11.1746C48.7452 11.7295 47.9723 12.4298 47.3162 13.249C47.2732 13.1318 47.2257 13.0162 47.1724 12.9038C48.3052 11.5471 49.7182 10.481 51.3626 9.97529C54.4007 9.04086 57.6079 10.1375 60.1715 11.9517C61.4224 12.8556 62.5907 13.8867 63.6604 15.0312C64.0593 15.4502 64.4478 15.8821 64.8214 16.3268C65.2722 16.8599 65.7027 17.4117 66.1129 17.9822C66.1129 17.9822 66.1159 17.9838 66.1159 17.9854C66.2538 18.1764 66.3892 18.3702 66.5221 18.5666C68.2555 21.1194 69.5499 24.0495 70.0659 27.182C70.5937 30.385 70.3328 33.7631 69.0591 36.7318Z" fill="#E6E6E6"/>
<path d="M67.0217 33.3665C65.8178 36.1746 63.7923 38.4801 61.5193 40.3169C59.0565 42.3062 56.2823 43.7688 53.5184 45.1962C53.3924 45.262 53.2649 45.3262 53.1389 45.392C53.1186 45.4033 53.0963 45.4097 53.0735 45.4108C53.0508 45.4119 53.028 45.4077 53.0069 45.3985C52.9776 45.3893 52.9514 45.3709 52.9317 45.3456C52.9121 45.3203 52.8998 45.2893 52.8965 45.2564C52.8931 45.2236 52.8989 45.1904 52.913 45.1611C52.9271 45.1317 52.949 45.1076 52.9758 45.0918C53.0825 45.0356 53.1908 44.981 53.2975 44.9264C53.4814 44.8301 53.6638 44.7354 53.8476 44.6406C54.2465 44.4351 54.6443 44.2269 55.0412 44.0161C57.7798 42.5614 60.4977 40.9575 62.79 38.7515C64.9133 36.7108 66.6422 34.1692 67.431 31.1877C68.2524 28.0842 68.0967 24.7302 67.2115 21.6636C66.8611 20.4601 66.4063 19.2952 65.8534 18.1844C65.5375 17.5486 65.1921 16.9273 64.8214 16.3268C64.2601 15.415 63.645 14.5435 62.9798 13.7178C62.0406 12.5503 61.0189 11.4638 59.9239 10.4681C58.7844 9.40376 57.5231 8.50261 56.1711 7.78688C54.7834 7.05511 53.266 6.65693 51.7229 6.61964C50.2638 6.59784 48.8271 7.00871 47.5682 7.80775C46.4665 8.52467 45.5074 9.47156 44.7466 10.5934C43.8382 11.9406 43.1395 13.4396 42.6781 15.0311C42.2663 16.4202 41.9589 17.8431 41.7588 19.2858C41.5177 21.0253 41.3963 22.7818 41.3956 24.5408C41.386 27.7341 41.7654 30.9148 42.5239 34.0007C43.2807 37.0866 44.4168 40.0486 45.9016 42.8071C45.9057 42.8143 45.9091 42.8218 45.912 42.8296C45.9257 42.87 45.925 42.9146 45.9102 42.9545C45.8953 42.9945 45.8673 43.0271 45.8316 43.0461C45.7958 43.065 45.7549 43.069 45.7166 43.0572C45.6784 43.0454 45.6455 43.0186 45.6243 42.9821C45.2551 42.2981 44.9072 41.6008 44.5805 40.8901C41.9033 35.0374 40.7242 28.5146 41.1657 22.0008C41.231 21.0471 41.3323 20.0966 41.4697 19.1494C41.5661 18.4782 41.6822 17.8109 41.8181 17.1472C42.1326 15.5172 42.6332 13.9359 43.3083 12.4398C43.6263 11.7553 43.9979 11.1016 44.4189 10.4858C45.6481 8.68598 47.3147 7.22815 49.3267 6.61001C52.3649 5.67398 55.5706 6.77056 58.1357 8.58483C59.386 9.48948 60.5542 10.5206 61.6246 11.6643C62.6668 12.7549 63.6235 13.9374 64.4848 15.1997C65.0871 16.0847 65.6311 17.0144 66.1128 17.9821C66.1128 17.9821 66.1158 17.9837 66.1158 17.9853C66.4049 18.5681 66.6703 19.1638 66.9076 19.7723C67.4199 21.0701 67.796 22.4263 68.0285 23.8151C68.5579 27.0197 68.2969 30.3962 67.0217 33.3665Z" fill="#E6E6E6"/>
<path d="M57.1053 34.5776C58.5236 34.568 59.895 34.0259 60.9855 33.0439C62.0957 32.0329 62.8264 30.6174 63.04 29.0638C63.1654 28.1855 63.125 27.2888 62.9212 26.4279C62.9087 26.3848 62.8813 26.3486 62.8446 26.327C62.808 26.3054 62.7651 26.3 62.7249 26.3121C62.6846 26.3241 62.6503 26.3525 62.6291 26.3914C62.6079 26.4303 62.6014 26.4765 62.6111 26.5205C62.9548 27.9822 62.7997 29.5292 62.1744 30.8771C61.6939 31.8849 60.9671 32.7305 60.0732 33.3216C59.1793 33.9128 58.1527 34.2268 57.1053 34.2294C57.0636 34.2309 57.0241 34.25 56.9951 34.2824C56.9661 34.3149 56.95 34.3583 56.95 34.4035C56.95 34.4487 56.9661 34.4921 56.9951 34.5245C57.0241 34.557 57.0636 34.576 57.1053 34.5776Z" fill="#E6E6E6"/>
<path d="M45.0294 54.3696L43.9942 52.3966C43.972 52.3584 43.9369 52.3311 43.8963 52.3204C43.8558 52.3097 43.813 52.3164 43.777 52.3392C43.741 52.362 43.7145 52.3991 43.7033 52.4426C43.692 52.4861 43.6967 52.5326 43.7166 52.5724L44.7517 54.5453C44.774 54.5835 44.8091 54.6108 44.8496 54.6216C44.8901 54.6323 44.9329 54.6255 44.9689 54.6027C45.005 54.5799 45.0314 54.5428 45.0427 54.4994C45.0539 54.4559 45.0492 54.4093 45.0294 54.3696Z" fill="#E6E6E6"/>
<path d="M38.9855 14.1216C38.6758 13.8849 38.3369 13.638 37.9579 13.6479C37.0405 13.6718 36.5459 15.1279 35.6295 15.0767C35.0451 15.0441 34.6572 14.4012 34.113 14.1681C33.4046 13.8647 32.5031 14.4581 32.4258 15.2788L32.5168 15.1886C35.2706 15.9156 38.1283 16.0585 40.9323 15.6096C40.2834 15.1136 39.6344 14.6176 38.9855 14.1216Z" fill="#E6E6E6"/>
<path d="M35.195 73.356C35.7066 73.356 36.1213 72.9069 36.1213 72.353C36.1213 71.7991 35.7066 71.3501 35.195 71.3501C34.6835 71.3501 34.2688 71.7991 34.2688 72.353C34.2688 72.9069 34.6835 73.356 35.195 73.356Z" fill="white"/>
<path d="M37.8808 73.356C38.3924 73.356 38.807 72.9069 38.807 72.353C38.807 71.7991 38.3924 71.3501 37.8808 71.3501C37.3693 71.3501 36.9546 71.7991 36.9546 72.353C36.9546 72.9069 37.3693 73.356 37.8808 73.356Z" fill="white"/>
<path d="M40.5669 73.356C41.0784 73.356 41.4931 72.9069 41.4931 72.353C41.4931 71.7991 41.0784 71.3501 40.5669 71.3501C40.0553 71.3501 39.6406 71.7991 39.6406 72.353C39.6406 72.9069 40.0553 73.356 40.5669 73.356Z" fill="white"/>
<path d="M37.8889 73.1554C38.2982 73.1554 38.6299 72.7962 38.6299 72.353C38.6299 71.9099 38.2982 71.5507 37.8889 71.5507C37.4797 71.5507 37.1479 71.9099 37.1479 72.353C37.1479 72.7962 37.4797 73.1554 37.8889 73.1554Z" fill="#3F3D56"/>
<path d="M81.3858 72.7051H80.3705L79.8875 68.4647H81.3858V72.7051Z" fill="#FFB6B6"/>
<path d="M81.9217 74.6099H81.1936L81.0637 73.8656L80.7308 74.6099H78.7998C78.7073 74.6099 78.6171 74.5779 78.5426 74.5185C78.468 74.4591 78.4129 74.3754 78.3854 74.2798C78.3578 74.1841 78.3593 74.0814 78.3895 73.9866C78.4196 73.8919 78.477 73.81 78.5532 73.7531L80.0952 72.5999V71.8474L81.7172 71.9522L81.9217 74.6099Z" fill="#2F2E41"/>
<path d="M75.5508 71.7651L74.5949 72.1357L72.8201 68.3199L74.2309 67.7731L75.5508 71.7651Z" fill="#FFB6B6"/>
<path d="M76.7789 72.8425L76.15 73.2397L75.6914 72.6677L75.7502 73.4923L74.0823 74.5459C74.0023 74.5964 73.9096 74.6179 73.8175 74.6073C73.7255 74.5966 73.639 74.5544 73.5707 74.4868C73.5023 74.4192 73.4558 74.3297 73.4377 74.2314C73.4197 74.1331 73.4312 74.0311 73.4705 73.9403L74.2658 72.1029L73.9157 71.4529L75.3655 70.6584L76.7789 72.8425Z" fill="#2F2E41"/>
<path d="M81.5788 70.1143H81.5666L81.3508 62.494C81.4905 62.2023 81.5614 61.8778 81.5571 61.5492C81.5529 61.2207 81.4738 60.8984 81.3267 60.611L81.2958 60.5505L81.3759 60.1484C81.4788 59.6318 81.4316 59.0933 81.2407 58.6069L81.0394 51.4986C81.7587 46.4511 78.3872 42.4989 78.3872 42.4989H72.9928L72.0937 47.2606L69.2153 59.1752C69.0877 59.3852 69.0083 59.6252 68.9838 59.8751C68.9592 60.1251 68.9902 60.3777 69.0741 60.6121L73.162 69.369L73.1304 69.3863C73.0706 69.4224 73.026 69.4821 73.0057 69.5529C72.9855 69.6237 72.9912 69.7003 73.0217 69.7667C73.0751 69.9343 73.2104 70.0358 73.324 69.9934L74.9174 69.1207C74.9772 69.0845 75.0219 69.0249 75.0421 68.9541C75.0624 68.8832 75.0567 68.8067 75.0262 68.7403C74.9728 68.5727 74.8374 68.4712 74.7239 68.5136L74.5395 68.6146L73.3061 62.0318L73.2625 60.6887L73.3524 59.165L76.0047 52.6414L77.578 61.0697L79.8967 70.1991C79.8524 70.2426 79.8213 70.2996 79.8075 70.3626C79.7937 70.4256 79.7979 70.4917 79.8195 70.552C79.8411 70.6124 79.8791 70.6643 79.9285 70.7008C79.9779 70.7373 80.0363 70.7568 80.0961 70.7565H81.5788C81.6575 70.7565 81.7329 70.7227 81.7885 70.6625C81.8441 70.6023 81.8754 70.5206 81.8754 70.4354C81.8754 70.3503 81.8441 70.2686 81.7885 70.2084C81.7329 70.1482 81.6575 70.1143 81.5788 70.1143Z" fill="#2F2E41"/>
<path d="M78.9891 39.1272L78.8452 40.8676C78.8452 40.8676 78.7829 42.3126 78.5857 42.6321C78.39 42.95 73.0492 42.9901 73.0492 42.9901C73.0492 42.9901 72.6963 40.9302 72.3923 39.1272H78.9891Z" fill="#FFB6B6"/>
<path d="M76.3145 28.2832C77.8301 28.2832 79.0587 26.9528 79.0587 25.3117C79.0587 23.6706 77.8301 22.3402 76.3145 22.3402C74.7989 22.3402 73.5703 23.6706 73.5703 25.3117C73.5703 26.9528 74.7989 28.2832 76.3145 28.2832Z" fill="#FFB6B6"/>
<path d="M77.7237 28.8517L75.5212 29.1323C75.4283 29.1441 75.3412 29.187 75.2719 29.255C75.2026 29.323 75.1546 29.4128 75.1347 29.5117L74.7844 31.2472L72.6009 34.0315C72.6009 34.0315 71.8169 35.6234 72.1109 37.4275C72.4049 39.2316 72.5341 40.5722 72.5341 40.5722C72.5341 40.5722 78.3912 42.9501 78.5872 42.6318C78.7833 42.3134 78.8469 40.8673 78.8469 40.8673L79.6309 31.4221C79.6309 31.4221 78.7489 29.8302 78.2588 29.8302C77.9426 29.8187 77.9831 29.0479 77.7237 28.8517Z" fill="#4630AB"/>
<path opacity="0.2" d="M76.7513 34.9543L75.7714 42.8076L74.7434 42.8655L76.7513 34.9543Z" fill="black"/>
<path d="M72.474 41.1529C72.7829 41.1529 73.0333 40.8276 73.0333 40.4263C73.0333 40.0249 72.7829 39.6996 72.474 39.6996C72.1652 39.6996 71.9148 40.0249 71.9148 40.4263C71.9148 40.8276 72.1652 41.1529 72.474 41.1529Z" fill="#4630AB"/>
<path d="M76.3059 50.1305C76.4225 50.0049 76.5122 49.8532 76.5687 49.686C76.6253 49.5188 76.6473 49.3403 76.6332 49.1629C76.6191 48.9855 76.5693 48.8136 76.4872 48.6593C76.4052 48.505 76.2929 48.3721 76.1582 48.2699L77.9942 38.6486L76.0134 39.3252L74.5363 48.6331C74.3927 48.8894 74.3409 49.1938 74.3908 49.4887C74.4407 49.7835 74.5887 50.0483 74.8068 50.2329C75.025 50.4175 75.2981 50.509 75.5743 50.4901C75.8506 50.4713 76.1109 50.3433 76.3059 50.1305Z" fill="#FFB6B6"/>
<path d="M77.7654 30.0889C77.7654 30.0889 79.0853 29.4702 79.8866 31.0278C80.688 32.5854 79.5315 37.9988 79.3693 38.8774C79.207 39.756 76.9814 43.9439 76.9814 43.9439L74.7573 43.4623L77.7654 30.0889Z" fill="#4630AB"/>
<path d="M75.0667 22.4711C76.0183 21.7625 76.8562 21.6545 77.5445 21.8555C77.6338 21.706 77.7589 21.5857 77.9065 21.5075C78.4433 20.0428 80.077 19.1631 81.4791 19.5907C82.8902 20.0211 83.8638 21.7136 83.5983 23.2748C83.4337 24.2425 82.8713 25.0805 82.6451 26.0335C82.2072 27.8783 83.2754 29.9915 84.9466 30.5862C83.3643 30.9302 81.6226 29.8837 81.0549 28.2478C80.7792 27.4532 80.7626 26.5857 80.7276 25.7377C80.6925 24.8898 80.6294 24.0163 80.2745 23.2595C80.0366 22.7404 79.6416 22.3253 79.1552 22.0835C79.1987 22.2294 79.2096 22.3844 79.187 22.5357C79.1643 22.687 79.1087 22.8303 79.0248 22.9538C79.3959 23.4572 79.5979 24.0015 79.5979 24.3275C80.3687 25.8531 79.2664 27.1635 77.8575 27.9981C77.2955 28.3328 76.6467 28.4553 76.0133 28.3463L75.9544 28.0738L75.8745 28.3192L75.6079 29.142C75.3004 29.3031 74.9955 29.4797 74.6933 29.6718C74.8081 29.088 74.901 28.5052 74.9649 27.9354C75.0534 27.1599 74.7449 26.0054 74.5224 25.3032C74.3844 24.8705 74.3136 24.4161 74.3128 23.9583V23.9383L74.0962 24.6918L73.3074 24.3275C73.4541 23.416 73.3074 22.3813 75.0667 22.4711Z" fill="#2F2E41"/>
<path d="M91.3823 74.809C91.3822 74.8596 91.3636 74.9081 91.3305 74.9439C91.2974 74.9798 91.2526 74.9999 91.2058 75H57.8012C57.7544 75 57.7095 74.9799 57.6764 74.9441C57.6433 74.9082 57.6248 74.8597 57.6248 74.809C57.6248 74.7583 57.6433 74.7097 57.6764 74.6739C57.7095 74.6381 57.7544 74.6179 57.8012 74.6179H91.2058C91.229 74.6178 91.252 74.6227 91.2735 74.6323C91.2949 74.6419 91.3144 74.656 91.3308 74.6737C91.3472 74.6915 91.3602 74.7126 91.369 74.7358C91.3779 74.759 91.3824 74.7839 91.3823 74.809Z" fill="#CCCCCC"/>
</g>
<defs>
<clipPath id="clip0_1116_1098">
<rect width="90.7941" height="75" fill="white" transform="translate(0.588135)"/>
</clipPath>
</defs>
</svg>
