<svg width="95" height="69" viewBox="0 0 95 69" fill="none" xmlns="http://www.w3.org/2000/svg">
<g clip-path="url(#clip0_1116_1403)">
<path d="M81.3203 28.8102C82.6221 30.2684 84.0744 30.501 85.6773 29.5082C85.0047 28.3569 84.8445 27.1046 85.0238 25.7854H81.9012C82.0396 26.9446 82.0024 28.0241 81.3203 28.8102Z" fill="#FFB8B8"/>
<path d="M86.4758 66.9693L88.146 66.0386L88.8721 56.1886V50.9921L85.0234 50.9146L86.1127 56.111L86.4758 66.9693Z" fill="#FFB8B8"/>
<path d="M81.6348 66.9693L79.9646 66.0386L79.2385 56.1886V50.9921L83.0871 50.9146L81.9979 56.111L81.6348 66.9693Z" fill="#FFB8B8"/>
<path d="M79.0691 52.0779L83.1356 51.6901L83.7892 47.7346L84.588 51.6125L89.0176 51.3023C89.1144 49.4178 88.8686 47.4782 88.2914 45.4854L78.5608 45.2527L79.0691 52.0779Z" fill="#2F2E41"/>
<path d="M74.8423 37.2228L69.9507 33.1998C69.8999 33.158 69.8441 33.1238 69.7848 33.098L69.0738 32.789C68.5027 32.5409 67.415 31.7155 67.9455 30.8656C68.3732 30.1804 70.0103 31.4079 70.2117 31.8626C70.2754 32.0057 70.3798 32.1237 70.51 32.1996L71.504 32.7814C71.5282 32.7956 71.5531 32.8082 71.5787 32.8193L75.3634 34.4577C75.4683 34.5031 75.5818 34.5211 75.6946 34.5103C75.8073 34.4994 75.916 34.4599 76.0116 34.3952L76.6978 33.9305C76.7954 33.8644 76.9066 33.8247 77.0219 33.8148C77.1371 33.805 77.2528 33.8252 77.3591 33.8739C77.4653 33.9225 77.5589 33.9981 77.6316 34.0941C77.7044 34.19 77.7542 34.3035 77.7766 34.4246L78.0034 35.647C78.036 35.823 78.0093 36.0057 77.928 36.1627C77.8466 36.3197 77.7159 36.4408 77.5589 36.5047L75.5298 37.3308C75.4161 37.3771 75.2932 37.3915 75.1729 37.3726C75.0525 37.3537 74.9387 37.3021 74.8423 37.2228Z" fill="#FFB8B8"/>
<path d="M75.751 34.2915C77.1053 33.9036 76.9631 35.9245 77.9964 36.9181L80.0279 35.2051L78.8512 29.1204C78.5355 29.2167 78.2451 29.3901 78.0029 29.627C77.7608 29.8638 77.5735 30.1575 77.4559 30.485L75.751 34.2915Z" fill="#4630AB"/>
<path d="M78.27 45.6404H88.509C86.8519 40.871 87.0132 35.9657 88.4242 30.967C88.4479 30.884 88.4437 30.7948 88.4124 30.7147C88.3811 30.6346 88.3246 30.5688 88.2527 30.5284L85.3138 28.8876C84.1602 29.6894 82.9203 29.443 81.6104 28.3447L78.4153 29.2754C79.2851 34.8549 79.3098 40.3199 78.27 45.6404Z" fill="#4630AB"/>
<path d="M80.8297 68.791L76.5628 68.9842C76.377 68.9926 76.1948 68.9273 76.0514 68.8009C75.908 68.6745 75.8134 68.4958 75.7859 68.2994C75.7581 68.101 75.8007 67.8987 75.9053 67.7321C76.01 67.5655 76.1691 67.4467 76.3515 67.399L77.0753 67.2095L79.9198 65.4485C80.3413 65.9146 80.9216 66.3087 81.631 66.6443L81.6393 67.8824C81.6409 68.1164 81.5573 68.3419 81.4063 68.5114C81.2553 68.6808 81.0486 68.7811 80.8297 68.791Z" fill="#2F2E41"/>
<path d="M94.6408 69H0.274902V68.751H94.683L94.6408 69Z" fill="#3F3D56"/>
<path d="M87.2444 68.7217L91.5114 68.9149C91.6972 68.9233 91.8793 68.858 92.0228 68.7315C92.1662 68.6051 92.2608 68.4265 92.2883 68.2301C92.3161 68.0317 92.2735 67.8294 92.1688 67.6628C92.0642 67.4962 91.9051 67.3774 91.7226 67.3296L90.9989 67.1401L88.1543 65.3792C87.7329 65.8452 87.1526 66.2394 86.4431 66.575L86.4348 67.8131C86.4333 68.0471 86.5168 68.2725 86.6678 68.442C86.8188 68.6115 87.0255 68.7118 87.2444 68.7217Z" fill="#2F2E41"/>
<path d="M83.136 27.1813C84.4194 27.1813 85.4597 26.0701 85.4597 24.6994C85.4597 23.3287 84.4194 22.2175 83.136 22.2175C81.8526 22.2175 80.8123 23.3287 80.8123 24.6994C80.8123 26.0701 81.8526 27.1813 83.136 27.1813Z" fill="#FFB8B8"/>
<path d="M86.7662 44.8649L85.9985 46.4592C85.9308 46.5999 85.8917 46.7543 85.8838 46.9123C85.8759 47.0703 85.8994 47.2282 85.9528 47.3758C86.0062 47.5234 86.0882 47.6573 86.1934 47.7686C86.2987 47.8799 86.4248 47.9662 86.5635 48.0217C86.7103 48.0805 86.8675 48.1035 87.0237 48.0889C87.1799 48.0742 87.331 48.0224 87.466 47.9373C87.601 47.8521 87.7164 47.7357 87.8037 47.5967C87.8911 47.4576 87.9482 47.2994 87.9708 47.1338L88.2912 44.7873L89.453 38.8928L89.3804 35.9456H87.0567C87.8493 38.1376 87.4561 41.371 86.7662 44.8649Z" fill="#FFB8B8"/>
<path d="M86.6934 36.2557H89.8159L89.3626 32.5982C89.3012 32.1022 89.1244 31.6305 88.8484 31.2262C88.5724 30.8219 88.206 30.4979 87.7826 30.2837L86.6934 36.2557Z" fill="#4630AB"/>
<path d="M85.6056 23.3324C85.6521 23.0008 85.6326 22.6626 85.5484 22.3396C85.4643 22.0167 85.3173 21.7163 85.1172 21.458C84.7208 20.9569 84.0562 20.5468 82.9537 20.7403C80.5482 21.1624 79.8545 23.3013 80.0902 23.8392C80.3259 24.377 81.0482 25.6239 81.0482 25.6239C81.0482 25.6239 80.5181 24.3896 81.0935 24.1384C81.6689 23.8872 83.8957 22.8974 84.6729 23.3433C84.8929 23.4613 85.0797 23.6394 85.2143 23.8596C85.3488 24.0798 85.4264 24.3341 85.439 24.5967L85.6056 23.3324Z" fill="#2F2E41"/>
<path d="M45.8331 13.0033L44.8988 13.5097C43.8227 11.2465 42.397 9.19325 40.6818 7.43631C32.2582 -1.21303 18.8168 -0.930245 10.7186 8.06668C2.62046 17.0636 2.88522 31.4198 11.3088 40.0692C12.9121 41.7187 14.7488 43.0879 16.7513 44.1264L16.2943 45.1332C13.1202 43.4871 10.3583 41.0579 8.23695 38.0464C6.11559 35.0348 4.69561 31.5274 4.09432 27.8138C3.49303 24.1002 3.7277 20.2871 4.77894 16.6896C5.83018 13.092 7.66782 9.8133 10.14 7.12425C12.6122 4.43521 15.648 2.41305 18.9966 1.22485C22.3451 0.0366607 25.9104 -0.283461 29.3977 0.29094C32.885 0.86534 36.1942 2.31777 39.0521 4.52824C41.9099 6.7387 44.2343 9.64374 45.8331 13.0033Z" fill="#E6E6E6"/>
<path d="M14.2251 33.8206C12.8509 35.3473 12.1008 37.3946 12.1399 39.512C12.1789 41.6295 13.0039 43.6436 14.4334 45.1114C15.8628 46.5791 17.7796 47.3803 19.7621 47.3386C21.7446 47.2969 23.6304 46.4157 25.0046 44.889L26.2918 43.459L15.5123 32.3906L14.2251 33.8206Z" fill="#E6E6E6"/>
<path d="M14.7903 31.5786C14.4844 31.9192 14.3175 32.3755 14.3263 32.8473C14.335 33.3192 14.5185 33.7681 14.8368 34.0956L24.7237 44.2475C25.0423 44.5747 25.4697 44.7533 25.9116 44.744C26.3536 44.7347 26.774 44.5383 27.0803 44.1979C27.3867 43.8576 27.5539 43.4012 27.5452 42.9291C27.5365 42.4571 27.3526 42.0081 27.0339 41.6809L17.147 31.529C16.8281 31.2023 16.4009 31.024 15.9591 31.0333C15.5173 31.0426 15.0969 31.2387 14.7903 31.5786Z" fill="#535461"/>
<path d="M44.4431 23.2925L45.7302 21.8625C47.1044 20.3358 47.8545 18.2885 47.8154 16.1711C47.7764 14.0537 46.9514 12.0395 45.522 10.5718C44.8142 9.845 43.9793 9.27426 43.065 8.89212C42.1507 8.50997 41.1748 8.32391 40.1932 8.34457C38.2107 8.38627 36.3249 9.26742 34.9507 10.7942L33.6636 12.2241L44.4431 23.2925Z" fill="#E6E6E6"/>
<path d="M32.8755 11.4853C32.5697 11.8259 32.4028 12.2822 32.4115 12.7541C32.4202 13.2259 32.6038 13.6749 32.922 14.0023L42.8089 24.1542C43.1276 24.481 43.5548 24.6593 43.9965 24.6499C44.4383 24.6404 44.8585 24.444 45.1647 24.1038C45.4709 23.7636 45.6381 23.3074 45.6296 22.8356C45.621 22.3638 45.4374 21.9149 45.1191 21.5876L35.2322 11.4357C34.9133 11.109 34.4861 10.9307 34.0443 10.94C33.6025 10.9493 33.1822 11.1454 32.8755 11.4853Z" fill="#535461"/>
<path d="M37.0469 34.9463V34.1215C37.0469 34.1215 40.4168 32.0969 43.1548 34.1215V34.8713L37.0469 34.9463Z" fill="#535461"/>
<path d="M67.7268 34.9463V34.1215C67.7268 34.1215 71.0967 32.0969 73.8348 34.1215V34.8713L67.7268 34.9463Z" fill="#535461"/>
<path d="M47.1558 34.8712H43.8561C43.8561 34.8712 43.0136 33.8214 40.2054 33.8964C37.3971 33.9714 36.8355 34.8712 36.8355 34.8712C36.8355 34.8712 34.0623 36.8583 33.4305 39.3328C33.4305 39.3328 30.0255 50.2431 29.9553 58.7913C29.8851 67.3396 32.9741 68.5393 34.5889 68.7643C36.2036 68.9892 39.0821 68.6893 41.8903 61.1158L43.0838 56.6917C43.0838 56.6917 43.2945 54.0673 45.8219 55.7169C48.3493 57.3666 50.5959 54.8171 50.5959 54.8171H60.0738C60.0738 54.8171 63.233 56.9167 66.1115 55.267C66.1115 55.267 67.2348 53.6924 68.2879 59.0163C68.2879 59.0163 71.5174 69.964 76.502 68.8393C81.4866 67.7145 80.925 58.5664 80.925 58.5664C80.925 58.5664 80.258 44.5817 77.52 39.6327C77.52 39.6327 74.8873 34.4963 73.1321 34.2713C73.1321 34.2713 69.341 33.5215 67.8666 34.1963L67.0242 34.9462L47.1558 34.8712Z" fill="#E6E6E6"/>
<path d="M39.5035 48.7434C42.8768 48.7434 45.6114 45.8226 45.6114 42.2197C45.6114 38.6168 42.8768 35.696 39.5035 35.696C36.1301 35.696 33.3955 38.6168 33.3955 42.2197C33.3955 45.8226 36.1301 48.7434 39.5035 48.7434Z" fill="#535461"/>
<path d="M71.3777 48.7434C74.751 48.7434 77.4857 45.8226 77.4857 42.2197C77.4857 38.6168 74.751 35.696 71.3777 35.696C68.0044 35.696 65.2698 38.6168 65.2698 42.2197C65.2698 45.8226 68.0044 48.7434 71.3777 48.7434Z" fill="#535461"/>
<path d="M40.5682 40.765L39.7538 41.5343C39.6848 41.5992 39.5961 41.6349 39.5042 41.6349C39.4123 41.6349 39.3236 41.5992 39.2546 41.5343L38.4388 40.765C38.3989 40.7274 38.3669 40.6813 38.3449 40.6296C38.3229 40.5779 38.3113 40.5218 38.311 40.465V38.3482C38.3112 38.2414 38.3511 38.1389 38.4219 38.0635C38.4927 37.988 38.5887 37.9456 38.6887 37.9456H40.321C40.421 37.9454 40.517 37.9876 40.5878 38.063C40.6586 38.1383 40.6985 38.2407 40.6987 38.3475V40.4635C40.6983 40.5208 40.6864 40.5773 40.6639 40.6293C40.6414 40.6813 40.6087 40.7276 40.5682 40.765Z" fill="#E6E6E6"/>
<path d="M40.5682 43.6737L39.7538 42.9051C39.6848 42.8402 39.5961 42.8044 39.5042 42.8044C39.4123 42.8044 39.3236 42.8402 39.2546 42.9051L38.4388 43.6744C38.3989 43.712 38.3669 43.7581 38.3449 43.8098C38.3229 43.8615 38.3113 43.9176 38.311 43.9743V46.0889C38.3109 46.1957 38.3504 46.2982 38.421 46.3739C38.4915 46.4495 38.5874 46.4921 38.6873 46.4923H40.321C40.421 46.4925 40.517 46.4503 40.5878 46.3749C40.6587 46.2995 40.6986 46.1972 40.6988 46.0904V43.9751C40.6983 43.9178 40.6864 43.8613 40.6639 43.8093C40.6414 43.7573 40.6088 43.7111 40.5682 43.6737Z" fill="#E6E6E6"/>
<path d="M38.1423 43.3581L38.8626 42.4867C38.9233 42.4131 38.9568 42.3183 38.9568 42.2202C38.9568 42.122 38.9233 42.0273 38.8626 41.9536L38.1423 41.0823C38.1071 41.0397 38.0639 41.0055 38.0155 40.982C37.9671 40.9585 37.9146 40.9462 37.8615 40.9458H35.8817C35.7816 40.946 35.6857 40.9886 35.615 41.0642C35.5443 41.1399 35.5046 41.2424 35.5046 41.3492V43.0926C35.5045 43.1994 35.544 43.3019 35.6146 43.3776C35.6851 43.4532 35.781 43.4958 35.8809 43.496H37.8622C37.9153 43.4954 37.9678 43.4828 38.016 43.459C38.0643 43.4353 38.1073 43.4009 38.1423 43.3581Z" fill="#E6E6E6"/>
<path d="M40.8654 43.3581L40.1464 42.486C40.0856 42.4124 40.052 42.3176 40.052 42.2194C40.052 42.1212 40.0856 42.0264 40.1464 41.9529L40.8668 41.0815C40.9019 41.0389 40.9451 41.0047 40.9935 40.9812C41.0419 40.9577 41.0944 40.9454 41.1476 40.9451H43.1274C43.2274 40.9449 43.3234 40.9871 43.3942 41.0625C43.465 41.1378 43.5049 41.2402 43.5051 41.347V43.0919C43.5053 43.1987 43.4658 43.3012 43.3952 43.3768C43.3246 43.4525 43.2288 43.4951 43.1288 43.4953H41.1483C41.0947 43.4952 41.0418 43.4829 40.993 43.4593C40.9442 43.4356 40.9007 43.4011 40.8654 43.3581Z" fill="#E6E6E6"/>
<path d="M47.7878 54.0672C50.2305 54.0672 52.2108 51.9522 52.2108 49.3432C52.2108 46.7342 50.2305 44.6191 47.7878 44.6191C45.345 44.6191 43.3647 46.7342 43.3647 49.3432C43.3647 51.9522 45.345 54.0672 47.7878 54.0672Z" fill="#535461"/>
<path d="M63.0929 54.0672C65.5357 54.0672 67.5159 51.9522 67.5159 49.3432C67.5159 46.7342 65.5357 44.6191 63.0929 44.6191C60.6502 44.6191 58.6699 46.7342 58.6699 49.3432C58.6699 51.9522 60.6502 54.0672 63.0929 54.0672Z" fill="#535461"/>
<path d="M47.7875 52.4926C49.416 52.4926 50.7362 51.0825 50.7362 49.3432C50.7362 47.6039 49.416 46.1938 47.7875 46.1938C46.159 46.1938 44.8389 47.6039 44.8389 49.3432C44.8389 51.0825 46.159 52.4926 47.7875 52.4926Z" fill="#E6E6E6"/>
<path d="M47.7875 51.5178C47.3848 51.5178 46.9911 51.3903 46.6563 51.1513C46.3215 50.9124 46.0605 50.5728 45.9064 50.1754C45.7523 49.7781 45.712 49.3408 45.7906 48.919C45.8691 48.4972 46.0631 48.1097 46.3478 47.8056C46.6325 47.5015 46.9953 47.2944 47.3903 47.2105C47.7852 47.1266 48.1946 47.1696 48.5666 47.3342C48.9386 47.4988 49.2566 47.7775 49.4803 48.1351C49.704 48.4927 49.8234 48.9132 49.8234 49.3433C49.8228 49.9198 49.6081 50.4725 49.2264 50.8802C48.8447 51.2878 48.3272 51.5172 47.7875 51.5178ZM47.7875 47.3187C47.4125 47.3187 47.0461 47.4374 46.7343 47.6599C46.4226 47.8823 46.1796 48.1985 46.0362 48.5685C45.8927 48.9384 45.8552 49.3455 45.9283 49.7382C46.0014 50.131 46.182 50.4917 46.4471 50.7749C46.7122 51.058 47.0499 51.2508 47.4176 51.3289C47.7854 51.4071 48.1665 51.367 48.5129 51.2137C48.8592 51.0605 49.1553 50.801 49.3636 50.4681C49.5719 50.1351 49.683 49.7437 49.683 49.3433C49.6825 48.8065 49.4826 48.2919 49.1272 47.9123C48.7718 47.5328 48.29 47.3193 47.7875 47.3187Z" fill="#535461"/>
<path d="M63.0927 52.4926C64.7212 52.4926 66.0414 51.0825 66.0414 49.3432C66.0414 47.6039 64.7212 46.1938 63.0927 46.1938C61.4642 46.1938 60.144 47.6039 60.144 49.3432C60.144 51.0825 61.4642 52.4926 63.0927 52.4926Z" fill="#E6E6E6"/>
<path d="M63.0931 51.5178C62.6904 51.5178 62.2968 51.3903 61.962 51.1513C61.6272 50.9124 61.3662 50.5728 61.2121 50.1754C61.058 49.7781 61.0177 49.3408 61.0963 48.919C61.1748 48.4972 61.3687 48.1097 61.6535 47.8056C61.9382 47.5015 62.301 47.2944 62.6959 47.2105C63.0908 47.1266 63.5002 47.1696 63.8722 47.3342C64.2443 47.4988 64.5622 47.7775 64.786 48.1351C65.0097 48.4927 65.1291 48.9132 65.1291 49.3433C65.1285 49.9198 64.9138 50.4725 64.5321 50.8802C64.1504 51.2878 63.6329 51.5171 63.0931 51.5178ZM63.0931 47.3187C62.7182 47.3187 62.3517 47.4374 62.04 47.6599C61.7283 47.8823 61.4853 48.1985 61.3418 48.5685C61.1984 48.9384 61.1608 49.3455 61.234 49.7382C61.3071 50.131 61.4876 50.4917 61.7527 50.7749C62.0178 51.058 62.3556 51.2508 62.7233 51.3289C63.091 51.4071 63.4721 51.367 63.8185 51.2137C64.1649 51.0605 64.4609 50.801 64.6692 50.4681C64.8775 50.1351 64.9887 49.7437 64.9887 49.3433C64.9881 48.8065 64.7882 48.2919 64.4328 47.9123C64.0775 47.5328 63.5957 47.3193 63.0931 47.3187Z" fill="#535461"/>
<path d="M55.5804 51.2178C56.2783 51.2178 56.8441 50.6135 56.8441 49.868C56.8441 49.1226 56.2783 48.5183 55.5804 48.5183C54.8824 48.5183 54.3167 49.1226 54.3167 49.868C54.3167 50.6135 54.8824 51.2178 55.5804 51.2178Z" fill="#535461"/>
<path d="M53.6492 45.6578C53.8016 45.6578 53.9251 45.5258 53.9251 45.3631C53.9251 45.2003 53.8016 45.0684 53.6492 45.0684C53.4968 45.0684 53.3733 45.2003 53.3733 45.3631C53.3733 45.5258 53.4968 45.6578 53.6492 45.6578Z" fill="#535461"/>
<path d="M54.6829 45.6578C54.8353 45.6578 54.9588 45.5258 54.9588 45.3631C54.9588 45.2003 54.8353 45.0684 54.6829 45.0684C54.5305 45.0684 54.407 45.2003 54.407 45.3631C54.407 45.5258 54.5305 45.6578 54.6829 45.6578Z" fill="#535461"/>
<path d="M54.5455 47.0562C54.6978 47.0562 54.8214 46.9242 54.8214 46.7615C54.8214 46.5987 54.6978 46.4668 54.5455 46.4668C54.3931 46.4668 54.2695 46.5987 54.2695 46.7615C54.2695 46.9242 54.3931 47.0562 54.5455 47.0562Z" fill="#535461"/>
<path d="M55.511 47.0938C55.6661 47.0938 55.7919 46.9595 55.7919 46.7938C55.7919 46.6282 55.6661 46.4939 55.511 46.4939C55.356 46.4939 55.2302 46.6282 55.2302 46.7938C55.2302 46.9595 55.356 47.0938 55.511 47.0938Z" fill="#535461"/>
<path d="M56.4742 47.0562C56.6265 47.0562 56.7501 46.9242 56.7501 46.7615C56.7501 46.5987 56.6265 46.4668 56.4742 46.4668C56.3218 46.4668 56.1982 46.5987 56.1982 46.7615C56.1982 46.9242 56.3218 47.0562 56.4742 47.0562Z" fill="#535461"/>
<path d="M54.1319 46.3941C54.2842 46.3941 54.4078 46.2621 54.4078 46.0994C54.4078 45.9366 54.2842 45.8047 54.1319 45.8047C53.9795 45.8047 53.856 45.9366 53.856 46.0994C53.856 46.2621 53.9795 46.3941 54.1319 46.3941Z" fill="#535461"/>
<path d="M55.0191 46.419C55.1742 46.419 55.2999 46.2847 55.2999 46.119C55.2999 45.9534 55.1742 45.8191 55.0191 45.8191C54.864 45.8191 54.7383 45.9534 54.7383 46.119C54.7383 46.2847 54.864 46.419 55.0191 46.419Z" fill="#535461"/>
<path d="M55.9317 46.419C56.0868 46.419 56.2125 46.2847 56.2125 46.119C56.2125 45.9534 56.0868 45.8191 55.9317 45.8191C55.7766 45.8191 55.6509 45.9534 55.6509 46.119C55.6509 46.2847 55.7766 46.419 55.9317 46.419Z" fill="#535461"/>
<path d="M56.888 46.3941C57.0404 46.3941 57.1639 46.2621 57.1639 46.0994C57.1639 45.9366 57.0404 45.8047 56.888 45.8047C56.7356 45.8047 56.6121 45.9366 56.6121 46.0994C56.6121 46.2621 56.7356 46.3941 56.888 46.3941Z" fill="#535461"/>
<path d="M55.511 45.669C55.6661 45.669 55.7919 45.5347 55.7919 45.369C55.7919 45.2034 55.6661 45.0691 55.511 45.0691C55.356 45.0691 55.2302 45.2034 55.2302 45.369C55.2302 45.5347 55.356 45.669 55.511 45.669Z" fill="#535461"/>
<path d="M56.4927 45.669C56.6478 45.669 56.7736 45.5347 56.7736 45.369C56.7736 45.2034 56.6478 45.0691 56.4927 45.0691C56.3376 45.0691 56.2119 45.2034 56.2119 45.369C56.2119 45.5347 56.3376 45.669 56.4927 45.669Z" fill="#535461"/>
<path d="M57.3011 45.6578C57.4534 45.6578 57.577 45.5258 57.577 45.3631C57.577 45.2003 57.4534 45.0684 57.3011 45.0684C57.1487 45.0684 57.0251 45.2003 57.0251 45.3631C57.0251 45.5258 57.1487 45.6578 57.3011 45.6578Z" fill="#535461"/>
<path d="M45.0848 35.5103C44.9549 35.5104 44.8304 35.5656 44.7386 35.6637C44.6468 35.7617 44.5951 35.8947 44.595 36.0334V37.6081C44.5951 37.7468 44.6468 37.8798 44.7386 37.9779C44.8304 38.076 44.9549 38.1311 45.0848 38.1313H45.4358C45.5657 38.1311 45.6902 38.076 45.782 37.9779C45.8739 37.8798 45.9255 37.7468 45.9257 37.6081V36.0334C45.9255 35.8947 45.8739 35.7617 45.782 35.6637C45.6902 35.5656 45.5657 35.5104 45.4358 35.5103H45.0848Z" fill="#535461"/>
<path d="M65.5848 35.5103C65.4549 35.5104 65.3304 35.5656 65.2386 35.6636C65.1468 35.7617 65.0951 35.8947 65.095 36.0334V37.6081C65.0951 37.7468 65.1468 37.8798 65.2386 37.9779C65.3304 38.076 65.4549 38.1312 65.5848 38.1313H65.9358C66.0657 38.1312 66.1902 38.076 66.2821 37.9779C66.3739 37.8798 66.4255 37.7468 66.4257 37.6081V36.0334C66.4255 35.8947 66.3739 35.7617 66.2821 35.6636C66.1902 35.5656 66.0657 35.5104 65.9358 35.5103H65.5848Z" fill="#535461"/>
<path d="M71.4472 40.0451C72.3777 40.0451 73.1321 39.2393 73.1321 38.2454C73.1321 37.2515 72.3777 36.4458 71.4472 36.4458C70.5166 36.4458 69.7622 37.2515 69.7622 38.2454C69.7622 39.2393 70.5166 40.0451 71.4472 40.0451Z" fill="#E6E6E6"/>
<path d="M67.8671 43.8693C68.7977 43.8693 69.552 43.0636 69.552 42.0697C69.552 41.0757 68.7977 40.27 67.8671 40.27C66.9365 40.27 66.1821 41.0757 66.1821 42.0697C66.1821 43.0636 66.9365 43.8693 67.8671 43.8693Z" fill="#E6E6E6"/>
<path d="M75.1684 43.6444C76.0989 43.6444 76.8533 42.8387 76.8533 41.8448C76.8533 40.8509 76.0989 40.0452 75.1684 40.0452C74.2378 40.0452 73.4834 40.8509 73.4834 41.8448C73.4834 42.8387 74.2378 43.6444 75.1684 43.6444Z" fill="#E6E6E6"/>
<path d="M71.7284 47.6185C72.659 47.6185 73.4133 46.8128 73.4133 45.8189C73.4133 44.825 72.659 44.0193 71.7284 44.0193C70.7978 44.0193 70.0435 44.825 70.0435 45.8189C70.0435 46.8128 70.7978 47.6185 71.7284 47.6185Z" fill="#E6E6E6"/>
<path d="M48.2626 34.4604C47.8861 34.4609 47.5252 34.6209 47.2589 34.9052C46.9927 35.1895 46.843 35.5751 46.8425 35.9772V42.6883C46.843 43.0904 46.9927 43.4759 47.2589 43.7603C47.5252 44.0446 47.8861 44.2045 48.2626 44.205H62.69C63.0664 44.2045 63.4274 44.0446 63.6936 43.7603C63.9598 43.4759 64.1096 43.0904 64.11 42.6883V35.9772C64.1096 35.5751 63.9598 35.1895 63.6936 34.9052C63.4274 34.6209 63.0664 34.4609 62.69 34.4604H48.2626Z" fill="#535461"/>
<path d="M72.592 39.0704H70.3071L71.4102 37.0508L72.592 39.0704ZM70.5516 38.9205H72.3387L71.4143 37.3408L70.5516 38.9205Z" fill="#535461"/>
<path d="M68.815 42.9695H66.9194V41.1699H68.815V42.9695ZM67.0598 42.8196H68.6746V41.3199H67.0598V42.8196Z" fill="#535461"/>
<path d="M75.1688 42.9695C74.9605 42.9695 74.7569 42.9035 74.5837 42.7799C74.4106 42.6564 74.2756 42.4807 74.1959 42.2752C74.1162 42.0696 74.0953 41.8435 74.136 41.6253C74.1766 41.4071 74.2769 41.2067 74.4242 41.0494C74.5714 40.8921 74.7591 40.785 74.9634 40.7416C75.1676 40.6982 75.3794 40.7205 75.5718 40.8056C75.7642 40.8907 75.9287 41.0349 76.0444 41.2198C76.1601 41.4048 76.2219 41.6223 76.2219 41.8447C76.2216 42.1429 76.1105 42.4288 75.9131 42.6397C75.7157 42.8506 75.448 42.9692 75.1688 42.9695ZM75.1688 40.8699C74.9883 40.8699 74.8118 40.9271 74.6618 41.0342C74.5117 41.1413 74.3947 41.2936 74.3256 41.4717C74.2565 41.6498 74.2385 41.8458 74.2737 42.0349C74.3089 42.224 74.3958 42.3977 74.5234 42.534C74.6511 42.6704 74.8137 42.7632 74.9908 42.8008C75.1678 42.8384 75.3513 42.8191 75.5181 42.7453C75.6848 42.6716 75.8274 42.5466 75.9277 42.3863C76.028 42.226 76.0815 42.0375 76.0815 41.8447C76.0812 41.5863 75.985 41.3385 75.8139 41.1558C75.6428 40.973 75.4108 40.8702 75.1688 40.8699Z" fill="#535461"/>
<path d="M70.9713 44.9223L70.8721 45.0283L72.4517 46.7155L72.551 46.6095L70.9713 44.9223Z" fill="#535461"/>
<path d="M72.4871 44.9212L70.8726 46.571L70.9696 46.6794L72.5842 45.0295L72.4871 44.9212Z" fill="#535461"/>
<path d="M15.1636 17.326C11.3303 18.4547 7.13273 19.3044 5.62866 17.9862C6.45215 16.522 6.92712 15.0787 6.96741 13.6618C6.97649 13.0134 7.22234 12.3945 7.65255 11.937C7.93737 11.6432 8.28114 11.4225 8.65777 11.2918C9.0344 11.161 9.43397 11.1237 9.82612 11.1827L10.8209 11.3318C10.8544 11.3368 10.8877 11.3425 10.9209 11.3489C11.3984 11.4455 11.8356 11.6994 12.1711 12.0749C12.5066 12.4505 12.7235 12.9288 12.7915 13.4428C13.0011 14.9793 13.7059 16.3095 15.1636 17.326Z" fill="#2F2E41"/>
<path d="M18.8611 31.903L20.3513 32.2312C20.4652 32.2563 20.5723 32.3081 20.6651 32.3829C20.7578 32.4577 20.8338 32.5537 20.8874 32.6638C20.9411 32.7739 20.9712 32.8953 20.9754 33.0194C20.9797 33.1434 20.958 33.2669 20.912 33.3809C20.8676 33.4911 20.8014 33.5897 20.7181 33.6701C20.6348 33.7506 20.5363 33.8109 20.4292 33.8471C20.3221 33.8832 20.209 33.8944 20.0975 33.8797C19.9861 33.865 19.8789 33.8249 19.7832 33.7621L17.5037 32.2646L13.6318 22.5431L15.6372 21.9236L18.8611 31.903Z" fill="#A0616A"/>
<path d="M8.24541 44.6595L7.11704 45.01L6.26294 43.126L7.13148 42.6426L8.24541 44.6595Z" fill="#A0616A"/>
<path d="M7.67155 52.7314L6.28711 52.34L6.50384 49.7996L7.69529 49.8779L7.67155 52.7314Z" fill="#A0616A"/>
<path d="M7.81668 42.8983L6.35037 43.9289L0.710753 37.1157C0.588424 36.9679 0.49809 36.7931 0.446179 36.6038C0.394267 36.4145 0.382055 36.2153 0.410408 36.0204C0.43876 35.8254 0.506983 35.6396 0.610222 35.476C0.713461 35.3125 0.849179 35.1752 1.00772 35.074L8.03328 30.5903L9.10934 33.8919L5.4511 37.5585L7.81668 42.8983Z" fill="#2F2E41"/>
<path d="M9.05128 46.4647C9.04761 46.4698 9.04393 46.4749 9.04023 46.48C8.94651 47.0661 8.78192 47.6006 8.41435 47.9876C8.30538 48.2501 8.1097 48.4606 7.86469 48.5788C7.61967 48.697 7.34248 48.7146 7.08604 48.6284C6.8442 48.5471 6.63633 48.3785 6.49798 48.1516C6.35963 47.9246 6.29939 47.6534 6.32758 47.3843L6.60158 44.7685C7.25886 44.6071 7.76015 44.2079 8.01388 43.4312L8.65266 43.8959C8.84169 44.0323 9.00272 44.2084 9.12591 44.4135C9.2491 44.6186 9.33188 44.8483 9.36918 45.0887C9.40648 45.3291 9.39753 45.5751 9.34288 45.8117C9.28822 46.0483 9.18901 46.2704 9.05128 46.4647Z" fill="#2F2E41"/>
<path d="M9.74639 16.7658C10.9928 16.7658 12.0033 15.6866 12.0033 14.3553C12.0033 13.024 10.9928 11.9448 9.74639 11.9448C8.49995 11.9448 7.4895 13.024 7.4895 14.3553C7.4895 15.6866 8.49995 16.7658 9.74639 16.7658Z" fill="#A0616A"/>
<path d="M11.701 18.2086L8.14307 21.3558L7.86597 20.0603L8.48699 19.0492C8.65933 18.0572 8.54806 16.9633 8.25192 15.803L10.5732 15.8053C10.6735 16.7429 11.0152 17.561 11.701 18.2086Z" fill="#A0616A"/>
<path d="M12.7027 26.4642L7.89944 28.027L7.52575 26.2023C6.6256 24.9114 6.2343 23.7332 6.82321 22.7719L6.52686 21.3249C7.37698 20.61 8.04549 19.8785 8.41258 19.1196L11.3679 17.8862L13.5404 18.029L14.1819 20.3252L12.7027 26.4642Z" fill="#4630AB"/>
<path d="M16.115 22.1804C15.0912 22.1688 14.0891 22.4968 13.2471 23.119L13.5403 18.0291C13.8379 18.0715 14.1201 18.196 14.359 18.3902C14.5979 18.5845 14.7854 18.8419 14.9029 19.137L16.115 22.1804Z" fill="#4630AB"/>
<path d="M7.80116 50.4859L6.27661 50.0851L6.50101 36.2493L8.54819 33.8549L8.08993 30.8194L7.7934 27.4188L12.794 26.0945C14.4842 29.3724 15.5058 32.3526 14.0146 34.2142L7.80116 50.4859Z" fill="#2F2E41"/>
<path d="M7.45158 55.1574C7.44475 55.1603 7.4379 55.1631 7.43104 55.166C6.98836 55.715 6.50197 56.1626 5.89045 56.32C5.62221 56.521 5.29408 56.6093 4.96871 56.5683C4.64334 56.5272 4.34353 56.3596 4.12652 56.0974C3.92187 55.8502 3.80399 55.5347 3.79307 55.2048C3.78215 54.875 3.87885 54.5514 4.06664 54.2893L5.89187 51.742C6.6731 52.0147 7.43141 51.9344 8.15335 51.2937L8.54689 52.2077C8.66399 52.477 8.72849 52.769 8.73644 53.0658C8.74439 53.3626 8.69563 53.6581 8.59313 53.9341C8.49063 54.2102 8.33655 54.461 8.14028 54.6713C7.94402 54.8816 7.70968 55.047 7.45158 55.1574Z" fill="#2F2E41"/>
<path d="M1.88199 33.5673L0.543838 34.791C0.432793 34.8925 0.347547 35.0224 0.296003 35.1685C0.244459 35.3146 0.228285 35.4722 0.24898 35.6268C0.269674 35.7814 0.326568 35.9278 0.414387 36.0527C0.502205 36.1775 0.618107 36.2766 0.751348 36.3408C0.951929 36.4375 1.1794 36.4493 1.38779 36.3737C1.59617 36.2982 1.76992 36.1409 1.8739 35.9337L2.84158 34.006L7.27929 25.3566L5.61026 25.0215L1.88199 33.5673Z" fill="#A0616A"/>
<path d="M7.54643 25.5995C6.67965 25.3201 5.86773 25.1555 5.23804 25.3727C5.37004 23.6281 5.64208 22.0697 6.52643 21.325L7.78359 21.4827L7.54643 25.5995Z" fill="#4630AB"/>
<path d="M12.266 13.7964L7.43896 13.4791L7.49837 12.448C9.18339 11.2345 10.7924 11.3403 12.3254 12.7652L12.266 13.7964Z" fill="#2F2E41"/>
</g>
<defs>
<clipPath id="clip0_1116_1403">
<rect width="94.4425" height="69" fill="white" transform="translate(0.240234)"/>
</clipPath>
</defs>
</svg>
