<svg width="626" height="638" viewBox="0 0 626 638" fill="none" xmlns="http://www.w3.org/2000/svg">
<g clip-path="url(#clip0_1044_907)">
<path d="M401.064 509.509L407.079 524.523C402.19 523.657 397.642 528.305 397.54 534.275C397.438 540.245 401.799 546.456 406.689 547.305C405.755 551.94 401.722 553.983 398.221 555.856C394.721 557.73 390.948 560.837 391.208 565.776C391.417 569.741 394.363 573.242 397.491 574.65C400.62 576.058 403.902 575.841 407.07 575.605C402.269 581.196 401.801 591.704 406.018 599.243C410.234 606.782 418.654 610.493 424.959 607.591C420.504 613.76 421.472 625.057 427.001 631.423C432.574 637.841 440.651 638.462 447.712 637.786C465.694 636.094 482.828 628.535 496.969 616.056C502.367 611.281 507.41 605.666 510.489 598.341C513.568 591.016 514.476 581.742 511.607 573.406C512.381 583.848 521.77 592.095 530.216 592.557C538.663 593.018 546.037 587.722 552.304 581.683C560.638 573.652 568.354 562.394 567.21 548.504C566.644 541.628 563.946 535.014 561.299 528.608L556.169 516.189C554.098 511.175 551.98 506.077 548.863 501.87C545.745 497.662 541.418 494.405 537.088 494.436C538.078 489.401 539.073 484.178 538.243 478.829C537.414 473.479 534.237 467.94 529.916 466.688C524.417 465.093 519.757 470.742 514.228 470.21C508.907 469.697 504.509 463.752 499.342 461.397C497.214 460.373 494.865 460.061 492.581 460.501C490.297 460.941 488.178 462.113 486.483 463.873C483.207 467.432 481.842 473.447 483.017 479.137C484.047 484.122 486.787 488.519 488.45 493.326C490.114 498.134 490.372 504.316 487.177 506.941C483.323 510.11 477.456 505.798 474.444 500.582C471.433 495.366 469.704 489.051 465.896 484.664C461.401 479.487 454.365 478.274 449.738 481.878C445.11 485.482 443.34 493.553 445.673 500.414C447.581 506.023 451.95 511.698 450.435 516.981C448.833 522.563 441.824 521.857 437.597 517.911C433.369 513.965 430.562 508.022 426.386 503.988C422.144 499.891 416.606 498.096 411.744 499.242C409.277 499.879 406.995 501.197 405.107 503.075C403.219 504.953 401.786 507.33 400.941 509.987" fill="#E6E6E6"/>
<path d="M498.456 467.314L485.975 473.77C484.099 474.801 481.971 475.12 479.916 474.679C478.104 474.202 476.88 472.969 476.558 471.294L473.654 456.194C473.105 453.346 475.225 449.976 478.693 448.182L485.585 444.617C489.053 442.823 492.734 443.194 494.336 445.497L502.83 457.706C503.772 459.06 503.829 460.897 502.988 462.746C501.966 464.779 500.374 466.383 498.456 467.314Z" fill="#3F3D56"/>
<path d="M111.434 188.234C123.168 152.483 141.48 119.855 165.196 92.437C185.318 69.1846 216.634 70.1508 216.634 70.1508L216.813 69.9036C224.35 59.5574 234.464 51.9192 245.885 47.9473C257.307 43.9754 269.528 43.8467 281.016 47.5773C284.002 48.5311 286.298 48.9539 287.39 48.529C307.304 40.7707 306.369 23.2593 323.55 9.15223C353.633 -15.5484 453.417 12.7457 467.487 58.1978C478.891 95.0356 529.794 112.891 548.812 141.069C551.786 145.475 554.704 149.932 557.565 154.44C558.907 156.534 560.234 158.644 561.545 160.77C575.019 182.491 587.107 205.239 597.719 228.844C604.678 244.267 610.727 260.178 615.825 276.477C635.659 341.02 628.876 389.107 574.189 377.227C567.716 375.817 561.398 374.555 555.235 373.442C546.311 371.821 537.699 370.489 529.397 369.445C518.219 368.03 507.584 367.103 497.492 366.664C494.099 366.512 490.768 366.41 487.499 366.358C439.17 365.612 403.321 375.738 376.01 391.456C371.38 394.114 366.993 396.925 362.848 399.891C356.518 404.396 350.473 409.38 344.757 414.809C336.847 422.366 329.553 430.686 322.959 439.672L322.597 440.166C290.654 483.661 280.141 531.812 257.921 540.29C162.937 576.538 102.863 445.14 96.7021 316.603C96.3911 310.126 96.2193 303.668 96.1866 297.228C96.1674 294.349 96.1801 291.478 96.2248 288.615C96.3223 281.145 96.6181 273.723 97.1135 266.391C97.2985 263.588 97.5131 260.799 97.7573 258.025C98.0264 255.034 98.3191 252.061 98.6574 249.107C101.074 227.449 105.301 206.844 111.434 188.234Z" fill="#6C63FF"/>
<path d="M405.839 258.954C398.253 262.885 398.128 280.494 400.507 286.2L404.818 296.528L432.294 282.317L427.984 271.989C425.601 266.286 413.43 255.036 405.839 258.954Z" fill="#3F3D56"/>
<path d="M332.002 407.229C331.519 407.229 331.042 407.099 330.613 406.851C330.185 406.602 329.816 406.242 329.539 405.801C329.262 405.36 329.085 404.851 329.022 404.317C328.959 403.783 329.013 403.241 329.179 402.735C329.313 402.322 329.52 401.943 329.787 401.619C330.054 401.296 330.376 401.035 330.735 400.851L472.632 327.462C472.99 327.277 473.377 327.172 473.771 327.153C474.165 327.135 474.559 327.203 474.929 327.353C475.3 327.504 475.64 327.735 475.93 328.032C476.221 328.329 476.456 328.687 476.622 329.085C476.957 329.889 476.991 330.809 476.718 331.641C476.444 332.474 475.886 333.152 475.164 333.527H475.163L333.266 406.915C332.87 407.122 332.439 407.229 332.002 407.229Z" fill="#3F3D56"/>
<path d="M442.998 288.903L402.437 309.881L466.063 462.324L506.624 441.346L442.998 288.903Z" fill="#E6E6E6"/>
<path d="M290.736 97.0023C283.15 100.934 283.025 118.543 285.404 124.249L289.714 134.576L317.191 120.365L312.88 110.038C310.497 104.334 298.327 93.0843 290.736 97.0023Z" fill="#3F3D56"/>
<path d="M460.7 484.839L448.219 491.294C446.343 492.326 444.215 492.645 442.16 492.204C440.348 491.727 439.124 490.493 438.802 488.819L435.898 473.719C435.35 470.871 437.469 467.5 440.937 465.707L447.83 462.142C451.298 460.348 454.978 460.719 456.58 463.022L465.074 475.231C466.016 476.585 466.073 478.422 465.232 480.271C464.21 482.304 462.618 483.908 460.7 484.839Z" fill="#3F3D56"/>
<path d="M422.326 506.033L409.845 512.488C407.969 513.519 405.841 513.839 403.786 513.397C401.974 512.92 400.75 511.687 400.428 510.013L397.524 494.913C396.975 492.064 399.095 488.694 402.563 486.9L409.456 483.335C412.923 481.542 416.604 481.912 418.206 484.216L426.7 496.425C427.642 497.779 427.699 499.616 426.858 501.465C425.836 503.497 424.244 505.102 422.326 506.033Z" fill="#3F3D56"/>
<path d="M338.717 152.883L298.156 173.861L426.769 482.007L467.329 461.029L338.717 152.883Z" fill="#E6E6E6"/>
<path d="M380.803 311.732L376.251 300.583L378.871 299.238L383.409 310.351L449.112 472.518L446.494 473.872" fill="#3F3D56"/>
<path d="M432.136 302.465L427.584 291.317L430.204 289.972L434.742 301.085L500.445 463.252L497.828 464.606" fill="#3F3D56"/>
<path d="M357.862 177.543L302.904 205.967C299.405 199.908 288.857 168.855 291.225 159.642L289.447 150.856L327.395 131.23L332.474 138.185C340.014 140.76 354.692 169.927 357.862 177.543Z" fill="#E6E6E6"/>
<path d="M328.98 131.605L289.821 151.859C288.375 152.606 286.836 152.331 286.383 151.245C286.318 151.088 286.277 150.92 286.263 150.748L284.237 126.68C284.15 125.65 284.942 124.482 286.152 123.856L312.122 110.425C313.332 109.799 314.644 109.878 315.296 110.617L330.513 127.863C331.291 128.745 330.868 130.255 329.569 131.235C329.382 131.376 329.185 131.5 328.98 131.605Z" fill="#E6E6E6"/>
<path d="M359.695 320.169C359.271 320.17 358.848 320.115 358.436 320.004C357.855 319.87 357.31 319.59 356.841 319.185C356.373 318.78 355.994 318.261 355.733 317.668L331.792 260.306C330.801 257.932 332.132 254.895 334.757 253.537L369.814 235.405C372.44 234.046 375.382 234.874 376.374 237.249L400.315 294.611C400.554 295.215 400.666 295.872 400.642 296.532C400.618 297.191 400.458 297.836 400.176 298.417C399.561 299.731 398.565 300.775 397.349 301.38L362.293 319.511C361.48 319.938 360.593 320.162 359.695 320.169Z" fill="#3F3D56"/>
<path d="M364.489 328.852L323.928 349.83L387.554 502.273L428.115 481.295L364.489 328.852Z" fill="#E6E6E6"/>
<path d="M314.518 134.12L302.624 140.272C300.328 141.459 297.232 139.481 295.722 135.863C294.212 132.245 294.851 128.335 297.146 127.147L309.041 120.995C311.336 119.808 314.433 121.786 315.943 125.405C317.453 129.023 316.814 132.933 314.518 134.12Z" fill="#3F3D56"/>
<path d="M328.122 298.493C320.536 302.424 320.411 320.034 322.79 325.739L327.1 336.067L354.577 321.856L350.267 311.528C347.883 305.825 335.713 294.575 328.122 298.493Z" fill="#3F3D56"/>
<path d="M202.115 263.343C199.436 265.33 196.694 260.601 199.424 258.702C202.103 256.715 204.845 261.445 202.115 263.343Z" fill="#E6E6E6"/>
<path d="M480.979 195.389C478.3 197.376 475.558 192.647 478.288 190.748C480.967 188.761 483.709 193.491 480.979 195.389Z" fill="#E6E6E6"/>
<path d="M290.907 249.444C288.228 251.431 285.486 246.701 288.217 244.803C290.896 242.816 293.637 247.545 290.907 249.444Z" fill="#E6E6E6"/>
<path d="M202.115 434.773C199.436 436.76 196.694 432.03 199.424 430.131C202.103 428.145 204.845 432.874 202.115 434.773Z" fill="#E6E6E6"/>
<path d="M338.772 47.8985C336.093 49.8855 333.351 45.1562 336.081 43.2574C338.76 41.2705 341.502 45.9998 338.772 47.8985Z" fill="#E6E6E6"/>
<path d="M206.97 139.019C204.291 141.006 201.55 136.276 204.28 134.377C206.959 132.39 209.701 137.12 206.97 139.019Z" fill="#E6E6E6"/>
<path d="M396.541 112.896L394.837 112.48L395.21 110.582L394.074 110.305L393.7 112.203L391.995 111.787L391.746 113.052L393.451 113.468L393.077 115.366L394.214 115.643L394.588 113.745L396.292 114.161L396.541 112.896Z" fill="#E6E6E6"/>
<path d="M118.997 271.027L117.293 270.61L117.666 268.713L116.53 268.436L116.156 270.333L114.451 269.918L114.202 271.183L115.907 271.599L115.534 273.497L116.67 273.773L117.044 271.876L118.748 272.291L118.997 271.027Z" fill="#E6E6E6"/>
<path d="M468.539 351.69C467.121 352.421 465.5 352.496 464.032 351.899C462.563 351.301 461.368 350.08 460.708 348.503L453.693 331.695C453.036 330.117 452.969 328.313 453.506 326.68C454.044 325.046 455.142 323.717 456.559 322.984C457.976 322.252 459.596 322.175 461.064 322.771C462.532 323.367 463.727 324.587 464.387 326.164L471.402 342.971C472.059 344.55 472.127 346.355 471.59 347.989C471.054 349.624 469.956 350.955 468.539 351.69Z" fill="#3F3D56"/>
<path d="M349.224 413.466C347.806 414.197 346.185 414.273 344.717 413.675C343.248 413.078 342.053 411.856 341.393 410.279L334.378 393.472C333.721 391.893 333.654 390.089 334.191 388.456C334.729 386.823 335.827 385.494 337.244 384.761C338.661 384.028 340.281 383.951 341.749 384.547C343.217 385.143 344.412 386.364 345.072 387.94L352.087 404.748C352.744 406.327 352.812 408.131 352.275 409.766C351.739 411.4 350.641 412.731 349.224 413.466Z" fill="#3F3D56"/>
<path d="M457.733 314.968L410.697 339.295C407.702 334.109 398.675 307.532 400.702 299.647L401.697 290.826L429.781 275.487L436.005 281.283C444.773 277.983 457.662 302.169 457.733 314.968Z" fill="#E6E6E6"/>
<path d="M435.896 313.281L424.001 319.433C421.706 320.62 418.213 317.693 416.217 312.91C414.22 308.126 414.463 303.268 416.758 302.08L428.653 295.928C430.948 294.741 434.441 297.668 436.438 302.451C438.434 307.235 438.191 312.094 435.896 313.281Z" fill="#3F3D56"/>
<path d="M335.019 344.936L330.468 333.788L333.088 332.443L337.625 343.556L403.328 505.723L400.711 507.077" fill="#3F3D56"/>
<path d="M380.016 354.507L332.979 378.834C326.04 374.846 315.435 348.748 322.984 339.186L323.979 330.365L352.064 315.027L358.288 320.822C364.741 323.026 377.303 347.989 380.016 354.507Z" fill="#E6E6E6"/>
<path d="M357.21 350.501L345.316 356.653C343.02 357.84 339.745 355.434 338.015 351.289C336.286 347.145 336.746 342.807 339.041 341.62L350.936 335.468C353.231 334.281 356.507 336.687 358.236 340.831C359.966 344.975 359.506 349.314 357.21 350.501Z" fill="#3F3D56"/>
<path d="M118.823 237.719C158.284 237.719 190.274 202.109 190.274 158.182C190.274 114.255 158.284 78.645 118.823 78.645C79.3625 78.645 47.3732 114.255 47.3732 158.182C47.3732 202.109 79.3625 237.719 118.823 237.719Z" fill="#FF6584"/>
<path opacity="0.3" d="M411.779 241.023L455.199 99.8575L407.521 239.333C407.285 239.665 407.124 240.053 407.05 240.468C406.976 240.882 406.992 241.31 407.097 241.716C407.201 242.123 407.391 242.495 407.651 242.803C407.911 243.111 408.233 243.346 408.59 243.488C408.948 243.63 409.33 243.675 409.707 243.619C410.083 243.563 410.442 243.409 410.753 243.168C411.065 242.927 411.321 242.606 411.499 242.234C411.678 241.861 411.773 241.446 411.779 241.023H411.779Z" fill="#F0F0F0"/>
<path d="M522.46 156.879C513.96 160.024 504.537 163.113 494.191 166.146C440.676 181.831 368.945 194.065 292.212 200.597C215.479 207.128 142.911 207.175 87.8761 200.731C61.0668 197.591 39.8622 193.076 24.8516 187.309C8.95954 181.205 0.609024 173.848 0.0316785 165.446C-1.09262 149.075 27.9268 134.667 52.4692 125.462L53.1338 127.658C19.4307 140.297 1.30911 153.655 2.10699 165.269C3.12277 180.061 34.4638 192.147 88.0937 198.427C143.008 204.857 215.442 204.808 292.054 198.287C368.665 191.766 440.264 179.555 493.662 163.906C545.809 148.624 575.136 131.374 574.12 116.581C573.276 104.299 551.528 93.7931 512.882 86.9961L513.207 84.7081C541.288 89.6469 575.01 99.1546 576.195 116.405C576.772 124.808 569.523 133.491 554.65 142.215C546.171 147.187 535.398 152.093 522.46 156.879Z" fill="#3F3D56"/>
<path d="M543.455 297.946C547.556 297.946 550.88 294.246 550.88 289.682C550.88 285.117 547.556 281.417 543.455 281.417C539.355 281.417 536.031 285.117 536.031 289.682C536.031 294.246 539.355 297.946 543.455 297.946Z" fill="#FF6584"/>
<path d="M590.626 521.885C594.727 521.885 598.051 518.185 598.051 513.621C598.051 509.056 594.727 505.356 590.626 505.356C586.526 505.356 583.202 509.056 583.202 513.621C583.202 518.185 586.526 521.885 590.626 521.885Z" fill="#F2F2F2"/>
<path d="M337.429 572.205C345.423 572.205 351.904 564.991 351.904 556.092C351.904 547.193 345.423 539.979 337.429 539.979C329.435 539.979 322.954 547.193 322.954 556.092C322.954 564.991 329.435 572.205 337.429 572.205Z" fill="#F2F2F2"/>
<path d="M227.132 358.95C231.232 358.95 234.556 355.25 234.556 350.686C234.556 346.121 231.232 342.421 227.132 342.421C223.032 342.421 219.708 346.121 219.708 350.686C219.708 355.25 223.032 358.95 227.132 358.95Z" fill="#3F3D56"/>
<path d="M476.723 369.706L508.755 378.937L528.401 421.893L495.187 423.343L476.723 369.706Z" fill="#E6E6E6"/>
<path d="M402.788 307.78L420.418 327.416L465.194 435.181L456.95 443.109L402.788 307.78Z" fill="#CCCCCC"/>
<path d="M364.456 325.58L365.839 353.299L408.101 462.314L418.906 460.765L364.456 325.58Z" fill="#CCCCCC"/>
<path d="M363.302 437.559L346.051 468.989L358.768 515.066L383.542 490.396L363.302 437.559Z" fill="#E6E6E6"/>
<path d="M515.694 456.872C506.737 456.872 496.919 456.495 486.242 455.742C431.014 451.838 359.478 438.265 284.81 417.524C210.143 396.783 141.265 371.351 90.8644 345.914C66.3128 333.522 47.4697 321.793 34.8589 311.051C21.5074 299.679 15.6673 289.766 17.5001 281.589C21.0712 265.659 52.6917 262.174 78.5893 262.056L78.5981 264.372C43.0339 264.535 22.0528 270.849 19.5195 282.15C16.2926 296.544 42.6101 319.016 91.7237 343.804C142.013 369.185 210.765 394.568 285.314 415.276C359.864 435.984 431.268 449.534 486.374 453.43C540.19 457.235 572.907 451.161 576.134 436.767C578.813 424.816 561.151 407.211 526.403 387.193L527.36 385.136C552.608 399.681 581.916 420.542 578.153 437.328C576.32 445.505 566.981 451.201 550.395 454.257C540.94 455.999 529.328 456.872 515.694 456.872Z" fill="#3F3D56"/>
</g>
<defs>
<clipPath id="clip0_1044_907">
<rect width="626" height="638" fill="white"/>
</clipPath>
</defs>
</svg>
