<svg width="98" height="75" viewBox="0 0 98 75" fill="none" xmlns="http://www.w3.org/2000/svg">
<g clip-path="url(#clip0_1033_1778)">
<path d="M47.6643 10.5934C46.6838 11.9406 45.9297 13.4397 45.4317 15.0311C44.9872 16.4202 44.6554 17.8431 44.4394 19.2858C44.3338 19.2441 44.2298 19.1991 44.1273 19.1494C43.186 18.6911 42.4273 17.9261 41.9754 16.9793C41.5235 16.0326 41.405 14.96 41.6393 13.937C41.8735 12.9139 42.4468 12.0008 43.2652 11.3468C44.0837 10.6929 45.0991 10.3367 46.1455 10.3365C46.5386 10.3359 46.9302 10.3861 47.3106 10.4858C47.4306 10.5163 47.549 10.5517 47.6643 10.5934Z" fill="#FF6584"/>
<path d="M4.82295 64.2157C5.14098 61.6503 6.72583 59.1225 9.16469 58.2877C8.20287 60.9282 8.20308 63.825 9.16528 66.4654C9.54004 67.4824 10.0624 68.5744 9.7099 69.5993C9.49057 70.237 8.95402 70.725 8.35426 71.0301C7.75446 71.3352 7.08881 71.4806 6.43149 71.6231L6.30213 71.7304C5.25864 69.3666 4.50493 66.7812 4.82295 64.2157Z" fill="white"/>
<path d="M9.18856 58.3362C7.76828 59.9326 6.88554 61.9375 6.66571 64.0659C6.61028 64.5233 6.62706 64.9865 6.71542 65.4387C6.81569 65.8763 7.03095 66.279 7.33882 66.605C7.6198 66.9147 7.94296 67.1988 8.144 67.5716C8.24409 67.764 8.30251 67.9754 8.31543 68.1921C8.32835 68.4087 8.29549 68.6256 8.21898 68.8286C8.04148 69.3393 7.69165 69.7556 7.33542 70.1507C6.93991 70.5895 6.52216 71.039 6.35404 71.6206C6.33367 71.6911 6.22585 71.6553 6.24619 71.5849C6.5387 70.5729 7.51797 69.998 7.98498 69.0865C8.2029 68.6612 8.29437 68.1674 8.09008 67.7184C7.91143 67.3258 7.57843 67.0325 7.29123 66.7214C6.98624 66.4078 6.76242 66.0241 6.63933 65.6038C6.5283 65.1576 6.49377 64.6958 6.5372 64.238C6.61859 63.2059 6.86124 62.193 7.25626 61.2364C7.70107 60.1422 8.32918 59.1324 9.11341 58.2507C9.16197 58.1962 9.2368 58.282 9.18856 58.3362H9.18856Z" fill="#9E9EA7"/>
<path d="M6.69644 63.3764C6.34548 63.2909 6.03624 63.0831 5.82394 62.79C5.61163 62.4969 5.5101 62.1376 5.53746 61.7764C5.54325 61.7033 5.65672 61.7089 5.65093 61.782C5.62483 62.1184 5.71945 62.4531 5.9177 62.7256C6.11595 62.9981 6.40477 63.1906 6.73205 63.2682C6.80315 63.2852 6.76714 63.3933 6.69644 63.3764H6.69644Z" fill="#9E9EA7"/>
<path d="M7.17596 66.4668C7.80983 66.0871 8.27776 65.4816 8.48644 64.7712C8.50706 64.7008 8.61488 64.7366 8.59429 64.8069C8.37575 65.5458 7.88752 66.1749 7.22704 66.5685C7.16406 66.606 7.11332 66.504 7.17596 66.4668V66.4668Z" fill="#9E9EA7"/>
<path d="M7.80619 60.2502C7.93512 60.3116 8.07724 60.34 8.21979 60.3327C8.36235 60.3255 8.50087 60.2828 8.62293 60.2086C8.68541 60.1703 8.73608 60.2723 8.67401 60.3103C8.53878 60.3917 8.38573 60.4387 8.22825 60.447C8.07076 60.4554 7.91363 60.425 7.77058 60.3584C7.75657 60.3532 7.74504 60.3429 7.73833 60.3296C7.73162 60.3162 7.73023 60.3008 7.73445 60.2864C7.73924 60.2721 7.74946 60.2603 7.76289 60.2535C7.77633 60.2467 7.79188 60.2455 7.80618 60.2502H7.80619Z" fill="#9E9EA7"/>
<path d="M16.5983 62.8699C16.56 62.8949 16.5217 62.9199 16.4833 62.9459C15.9696 63.2847 15.4843 63.6648 15.032 64.0825C14.9966 64.1142 14.9611 64.1469 14.9266 64.1796C13.8477 65.1976 12.9665 66.4076 12.3279 67.7483C12.0743 68.282 11.8615 68.8343 11.6914 69.4004C11.4566 70.1822 11.2639 71.0486 10.799 71.6881C10.7513 71.7554 10.6994 71.8196 10.6437 71.8804H6.44234C6.43279 71.8756 6.42319 71.8718 6.41359 71.8669L6.24585 71.8746C6.25259 71.8448 6.26021 71.8141 6.26695 71.7843C6.27079 71.7669 6.27557 71.7496 6.27941 71.7323C6.28226 71.7208 6.28517 71.7092 6.28709 71.6987C6.28803 71.6948 6.28901 71.691 6.28994 71.6881C6.29186 71.6775 6.29476 71.6679 6.29668 71.6583C6.33885 71.4861 6.38231 71.314 6.42703 71.1419C6.42703 71.1409 6.42704 71.1409 6.42797 71.14C6.7563 69.825 7.23895 68.5539 7.86581 67.353C7.885 67.3174 7.90415 67.2809 7.92526 67.2453C8.21553 66.7138 8.54863 66.2069 8.92122 65.7298C9.12607 65.4692 9.34395 65.2192 9.574 64.9807C10.1696 64.3656 10.858 63.8483 11.6138 63.4478C13.1207 62.6497 14.8652 62.3439 16.4756 62.8314C16.5168 62.8439 16.5571 62.8564 16.5983 62.8699Z" fill="white"/>
<path d="M16.5893 62.9234C14.4971 63.3402 12.5891 64.4078 11.1362 65.9745C10.8175 66.3062 10.5528 66.6862 10.3521 67.1006C10.1695 67.5105 10.0997 67.9621 10.1499 68.4083C10.1883 68.8253 10.2758 69.2474 10.2126 69.6665C10.1771 69.8805 10.0968 70.0846 9.97714 70.2654C9.85746 70.4462 9.70104 70.5995 9.51814 70.7153C9.0699 71.0159 8.54074 71.137 8.01916 71.2374C7.44004 71.3488 6.83676 71.4554 6.35343 71.8183C6.29486 71.8622 6.23028 71.7685 6.28876 71.7246C7.12967 71.0932 8.25656 71.2257 9.17648 70.78C9.60574 70.572 9.97512 70.233 10.0815 69.7511C10.1744 69.3297 10.0846 68.8944 10.042 68.4725C9.98665 68.038 10.0382 67.5964 10.1922 67.1864C10.3713 66.7632 10.6209 66.3735 10.9303 66.0343C11.6147 65.2593 12.4164 64.5971 13.3058 64.072C14.3177 63.467 15.4252 63.0401 16.5805 62.8098C16.6521 62.7955 16.6603 62.9093 16.5893 62.9234H16.5893Z" fill="#9E9EA7"/>
<path d="M11.5747 65.4424C11.3458 65.1622 11.2236 64.8094 11.23 64.4472C11.2364 64.0849 11.3709 63.7367 11.6096 63.4648C11.658 63.41 11.7453 63.483 11.6968 63.5379C11.474 63.7907 11.3488 64.1151 11.3435 64.4524C11.3382 64.7897 11.4533 65.1179 11.668 65.3775C11.7146 65.434 11.621 65.4986 11.5747 65.4424V65.4424Z" fill="#9E9EA7"/>
<path d="M10.1024 68.1995C10.8364 68.2792 11.5733 68.0784 12.1663 67.6372C12.225 67.5935 12.2896 67.6872 12.231 67.7309C11.6131 68.1888 10.8457 68.3962 10.0821 68.3116C10.0093 68.3035 10.03 68.1914 10.1024 68.1995V68.1995Z" fill="#9E9EA7"/>
<path d="M14.3373 63.6168C14.4033 63.7438 14.4998 63.8523 14.6179 63.9326C14.7361 64.0129 14.8723 64.0625 15.0143 64.0769C15.0872 64.0841 15.0664 64.1962 14.9941 64.189C14.8372 64.1723 14.6869 64.1174 14.5561 64.0289C14.4253 63.9405 14.3181 63.8213 14.2439 63.6817C14.2358 63.6691 14.2328 63.6539 14.2354 63.6392C14.2381 63.6245 14.2463 63.6113 14.2582 63.6024C14.2706 63.5939 14.2859 63.5906 14.3007 63.5933C14.3155 63.596 14.3286 63.6045 14.3373 63.6168Z" fill="white"/>
<path d="M49.1505 65.7964C47.4047 63.8948 46.5064 61.0479 47.4477 58.6413C48.8345 61.0843 51.038 62.9564 53.6683 63.9264C54.684 64.2968 55.8522 64.6027 56.404 65.535C56.7473 66.115 56.7717 66.8411 56.6161 67.4975C56.4605 68.1538 56.1408 68.7573 55.8244 69.3526L55.8224 69.521C53.35 68.792 50.8963 67.698 49.1505 65.7964Z" fill="white"/>
<path d="M47.5004 58.6541C47.7968 60.7732 48.7512 62.7447 50.228 64.2887C50.5401 64.6267 50.9033 64.9133 51.3043 65.1379C51.702 65.344 52.1474 65.4395 52.5943 65.4145C53.0115 65.3996 53.4365 65.3358 53.85 65.4229C54.061 65.4706 54.2596 65.5626 54.4327 65.6927C54.6058 65.8228 54.7496 65.9881 54.8545 66.1779C55.1283 66.6439 55.2188 67.1807 55.2891 67.7088C55.3672 68.2952 55.4391 68.9055 55.7729 69.4101C55.8133 69.4713 55.7164 69.5306 55.676 69.4696C55.0953 68.5916 55.291 67.4704 54.8995 66.5237C54.7168 66.082 54.4004 65.6929 53.9268 65.5591C53.5127 65.4421 53.0744 65.5074 52.6521 65.5262C52.2165 65.557 51.78 65.4803 51.3807 65.3029C50.9696 65.0995 50.596 64.8274 50.2759 64.4983C49.5434 63.7689 48.9298 62.9285 48.4575 62.0079C47.9128 60.9601 47.5506 59.8267 47.3869 58.6564C47.3768 58.584 47.4904 58.5822 47.5004 58.6541V58.6541Z" fill="#9E9EA7"/>
<path d="M49.7231 63.8196C49.4312 64.033 49.0733 64.1354 48.7131 64.1085C48.353 64.0816 48.0141 63.9271 47.757 63.6727C47.7051 63.621 47.7827 63.5377 47.8346 63.5895C48.0736 63.8269 48.3893 63.9707 48.7247 63.9951C49.0602 64.0195 49.3932 63.9228 49.6638 63.7224C49.7227 63.679 49.7816 63.7764 49.7231 63.8196Z" fill="#9E9EA7"/>
<path d="M52.3843 65.45C52.5051 64.7193 52.3471 63.9698 51.9416 63.3509C51.9014 63.2896 51.9983 63.2302 52.0385 63.2915C52.4592 63.9363 52.6222 64.7166 52.4947 65.4767C52.4825 65.5491 52.3721 65.522 52.3843 65.45Z" fill="#9E9EA7"/>
<path d="M48.0627 60.9492C48.1928 60.8902 48.3062 60.7998 48.3928 60.686C48.4794 60.5721 48.5365 60.4385 48.5589 60.2971C48.5702 60.2245 48.6806 60.2517 48.6693 60.3238C48.6439 60.4799 48.5806 60.6274 48.4852 60.7534C48.3898 60.8793 48.2651 60.98 48.122 61.0464C48.109 61.0538 48.0937 61.056 48.0792 61.0525C48.0647 61.049 48.0521 61.0401 48.0439 61.0275C48.0361 61.0146 48.0337 60.9992 48.0372 60.9845C48.0407 60.9698 48.0499 60.9572 48.0627 60.9492Z" fill="white"/>
<path d="M55.7384 55.9122C55.7326 55.9577 55.7269 56.0032 55.7218 56.0493C55.6476 56.6615 55.623 57.2787 55.6484 57.8949C55.6496 57.9426 55.6516 57.9909 55.6541 58.0384C55.7311 59.5223 56.082 60.9789 56.6889 62.3342C56.931 62.8733 57.2135 63.3931 57.5342 63.8892C57.977 64.5743 58.5115 65.2818 58.6975 66.051C58.7178 66.1311 58.7331 66.2123 58.7434 66.2942L56.0279 69.5104C56.0181 69.5146 56.0089 69.5195 55.9991 69.5237L55.8965 69.6571C55.8782 69.6326 55.8597 69.6069 55.8414 69.5825C55.8307 69.5684 55.8207 69.5535 55.81 69.5394C55.803 69.5298 55.7961 69.5201 55.7893 69.5118C55.787 69.5086 55.7847 69.5053 55.7831 69.5027C55.7763 69.4944 55.7709 69.486 55.7648 69.4783C55.6611 69.3348 55.5583 69.1903 55.4563 69.0448C55.4555 69.0441 55.4555 69.0441 55.4554 69.0428C54.6675 67.9416 54.0125 66.7505 53.5043 65.4946C53.4897 65.4569 53.4742 65.4186 53.4608 65.3794C53.2441 64.8137 53.0739 64.2311 52.9518 63.6375C52.886 63.3122 52.8366 62.9839 52.8039 62.6536C52.721 61.8001 52.7725 60.9389 52.9564 60.1014C53.3232 58.432 54.2182 56.8989 55.6299 55.9812C55.666 55.9578 55.7015 55.935 55.7384 55.9122Z" fill="white"/>
<path d="M55.773 55.954C54.7379 57.8249 54.3167 59.9755 54.5693 62.1003C54.6156 62.5587 54.7336 63.0069 54.919 63.4284C55.1129 63.8332 55.4112 64.1785 55.7831 64.4284C56.1251 64.6685 56.5027 64.8743 56.7806 65.1936C56.9204 65.3591 57.0238 65.5525 57.0839 65.7609C57.1441 65.9694 57.1596 66.1882 57.1295 66.4031C57.0685 66.9405 56.8185 67.4238 56.5578 67.888C56.2682 68.4033 55.9594 68.934 55.923 69.5386C55.9186 69.6118 55.8055 69.6007 55.8099 69.5275C55.8732 68.4757 56.7023 67.6987 56.9579 66.7064C57.0771 66.2434 57.058 65.7415 56.7602 65.3487C56.4998 65.0051 56.1106 64.7926 55.7622 64.5525C55.3959 64.314 55.0933 63.9891 54.881 63.6063C54.6748 63.1956 54.5398 62.7527 54.4817 62.2966C54.3346 61.2718 54.3491 60.2301 54.5245 59.2098C54.7183 58.0442 55.1095 56.9205 55.681 55.8872C55.7164 55.8233 55.8082 55.8904 55.7731 55.954H55.773Z" fill="#9E9EA7"/>
<path d="M54.448 61.4209C54.0869 61.4151 53.7396 61.2806 53.4682 61.0416C53.1968 60.8025 53.019 60.4745 52.9664 60.1161C52.956 60.0435 53.0679 60.0239 53.0783 60.0966C53.1267 60.4304 53.2924 60.736 53.5456 60.958C53.7988 61.1801 54.1227 61.3041 54.459 61.3075C54.5321 61.3084 54.5207 61.4218 54.448 61.4209Z" fill="#9E9EA7"/>
<path d="M55.5941 64.3296C56.1291 63.8193 56.4527 63.1254 56.5004 62.3863C56.5051 62.313 56.6181 62.3242 56.6134 62.3973C56.5624 63.1663 56.2242 63.8878 55.6663 64.4176C55.613 64.4681 55.5412 64.3798 55.5941 64.3296V64.3296Z" fill="#9E9EA7"/>
<path d="M54.8445 58.1262C54.9837 58.1577 55.1286 58.154 55.2661 58.1155C55.4035 58.0769 55.5293 58.0047 55.6321 57.9053C55.6846 57.8542 55.7564 57.9425 55.7042 57.9933C55.5902 58.1026 55.4512 58.1821 55.2994 58.2251C55.1476 58.268 54.9877 58.273 54.8335 58.2396C54.8187 58.2377 54.8052 58.2302 54.7957 58.2187C54.7862 58.2071 54.7815 58.1924 54.7825 58.1774C54.784 58.1624 54.7914 58.1486 54.803 58.139C54.8146 58.1295 54.8295 58.1249 54.8445 58.1262Z" fill="white"/>
<path d="M32.1245 61.815C33.6705 61.815 34.9239 60.5576 34.9239 59.0066C34.9239 57.4556 33.6705 56.1982 32.1245 56.1982C30.5784 56.1982 29.3251 57.4556 29.3251 59.0066C29.3251 60.5576 30.5784 61.815 32.1245 61.815Z" fill="#9E9EA7"/>
<path d="M30.044 34.7481C30.6191 34.7481 31.0853 34.2804 31.0853 33.7034C31.0853 33.1265 30.6191 32.6588 30.044 32.6588C29.4689 32.6588 29.0027 33.1265 29.0027 33.7034C29.0027 34.2804 29.4689 34.7481 30.044 34.7481Z" fill="#4630AB"/>
<path d="M15.7239 46.4075C16.299 46.4075 16.7653 45.9398 16.7653 45.3629C16.7653 44.7859 16.299 44.3182 15.7239 44.3182C15.1488 44.3182 14.6826 44.7859 14.6826 45.3629C14.6826 45.9398 15.1488 46.4075 15.7239 46.4075Z" fill="#F0F0F0"/>
<path d="M77.3466 0H0.430503C0.31642 0.000309343 0.207098 0.0459133 0.12643 0.126842C0.0457611 0.207771 0.000305824 0.317444 1.4392e-08 0.431893V2.97348C-2.94783e-05 3.08818 0.0452704 3.19821 0.125966 3.27947C0.206661 3.36072 0.31617 3.40658 0.430503 3.40697H77.3466C77.4609 3.40658 77.5704 3.36072 77.6511 3.27947C77.7318 3.19821 77.7771 3.08818 77.7771 2.97348V0.431893C77.7768 0.317443 77.7314 0.207768 77.6507 0.12684C77.57 0.045911 77.4607 0.00030891 77.3466 0Z" fill="#4630AB"/>
<path d="M2.50046 2.19271C2.83828 2.19271 3.11213 1.91798 3.11213 1.57908C3.11213 1.24019 2.83828 0.965454 2.50046 0.965454C2.16265 0.965454 1.88879 1.24019 1.88879 1.57908C1.88879 1.91798 2.16265 2.19271 2.50046 2.19271Z" fill="white"/>
<path d="M4.82224 2.19271C5.16006 2.19271 5.43391 1.91798 5.43391 1.57908C5.43391 1.24019 5.16006 0.965454 4.82224 0.965454C4.48442 0.965454 4.21057 1.24019 4.21057 1.57908C4.21057 1.91798 4.48442 2.19271 4.82224 2.19271Z" fill="white"/>
<path d="M7.1439 2.19271C7.48171 2.19271 7.75556 1.91798 7.75556 1.57908C7.75556 1.24019 7.48171 0.965454 7.1439 0.965454C6.80608 0.965454 6.53223 1.24019 6.53223 1.57908C6.53223 1.91798 6.80608 2.19271 7.1439 2.19271Z" fill="white"/>
<path d="M75.072 0.75943H72.3977C72.3453 0.75943 72.295 0.780321 72.258 0.817507C72.2209 0.854692 72.2001 0.905127 72.2001 0.957715C72.2001 1.0103 72.2209 1.06074 72.258 1.09792C72.295 1.13511 72.3453 1.156 72.3977 1.156H75.072C75.1244 1.156 75.1747 1.13511 75.2118 1.09792C75.2488 1.06074 75.2697 1.0103 75.2697 0.957715C75.2697 0.905127 75.2488 0.854692 75.2118 0.817507C75.1747 0.780321 75.1244 0.75943 75.072 0.75943Z" fill="white"/>
<path d="M75.072 1.50439H72.3977C72.3453 1.50439 72.295 1.52529 72.258 1.56247C72.2209 1.59966 72.2001 1.65009 72.2001 1.70268C72.2001 1.75527 72.2209 1.80571 72.258 1.84289C72.295 1.88008 72.3453 1.90096 72.3977 1.90096H75.072C75.1244 1.90096 75.1747 1.88008 75.2118 1.84289C75.2488 1.80571 75.2697 1.75527 75.2697 1.70268C75.2697 1.65009 75.2488 1.59966 75.2118 1.56247C75.1747 1.52529 75.1244 1.50439 75.072 1.50439Z" fill="white"/>
<path d="M75.072 2.24939H72.3977C72.345 2.24939 72.2946 2.27036 72.2573 2.3077C72.2201 2.34504 72.1992 2.39567 72.1992 2.44848C72.1992 2.50128 72.2201 2.55192 72.2573 2.58925C72.2946 2.62659 72.345 2.64756 72.3977 2.64756H75.072C75.1246 2.64756 75.1751 2.62659 75.2123 2.58925C75.2495 2.55192 75.2704 2.50128 75.2704 2.44848C75.2704 2.39567 75.2495 2.34504 75.2123 2.3077C75.1751 2.27036 75.1246 2.24939 75.072 2.24939Z" fill="white"/>
<path d="M2.87663 22.1611C2.6545 22.1618 2.47478 22.4512 2.47522 22.8075C2.47566 23.1628 2.65513 23.4506 2.87663 23.4513H33.042C33.2641 23.4506 33.4438 23.1612 33.4434 22.8049C33.4429 22.4497 33.2635 22.1618 33.042 22.1611H2.87663Z" fill="white"/>
<path d="M2.87663 25.8992C2.6545 25.8999 2.47478 26.1893 2.47522 26.5456C2.47566 26.9009 2.65513 27.1887 2.87663 27.1894H33.042C33.2641 27.1887 33.4438 26.8993 33.4434 26.543C33.4429 26.1878 33.2635 25.8999 33.042 25.8992H2.87663Z" fill="white"/>
<path d="M2.87663 29.5921C2.6545 29.5928 2.47478 29.8822 2.47522 30.2385C2.47566 30.5937 2.65513 30.8816 2.87663 30.8823H22.2391C22.4612 30.8816 22.641 30.5922 22.6405 30.2359C22.6401 29.8806 22.4606 29.5928 22.2391 29.5921H2.87663Z" fill="white"/>
<path d="M0.706421 70.8641C0.716577 70.8408 0.728171 70.8187 0.7387 70.7957C0.757313 70.6033 0.706421 70.8641 0.706421 70.8641Z" fill="#F2F2F2"/>
<path d="M6.18649 67.9564C5.80448 67.9561 5.42295 67.9838 5.04494 68.0392L4.9904 68.0472C3.78075 68.2416 2.68347 68.8724 1.90467 69.8211C1.12587 70.7698 0.719129 71.9711 0.760854 73.1994L0.775311 73.6614C0.784845 73.9535 0.794996 74.2676 0.803365 74.616C0.804364 74.697 0.837224 74.7744 0.894795 74.8313C0.952366 74.8881 1.02999 74.9199 1.11079 74.9197H62.2594C66.5707 74.8742 70.8664 74.817 75.0264 74.7496C75.8098 74.7521 76.5917 74.6817 77.3621 74.5393C78.5182 74.3016 79.3206 73.8304 79.8154 73.0989H79.8156C80.4309 72.1917 80.4503 71.0493 80.4131 69.7586C80.3373 67.1524 80.2621 64.4145 80.1871 61.6849C80.1208 59.2792 80.0549 56.88 79.9889 54.583C79.9481 53.2198 79.8575 52.0166 79.1587 51.097C78.4013 50.1025 77.02 49.5984 75.0531 49.5984C75.0293 49.5984 75.0057 49.5984 74.9817 49.5986C68.8175 49.6367 62.7099 53.3188 59.7836 58.761C59.4467 59.3877 59.1327 60.0586 58.829 60.7076C58.3968 61.6813 57.9072 62.6283 57.3628 63.5436C57.0791 64.0085 56.755 64.4474 56.3943 64.8552C56.3705 64.8837 56.3434 64.9143 56.3146 64.9433C56.2488 65.0178 56.18 65.0896 56.113 65.1536C55.7435 65.5292 55.3285 65.857 54.8778 66.1291L54.8345 66.1544C54.8019 66.1746 54.7666 66.1948 54.7313 66.2133C54.4862 66.3503 54.2312 66.4687 53.9685 66.5675C52.853 66.9946 51.5846 67.097 50.1987 66.8716C48.8837 66.6442 47.6165 66.1956 46.4505 65.5446C45.1671 64.84 43.9658 63.9615 42.8041 63.112C42.2938 62.7387 41.766 62.3528 41.2389 61.9872C41.1399 61.9183 41.0424 61.8511 40.9435 61.7838C40.2997 61.3479 39.7161 60.9879 39.1592 60.6833C37.8471 59.9469 36.4013 59.4817 34.9071 59.3151C33.3741 59.1693 32.0231 59.4443 30.8926 60.1306C30.5693 60.3279 30.2652 60.5555 29.9846 60.8103C28.6457 62.0182 27.8202 63.8009 27.022 65.525C26.0291 67.6695 25.0024 69.8871 22.975 71.0367C20.6355 72.3644 17.2207 71.8128 14.8048 70.8536C14.0452 70.5519 13.2866 70.205 12.5529 69.8693C12.2565 69.7336 11.9602 69.5982 11.6632 69.4652C11.0801 69.2037 10.6029 69.0033 10.1614 68.8341L10.0217 68.7802C9.94405 68.7509 9.8663 68.7215 9.78713 68.6936C9.29794 68.5131 8.79931 68.3595 8.29346 68.2334L8.17968 68.2046C7.95157 68.1524 7.73832 68.109 7.52904 68.0724L7.4455 68.058C7.02927 67.9899 6.60821 67.9559 6.18649 67.9564V67.9564Z" fill="white"/>
<path d="M40.4519 68.0322C39.4343 64.1925 41.6942 60.4499 44.3349 57.8591C45.7423 56.4783 47.3096 55.278 48.838 54.0382C50.3046 52.8615 51.7012 51.5997 53.0207 50.2592C55.5687 47.6429 57.7913 44.653 59.2632 41.292C60.6629 38.096 61.3245 34.6144 60.9967 31.1272C60.6859 27.8198 59.5042 24.5664 57.3304 22.0289C57.0596 21.7127 56.7746 21.4096 56.4756 21.1197C56.3153 20.9635 56.0695 21.2095 56.2302 21.3659C58.6576 23.7305 60.0705 26.9349 60.5486 30.2687C61.0417 33.7066 60.5336 37.2115 59.2522 40.4257C57.8871 43.8497 55.7163 46.905 53.1989 49.5713C51.931 50.9054 50.5824 52.1598 49.1605 53.3273C47.642 54.5822 46.0642 55.7678 44.6183 57.1088C41.9535 59.5803 39.5584 62.98 39.8874 66.8068C39.9258 67.252 40.0027 67.693 40.1172 68.1248C40.1307 68.1679 40.1603 68.2041 40.1998 68.2257C40.2394 68.2473 40.2857 68.2527 40.3291 68.2407C40.3725 68.2287 40.4096 68.2003 40.4325 68.1614C40.4554 68.1225 40.4624 68.0762 40.4519 68.0322V68.0322Z" fill="white"/>
<path d="M51.1097 46.1724C51.1312 46.2121 51.1364 46.2586 51.1243 46.3021C51.1123 46.3456 51.0839 46.3827 51.0451 46.4056C51.0063 46.4285 50.9601 46.4354 50.9163 46.4249C50.8726 46.4143 50.8346 46.3871 50.8104 46.349C50.4119 45.6634 50.0358 44.9661 49.6821 44.257C49.4437 43.7753 49.2148 43.2872 49.0004 42.7943C46.593 37.3195 45.562 31.3355 45.998 25.3677C46.1165 23.7351 46.3513 22.1131 46.7006 20.5141C46.7726 20.1898 46.8494 19.8655 46.9342 19.5444C47.0623 19.5235 47.1871 19.4962 47.3103 19.4641C46.5581 22.1999 46.2556 25.0851 46.246 27.9077C46.2349 31.1005 46.6445 34.2808 47.464 37.366C48.2798 40.4522 49.5061 43.4143 51.1097 46.1724V46.1724Z" fill="white"/>
<path d="M73.9053 36.7317C72.6041 39.5398 70.418 41.8454 67.9661 43.6822C65.1862 45.7646 62.0382 47.2673 58.9189 48.7589C58.7189 48.8552 58.5429 48.555 58.7445 48.4587C59.4887 48.1022 60.2329 47.7458 60.9723 47.3829C63.9299 45.9267 66.8618 44.3244 69.3377 42.1184C71.6279 40.0777 73.494 37.5361 74.3454 34.5546C75.2336 31.4511 75.0656 28.0955 74.1101 25.0289C73.5173 23.1666 72.6666 21.3972 71.5831 19.7723C71.2246 19.228 70.8453 18.6987 70.4452 18.1844C70.1539 17.8103 69.853 17.4437 69.5425 17.0846C68.5278 15.9171 67.4245 14.8301 66.2425 13.8334C65.0129 12.7692 63.6521 11.8681 62.1934 11.1521C60.6949 10.4209 59.0565 10.0232 57.3905 9.98651C55.8162 9.96471 54.266 10.3756 52.9078 11.1746C51.9791 11.7295 51.1449 12.4298 50.4367 13.249C50.3903 13.1318 50.3391 13.0162 50.2815 12.9038C51.5042 11.5471 53.0294 10.481 54.8043 9.97526C58.0835 9.04083 61.5452 10.1374 64.3124 11.9517C65.6625 12.8555 66.9235 13.8867 68.0781 15.0311C68.5087 15.4502 68.928 15.8821 69.3313 16.3268C69.8178 16.8599 70.2825 17.4116 70.7252 17.9821C70.7252 17.9821 70.7284 17.9837 70.7284 17.9853C70.8773 18.1764 71.0235 18.3701 71.167 18.5666C73.0378 21.1194 74.435 24.0495 74.9919 27.1819C75.5617 30.385 75.28 33.7631 73.9053 36.7317Z" fill="white"/>
<path d="M71.7062 33.3665C70.4067 36.1746 68.2205 38.4802 65.7671 40.3169C63.1088 42.3062 60.1144 43.7689 57.1312 45.1962C56.9952 45.262 56.8576 45.3262 56.7215 45.3921C56.6996 45.4033 56.6756 45.4097 56.651 45.4108C56.6264 45.4119 56.6019 45.4077 56.5791 45.3985C56.5474 45.3893 56.5192 45.3709 56.498 45.3456C56.4768 45.3204 56.4635 45.2893 56.4599 45.2564C56.4563 45.2236 56.4625 45.1904 56.4778 45.1611C56.493 45.1318 56.5166 45.1077 56.5455 45.0918C56.6607 45.0356 56.7776 44.981 56.8928 44.9265C57.0912 44.8301 57.2881 44.7354 57.4865 44.6407C57.9171 44.4352 58.3465 44.227 58.7749 44.0161C61.7309 42.5615 64.6644 40.9575 67.1387 38.7515C69.4305 36.7109 71.2965 34.1693 72.148 31.1878C73.0346 28.0842 72.8666 24.7303 71.9111 21.6637C71.5328 20.4602 71.042 19.2953 70.4451 18.1844C70.1042 17.5486 69.7313 16.9273 69.3312 16.3268C68.7254 15.4151 68.0615 14.5436 67.3435 13.7178C66.3297 12.5504 65.2269 11.4639 64.0451 10.4682C62.8151 9.40379 61.4537 8.50264 59.9944 7.78691C58.4966 7.05514 56.8587 6.65696 55.1932 6.61968C53.6183 6.59787 52.0675 7.00874 50.7088 7.80778C49.5196 8.5247 48.4844 9.47159 47.6632 10.5934C46.6827 11.9406 45.9286 13.4397 45.4306 15.0311C44.9861 16.4202 44.6543 17.8431 44.4383 19.2858C44.178 21.0253 44.047 22.7818 44.0462 24.5408C44.0359 27.7341 44.4454 30.9148 45.2641 34.0007C46.081 37.0867 47.3072 40.0486 48.9099 42.8071C48.9143 42.8143 48.918 42.8218 48.9211 42.8296C48.9359 42.8701 48.9352 42.9146 48.9191 42.9546C48.9031 42.9946 48.8729 43.0272 48.8343 43.0461C48.7957 43.0651 48.7515 43.069 48.7102 43.0572C48.6689 43.0454 48.6334 43.0186 48.6106 42.9821C48.2121 42.2982 47.8366 41.6008 47.4839 40.8901C44.5943 35.0374 43.3215 28.5146 43.7982 22.0008C43.8686 21.0471 43.9779 20.0967 44.1263 19.1494C44.2303 18.4783 44.3557 17.8109 44.5024 17.1473C44.8418 15.5173 45.3821 13.9359 46.1108 12.4398C46.454 11.7553 46.8551 11.1016 47.3095 10.4858C48.6362 8.68601 50.4351 7.22818 52.6069 6.61004C55.8861 5.67401 59.3462 6.7706 62.1149 8.58486C63.4645 9.48951 64.7254 10.5206 65.8807 11.6643C67.0057 12.7549 68.0383 13.9374 68.9679 15.1997C69.618 16.0847 70.2052 17.0145 70.7252 17.9821C70.7252 17.9821 70.7284 17.9837 70.7284 17.9853C71.0405 18.5682 71.3269 19.1638 71.583 19.7723C72.136 21.0702 72.5419 22.4263 72.7929 23.8151C73.3643 27.0198 73.0826 30.3962 71.7062 33.3665Z" fill="white"/>
<path d="M61.0028 34.5776C62.5337 34.568 64.0139 34.0259 65.1909 33.0439C66.3892 32.0329 67.1779 30.6174 67.4084 29.0638C67.5438 28.1855 67.5002 27.2888 67.2802 26.4279C67.2668 26.3848 67.2371 26.3486 67.1976 26.327C67.1581 26.3054 67.1117 26.3 67.0683 26.3121C67.0249 26.3241 66.9879 26.3525 66.965 26.3914C66.942 26.4303 66.9351 26.4765 66.9455 26.5205C67.3165 27.9822 67.1491 29.5292 66.4741 30.8771C65.9556 31.8849 65.1711 32.7305 64.2062 33.3216C63.2414 33.9128 62.1333 34.2268 61.0028 34.2294C60.9578 34.2309 60.9151 34.25 60.8838 34.2824C60.8526 34.3149 60.8351 34.3583 60.8351 34.4035C60.8351 34.4487 60.8526 34.4921 60.8838 34.5245C60.9151 34.557 60.9578 34.576 61.0028 34.5776V34.5776Z" fill="white"/>
<path d="M47.9682 54.3696L46.8509 52.3967C46.8269 52.3585 46.789 52.3311 46.7452 52.3204C46.7015 52.3097 46.6553 52.3165 46.6164 52.3393C46.5776 52.3621 46.549 52.3991 46.5369 52.4426C46.5247 52.4861 46.5298 52.5327 46.5512 52.5724L47.6685 54.5453C47.6925 54.5835 47.7304 54.6109 47.7742 54.6216C47.8179 54.6323 47.8641 54.6255 47.903 54.6027C47.9419 54.5799 47.9704 54.5429 47.9826 54.4994C47.9947 54.4559 47.9896 54.4093 47.9682 54.3696Z" fill="#E6E6E6"/>
<path d="M41.445 14.1217C41.1106 13.8849 40.7449 13.6381 40.3358 13.6479C39.3456 13.6718 38.8118 15.128 37.8227 15.0768C37.1919 15.0441 36.7731 14.4013 36.1858 14.1682C35.4211 13.8647 34.4481 14.4582 34.3646 15.2789L34.4628 15.1887C37.4352 15.9156 40.5197 16.0586 43.5462 15.6097C42.8458 15.1137 42.1454 14.6177 41.445 14.1217Z" fill="white"/>
<path d="M37.3534 73.356C37.9055 73.356 38.3531 72.907 38.3531 72.3531C38.3531 71.7992 37.9055 71.3501 37.3534 71.3501C36.8012 71.3501 36.3536 71.7992 36.3536 72.3531C36.3536 72.907 36.8012 73.356 37.3534 73.356Z" fill="white"/>
<path d="M40.2524 73.356C40.8046 73.356 41.2522 72.907 41.2522 72.3531C41.2522 71.7992 40.8046 71.3501 40.2524 71.3501C39.7003 71.3501 39.2527 71.7992 39.2527 72.3531C39.2527 72.907 39.7003 73.356 40.2524 73.356Z" fill="white"/>
<path d="M43.1516 73.356C43.7037 73.356 44.1513 72.907 44.1513 72.3531C44.1513 71.7992 43.7037 71.3501 43.1516 71.3501C42.5995 71.3501 42.1519 71.7992 42.1519 72.3531C42.1519 72.907 42.5995 73.356 43.1516 73.356Z" fill="white"/>
<path d="M40.2612 73.1554C40.7029 73.1554 41.061 72.7962 41.061 72.3531C41.061 71.9099 40.7029 71.5507 40.2612 71.5507C39.8195 71.5507 39.4614 71.9099 39.4614 72.3531C39.4614 72.7962 39.8195 73.1554 40.2612 73.1554Z" fill="#3F3D56"/>
<path d="M87.2101 72.7052H86.1143L85.5929 68.4648H87.2101V72.7052Z" fill="#FFB6B6"/>
<path d="M87.7886 74.6099H87.0028L86.8625 73.8655L86.5033 74.6099H84.419C84.3191 74.6099 84.2218 74.5778 84.1413 74.5184C84.0608 74.459 84.0014 74.3754 83.9717 74.2797C83.9419 74.184 83.9435 74.0813 83.9761 73.9865C84.0086 73.8918 84.0705 73.81 84.1528 73.753L85.8172 72.5998V71.8474L87.5679 71.9522L87.7886 74.6099Z" fill="#2F2E41"/>
<path d="M80.9121 71.7651L79.8803 72.1357L77.9646 68.3199L79.4874 67.7731L80.9121 71.7651Z" fill="#FFB6B6"/>
<path d="M82.2377 72.8425L81.5589 73.2398L81.0639 72.6678L81.1274 73.4923L79.3271 74.5459C79.2408 74.5964 79.1406 74.6179 79.0413 74.6073C78.942 74.5967 78.8486 74.5545 78.7749 74.4869C78.7011 74.4192 78.6509 74.3297 78.6314 74.2314C78.612 74.1331 78.6243 74.0312 78.6667 73.9404L79.5252 72.1029L79.1473 71.4529L80.7121 70.6585L82.2377 72.8425Z" fill="#2F2E41"/>
<path d="M87.4184 70.1143H87.4053L87.1723 62.494C87.3231 62.2023 87.3996 61.8777 87.395 61.5492C87.3905 61.2207 87.305 60.8984 87.1463 60.611L87.1129 60.5504L87.1994 60.1483C87.3105 59.6317 87.2595 59.0933 87.0535 58.6069L86.8362 51.4985C87.6125 46.4511 83.9735 42.4989 83.9735 42.4989H78.151L77.1806 47.2606L74.0737 59.1752C73.936 59.3852 73.8503 59.6251 73.8238 59.8751C73.7973 60.125 73.8307 60.3777 73.9213 60.6121L78.3336 69.369L78.2995 69.3863C78.235 69.4224 78.1868 69.482 78.1649 69.5529C78.1431 69.6237 78.1492 69.7002 78.1821 69.7666C78.2398 69.9343 78.3859 70.0358 78.5084 69.9933L80.2284 69.1206C80.2929 69.0845 80.3411 69.0249 80.363 68.954C80.3848 68.8832 80.3787 68.8067 80.3458 68.7403C80.2881 68.5726 80.142 68.4711 80.0195 68.5136L79.8205 68.6145L78.4892 62.0318L78.4421 60.6887L78.5391 59.1649L81.4019 52.6414L83.1001 61.0696L85.6029 70.1991C85.555 70.2426 85.5214 70.2996 85.5066 70.3626C85.4917 70.4256 85.4962 70.4916 85.5195 70.552C85.5428 70.6124 85.5838 70.6643 85.6371 70.7008C85.6904 70.7373 85.7535 70.7567 85.818 70.7565H87.4184C87.5033 70.7565 87.5848 70.7227 87.6448 70.6625C87.7048 70.6022 87.7385 70.5206 87.7385 70.4354C87.7385 70.3502 87.7048 70.2686 87.6448 70.2083C87.5848 70.1481 87.5033 70.1143 87.4184 70.1143Z" fill="#2F2E41"/>
<path d="M84.6232 39.1272L84.4679 40.8676C84.4679 40.8676 84.4007 42.3126 84.1879 42.6321C83.9766 42.95 78.2119 42.9902 78.2119 42.9902C78.2119 42.9902 77.831 40.9303 77.5029 39.1272H84.6232Z" fill="#FFB6B6"/>
<path d="M81.7365 28.2832C83.3724 28.2832 84.6986 26.9528 84.6986 25.3117C84.6986 23.6706 83.3724 22.3402 81.7365 22.3402C80.1007 22.3402 78.7745 23.6706 78.7745 25.3117C78.7745 26.9528 80.1007 28.2832 81.7365 28.2832Z" fill="#FFB6B6"/>
<path d="M83.2573 28.8517L80.88 29.1323C80.7798 29.1441 80.6857 29.187 80.6109 29.255C80.5361 29.3231 80.4843 29.4128 80.4628 29.5117L80.0847 31.2473L77.7279 34.0315C77.7279 34.0315 76.8817 35.6234 77.199 37.4275C77.5164 39.2317 77.6558 40.5722 77.6558 40.5722C77.6558 40.5722 83.9778 42.9502 84.1894 42.6318C84.4009 42.3134 84.4696 40.8673 84.4696 40.8673L85.3159 31.4221C85.3159 31.4221 84.3638 29.8303 83.8349 29.8303C83.4935 29.8187 83.5373 29.048 83.2573 28.8517Z" fill="#4630AB"/>
<path opacity="0.2" d="M82.2078 34.9544L81.1501 42.8076L80.0405 42.8656L82.2078 34.9544Z" fill="black"/>
<path d="M77.5912 41.1529C77.9246 41.1529 78.1948 40.8276 78.1948 40.4263C78.1948 40.0249 77.9246 39.6996 77.5912 39.6996C77.2578 39.6996 76.9875 40.0249 76.9875 40.4263C76.9875 40.8276 77.2578 41.1529 77.5912 41.1529Z" fill="#4630AB"/>
<path d="M81.7272 50.1306C81.853 50.005 81.9498 49.8533 82.0109 49.6861C82.0719 49.5189 82.0957 49.3403 82.0805 49.1629C82.0653 48.9855 82.0115 48.8136 81.9229 48.6594C81.8343 48.5051 81.7131 48.3722 81.5678 48.27L83.5494 38.6486L81.4114 39.3253L79.8171 48.6331C79.6621 48.8894 79.6063 49.1939 79.6601 49.4887C79.7139 49.7836 79.8737 50.0484 80.1092 50.233C80.3446 50.4175 80.6393 50.5091 80.9376 50.4902C81.2358 50.4713 81.5167 50.3434 81.7272 50.1306Z" fill="#FFB6B6"/>
<path d="M83.3025 30.0889C83.3025 30.0889 84.7272 29.4702 85.5921 31.0278C86.457 32.5853 85.2088 37.9988 85.0336 38.8773C84.8585 39.7559 82.4563 43.9439 82.4563 43.9439L80.0557 43.4622L83.3025 30.0889Z" fill="#4630AB"/>
<path d="M80.3896 22.4711C81.4166 21.7625 82.3211 21.6545 83.064 21.8555C83.1603 21.706 83.2954 21.5857 83.4547 21.5075C84.0342 20.0428 85.7975 19.1631 87.3108 19.5907C88.8339 20.0211 89.8848 21.7136 89.5982 23.2748C89.4206 24.2425 88.8136 25.0805 88.5694 26.0335C88.0967 27.8783 89.2498 29.9915 91.0536 30.5862C89.3457 30.9302 87.4658 29.8837 86.8531 28.2478C86.5555 27.4532 86.5375 26.5857 86.4997 25.7377C86.4619 24.8898 86.3938 24.0163 86.0107 23.2595C85.7539 22.7404 85.3275 22.3253 84.8025 22.0835C84.8495 22.2294 84.8613 22.3844 84.8368 22.5357C84.8123 22.687 84.7524 22.8303 84.6618 22.9538C85.0623 23.4572 85.2803 24.0015 85.2803 24.3275C86.1124 25.8531 84.9226 27.1635 83.4018 27.9981C82.7953 28.3328 82.0949 28.4553 81.4113 28.3463L81.3477 28.0738L81.2615 28.3192L80.9737 29.142C80.6418 29.3031 80.3127 29.4797 79.9865 29.6718C80.1104 29.088 80.2107 28.5052 80.2796 27.9354C80.3752 27.1599 80.0422 26.0054 79.802 25.3032C79.6531 24.8705 79.5767 24.4161 79.5759 23.9583V23.9383L79.342 24.6918L78.4906 24.3275C78.649 23.416 78.4906 22.3813 80.3896 22.4711Z" fill="#2F2E41"/>
<path d="M98.0001 74.8089C98 74.8596 97.9798 74.9081 97.9442 74.9439C97.9085 74.9797 97.8601 74.9999 97.8096 75H61.7538C61.7033 75 61.6549 74.9799 61.6191 74.944C61.5834 74.9082 61.5634 74.8596 61.5634 74.8089C61.5634 74.7583 61.5834 74.7097 61.6191 74.6739C61.6549 74.638 61.7033 74.6179 61.7538 74.6179H97.8096C97.8346 74.6178 97.8594 74.6227 97.8826 74.6323C97.9057 74.6418 97.9268 74.6559 97.9445 74.6737C97.9622 74.6914 97.9762 74.7125 97.9857 74.7357C97.9953 74.759 98.0001 74.7838 98.0001 74.8089Z" fill="#CCCCCC"/>
</g>
<defs>
<clipPath id="clip0_1033_1778">
<rect width="98" height="75" fill="white"/>
</clipPath>
</defs>
</svg>
