<svg width="110" height="67" viewBox="0 0 110 67" fill="none" xmlns="http://www.w3.org/2000/svg">
<g clip-path="url(#clip0_1116_1162)">
<path d="M24.2818 59.473C27.4012 59.473 29.93 56.7579 29.93 53.4087C29.93 50.0595 27.4012 47.3445 24.2818 47.3445C21.1623 47.3445 18.6335 50.0595 18.6335 53.4087C18.6335 56.7579 21.1623 59.473 24.2818 59.473Z" fill="#F2F2F2"/>
<path d="M25.2002 58.5855C28.3197 58.5855 30.8485 55.8704 30.8485 52.5213C30.8485 49.1721 28.3197 46.457 25.2002 46.457C22.0808 46.457 19.552 49.1721 19.552 52.5213C19.552 55.8704 22.0808 58.5855 25.2002 58.5855Z" fill="#4630AB"/>
<path d="M99.633 45.8113H29.7493V46.016H99.633V45.8113Z" fill="#3F3D56"/>
<path d="M65.9423 1.90925H41.1379V1.36035H29.8906V1.90925H4.98398C4.76365 1.90925 4.54547 1.95584 4.34191 2.04637C4.13834 2.1369 3.95338 2.26959 3.79758 2.43687C3.64178 2.60414 3.51819 2.80273 3.43387 3.02129C3.34955 3.23984 3.30615 3.47409 3.30615 3.71066V40.1772C3.30615 40.6549 3.48292 41.1131 3.79758 41.451C4.11223 41.7888 4.53899 41.9786 4.98398 41.9786H65.9423C66.3873 41.9786 66.8141 41.7888 67.1287 41.451C67.4434 41.1131 67.6202 40.6549 67.6202 40.1772V3.71066C67.6202 3.47409 67.5768 3.23984 67.4924 3.02129C67.4081 2.80273 67.2845 2.60414 67.1287 2.43687C66.9729 2.26959 66.788 2.1369 66.5844 2.04637C66.3808 1.95584 66.1627 1.90925 65.9423 1.90925Z" fill="#3F3D56"/>
<path d="M65.3712 5.09277H5.55615V41.3198H65.3712V5.09277Z" fill="#4630AB"/>
<path d="M35.4126 4.10494C35.7514 4.10494 36.0261 3.81005 36.0261 3.44627C36.0261 3.0825 35.7514 2.7876 35.4126 2.7876C35.0737 2.7876 34.7991 3.0825 34.7991 3.44627C34.7991 3.81005 35.0737 4.10494 35.4126 4.10494Z" fill="#4630AB"/>
<path opacity="0.1" d="M48.2644 41.3198H5.55542V5.09277L48.2644 41.3198Z" fill="black"/>
<path d="M14.9151 38.6091C18.0906 38.6091 20.6648 35.8453 20.6648 32.436C20.6648 29.0267 18.0906 26.2629 14.9151 26.2629C11.7397 26.2629 9.16553 29.0267 9.16553 32.436C9.16553 35.8453 11.7397 38.6091 14.9151 38.6091Z" fill="#F2F2F2"/>
<path d="M54.956 24.6304H49.3687V25.8839H54.956V24.6304Z" fill="#3F3D56"/>
<path d="M61.7109 14.8708H42.6138V15.4081H61.7109V14.8708Z" fill="#3F3D56"/>
<path d="M61.7109 16.5723H42.6138V17.1095H61.7109V16.5723Z" fill="#3F3D56"/>
<path d="M61.7109 18.2734H42.6138V18.8107H61.7109V18.2734Z" fill="#3F3D56"/>
<path d="M61.7109 19.9746H42.6138V20.5118H61.7109V19.9746Z" fill="#3F3D56"/>
<path d="M61.7109 21.6758H42.6138V22.213H61.7109V21.6758Z" fill="#3F3D56"/>
<path d="M61.711 5.82788H59.376V8.33489H61.711V5.82788Z" fill="#F2F2F2"/>
<path d="M62.7946 9.49882H59.9592V6.45459H62.7946V9.49882ZM60.0825 9.36647H62.6713V6.58695H60.0825V9.36647Z" fill="#3F3D56"/>
<path d="M69.2997 40.6612H63.4621V40.2097C63.4621 40.1979 63.46 40.1863 63.4558 40.1754C63.4516 40.1645 63.4454 40.1547 63.4377 40.1463C63.43 40.138 63.4208 40.1314 63.4106 40.1269C63.4005 40.1224 63.3897 40.1201 63.3787 40.1201H61.3773C61.3663 40.1201 61.3555 40.1224 61.3454 40.1269C61.3353 40.1314 61.3261 40.138 61.3183 40.1463C61.3106 40.1547 61.3044 40.1645 61.3002 40.1754C61.296 40.1863 61.2939 40.1979 61.2939 40.2097V40.6612H60.043V40.2097C60.043 40.1979 60.0408 40.1863 60.0366 40.1754C60.0324 40.1645 60.0263 40.1547 60.0186 40.1463C60.0108 40.138 60.0016 40.1314 59.9915 40.1269C59.9814 40.1224 59.9705 40.1201 59.9596 40.1201H57.9581C57.9472 40.1201 57.9363 40.1224 57.9262 40.1269C57.9161 40.1314 57.9069 40.138 57.8992 40.1463C57.8914 40.1547 57.8853 40.1645 57.8811 40.1754C57.8769 40.1863 57.8747 40.1979 57.8747 40.2097V40.6612H56.6238V40.2097C56.6238 40.1979 56.6217 40.1863 56.6175 40.1754C56.6133 40.1645 56.6072 40.1547 56.5994 40.1463C56.5917 40.138 56.5825 40.1314 56.5724 40.1269C56.5622 40.1224 56.5514 40.1201 56.5404 40.1201H54.539C54.528 40.1201 54.5172 40.1224 54.5071 40.1269C54.497 40.1314 54.4878 40.138 54.48 40.1463C54.4723 40.1547 54.4661 40.1645 54.462 40.1754C54.4578 40.1863 54.4556 40.1979 54.4556 40.2097V40.6612H53.2047V40.2097C53.2047 40.1979 53.2025 40.1863 53.1983 40.1754C53.1942 40.1645 53.188 40.1547 53.1803 40.1463C53.1725 40.138 53.1633 40.1314 53.1532 40.1269C53.1431 40.1224 53.1323 40.1201 53.1213 40.1201H51.1198C51.1089 40.1201 51.098 40.1224 51.0879 40.1269C51.0778 40.1314 51.0686 40.138 51.0609 40.1463C51.0531 40.1547 51.047 40.1645 51.0428 40.1754C51.0386 40.1863 51.0365 40.1979 51.0365 40.2097V40.6612H49.7855V40.2097C49.7855 40.1979 49.7834 40.1863 49.7792 40.1754C49.775 40.1645 49.7689 40.1547 49.7611 40.1463C49.7534 40.138 49.7442 40.1314 49.7341 40.1269C49.7239 40.1224 49.7131 40.1201 49.7022 40.1201H47.7007C47.6897 40.1201 47.6789 40.1224 47.6688 40.1269C47.6587 40.1314 47.6495 40.138 47.6417 40.1463C47.634 40.1547 47.6278 40.1645 47.6237 40.1754C47.6195 40.1863 47.6173 40.1979 47.6173 40.2097V40.6612H46.3664V40.2097C46.3664 40.1979 46.3642 40.1863 46.3601 40.1754C46.3559 40.1645 46.3497 40.1547 46.342 40.1463C46.3342 40.138 46.325 40.1314 46.3149 40.1269C46.3048 40.1224 46.294 40.1201 46.283 40.1201H44.2816C44.2706 40.1201 44.2598 40.1224 44.2496 40.1269C44.2395 40.1314 44.2303 40.138 44.2226 40.1463C44.2148 40.1547 44.2087 40.1645 44.2045 40.1754C44.2003 40.1863 44.1982 40.1979 44.1982 40.2097V40.6612H42.9473V40.2097C42.9473 40.1979 42.9451 40.1863 42.9409 40.1754C42.9367 40.1645 42.9306 40.1547 42.9228 40.1463C42.9151 40.138 42.9059 40.1314 42.8958 40.1269C42.8857 40.1224 42.8748 40.1201 42.8639 40.1201H27.1858C27.1749 40.1201 27.164 40.1224 27.1539 40.1269C27.1438 40.1314 27.1346 40.138 27.1269 40.1463C27.1191 40.1547 27.113 40.1645 27.1088 40.1754C27.1046 40.1863 27.1024 40.1979 27.1024 40.2097V40.6612H25.8515V40.2097C25.8515 40.1979 25.8494 40.1863 25.8452 40.1754C25.841 40.1645 25.8348 40.1547 25.8271 40.1463C25.8194 40.138 25.8102 40.1314 25.8 40.1269C25.7899 40.1224 25.7791 40.1201 25.7681 40.1201H23.7667C23.7557 40.1201 23.7449 40.1224 23.7348 40.1269C23.7247 40.1314 23.7155 40.138 23.7077 40.1463C23.7 40.1547 23.6938 40.1645 23.6896 40.1754C23.6854 40.1863 23.6833 40.1979 23.6833 40.2097V40.6612H22.4324V40.2097C22.4324 40.1979 22.4302 40.1863 22.426 40.1754C22.4218 40.1645 22.4157 40.1547 22.408 40.1463C22.4002 40.138 22.391 40.1314 22.3809 40.1269C22.3708 40.1224 22.3599 40.1201 22.349 40.1201H20.3475C20.3366 40.1201 20.3257 40.1224 20.3156 40.1269C20.3055 40.1314 20.2963 40.138 20.2886 40.1463C20.2808 40.1547 20.2747 40.1645 20.2705 40.1754C20.2663 40.1863 20.2641 40.1979 20.2641 40.2097V40.6612H19.0132V40.2097C19.0132 40.1979 19.0111 40.1863 19.0069 40.1754C19.0027 40.1645 18.9966 40.1547 18.9888 40.1463C18.9811 40.138 18.9719 40.1314 18.9618 40.1269C18.9516 40.1224 18.9408 40.1201 18.9298 40.1201H16.9284C16.9174 40.1201 16.9066 40.1224 16.8965 40.1269C16.8864 40.1314 16.8772 40.138 16.8694 40.1463C16.8617 40.1547 16.8555 40.1645 16.8513 40.1754C16.8472 40.1863 16.845 40.1979 16.845 40.2097V40.6612H15.5941V40.2097C15.5941 40.1979 15.5919 40.1863 15.5877 40.1754C15.5836 40.1645 15.5774 40.1547 15.5697 40.1463C15.5619 40.138 15.5527 40.1314 15.5426 40.1269C15.5325 40.1224 15.5217 40.1201 15.5107 40.1201H13.5092C13.4983 40.1201 13.4875 40.1224 13.4773 40.1269C13.4672 40.1314 13.458 40.138 13.4503 40.1463C13.4425 40.1547 13.4364 40.1645 13.4322 40.1754C13.428 40.1863 13.4259 40.1979 13.4259 40.2097V40.6612H12.1749V40.2097C12.1749 40.1979 12.1728 40.1863 12.1686 40.1754C12.1644 40.1645 12.1583 40.1547 12.1505 40.1463C12.1428 40.138 12.1336 40.1314 12.1235 40.1269C12.1133 40.1224 12.1025 40.1201 12.0916 40.1201H10.0901C10.0792 40.1201 10.0683 40.1224 10.0582 40.1269C10.0481 40.1314 10.0389 40.138 10.0311 40.1463C10.0234 40.1547 10.0172 40.1645 10.0131 40.1754C10.0089 40.1863 10.0067 40.1979 10.0067 40.2097V40.6612H8.7558V40.2097C8.7558 40.1979 8.75365 40.1863 8.74946 40.1754C8.74527 40.1645 8.73912 40.1547 8.73138 40.1463C8.72363 40.138 8.71444 40.1314 8.70432 40.1269C8.69421 40.1224 8.68336 40.1201 8.67241 40.1201H6.67096C6.66001 40.1201 6.64916 40.1224 6.63904 40.1269C6.62893 40.1314 6.61973 40.138 6.61199 40.1463C6.60425 40.1547 6.5981 40.1645 6.59391 40.1754C6.58972 40.1863 6.58757 40.1979 6.58757 40.2097V40.6612H2.75145C2.22063 40.6612 1.71156 40.8876 1.33621 41.2906C0.960867 41.6936 0.750001 42.2402 0.75 42.8101V43.7818C0.750002 44.3517 0.960869 44.8982 1.33621 45.3012C1.71156 45.7042 2.22063 45.9306 2.75145 45.9306H69.2997C69.8305 45.9306 70.3396 45.7042 70.7149 45.3012C71.0903 44.8982 71.3011 44.3517 71.3011 43.7818V42.8101C71.3011 42.2402 71.0903 41.6936 70.7149 41.2906C70.3396 40.8876 69.8305 40.6612 69.2997 40.6612Z" fill="#3F3D56"/>
<path d="M16.3061 36.2916C14.873 36.2916 13.4721 35.8354 12.2806 34.9805C11.089 34.1257 10.1603 32.9107 9.61186 31.4892C9.06344 30.0677 8.91995 28.5035 9.19953 26.9944C9.47911 25.4854 10.1692 24.0992 11.1825 23.0112C12.1959 21.9232 13.487 21.1823 14.8925 20.8822C16.2981 20.582 17.7549 20.736 19.0789 21.3248C20.4029 21.9137 21.5346 22.9108 22.3308 24.1901C23.1269 25.4694 23.5519 26.9735 23.5519 28.5121C23.5497 30.5747 22.7856 32.5521 21.4272 34.0105C20.0689 35.4689 18.2271 36.2893 16.3061 36.2916ZM16.3061 20.9374C14.9107 20.9374 13.5467 21.3816 12.3865 22.214C11.2263 23.0463 10.322 24.2293 9.78802 25.6134C9.25404 26.9975 9.11432 28.5205 9.38655 29.9899C9.65877 31.4593 10.3307 32.809 11.3174 33.8683C12.3041 34.9276 13.5612 35.6491 14.9297 35.9413C16.2983 36.2336 17.7168 36.0836 19.006 35.5103C20.2951 34.937 21.397 33.9661 22.1722 32.7204C22.9474 31.4748 23.3612 30.0103 23.3612 28.5121C23.3591 26.5039 22.6151 24.5785 21.2925 23.1585C19.9698 21.7384 18.1766 20.9397 16.3061 20.9374Z" fill="#3F3D56"/>
<path d="M80.9467 3.33105H56.6353V3.53578H80.9467V3.33105Z" fill="#3F3D56"/>
<path d="M109.358 57.3779H39.4739V57.5827H109.358V57.3779Z" fill="#3F3D56"/>
<path d="M43.4304 66.7952H19.1189V66.9999H43.4304V66.7952Z" fill="#3F3D56"/>
<path d="M48.3248 56.2988H45.6553V59.165H48.3248V56.2988Z" fill="#4630AB"/>
<path d="M49.9456 57.5272H46.7041V54.0469H49.9456V57.5272ZM46.845 57.3759H49.8047V54.1982H46.845V57.3759Z" fill="#3F3D56"/>
<path d="M79.3101 2.25195H76.6406V5.11807H79.3101V2.25195Z" fill="#4630AB"/>
<path d="M80.9303 3.48029H77.6887V0H80.9303V3.48029ZM77.8297 3.32897H80.7893V0.151317H77.8297V3.32897Z" fill="#3F3D56"/>
<path d="M106.196 56.2988H103.526V59.165H106.196V56.2988Z" fill="#4630AB"/>
<path d="M107.816 57.5272H104.575V54.0469H107.816V57.5272ZM104.716 57.3759H107.676V54.1982H104.716V57.3759Z" fill="#3F3D56"/>
<path d="M101.54 23.7436H101.313V17.0736C101.313 16.5666 101.22 16.0646 101.04 15.5962C100.859 15.1279 100.594 14.7023 100.26 14.3438C99.9264 13.9854 99.53 13.701 99.0938 13.507C98.6575 13.313 98.19 13.2131 97.7178 13.2131H84.5558C84.0836 13.2131 83.6161 13.313 83.1798 13.507C82.7436 13.701 82.3472 13.9854 82.0133 14.3438C81.6795 14.7023 81.4146 15.1279 81.2339 15.5962C81.0532 16.0646 80.9602 16.5666 80.9602 17.0736V53.6659C80.9602 54.1729 81.0532 54.6749 81.2339 55.1432C81.4146 55.6116 81.6795 56.0372 82.0133 56.3956C82.3472 56.7541 82.7436 57.0385 83.1798 57.2325C83.6161 57.4265 84.0836 57.5263 84.5558 57.5263H97.7178C98.19 57.5263 98.6575 57.4265 99.0938 57.2325C99.53 57.0385 99.9264 56.7541 100.26 56.3956C100.594 56.0372 100.859 55.6116 101.04 55.1432C101.22 54.6749 101.313 54.1729 101.313 53.6659V28.4915H101.54V23.7436Z" fill="#3F3D56"/>
<path d="M100.548 17.3005V53.8394C100.548 54.604 100.265 55.3374 99.7615 55.8782C99.258 56.4189 98.575 56.7228 97.8629 56.7229H84.6374C83.9252 56.7228 83.2423 56.4189 82.7388 55.8782C82.2353 55.3374 81.9525 54.604 81.9526 53.8394V17.3005C81.9527 16.536 82.2356 15.8029 82.7391 15.2623C83.2425 14.7218 83.9254 14.4181 84.6374 14.418H86.242C86.163 14.6259 86.1329 14.8515 86.1542 15.0749C86.1756 15.2983 86.2478 15.5127 86.3645 15.6991C86.4812 15.8854 86.6388 16.0381 86.8235 16.1437C87.0081 16.2493 87.214 16.3045 87.4232 16.3045H94.9636C95.1728 16.3045 95.3787 16.2493 95.5633 16.1437C95.748 16.0381 95.9056 15.8854 96.0223 15.6991C96.139 15.5127 96.2112 15.2983 96.2326 15.0749C96.2539 14.8515 96.2238 14.6259 96.1448 14.418H97.8629C98.5749 14.4181 99.2577 14.7218 99.7612 15.2623C100.265 15.8029 100.548 16.536 100.548 17.3005Z" fill="#4630AB"/>
<path d="M93.2196 38.5103H89.2798V39.7638H93.2196V38.5103Z" fill="#3F3D56"/>
<path d="M97.9831 28.7507H84.5173V29.2879H97.9831V28.7507Z" fill="#3F3D56"/>
<path d="M97.9831 30.4519H84.5173V30.9891H97.9831V30.4519Z" fill="#3F3D56"/>
<path d="M97.9831 32.1531H84.5173V32.6903H97.9831V32.1531Z" fill="#3F3D56"/>
<path d="M97.9831 33.8542H84.5173V34.3915H97.9831V33.8542Z" fill="#3F3D56"/>
<path d="M97.9831 35.5554H84.5173V36.0926H97.9831V35.5554Z" fill="#3F3D56"/>
<path d="M91.7203 21.6165H89.3853V24.1235H91.7203V21.6165Z" fill="#F2F2F2"/>
<path d="M90.2798 22.2434V25.2876H93.1152V22.2434H90.2798ZM92.9922 25.1556H90.4028V22.3755H92.9922V25.1556Z" fill="#3F3D56"/>
<path opacity="0.1" d="M100.548 49.9374V53.8394C100.548 54.6041 100.265 55.3374 99.7615 55.8782C99.258 56.419 98.575 56.7228 97.8629 56.723H84.6374C83.9252 56.7228 83.2423 56.419 82.7388 55.8782C82.2353 55.3374 81.9525 54.6041 81.9526 53.8394V34.1646L93.0949 43.6156L93.2856 43.7773L95.3583 45.5349L95.5518 45.6997L100.548 49.9374Z" fill="black"/>
<path d="M90.1059 55.5389C92.4157 55.5389 94.2882 53.5285 94.2882 51.0485C94.2882 48.5685 92.4157 46.5581 90.1059 46.5581C87.7961 46.5581 85.9236 48.5685 85.9236 51.0485C85.9236 53.5285 87.7961 55.5389 90.1059 55.5389Z" fill="#F2F2F2"/>
<path d="M31.2752 67.0001C29.6347 67.0001 28.0311 66.4778 26.6671 65.4993C25.303 64.5207 24.2399 63.1299 23.6121 61.5026C22.9843 59.8754 22.82 58.0848 23.1401 56.3573C23.4601 54.6298 24.2501 53.043 25.4101 51.7976C26.5701 50.5521 28.0481 49.7039 29.6571 49.3603C31.266 49.0167 32.9338 49.1931 34.4494 49.8671C35.965 50.5411 37.2605 51.6826 38.1719 53.1471C39.0833 54.6116 39.5698 56.3333 39.5698 58.0947C39.5673 60.4557 38.6926 62.7193 37.1376 64.3888C35.5826 66.0583 33.4743 66.9974 31.2752 67.0001ZM31.2752 49.3939C29.6725 49.3939 28.1057 49.9042 26.773 50.8603C25.4403 51.8163 24.4016 53.1752 23.7883 54.765C23.1749 56.3549 23.0144 58.1043 23.3271 59.7921C23.6398 61.4799 24.4116 63.0302 25.545 64.247C26.6783 65.4638 28.1223 66.2925 29.6943 66.6282C31.2663 66.9639 32.8957 66.7916 34.3764 66.1331C35.8572 65.4745 37.1229 64.3594 38.0133 62.9285C38.9038 61.4977 39.3791 59.8155 39.3791 58.0947C39.3767 55.7879 38.5221 53.5763 37.0028 51.9452C35.4836 50.3141 33.4238 49.3965 31.2752 49.3939Z" fill="#3F3D56"/>
<path d="M91.3391 54.512C90.302 54.512 89.2882 54.1818 88.4259 53.5632C87.5636 52.9445 86.8915 52.0653 86.4946 51.0365C86.0977 50.0078 85.9939 48.8758 86.1962 47.7837C86.3985 46.6917 86.898 45.6885 87.6313 44.9012C88.3646 44.1138 89.299 43.5776 90.3161 43.3604C91.3333 43.1431 92.3876 43.2546 93.3458 43.6807C94.3039 44.1069 95.1229 44.8285 95.6991 45.7543C96.2752 46.6801 96.5828 47.7686 96.5828 48.8821C96.5812 50.3747 96.0282 51.8057 95.0452 52.8611C94.0622 53.9166 92.7293 54.5103 91.3391 54.512ZM91.3391 43.4569C90.3397 43.4569 89.3628 43.7751 88.5318 44.3712C87.7009 44.9674 87.0532 45.8146 86.6708 46.806C86.2883 47.7973 86.1883 48.8881 86.3832 49.9405C86.5782 50.9929 87.0594 51.9595 87.7661 52.7183C88.4728 53.477 89.3731 53.9937 90.3533 54.203C91.3335 54.4123 92.3495 54.3049 93.2728 53.8943C94.1961 53.4837 94.9853 52.7883 95.5405 51.8961C96.0957 51.004 96.3921 49.9551 96.3921 48.8821C96.3906 47.4437 95.8577 46.0648 94.9105 45.0477C93.9632 44.0306 92.6788 43.4585 91.3391 43.4569Z" fill="#3F3D56"/>
</g>
<defs>
<clipPath id="clip0_1116_1162">
<rect width="108.608" height="67" fill="white" transform="translate(0.75)"/>
</clipPath>
</defs>
</svg>
